<?xml version='1.0' encoding='ASCII' standalone='yes'?>
<svg xmlns:svg="http://www.w3.org/2000/svg" xmlns="http://www.w3.org/2000/svg" xmlns:xlink="http://www.w3.org/1999/xlink" version="1.1" width="297.0022mm" height="210.0072mm" viewBox="0.0000 0.0000 297.0022 210.0072">
<title>SVG Image created as LightPipe_PCB-B_Silkscreen.svg date 2023/10/26 21:40:50 </title>
  <desc>Image generated by PCBNEW </desc>
<g style="fill:#840084; fill-opacity:1.0000;stroke:#840084; stroke-opacity:1.0000; stroke-linecap:round; stroke-linejoin:round;" transform="translate(0 0) scale(1 1)">
</g>
<g style="fill:#840084; fill-opacity:0.0;  stroke:#840084; stroke-width:0.0000; stroke-opacity:1;  stroke-linecap:round; stroke-linejoin:round;">
</g>
<g style="fill:#840084; fill-opacity:0.01;  stroke:#840084; stroke-width:2.1995; stroke-opacity:1;  stroke-linecap:round; stroke-linejoin:round;">
<text x="149.4176" y="204.8971" textLength="17.6308" font-size="19.5510" lengthAdjust="spacingAndGlyphs" text-anchor="middle" opacity="0.01" style="font-family:monospace">1</text>
<g class="stroked-text"><desc>1</desc>
<path d="M153.6071 204.2346 L145.2280 204.2346 "/>
<path d="M149.4175 204.2346 L149.4175 189.5713 "/>
<path d="M149.4175 189.5713 L148.0210 191.6661 "/>
<path d="M148.0210 191.6661 L146.6245 193.0626 "/>
<path d="M146.6245 193.0626 L145.2280 193.7608 "/>
</g><text x="242.8959" y="19.7734" textLength="17.6308" font-size="19.5510" lengthAdjust="spacingAndGlyphs" text-anchor="middle" opacity="0.01" style="font-family:monospace">3</text>
<g class="stroked-text"><desc>3</desc>
<path d="M238.0081 4.4476 L247.0854 4.4476 "/>
<path d="M247.0854 4.4476 L242.1976 10.0336 "/>
<path d="M242.1976 10.0336 L244.2924 10.0336 "/>
<path d="M244.2924 10.0336 L245.6889 10.7318 "/>
<path d="M245.6889 10.7318 L246.3871 11.4301 "/>
<path d="M246.3871 11.4301 L247.0854 12.8266 "/>
<path d="M247.0854 12.8266 L247.0854 16.3178 "/>
<path d="M247.0854 16.3178 L246.3871 17.7143 "/>
<path d="M246.3871 17.7143 L245.6889 18.4126 "/>
<path d="M245.6889 18.4126 L244.2924 19.1109 "/>
<path d="M244.2924 19.1109 L240.1029 19.1109 "/>
<path d="M240.1029 19.1109 L238.7064 18.4126 "/>
<path d="M238.7064 18.4126 L238.0081 17.7143 "/>
</g><text x="54.1063" y="19.7734" textLength="17.6308" font-size="19.5510" lengthAdjust="spacingAndGlyphs" text-anchor="middle" opacity="0.01" style="font-family:monospace">2</text>
<g class="stroked-text"><desc>2</desc>
<path d="M49.9168 5.8441 L50.6151 5.1458 "/>
<path d="M50.6151 5.1458 L52.0116 4.4476 "/>
<path d="M52.0116 4.4476 L55.5028 4.4476 "/>
<path d="M55.5028 4.4476 L56.8993 5.1458 "/>
<path d="M56.8993 5.1458 L57.5976 5.8441 "/>
<path d="M57.5976 5.8441 L58.2958 7.2406 "/>
<path d="M58.2958 7.2406 L58.2958 8.6371 "/>
<path d="M58.2958 8.6371 L57.5976 10.7318 "/>
<path d="M57.5976 10.7318 L49.2186 19.1109 "/>
<path d="M49.2186 19.1109 L58.2958 19.1109 "/>
</g></g>
<g style="fill:#840084; fill-opacity:0.01;  stroke:#840084; stroke-width:1.0997; stroke-opacity:1;  stroke-linecap:round; stroke-linejoin:round;">
<g transform="rotate(60.000000 259.3921 49.0999)">
<text x="259.3921" y="52.7657" transform="scale(-1 1) translate(-518.784138 0)" textLength="22.0822" font-size="9.7755" lengthAdjust="spacingAndGlyphs" text-anchor="middle" opacity="0.01" style="font-family:monospace">LD1</text>
</g>
<g class="stroked-text"><desc>LD1</desc>
<path d="M258.9481 55.0001 L260.6937 58.0236 "/>
<path d="M260.6937 58.0236 L267.0431 54.3578 "/>
<path d="M257.7262 52.8836 L264.0756 49.2178 "/>
<path d="M264.0756 49.2178 L263.2028 47.7060 "/>
<path d="M263.2028 47.7060 L262.3767 46.9736 "/>
<path d="M262.3767 46.9736 L261.4229 46.7180 "/>
<path d="M261.4229 46.7180 L260.6436 46.7648 "/>
<path d="M260.6436 46.7648 L259.2596 47.1607 "/>
<path d="M259.2596 47.1607 L258.3526 47.6843 "/>
<path d="M258.3526 47.6843 L257.3178 48.6849 "/>
<path d="M257.3178 48.6849 L256.8876 49.3364 "/>
<path d="M256.8876 49.3364 L256.6320 50.2903 "/>
<path d="M256.6320 50.2903 L256.8534 51.3719 "/>
<path d="M256.8534 51.3719 L257.7262 52.8836 "/>
<path d="M252.1402 43.2084 L254.2349 46.8366 "/>
<path d="M253.1875 45.0225 L259.5369 41.3567 "/>
<path d="M259.5369 41.3567 L258.9790 42.4851 "/>
<path d="M258.9790 42.4851 L258.7234 43.4389 "/>
<path d="M258.7234 43.4389 L258.7702 44.2182 "/>
</g><g transform="rotate(-60.000000 255.7873 79.3123)">
<text x="255.7873" y="82.9782" transform="scale(-1 1) translate(-511.574649 0)" textLength="26.2717" font-size="9.7755" lengthAdjust="spacingAndGlyphs" text-anchor="middle" opacity="0.01" style="font-family:monospace">X5.1</text>
</g>
<g class="stroked-text"><desc>X5.1</desc>
<path d="M257.9118 67.6386 L261.8173 75.5373 "/>
<path d="M255.4679 71.8715 L264.2611 71.3044 "/>
<path d="M252.3258 77.3138 L254.0714 74.2903 "/>
<path d="M254.0714 74.2903 L257.2695 75.7336 "/>
<path d="M257.2695 75.7336 L256.7926 75.8614 "/>
<path d="M256.7926 75.8614 L256.1411 76.2915 "/>
<path d="M256.1411 76.2915 L255.2683 77.8033 "/>
<path d="M255.2683 77.8033 L255.2215 78.5825 "/>
<path d="M255.2215 78.5825 L255.3493 79.0594 "/>
<path d="M255.3493 79.0594 L255.7794 79.7109 "/>
<path d="M255.7794 79.7109 L257.2912 80.5837 "/>
<path d="M257.2912 80.5837 L258.0704 80.6305 "/>
<path d="M258.0704 80.6305 L258.5473 80.5027 "/>
<path d="M258.5473 80.5027 L259.1988 80.0726 "/>
<path d="M259.1988 80.0726 L260.0716 78.5608 "/>
<path d="M260.0716 78.5608 L260.1184 77.7815 "/>
<path d="M260.1184 77.7815 L259.9906 77.3046 "/>
<path d="M256.3248 83.6540 L256.4526 84.1309 "/>
<path d="M256.4526 84.1309 L256.9295 84.0031 "/>
<path d="M256.9295 84.0031 L256.8017 83.5262 "/>
<path d="M256.8017 83.5262 L256.3248 83.6540 "/>
<path d="M256.3248 83.6540 L256.9295 84.0031 "/>
<path d="M253.2637 90.3525 L255.3584 86.7243 "/>
<path d="M254.3111 88.5384 L247.9617 84.8726 "/>
<path d="M247.9617 84.8726 L249.2179 84.7916 "/>
<path d="M249.2179 84.7916 L250.1717 84.5360 "/>
<path d="M250.1717 84.5360 L250.8232 84.1059 "/>
</g><text x="114.5923" y="182.9022" transform="scale(-1 1) translate(-229.184585 0)" textLength="22.0822" font-size="9.7755" lengthAdjust="spacingAndGlyphs" text-anchor="middle" opacity="0.01" style="font-family:monospace">LD3</text>
<g class="stroked-text"><desc>LD3</desc>
<path d="M119.4800 182.5710 L122.9713 182.5710 "/>
<path d="M122.9713 182.5710 L122.9713 175.2393 "/>
<path d="M117.0362 182.5710 L117.0362 175.2393 "/>
<path d="M117.0362 175.2393 L115.2905 175.2393 "/>
<path d="M115.2905 175.2393 L114.2432 175.5885 "/>
<path d="M114.2432 175.5885 L113.5449 176.2867 "/>
<path d="M113.5449 176.2867 L113.1958 176.9850 "/>
<path d="M113.1958 176.9850 L112.8467 178.3815 "/>
<path d="M112.8467 178.3815 L112.8467 179.4288 "/>
<path d="M112.8467 179.4288 L113.1958 180.8253 "/>
<path d="M113.1958 180.8253 L113.5449 181.5236 "/>
<path d="M113.5449 181.5236 L114.2432 182.2218 "/>
<path d="M114.2432 182.2218 L115.2905 182.5710 "/>
<path d="M115.2905 182.5710 L117.0362 182.5710 "/>
<path d="M110.4028 175.2393 L105.8642 175.2393 "/>
<path d="M105.8642 175.2393 L108.3080 178.0323 "/>
<path d="M108.3080 178.0323 L107.2607 178.0323 "/>
<path d="M107.2607 178.0323 L106.5624 178.3815 "/>
<path d="M106.5624 178.3815 L106.2133 178.7306 "/>
<path d="M106.2133 178.7306 L105.8642 179.4288 "/>
<path d="M105.8642 179.4288 L105.8642 181.1745 "/>
<path d="M105.8642 181.1745 L106.2133 181.8727 "/>
<path d="M106.2133 181.8727 L106.5624 182.2218 "/>
<path d="M106.5624 182.2218 L107.2607 182.5710 "/>
<path d="M107.2607 182.5710 L109.3554 182.5710 "/>
<path d="M109.3554 182.5710 L110.0537 182.2218 "/>
<path d="M110.0537 182.2218 L110.4028 181.8727 "/>
</g><g transform="rotate(-330.000000 191.3620 129.3145)">
<text x="191.3620" y="132.2472" transform="scale(-1 1) translate(-382.724021 0)" textLength="21.6772" font-size="7.8204" lengthAdjust="spacingAndGlyphs" text-anchor="middle" opacity="0.01" style="font-family:monospace">X4.1</text>
</g>
<g class="stroked-text"><desc>X4.1</desc>
<path d="M200.7068 131.0042 L194.3878 134.1286 "/>
<path d="M197.3204 129.0491 L197.7741 136.0837 "/>
<path d="M192.2309 128.3682 L190.2758 131.7545 "/>
<path d="M194.5575 127.1314 L193.6721 131.4579 "/>
<path d="M193.6721 131.4579 L190.5277 129.6424 "/>
<path d="M187.8944 129.7346 L187.5129 129.8368 "/>
<path d="M187.5129 129.8368 L187.6151 130.2184 "/>
<path d="M187.6151 130.2184 L187.9966 130.1161 "/>
<path d="M187.9966 130.1161 L187.8944 129.7346 "/>
<path d="M187.8944 129.7346 L187.6151 130.2184 "/>
<path d="M182.5356 127.2857 L185.4382 128.9615 "/>
<path d="M183.9869 128.1236 L186.9195 123.0441 "/>
<path d="M186.9195 123.0441 L186.9843 124.0491 "/>
<path d="M186.9843 124.0491 L187.1888 124.8121 "/>
<path d="M187.1888 124.8121 L187.5329 125.3333 "/>
</g><g transform="rotate(-60.000000 208.1317 161.8543)">
<text x="208.1317" y="165.5201" transform="scale(-1 1) translate(-416.263403 0)" textLength="26.2717" font-size="9.7755" lengthAdjust="spacingAndGlyphs" text-anchor="middle" opacity="0.01" style="font-family:monospace">X5.2</text>
</g>
<g class="stroked-text"><desc>X5.2</desc>
<path d="M210.2561 150.1805 L214.1616 158.0793 "/>
<path d="M207.8123 154.4134 L216.6055 153.8463 "/>
<path d="M204.6701 159.8558 L206.4158 156.8323 "/>
<path d="M206.4158 156.8323 L209.6138 158.2755 "/>
<path d="M209.6138 158.2755 L209.1369 158.4033 "/>
<path d="M209.1369 158.4033 L208.4854 158.8335 "/>
<path d="M208.4854 158.8335 L207.6126 160.3452 "/>
<path d="M207.6126 160.3452 L207.5659 161.1245 "/>
<path d="M207.5659 161.1245 L207.6937 161.6014 "/>
<path d="M207.6937 161.6014 L208.1238 162.2529 "/>
<path d="M208.1238 162.2529 L209.6355 163.1257 "/>
<path d="M209.6355 163.1257 L210.4148 163.1725 "/>
<path d="M210.4148 163.1725 L210.8917 163.0447 "/>
<path d="M210.8917 163.0447 L211.5432 162.6145 "/>
<path d="M211.5432 162.6145 L212.4160 161.1028 "/>
<path d="M212.4160 161.1028 L212.4628 160.3235 "/>
<path d="M212.4628 160.3235 L212.3350 159.8466 "/>
<path d="M208.6692 166.1960 L208.7970 166.6729 "/>
<path d="M208.7970 166.6729 L209.2739 166.5451 "/>
<path d="M209.2739 166.5451 L209.1461 166.0682 "/>
<path d="M209.1461 166.0682 L208.6692 166.1960 "/>
<path d="M208.6692 166.1960 L209.2739 166.5451 "/>
<path d="M201.9581 165.9496 L201.4812 166.0774 "/>
<path d="M201.4812 166.0774 L200.8298 166.5075 "/>
<path d="M200.8298 166.5075 L199.9569 168.0193 "/>
<path d="M199.9569 168.0193 L199.9102 168.7985 "/>
<path d="M199.9102 168.7985 L200.0380 169.2754 "/>
<path d="M200.0380 169.2754 L200.4681 169.9269 "/>
<path d="M200.4681 169.9269 L201.0728 170.2760 "/>
<path d="M201.0728 170.2760 L202.1544 170.4974 "/>
<path d="M202.1544 170.4974 L207.8774 168.9639 "/>
<path d="M207.8774 168.9639 L205.6081 172.8945 "/>
</g><g transform="rotate(-330.000000 218.8556 81.6942)">
<text x="218.8556" y="84.6268" transform="scale(-1 1) translate(-437.711278 0)" textLength="21.6772" font-size="7.8204" lengthAdjust="spacingAndGlyphs" text-anchor="middle" opacity="0.01" style="font-family:monospace">X4.2</text>
</g>
<g class="stroked-text"><desc>X4.2</desc>
<path d="M228.2004 83.3838 L221.8814 86.5082 "/>
<path d="M224.8140 81.4287 L225.2677 88.4633 "/>
<path d="M219.7245 80.7478 L217.7694 84.1342 "/>
<path d="M222.0511 79.5110 L221.1658 83.8375 "/>
<path d="M221.1658 83.8375 L218.0213 82.0221 "/>
<path d="M215.3880 82.1143 L215.0065 82.2165 "/>
<path d="M215.0065 82.2165 L215.1087 82.5980 "/>
<path d="M215.1087 82.5980 L215.4902 82.4958 "/>
<path d="M215.4902 82.4958 L215.3880 82.1143 "/>
<path d="M215.3880 82.1143 L215.1087 82.5980 "/>
<path d="M215.5851 76.7454 L215.4829 76.3639 "/>
<path d="M215.4829 76.3639 L215.1388 75.8427 "/>
<path d="M215.1388 75.8427 L213.9294 75.1445 "/>
<path d="M213.9294 75.1445 L213.3060 75.1070 "/>
<path d="M213.3060 75.1070 L212.9244 75.2093 "/>
<path d="M212.9244 75.2093 L212.4033 75.5534 "/>
<path d="M212.4033 75.5534 L212.1240 76.0371 "/>
<path d="M212.1240 76.0371 L211.9469 76.9024 "/>
<path d="M211.9469 76.9024 L213.1737 81.4808 "/>
<path d="M213.1737 81.4808 L210.0292 79.6654 "/>
</g><g transform="rotate(-60.000000 41.2759 49.0999)">
<text x="41.2759" y="52.7657" transform="scale(-1 1) translate(-82.551900 0)" textLength="22.0822" font-size="9.7755" lengthAdjust="spacingAndGlyphs" text-anchor="middle" opacity="0.01" style="font-family:monospace">LD2</text>
</g>
<g class="stroked-text"><desc>LD2</desc>
<path d="M46.6076 46.5342 L48.3533 43.5107 "/>
<path d="M48.3533 43.5107 L42.0039 39.8449 "/>
<path d="M45.3857 48.6507 L39.0363 44.9849 "/>
<path d="M39.0363 44.9849 L38.1635 46.4966 "/>
<path d="M38.1635 46.4966 L37.9422 47.5783 "/>
<path d="M37.9422 47.5783 L38.1977 48.5321 "/>
<path d="M38.1977 48.5321 L38.6279 49.1836 "/>
<path d="M38.6279 49.1836 L39.6627 50.1842 "/>
<path d="M39.6627 50.1842 L40.5698 50.7079 "/>
<path d="M40.5698 50.7079 L41.9538 51.1038 "/>
<path d="M41.9538 51.1038 L42.7330 51.1505 "/>
<path d="M42.7330 51.1505 L43.6868 50.8950 "/>
<path d="M43.6868 50.8950 L44.5129 50.1625 "/>
<path d="M44.5129 50.1625 L45.3857 48.6507 "/>
<path d="M36.1498 51.3810 L35.6729 51.5088 "/>
<path d="M35.6729 51.5088 L35.0214 51.9390 "/>
<path d="M35.0214 51.9390 L34.1486 53.4507 "/>
<path d="M34.1486 53.4507 L34.1018 54.2300 "/>
<path d="M34.1018 54.2300 L34.2296 54.7069 "/>
<path d="M34.2296 54.7069 L34.6597 55.3584 "/>
<path d="M34.6597 55.3584 L35.2644 55.7075 "/>
<path d="M35.2644 55.7075 L36.3460 55.9289 "/>
<path d="M36.3460 55.9289 L42.0690 54.3954 "/>
<path d="M42.0690 54.3954 L39.7997 58.3260 "/>
</g></g>
<g style="fill:#840084; fill-opacity:0.0;  stroke:#840084; stroke-width:1.4663; stroke-opacity:1;  stroke-linecap:round; stroke-linejoin:round;">
<path d="M236.1761 73.6327 L255.8592 62.2686 "/>
<path d="M203.6152 -9.1584 L192.1863 -2.5599 "/>
<path d="M203.6152 -9.1584 L216.6350 -5.6698 "/>
<path d="M255.8592 62.2686 L216.6350 -5.6698 "/>
<path d="M105.4277 147.7104 L105.4277 170.4384 "/>
<path d="M193.4074 160.9073 L193.4074 147.7104 "/>
<path d="M193.4074 160.9073 L183.8762 170.4384 "/>
<path d="M105.4277 170.4384 L183.8762 170.4384 "/>
<path d="M62.0240 73.2661 L42.3409 61.9020 "/>
<path d="M95.2199 -9.1584 L106.0138 -2.9265 "/>
<path d="M95.2199 -9.1584 L81.1986 -5.4014 "/>
<path d="M42.3409 61.9020 L81.1986 -5.4014 "/>
<g>
</g>
<g>
</g>
<g>
</g>
<g>
</g>
<g>
</g>
<g>
</g>
<g>
</g>
<g>
</g>
<g>
</g>
<g>
</g>
<g>
</g>
<g>
</g>
<g>
</g>
<g>
</g>
<g>
</g>
<g>
</g>
<g>
</g>
</g> 
<svg:g><svg:g><svg:title>SVG Image created as LightPipe_PCB-B_Fab.svg date 2023/10/26 21:40:50 </svg:title>
  <svg:desc>Image generated by PCBNEW </svg:desc>
<svg:g style="fill:#000084; fill-opacity:1.0000;stroke:#000084; stroke-opacity:1.0000; stroke-linecap:round; stroke-linejoin:round;" transform="translate(0 0) scale(1 1)">
</svg:g>
<svg:g style="fill:#000084; fill-opacity:0.0;  stroke:#000084; stroke-width:0.0000; stroke-opacity:1;  stroke-linecap:round; stroke-linejoin:round;">
</svg:g>
<svg:g style="fill:#000084; fill-opacity:0.01;  stroke:#000084; stroke-width:1.0997; stroke-opacity:1;  stroke-linecap:round; stroke-linejoin:round;">
<svg:g transform="rotate(60.000000 204.4048 41.7683)">
<svg:text x="204.4048" y="45.4341" transform="scale(-1 1) translate(-408.809624 0)" textLength="42.6806" font-size="9.7755" lengthAdjust="spacingAndGlyphs" text-anchor="middle" opacity="0.01" style="font-family:monospace">APA102</svg:text>
</svg:g>
<svg:g class="stroked-text"><svg:desc>APA102</svg:desc>
<svg:path d="M212.8448 58.8663 L211.0991 55.8428 "/>
<svg:path d="M211.3798 60.5184 L216.5072 54.7361 "/>
<svg:path d="M216.5072 54.7361 L208.9359 56.2855 "/>
<svg:path d="M207.7140 54.1690 L214.0633 50.5032 "/>
<svg:path d="M214.0633 50.5032 L212.6668 48.0844 "/>
<svg:path d="M212.6668 48.0844 L212.0154 47.6542 "/>
<svg:path d="M212.0154 47.6542 L211.5385 47.5265 "/>
<svg:path d="M211.5385 47.5265 L210.7592 47.5732 "/>
<svg:path d="M210.7592 47.5732 L209.8521 48.0969 "/>
<svg:path d="M209.8521 48.0969 L209.4220 48.7484 "/>
<svg:path d="M209.4220 48.7484 L209.2942 49.2253 "/>
<svg:path d="M209.2942 49.2253 L209.3410 50.0046 "/>
<svg:path d="M209.3410 50.0046 L210.7375 52.4234 "/>
<svg:path d="M206.0368 47.0746 L204.2912 44.0511 "/>
<svg:path d="M204.5718 48.7267 L209.6993 42.9444 "/>
<svg:path d="M209.6993 42.9444 L202.1280 44.4938 "/>
<svg:path d="M198.9858 39.0514 L201.0806 42.6796 "/>
<svg:path d="M200.0332 40.8655 L206.3826 37.1997 "/>
<svg:path d="M206.3826 37.1997 L205.8247 38.3281 "/>
<svg:path d="M205.8247 38.3281 L205.5691 39.2819 "/>
<svg:path d="M205.5691 39.2819 L205.6159 40.0612 "/>
<svg:path d="M203.0659 31.4550 L202.7168 30.8503 "/>
<svg:path d="M202.7168 30.8503 L202.0653 30.4202 "/>
<svg:path d="M202.0653 30.4202 L201.5884 30.2924 "/>
<svg:path d="M201.5884 30.2924 L200.8091 30.3392 "/>
<svg:path d="M200.8091 30.3392 L199.4251 30.7351 "/>
<svg:path d="M199.4251 30.7351 L197.9134 31.6079 "/>
<svg:path d="M197.9134 31.6079 L196.8785 32.6085 "/>
<svg:path d="M196.8785 32.6085 L196.4484 33.2600 "/>
<svg:path d="M196.4484 33.2600 L196.3206 33.7369 "/>
<svg:path d="M196.3206 33.7369 L196.3674 34.5162 "/>
<svg:path d="M196.3674 34.5162 L196.7165 35.1209 "/>
<svg:path d="M196.7165 35.1209 L197.3680 35.5510 "/>
<svg:path d="M197.3680 35.5510 L197.8449 35.6788 "/>
<svg:path d="M197.8449 35.6788 L198.6242 35.6320 "/>
<svg:path d="M198.6242 35.6320 L200.0081 35.2361 "/>
<svg:path d="M200.0081 35.2361 L201.5199 34.3633 "/>
<svg:path d="M201.5199 34.3633 L202.5547 33.3627 "/>
<svg:path d="M202.5547 33.3627 L202.9849 32.7112 "/>
<svg:path d="M202.9849 32.7112 L203.1127 32.2343 "/>
<svg:path d="M203.1127 32.2343 L203.0659 31.4550 "/>
<svg:path d="M199.8427 27.2689 L199.9705 26.7920 "/>
<svg:path d="M199.9705 26.7920 L199.9238 26.0127 "/>
<svg:path d="M199.9238 26.0127 L199.0510 24.5010 "/>
<svg:path d="M199.0510 24.5010 L198.3995 24.0708 "/>
<svg:path d="M198.3995 24.0708 L197.9226 23.9430 "/>
<svg:path d="M197.9226 23.9430 L197.1433 23.9898 "/>
<svg:path d="M197.1433 23.9898 L196.5386 24.3389 "/>
<svg:path d="M196.5386 24.3389 L195.8061 25.1650 "/>
<svg:path d="M195.8061 25.1650 L194.2726 30.8879 "/>
<svg:path d="M194.2726 30.8879 L192.0033 26.9574 "/>
</svg:g><svg:g transform="rotate(-60.000000 280.5499 93.6090)">
<svg:text x="280.5499" y="97.2748" transform="scale(-1 1) translate(-561.099823 0)" textLength="78.6405" font-size="9.7755" lengthAdjust="spacingAndGlyphs" text-anchor="middle" opacity="0.01" style="font-family:monospace">Cable-1.5mm</svg:text>
</svg:g>
<svg:g class="stroked-text"><svg:desc>Cable-1.5mm</svg:desc>
<svg:path d="M299.0674 66.8085 L299.5443 66.6807 "/>
<svg:path d="M299.5443 66.6807 L300.3703 65.9482 "/>
<svg:path d="M300.3703 65.9482 L300.7194 65.3435 "/>
<svg:path d="M300.7194 65.3435 L300.9408 64.2619 "/>
<svg:path d="M300.9408 64.2619 L300.6852 63.3081 "/>
<svg:path d="M300.6852 63.3081 L300.2551 62.6566 "/>
<svg:path d="M300.2551 62.6566 L299.2202 61.6560 "/>
<svg:path d="M299.2202 61.6560 L298.3132 61.1323 "/>
<svg:path d="M298.3132 61.1323 L296.9292 60.7364 "/>
<svg:path d="M296.9292 60.7364 L296.1499 60.6896 "/>
<svg:path d="M296.1499 60.6896 L295.1961 60.9452 "/>
<svg:path d="M295.1961 60.9452 L294.3701 61.6777 "/>
<svg:path d="M294.3701 61.6777 L294.0209 62.2824 "/>
<svg:path d="M294.0209 62.2824 L293.7996 63.3640 "/>
<svg:path d="M293.7996 63.3640 L293.9274 63.8409 "/>
<svg:path d="M296.5299 72.5999 L293.2041 70.6798 "/>
<svg:path d="M293.2041 70.6798 L292.7739 70.0283 "/>
<svg:path d="M292.7739 70.0283 L292.8207 69.2490 "/>
<svg:path d="M292.8207 69.2490 L293.5189 68.0396 "/>
<svg:path d="M293.5189 68.0396 L294.1704 67.6095 "/>
<svg:path d="M296.2276 72.4254 L296.8791 71.9952 "/>
<svg:path d="M296.8791 71.9952 L297.7519 70.4835 "/>
<svg:path d="M297.7519 70.4835 L297.7986 69.7042 "/>
<svg:path d="M297.7986 69.7042 L297.3685 69.0527 "/>
<svg:path d="M297.3685 69.0527 L296.7638 68.7036 "/>
<svg:path d="M296.7638 68.7036 L295.9845 68.6568 "/>
<svg:path d="M295.9845 68.6568 L295.3331 69.0870 "/>
<svg:path d="M295.3331 69.0870 L294.4602 70.5987 "/>
<svg:path d="M294.4602 70.5987 L293.8088 71.0289 "/>
<svg:path d="M294.7843 75.6235 L288.4349 71.9576 "/>
<svg:path d="M290.8537 73.3542 L290.2023 73.7843 "/>
<svg:path d="M290.2023 73.7843 L289.5040 74.9937 "/>
<svg:path d="M289.5040 74.9937 L289.4572 75.7730 "/>
<svg:path d="M289.4572 75.7730 L289.5850 76.2499 "/>
<svg:path d="M289.5850 76.2499 L290.0152 76.9014 "/>
<svg:path d="M290.0152 76.9014 L291.8293 77.9487 "/>
<svg:path d="M291.8293 77.9487 L292.6085 77.9955 "/>
<svg:path d="M292.6085 77.9955 L293.0855 77.8677 "/>
<svg:path d="M293.0855 77.8677 L293.7369 77.4376 "/>
<svg:path d="M293.7369 77.4376 L294.4352 76.2282 "/>
<svg:path d="M294.4352 76.2282 L294.4820 75.4489 "/>
<svg:path d="M290.9439 82.2752 L290.9907 81.4959 "/>
<svg:path d="M290.9907 81.4959 L290.5606 80.8445 "/>
<svg:path d="M290.5606 80.8445 L285.1182 77.7023 "/>
<svg:path d="M287.8486 86.9383 L288.5000 86.5081 "/>
<svg:path d="M288.5000 86.5081 L289.1983 85.2987 "/>
<svg:path d="M289.1983 85.2987 L289.2451 84.5195 "/>
<svg:path d="M289.2451 84.5195 L288.8149 83.8680 "/>
<svg:path d="M288.8149 83.8680 L286.3961 82.4715 "/>
<svg:path d="M286.3961 82.4715 L285.6168 82.4247 "/>
<svg:path d="M285.6168 82.4247 L284.9654 82.8548 "/>
<svg:path d="M284.9654 82.8548 L284.2671 84.0642 "/>
<svg:path d="M284.2671 84.0642 L284.2203 84.8435 "/>
<svg:path d="M284.2203 84.8435 L284.6505 85.4950 "/>
<svg:path d="M284.6505 85.4950 L285.2552 85.8441 "/>
<svg:path d="M285.2552 85.8441 L287.6055 83.1697 "/>
<svg:path d="M283.9865 88.7398 L281.1935 93.5775 "/>
<svg:path d="M279.9465 101.3233 L282.0412 97.6951 "/>
<svg:path d="M280.9938 99.5092 L274.6445 95.8434 "/>
<svg:path d="M274.6445 95.8434 L275.9006 95.7624 "/>
<svg:path d="M275.9006 95.7624 L276.8545 95.5068 "/>
<svg:path d="M276.8545 95.5068 L277.5059 95.0767 "/>
<svg:path d="M277.7707 103.6954 L277.8985 104.1723 "/>
<svg:path d="M277.8985 104.1723 L278.3754 104.0445 "/>
<svg:path d="M278.3754 104.0445 L278.2476 103.5676 "/>
<svg:path d="M278.2476 103.5676 L277.7707 103.6954 "/>
<svg:path d="M277.7707 103.6954 L278.3754 104.0445 "/>
<svg:path d="M268.5348 106.4257 L270.2804 103.4022 "/>
<svg:path d="M270.2804 103.4022 L273.4785 104.8455 "/>
<svg:path d="M273.4785 104.8455 L273.0016 104.9733 "/>
<svg:path d="M273.0016 104.9733 L272.3501 105.4034 "/>
<svg:path d="M272.3501 105.4034 L271.4773 106.9152 "/>
<svg:path d="M271.4773 106.9152 L271.4305 107.6944 "/>
<svg:path d="M271.4305 107.6944 L271.5583 108.1713 "/>
<svg:path d="M271.5583 108.1713 L271.9884 108.8228 "/>
<svg:path d="M271.9884 108.8228 L273.5002 109.6956 "/>
<svg:path d="M273.5002 109.6956 L274.2795 109.7424 "/>
<svg:path d="M274.2795 109.7424 L274.7564 109.6146 "/>
<svg:path d="M274.7564 109.6146 L275.4078 109.1845 "/>
<svg:path d="M275.4078 109.1845 L276.2807 107.6727 "/>
<svg:path d="M276.2807 107.6727 L276.3274 106.8935 "/>
<svg:path d="M276.3274 106.8935 L276.1996 106.4165 "/>
<svg:path d="M273.1385 113.1150 L268.9056 110.6712 "/>
<svg:path d="M269.5103 111.0203 L269.0334 111.1481 "/>
<svg:path d="M269.0334 111.1481 L268.3819 111.5782 "/>
<svg:path d="M268.3819 111.5782 L267.8582 112.4853 "/>
<svg:path d="M267.8582 112.4853 L267.8115 113.2645 "/>
<svg:path d="M267.8115 113.2645 L268.2416 113.9160 "/>
<svg:path d="M268.2416 113.9160 L271.5675 115.8362 "/>
<svg:path d="M268.2416 113.9160 L267.4623 113.8693 "/>
<svg:path d="M267.4623 113.8693 L266.8109 114.2994 "/>
<svg:path d="M266.8109 114.2994 L266.2872 115.2064 "/>
<svg:path d="M266.2872 115.2064 L266.2404 115.9857 "/>
<svg:path d="M266.2404 115.9857 L266.6705 116.6372 "/>
<svg:path d="M266.6705 116.6372 L269.9964 118.5574 "/>
<svg:path d="M268.2508 121.5809 L264.0178 119.1370 "/>
<svg:path d="M264.6226 119.4861 L264.1456 119.6139 "/>
<svg:path d="M264.1456 119.6139 L263.4942 120.0441 "/>
<svg:path d="M263.4942 120.0441 L262.9705 120.9511 "/>
<svg:path d="M262.9705 120.9511 L262.9237 121.7304 "/>
<svg:path d="M262.9237 121.7304 L263.3538 122.3819 "/>
<svg:path d="M263.3538 122.3819 L266.6797 124.3021 "/>
<svg:path d="M263.3538 122.3819 L262.5746 122.3351 "/>
<svg:path d="M262.5746 122.3351 L261.9231 122.7652 "/>
<svg:path d="M261.9231 122.7652 L261.3994 123.6723 "/>
<svg:path d="M261.3994 123.6723 L261.3526 124.4516 "/>
<svg:path d="M261.3526 124.4516 L261.7828 125.1030 "/>
<svg:path d="M261.7828 125.1030 L265.1086 127.0232 "/>
</svg:g><svg:text x="149.4176" y="138.9124" transform="scale(-1 1) translate(-298.835110 0)" textLength="42.6806" font-size="9.7755" lengthAdjust="spacingAndGlyphs" text-anchor="middle" opacity="0.01" style="font-family:monospace">APA102</svg:text>
<svg:g class="stroked-text"><svg:desc>APA102</svg:desc>
<svg:path d="M168.4449 136.4864 L164.9536 136.4864 "/>
<svg:path d="M169.1431 138.5812 L166.6993 131.2495 "/>
<svg:path d="M166.6993 131.2495 L164.2554 138.5812 "/>
<svg:path d="M161.8115 138.5812 L161.8115 131.2495 "/>
<svg:path d="M161.8115 131.2495 L159.0185 131.2495 "/>
<svg:path d="M159.0185 131.2495 L158.3202 131.5986 "/>
<svg:path d="M158.3202 131.5986 L157.9711 131.9478 "/>
<svg:path d="M157.9711 131.9478 L157.6220 132.6460 "/>
<svg:path d="M157.6220 132.6460 L157.6220 133.6934 "/>
<svg:path d="M157.6220 133.6934 L157.9711 134.3916 "/>
<svg:path d="M157.9711 134.3916 L158.3202 134.7408 "/>
<svg:path d="M158.3202 134.7408 L159.0185 135.0899 "/>
<svg:path d="M159.0185 135.0899 L161.8115 135.0899 "/>
<svg:path d="M154.8290 136.4864 L151.3377 136.4864 "/>
<svg:path d="M155.5272 138.5812 L153.0834 131.2495 "/>
<svg:path d="M153.0834 131.2495 L150.6395 138.5812 "/>
<svg:path d="M144.3552 138.5812 L148.5447 138.5812 "/>
<svg:path d="M146.4500 138.5812 L146.4500 131.2495 "/>
<svg:path d="M146.4500 131.2495 L147.1482 132.2969 "/>
<svg:path d="M147.1482 132.2969 L147.8465 132.9951 "/>
<svg:path d="M147.8465 132.9951 L148.5447 133.3443 "/>
<svg:path d="M139.8166 131.2495 L139.1183 131.2495 "/>
<svg:path d="M139.1183 131.2495 L138.4201 131.5986 "/>
<svg:path d="M138.4201 131.5986 L138.0710 131.9478 "/>
<svg:path d="M138.0710 131.9478 L137.7218 132.6460 "/>
<svg:path d="M137.7218 132.6460 L137.3727 134.0425 "/>
<svg:path d="M137.3727 134.0425 L137.3727 135.7881 "/>
<svg:path d="M137.3727 135.7881 L137.7218 137.1847 "/>
<svg:path d="M137.7218 137.1847 L138.0710 137.8829 "/>
<svg:path d="M138.0710 137.8829 L138.4201 138.2320 "/>
<svg:path d="M138.4201 138.2320 L139.1183 138.5812 "/>
<svg:path d="M139.1183 138.5812 L139.8166 138.5812 "/>
<svg:path d="M139.8166 138.5812 L140.5148 138.2320 "/>
<svg:path d="M140.5148 138.2320 L140.8640 137.8829 "/>
<svg:path d="M140.8640 137.8829 L141.2131 137.1847 "/>
<svg:path d="M141.2131 137.1847 L141.5622 135.7881 "/>
<svg:path d="M141.5622 135.7881 L141.5622 134.0425 "/>
<svg:path d="M141.5622 134.0425 L141.2131 132.6460 "/>
<svg:path d="M141.2131 132.6460 L140.8640 131.9478 "/>
<svg:path d="M140.8640 131.9478 L140.5148 131.5986 "/>
<svg:path d="M140.5148 131.5986 L139.8166 131.2495 "/>
<svg:path d="M134.5797 131.9478 L134.2306 131.5986 "/>
<svg:path d="M134.2306 131.5986 L133.5323 131.2495 "/>
<svg:path d="M133.5323 131.2495 L131.7867 131.2495 "/>
<svg:path d="M131.7867 131.2495 L131.0885 131.5986 "/>
<svg:path d="M131.0885 131.5986 L130.7393 131.9478 "/>
<svg:path d="M130.7393 131.9478 L130.3902 132.6460 "/>
<svg:path d="M130.3902 132.6460 L130.3902 133.3443 "/>
<svg:path d="M130.3902 133.3443 L130.7393 134.3916 "/>
<svg:path d="M130.7393 134.3916 L134.9288 138.5812 "/>
<svg:path d="M134.9288 138.5812 L130.3902 138.5812 "/>
</svg:g><svg:g transform="rotate(-330.000000 160.4150 96.7555)">
<svg:text x="160.4150" y="99.6882" transform="scale(-1 1) translate(-320.830013 0)" textLength="63.5723" font-size="7.8204" lengthAdjust="spacingAndGlyphs" text-anchor="middle" opacity="0.01" style="font-family:monospace">Cable-0.7mm</svg:text>
</svg:g>
<svg:g class="stroked-text"><svg:desc>Cable-0.7mm</svg:desc>
<svg:path d="M181.8612 111.5596 L181.9634 111.9411 "/>
<svg:path d="M181.9634 111.9411 L182.5494 112.6019 "/>
<svg:path d="M182.5494 112.6019 L183.0331 112.8812 "/>
<svg:path d="M183.0331 112.8812 L183.8984 113.0583 "/>
<svg:path d="M183.8984 113.0583 L184.6615 112.8538 "/>
<svg:path d="M184.6615 112.8538 L185.1827 112.5097 "/>
<svg:path d="M185.1827 112.5097 L185.9832 111.6818 "/>
<svg:path d="M185.9832 111.6818 L186.4021 110.9562 "/>
<svg:path d="M186.4021 110.9562 L186.7188 109.8490 "/>
<svg:path d="M186.7188 109.8490 L186.7562 109.2256 "/>
<svg:path d="M186.7562 109.2256 L186.5518 108.4626 "/>
<svg:path d="M186.5518 108.4626 L185.9658 107.8017 "/>
<svg:path d="M185.9658 107.8017 L185.4820 107.5224 "/>
<svg:path d="M185.4820 107.5224 L184.6167 107.3454 "/>
<svg:path d="M184.6167 107.3454 L184.2352 107.4476 "/>
<svg:path d="M177.2280 109.5296 L178.7641 106.8689 "/>
<svg:path d="M178.7641 106.8689 L179.2853 106.5248 "/>
<svg:path d="M179.2853 106.5248 L179.9087 106.5622 "/>
<svg:path d="M179.9087 106.5622 L180.8763 107.1208 "/>
<svg:path d="M180.8763 107.1208 L181.2204 107.6420 "/>
<svg:path d="M177.3676 109.2877 L177.7118 109.8089 "/>
<svg:path d="M177.7118 109.8089 L178.9212 110.5072 "/>
<svg:path d="M178.9212 110.5072 L179.5446 110.5446 "/>
<svg:path d="M179.5446 110.5446 L180.0658 110.2005 "/>
<svg:path d="M180.0658 110.2005 L180.3450 109.7167 "/>
<svg:path d="M180.3450 109.7167 L180.3825 109.0933 "/>
<svg:path d="M180.3825 109.0933 L180.0384 108.5721 "/>
<svg:path d="M180.0384 108.5721 L178.8290 107.8739 "/>
<svg:path d="M178.8290 107.8739 L178.4848 107.3527 "/>
<svg:path d="M174.8092 108.1331 L177.7418 103.0536 "/>
<svg:path d="M176.6246 104.9887 L176.2805 104.4675 "/>
<svg:path d="M176.2805 104.4675 L175.3130 103.9089 "/>
<svg:path d="M175.3130 103.9089 L174.6896 103.8715 "/>
<svg:path d="M174.6896 103.8715 L174.3080 103.9737 "/>
<svg:path d="M174.3080 103.9737 L173.7869 104.3178 "/>
<svg:path d="M173.7869 104.3178 L172.9490 105.7691 "/>
<svg:path d="M172.9490 105.7691 L172.9115 106.3925 "/>
<svg:path d="M172.9115 106.3925 L173.0138 106.7740 "/>
<svg:path d="M173.0138 106.7740 L173.3579 107.2952 "/>
<svg:path d="M173.3579 107.2952 L174.3254 107.8538 "/>
<svg:path d="M174.3254 107.8538 L174.9488 107.8912 "/>
<svg:path d="M169.4878 105.0608 L170.1112 105.0982 "/>
<svg:path d="M170.1112 105.0982 L170.6324 104.7541 "/>
<svg:path d="M170.6324 104.7541 L173.1461 100.4003 "/>
<svg:path d="M165.7573 102.5845 L166.1014 103.1057 "/>
<svg:path d="M166.1014 103.1057 L167.0690 103.6643 "/>
<svg:path d="M167.0690 103.6643 L167.6924 103.7017 "/>
<svg:path d="M167.6924 103.7017 L168.2136 103.3576 "/>
<svg:path d="M168.2136 103.3576 L169.3308 101.4226 "/>
<svg:path d="M169.3308 101.4226 L169.3682 100.7992 "/>
<svg:path d="M169.3682 100.7992 L169.0241 100.2780 "/>
<svg:path d="M169.0241 100.2780 L168.0565 99.7194 "/>
<svg:path d="M168.0565 99.7194 L167.4331 99.6820 "/>
<svg:path d="M167.4331 99.6820 L166.9120 100.0261 "/>
<svg:path d="M166.9120 100.0261 L166.6327 100.5098 "/>
<svg:path d="M166.6327 100.5098 L168.7722 102.3901 "/>
<svg:path d="M164.3161 99.4949 L160.4460 97.2605 "/>
<svg:path d="M158.8751 92.1609 L158.3913 91.8816 "/>
<svg:path d="M158.3913 91.8816 L157.7679 91.8442 "/>
<svg:path d="M157.7679 91.8442 L157.3864 91.9464 "/>
<svg:path d="M157.3864 91.9464 L156.8652 92.2905 "/>
<svg:path d="M156.8652 92.2905 L156.0647 93.1184 "/>
<svg:path d="M156.0647 93.1184 L155.3665 94.3278 "/>
<svg:path d="M155.3665 94.3278 L155.0498 95.4350 "/>
<svg:path d="M155.0498 95.4350 L155.0123 96.0584 "/>
<svg:path d="M155.0123 96.0584 L155.1146 96.4399 "/>
<svg:path d="M155.1146 96.4399 L155.4587 96.9611 "/>
<svg:path d="M155.4587 96.9611 L155.9424 97.2404 "/>
<svg:path d="M155.9424 97.2404 L156.5659 97.2778 "/>
<svg:path d="M156.5659 97.2778 L156.9474 97.1756 "/>
<svg:path d="M156.9474 97.1756 L157.4686 96.8315 "/>
<svg:path d="M157.4686 96.8315 L158.2690 96.0036 "/>
<svg:path d="M158.2690 96.0036 L158.9673 94.7942 "/>
<svg:path d="M158.9673 94.7942 L159.2840 93.6870 "/>
<svg:path d="M159.2840 93.6870 L159.3214 93.0636 "/>
<svg:path d="M159.3214 93.0636 L159.2192 92.6821 "/>
<svg:path d="M159.2192 92.6821 L158.8751 92.1609 "/>
<svg:path d="M152.3516 94.5222 L151.9701 94.6245 "/>
<svg:path d="M151.9701 94.6245 L152.0723 95.0060 "/>
<svg:path d="M152.0723 95.0060 L152.4539 94.9038 "/>
<svg:path d="M152.4539 94.9038 L152.3516 94.5222 "/>
<svg:path d="M152.3516 94.5222 L152.0723 95.0060 "/>
<svg:path d="M153.0699 88.8093 L149.6836 86.8542 "/>
<svg:path d="M149.6836 86.8542 L148.9279 93.1905 "/>
<svg:path d="M144.8159 90.8165 L146.7710 87.4302 "/>
<svg:path d="M146.4917 87.9139 L146.3895 87.5324 "/>
<svg:path d="M146.3895 87.5324 L146.0454 87.0112 "/>
<svg:path d="M146.0454 87.0112 L145.3197 86.5923 "/>
<svg:path d="M145.3197 86.5923 L144.6963 86.5548 "/>
<svg:path d="M144.6963 86.5548 L144.1751 86.8990 "/>
<svg:path d="M144.1751 86.8990 L142.6390 89.5596 "/>
<svg:path d="M144.1751 86.8990 L144.2125 86.2755 "/>
<svg:path d="M144.2125 86.2755 L143.8684 85.7544 "/>
<svg:path d="M143.8684 85.7544 L143.1428 85.3354 "/>
<svg:path d="M143.1428 85.3354 L142.5194 85.2980 "/>
<svg:path d="M142.5194 85.2980 L141.9982 85.6421 "/>
<svg:path d="M141.9982 85.6421 L140.4620 88.3028 "/>
<svg:path d="M138.0432 86.9063 L139.9983 83.5200 "/>
<svg:path d="M139.7190 84.0037 L139.6168 83.6222 "/>
<svg:path d="M139.6168 83.6222 L139.2727 83.1010 "/>
<svg:path d="M139.2727 83.1010 L138.5470 82.6821 "/>
<svg:path d="M138.5470 82.6821 L137.9236 82.6446 "/>
<svg:path d="M137.9236 82.6446 L137.4025 82.9887 "/>
<svg:path d="M137.4025 82.9887 L135.8663 85.6494 "/>
<svg:path d="M137.4025 82.9887 L137.4399 82.3653 "/>
<svg:path d="M137.4399 82.3653 L137.0958 81.8442 "/>
<svg:path d="M137.0958 81.8442 L136.3701 81.4252 "/>
<svg:path d="M136.3701 81.4252 L135.7467 81.3878 "/>
<svg:path d="M135.7467 81.3878 L135.2255 81.7319 "/>
<svg:path d="M135.2255 81.7319 L133.6894 84.3926 "/>
</svg:g><svg:g transform="rotate(-60.000000 232.8943 176.1510)">
<svg:text x="232.8943" y="179.8168" transform="scale(-1 1) translate(-465.788578 0)" textLength="78.6405" font-size="9.7755" lengthAdjust="spacingAndGlyphs" text-anchor="middle" opacity="0.01" style="font-family:monospace">Cable-1.5mm</svg:text>
</svg:g>
<svg:g class="stroked-text"><svg:desc>Cable-1.5mm</svg:desc>
<svg:path d="M251.4117 149.3505 L251.8886 149.2227 "/>
<svg:path d="M251.8886 149.2227 L252.7147 148.4902 "/>
<svg:path d="M252.7147 148.4902 L253.0638 147.8855 "/>
<svg:path d="M253.0638 147.8855 L253.2851 146.8039 "/>
<svg:path d="M253.2851 146.8039 L253.0296 145.8500 "/>
<svg:path d="M253.0296 145.8500 L252.5994 145.1986 "/>
<svg:path d="M252.5994 145.1986 L251.5646 144.1979 "/>
<svg:path d="M251.5646 144.1979 L250.6575 143.6743 "/>
<svg:path d="M250.6575 143.6743 L249.2736 143.2784 "/>
<svg:path d="M249.2736 143.2784 L248.4943 143.2316 "/>
<svg:path d="M248.4943 143.2316 L247.5405 143.4872 "/>
<svg:path d="M247.5405 143.4872 L246.7144 144.2197 "/>
<svg:path d="M246.7144 144.2197 L246.3653 144.8244 "/>
<svg:path d="M246.3653 144.8244 L246.1440 145.9060 "/>
<svg:path d="M246.1440 145.9060 L246.2718 146.3829 "/>
<svg:path d="M248.8743 155.1419 L245.5484 153.2217 "/>
<svg:path d="M245.5484 153.2217 L245.1183 152.5702 "/>
<svg:path d="M245.1183 152.5702 L245.1651 151.7910 "/>
<svg:path d="M245.1651 151.7910 L245.8633 150.5816 "/>
<svg:path d="M245.8633 150.5816 L246.5148 150.1514 "/>
<svg:path d="M248.5720 154.9673 L249.2234 154.5372 "/>
<svg:path d="M249.2234 154.5372 L250.0962 153.0254 "/>
<svg:path d="M250.0962 153.0254 L250.1430 152.2462 "/>
<svg:path d="M250.1430 152.2462 L249.7129 151.5947 "/>
<svg:path d="M249.7129 151.5947 L249.1082 151.2456 "/>
<svg:path d="M249.1082 151.2456 L248.3289 151.1988 "/>
<svg:path d="M248.3289 151.1988 L247.6774 151.6289 "/>
<svg:path d="M247.6774 151.6289 L246.8046 153.1407 "/>
<svg:path d="M246.8046 153.1407 L246.1531 153.5708 "/>
<svg:path d="M247.1287 158.1654 L240.7793 154.4996 "/>
<svg:path d="M243.1981 155.8961 L242.5466 156.3262 "/>
<svg:path d="M242.5466 156.3262 L241.8484 157.5357 "/>
<svg:path d="M241.8484 157.5357 L241.8016 158.3149 "/>
<svg:path d="M241.8016 158.3149 L241.9294 158.7918 "/>
<svg:path d="M241.9294 158.7918 L242.3595 159.4433 "/>
<svg:path d="M242.3595 159.4433 L244.1736 160.4907 "/>
<svg:path d="M244.1736 160.4907 L244.9529 160.5375 "/>
<svg:path d="M244.9529 160.5375 L245.4298 160.4097 "/>
<svg:path d="M245.4298 160.4097 L246.0813 159.9795 "/>
<svg:path d="M246.0813 159.9795 L246.7796 158.7701 "/>
<svg:path d="M246.7796 158.7701 L246.8263 157.9909 "/>
<svg:path d="M243.2883 164.8172 L243.3351 164.0379 "/>
<svg:path d="M243.3351 164.0379 L242.9049 163.3864 "/>
<svg:path d="M242.9049 163.3864 L237.4626 160.2443 "/>
<svg:path d="M240.1929 169.4802 L240.8444 169.0501 "/>
<svg:path d="M240.8444 169.0501 L241.5427 167.8407 "/>
<svg:path d="M241.5427 167.8407 L241.5894 167.0614 "/>
<svg:path d="M241.5894 167.0614 L241.1593 166.4099 "/>
<svg:path d="M241.1593 166.4099 L238.7405 165.0134 "/>
<svg:path d="M238.7405 165.0134 L237.9612 164.9667 "/>
<svg:path d="M237.9612 164.9667 L237.3098 165.3968 "/>
<svg:path d="M237.3098 165.3968 L236.6115 166.6062 "/>
<svg:path d="M236.6115 166.6062 L236.5647 167.3855 "/>
<svg:path d="M236.5647 167.3855 L236.9949 168.0369 "/>
<svg:path d="M236.9949 168.0369 L237.5996 168.3861 "/>
<svg:path d="M237.5996 168.3861 L239.9499 165.7117 "/>
<svg:path d="M236.3309 171.2818 L233.5379 176.1194 "/>
<svg:path d="M232.2908 183.8653 L234.3856 180.2371 "/>
<svg:path d="M233.3382 182.0512 L226.9888 178.3854 "/>
<svg:path d="M226.9888 178.3854 L228.2450 178.3044 "/>
<svg:path d="M228.2450 178.3044 L229.1989 178.0488 "/>
<svg:path d="M229.1989 178.0488 L229.8503 177.6186 "/>
<svg:path d="M230.1151 186.2373 L230.2429 186.7143 "/>
<svg:path d="M230.2429 186.7143 L230.7198 186.5865 "/>
<svg:path d="M230.7198 186.5865 L230.5920 186.1096 "/>
<svg:path d="M230.5920 186.1096 L230.1151 186.2373 "/>
<svg:path d="M230.1151 186.2373 L230.7198 186.5865 "/>
<svg:path d="M220.8791 188.9677 L222.6248 185.9442 "/>
<svg:path d="M222.6248 185.9442 L225.8229 187.3874 "/>
<svg:path d="M225.8229 187.3874 L225.3459 187.5152 "/>
<svg:path d="M225.3459 187.5152 L224.6945 187.9454 "/>
<svg:path d="M224.6945 187.9454 L223.8216 189.4571 "/>
<svg:path d="M223.8216 189.4571 L223.7749 190.2364 "/>
<svg:path d="M223.7749 190.2364 L223.9027 190.7133 "/>
<svg:path d="M223.9027 190.7133 L224.3328 191.3648 "/>
<svg:path d="M224.3328 191.3648 L225.8446 192.2376 "/>
<svg:path d="M225.8446 192.2376 L226.6238 192.2844 "/>
<svg:path d="M226.6238 192.2844 L227.1007 192.1566 "/>
<svg:path d="M227.1007 192.1566 L227.7522 191.7264 "/>
<svg:path d="M227.7522 191.7264 L228.6250 190.2147 "/>
<svg:path d="M228.6250 190.2147 L228.6718 189.4354 "/>
<svg:path d="M228.6718 189.4354 L228.5440 188.9585 "/>
<svg:path d="M225.4829 195.6570 L221.2500 193.2131 "/>
<svg:path d="M221.8547 193.5623 L221.3778 193.6900 "/>
<svg:path d="M221.3778 193.6900 L220.7263 194.1202 "/>
<svg:path d="M220.7263 194.1202 L220.2026 195.0272 "/>
<svg:path d="M220.2026 195.0272 L220.1558 195.8065 "/>
<svg:path d="M220.1558 195.8065 L220.5860 196.4580 "/>
<svg:path d="M220.5860 196.4580 L223.9118 198.3782 "/>
<svg:path d="M220.5860 196.4580 L219.8067 196.4112 "/>
<svg:path d="M219.8067 196.4112 L219.1552 196.8414 "/>
<svg:path d="M219.1552 196.8414 L218.6315 197.7484 "/>
<svg:path d="M218.6315 197.7484 L218.5848 198.5277 "/>
<svg:path d="M218.5848 198.5277 L219.0149 199.1791 "/>
<svg:path d="M219.0149 199.1791 L222.3408 201.0993 "/>
<svg:path d="M220.5951 204.1229 L216.3622 201.6790 "/>
<svg:path d="M216.9669 202.0281 L216.4900 202.1559 "/>
<svg:path d="M216.4900 202.1559 L215.8385 202.5860 "/>
<svg:path d="M215.8385 202.5860 L215.3148 203.4931 "/>
<svg:path d="M215.3148 203.4931 L215.2681 204.2723 "/>
<svg:path d="M215.2681 204.2723 L215.6982 204.9238 "/>
<svg:path d="M215.6982 204.9238 L219.0241 206.8440 "/>
<svg:path d="M215.6982 204.9238 L214.9190 204.8770 "/>
<svg:path d="M214.9190 204.8770 L214.2675 205.3072 "/>
<svg:path d="M214.2675 205.3072 L213.7438 206.2142 "/>
<svg:path d="M213.7438 206.2142 L213.6970 206.9935 "/>
<svg:path d="M213.6970 206.9935 L214.1272 207.6450 "/>
<svg:path d="M214.1272 207.6450 L217.4530 209.5652 "/>
</svg:g><svg:g transform="rotate(-330.000000 176.9112 71.0948)">
<svg:text x="176.9112" y="74.0274" transform="scale(-1 1) translate(-353.822367 0)" textLength="63.5723" font-size="7.8204" lengthAdjust="spacingAndGlyphs" text-anchor="middle" opacity="0.01" style="font-family:monospace">Cable-0.7mm</svg:text>
</svg:g>
<svg:g class="stroked-text"><svg:desc>Cable-0.7mm</svg:desc>
<svg:path d="M198.3573 85.8988 L198.4596 86.2804 "/>
<svg:path d="M198.4596 86.2804 L199.0456 86.9412 "/>
<svg:path d="M199.0456 86.9412 L199.5293 87.2205 "/>
<svg:path d="M199.5293 87.2205 L200.3946 87.3976 "/>
<svg:path d="M200.3946 87.3976 L201.1577 87.1931 "/>
<svg:path d="M201.1577 87.1931 L201.6789 86.8490 "/>
<svg:path d="M201.6789 86.8490 L202.4793 86.0211 "/>
<svg:path d="M202.4793 86.0211 L202.8983 85.2955 "/>
<svg:path d="M202.8983 85.2955 L203.2150 84.1883 "/>
<svg:path d="M203.2150 84.1883 L203.2524 83.5649 "/>
<svg:path d="M203.2524 83.5649 L203.0480 82.8018 "/>
<svg:path d="M203.0480 82.8018 L202.4620 82.1410 "/>
<svg:path d="M202.4620 82.1410 L201.9782 81.8617 "/>
<svg:path d="M201.9782 81.8617 L201.1129 81.6846 "/>
<svg:path d="M201.1129 81.6846 L200.7314 81.7869 "/>
<svg:path d="M193.7242 83.8689 L195.2603 81.2082 "/>
<svg:path d="M195.2603 81.2082 L195.7815 80.8641 "/>
<svg:path d="M195.7815 80.8641 L196.4049 80.9015 "/>
<svg:path d="M196.4049 80.9015 L197.3724 81.4601 "/>
<svg:path d="M197.3724 81.4601 L197.7166 81.9813 "/>
<svg:path d="M193.8638 83.6270 L194.2079 84.1482 "/>
<svg:path d="M194.2079 84.1482 L195.4173 84.8465 "/>
<svg:path d="M195.4173 84.8465 L196.0407 84.8839 "/>
<svg:path d="M196.0407 84.8839 L196.5619 84.5398 "/>
<svg:path d="M196.5619 84.5398 L196.8412 84.0560 "/>
<svg:path d="M196.8412 84.0560 L196.8786 83.4326 "/>
<svg:path d="M196.8786 83.4326 L196.5345 82.9114 "/>
<svg:path d="M196.5345 82.9114 L195.3251 82.2132 "/>
<svg:path d="M195.3251 82.2132 L194.9810 81.6920 "/>
<svg:path d="M191.3054 82.4724 L194.2380 77.3929 "/>
<svg:path d="M193.1208 79.3279 L192.7767 78.8068 "/>
<svg:path d="M192.7767 78.8068 L191.8092 78.2482 "/>
<svg:path d="M191.8092 78.2482 L191.1858 78.2107 "/>
<svg:path d="M191.1858 78.2107 L190.8042 78.3130 "/>
<svg:path d="M190.8042 78.3130 L190.2830 78.6571 "/>
<svg:path d="M190.2830 78.6571 L189.4451 80.1084 "/>
<svg:path d="M189.4451 80.1084 L189.4077 80.7318 "/>
<svg:path d="M189.4077 80.7318 L189.5100 81.1133 "/>
<svg:path d="M189.5100 81.1133 L189.8541 81.6345 "/>
<svg:path d="M189.8541 81.6345 L190.8216 82.1931 "/>
<svg:path d="M190.8216 82.1931 L191.4450 82.2305 "/>
<svg:path d="M185.9840 79.4001 L186.6074 79.4375 "/>
<svg:path d="M186.6074 79.4375 L187.1286 79.0934 "/>
<svg:path d="M187.1286 79.0934 L189.6423 74.7395 "/>
<svg:path d="M182.2535 76.9238 L182.5976 77.4450 "/>
<svg:path d="M182.5976 77.4450 L183.5651 78.0036 "/>
<svg:path d="M183.5651 78.0036 L184.1886 78.0410 "/>
<svg:path d="M184.1886 78.0410 L184.7097 77.6969 "/>
<svg:path d="M184.7097 77.6969 L185.8269 75.7619 "/>
<svg:path d="M185.8269 75.7619 L185.8644 75.1384 "/>
<svg:path d="M185.8644 75.1384 L185.5203 74.6173 "/>
<svg:path d="M185.5203 74.6173 L184.5527 74.0587 "/>
<svg:path d="M184.5527 74.0587 L183.9293 74.0212 "/>
<svg:path d="M183.9293 74.0212 L183.4081 74.3653 "/>
<svg:path d="M183.4081 74.3653 L183.1288 74.8491 "/>
<svg:path d="M183.1288 74.8491 L185.2683 76.7294 "/>
<svg:path d="M180.8123 73.8341 L176.9422 71.5997 "/>
<svg:path d="M175.3713 66.5002 L174.8875 66.2209 "/>
<svg:path d="M174.8875 66.2209 L174.2641 66.1835 "/>
<svg:path d="M174.2641 66.1835 L173.8826 66.2857 "/>
<svg:path d="M173.8826 66.2857 L173.3614 66.6298 "/>
<svg:path d="M173.3614 66.6298 L172.5609 67.4577 "/>
<svg:path d="M172.5609 67.4577 L171.8626 68.6671 "/>
<svg:path d="M171.8626 68.6671 L171.5459 69.7743 "/>
<svg:path d="M171.5459 69.7743 L171.5085 70.3977 "/>
<svg:path d="M171.5085 70.3977 L171.6107 70.7792 "/>
<svg:path d="M171.6107 70.7792 L171.9549 71.3004 "/>
<svg:path d="M171.9549 71.3004 L172.4386 71.5797 "/>
<svg:path d="M172.4386 71.5797 L173.0620 71.6171 "/>
<svg:path d="M173.0620 71.6171 L173.4436 71.5149 "/>
<svg:path d="M173.4436 71.5149 L173.9647 71.1708 "/>
<svg:path d="M173.9647 71.1708 L174.7652 70.3429 "/>
<svg:path d="M174.7652 70.3429 L175.4635 69.1335 "/>
<svg:path d="M175.4635 69.1335 L175.7802 68.0263 "/>
<svg:path d="M175.7802 68.0263 L175.8176 67.4029 "/>
<svg:path d="M175.8176 67.4029 L175.7154 67.0214 "/>
<svg:path d="M175.7154 67.0214 L175.3713 66.5002 "/>
<svg:path d="M168.8478 68.8615 L168.4663 68.9637 "/>
<svg:path d="M168.4663 68.9637 L168.5685 69.3453 "/>
<svg:path d="M168.5685 69.3453 L168.9500 69.2430 "/>
<svg:path d="M168.9500 69.2430 L168.8478 68.8615 "/>
<svg:path d="M168.8478 68.8615 L168.5685 69.3453 "/>
<svg:path d="M169.5661 63.1486 L166.1798 61.1935 "/>
<svg:path d="M166.1798 61.1935 L165.4241 67.5298 "/>
<svg:path d="M161.3121 65.1558 L163.2672 61.7694 "/>
<svg:path d="M162.9879 62.2532 L162.8856 61.8717 "/>
<svg:path d="M162.8856 61.8717 L162.5415 61.3505 "/>
<svg:path d="M162.5415 61.3505 L161.8159 60.9315 "/>
<svg:path d="M161.8159 60.9315 L161.1925 60.8941 "/>
<svg:path d="M161.1925 60.8941 L160.6713 61.2382 "/>
<svg:path d="M160.6713 61.2382 L159.1352 63.8989 "/>
<svg:path d="M160.6713 61.2382 L160.7087 60.6148 "/>
<svg:path d="M160.7087 60.6148 L160.3646 60.0936 "/>
<svg:path d="M160.3646 60.0936 L159.6390 59.6747 "/>
<svg:path d="M159.6390 59.6747 L159.0156 59.6373 "/>
<svg:path d="M159.0156 59.6373 L158.4944 59.9814 "/>
<svg:path d="M158.4944 59.9814 L156.9582 62.6421 "/>
<svg:path d="M154.5394 61.2456 L156.4945 57.8592 "/>
<svg:path d="M156.2152 58.3430 L156.1130 57.9615 "/>
<svg:path d="M156.1130 57.9615 L155.7689 57.4403 "/>
<svg:path d="M155.7689 57.4403 L155.0432 57.0213 "/>
<svg:path d="M155.0432 57.0213 L154.4198 56.9839 "/>
<svg:path d="M154.4198 56.9839 L153.8986 57.3280 "/>
<svg:path d="M153.8986 57.3280 L152.3625 59.9887 "/>
<svg:path d="M153.8986 57.3280 L153.9360 56.7046 "/>
<svg:path d="M153.9360 56.7046 L153.5919 56.1834 "/>
<svg:path d="M153.5919 56.1834 L152.8663 55.7645 "/>
<svg:path d="M152.8663 55.7645 L152.2429 55.7271 "/>
<svg:path d="M152.2429 55.7271 L151.7217 56.0712 "/>
<svg:path d="M151.7217 56.0712 L150.1855 58.7319 "/>
</svg:g><svg:g transform="rotate(-60.000000 94.4303 43.6012)">
<svg:text x="94.4303" y="47.2670" transform="scale(-1 1) translate(-188.860611 0)" textLength="42.6806" font-size="9.7755" lengthAdjust="spacingAndGlyphs" text-anchor="middle" opacity="0.01" style="font-family:monospace">APA102</svg:text>
</svg:g>
<svg:g class="stroked-text"><svg:desc>APA102</svg:desc>
<svg:path d="M105.0177 27.7429 L103.2721 30.7664 "/>
<svg:path d="M107.1809 28.1856 L99.6096 26.6362 "/>
<svg:path d="M99.6096 26.6362 L104.7370 32.4185 "/>
<svg:path d="M103.5151 34.5350 L97.1657 30.8691 "/>
<svg:path d="M97.1657 30.8691 L95.7692 33.2880 "/>
<svg:path d="M95.7692 33.2880 L95.7224 34.0672 "/>
<svg:path d="M95.7224 34.0672 L95.8502 34.5441 "/>
<svg:path d="M95.8502 34.5441 L96.2804 35.1956 "/>
<svg:path d="M96.2804 35.1956 L97.1874 35.7193 "/>
<svg:path d="M97.1874 35.7193 L97.9667 35.7661 "/>
<svg:path d="M97.9667 35.7661 L98.4436 35.6383 "/>
<svg:path d="M98.4436 35.6383 L99.0951 35.2081 "/>
<svg:path d="M99.0951 35.2081 L100.4916 32.7893 "/>
<svg:path d="M98.2097 39.5346 L96.4641 42.5581 "/>
<svg:path d="M100.3730 39.9773 L92.8016 38.4279 "/>
<svg:path d="M92.8016 38.4279 L97.9291 44.2102 "/>
<svg:path d="M94.7870 49.6525 L96.8817 46.0243 "/>
<svg:path d="M95.8343 47.8384 L89.4850 44.1726 "/>
<svg:path d="M89.4850 44.1726 L90.7411 44.0916 "/>
<svg:path d="M90.7411 44.0916 L91.6950 43.8360 "/>
<svg:path d="M91.6950 43.8360 L92.3464 43.4059 "/>
<svg:path d="M86.1683 49.9173 L85.8191 50.5220 "/>
<svg:path d="M85.8191 50.5220 L85.7724 51.3013 "/>
<svg:path d="M85.7724 51.3013 L85.9002 51.7782 "/>
<svg:path d="M85.9002 51.7782 L86.3303 52.4297 "/>
<svg:path d="M86.3303 52.4297 L87.3651 53.4303 "/>
<svg:path d="M87.3651 53.4303 L88.8769 54.3031 "/>
<svg:path d="M88.8769 54.3031 L90.2609 54.6990 "/>
<svg:path d="M90.2609 54.6990 L91.0401 54.7457 "/>
<svg:path d="M91.0401 54.7457 L91.5170 54.6180 "/>
<svg:path d="M91.5170 54.6180 L92.1685 54.1878 "/>
<svg:path d="M92.1685 54.1878 L92.5176 53.5831 "/>
<svg:path d="M92.5176 53.5831 L92.5644 52.8038 "/>
<svg:path d="M92.5644 52.8038 L92.4366 52.3269 "/>
<svg:path d="M92.4366 52.3269 L92.0065 51.6755 "/>
<svg:path d="M92.0065 51.6755 L90.9716 50.6749 "/>
<svg:path d="M90.9716 50.6749 L89.4599 49.8020 "/>
<svg:path d="M89.4599 49.8020 L88.0759 49.4061 "/>
<svg:path d="M88.0759 49.4061 L87.2967 49.3594 "/>
<svg:path d="M87.2967 49.3594 L86.8197 49.4872 "/>
<svg:path d="M86.8197 49.4872 L86.1683 49.9173 "/>
<svg:path d="M84.1545 54.8017 L83.6776 54.9295 "/>
<svg:path d="M83.6776 54.9295 L83.0261 55.3596 "/>
<svg:path d="M83.0261 55.3596 L82.1533 56.8714 "/>
<svg:path d="M82.1533 56.8714 L82.1065 57.6506 "/>
<svg:path d="M82.1065 57.6506 L82.2343 58.1276 "/>
<svg:path d="M82.2343 58.1276 L82.6645 58.7790 "/>
<svg:path d="M82.6645 58.7790 L83.2692 59.1282 "/>
<svg:path d="M83.2692 59.1282 L84.3508 59.3495 "/>
<svg:path d="M84.3508 59.3495 L90.0738 57.8160 "/>
<svg:path d="M90.0738 57.8160 L87.8045 61.7466 "/>
</svg:g><svg:g>
</svg:g>
<svg:g>
</svg:g>
<svg:g>
</svg:g>
<svg:g>
</svg:g>
<svg:g>
</svg:g>
<svg:g>
</svg:g>
<svg:g>
</svg:g>
<svg:g>
</svg:g>
<svg:g>
</svg:g>
<svg:g>
</svg:g>
<svg:g>
</svg:g>
<svg:g>
</svg:g>
<svg:g>
</svg:g>
<svg:g>
</svg:g>
<svg:g>
</svg:g>
<svg:g>
</svg:g>
<svg:g>
</svg:g>
</svg:g> 
</svg:g></svg:g><svg:g><svg:g><svg:title>SVG Image created as LightPipe_PCB-User_Comments.svg date 2023/10/26 21:40:50 </svg:title>
  <svg:desc>Image generated by PCBNEW </svg:desc>
<svg:g style="fill:#000084; fill-opacity:1.0000;stroke:#000084; stroke-opacity:1.0000; stroke-linecap:round; stroke-linejoin:round;" transform="translate(0 0) scale(1 1)">
</svg:g>
<svg:g style="fill:#000084; fill-opacity:0.0;  stroke:#000084; stroke-width:0.0000; stroke-opacity:1;  stroke-linecap:round; stroke-linejoin:round;">
</svg:g>
<svg:g style="fill:#000084; fill-opacity:0.0;  stroke:#000084; stroke-width:1.0997; stroke-opacity:1;  stroke-linecap:round; stroke-linejoin:round;">
<svg:circle cx="88.5650" cy="-28.9820" r="16.1296"/> 
<svg:circle cx="210.2701" cy="-28.9820" r="16.1296"/> 
<svg:g>
</svg:g>
<svg:g>
</svg:g>
<svg:g>
</svg:g>
<svg:g>
</svg:g>
<svg:g>
</svg:g>
<svg:g>
</svg:g>
<svg:g>
</svg:g>
<svg:g>
</svg:g>
<svg:g>
</svg:g>
<svg:g>
</svg:g>
<svg:g>
</svg:g>
<svg:g>
</svg:g>
<svg:g>
</svg:g>
<svg:g>
</svg:g>
<svg:g>
</svg:g>
<svg:g>
</svg:g>
<svg:g>
</svg:g>
</svg:g> 
</svg:g></svg:g><svg:g><svg:g><svg:title>SVG Image created as LightPipe_PCB-Edge_Cuts.svg date 2023/10/26 21:40:50 </svg:title>
  <svg:desc>Image generated by PCBNEW </svg:desc>
<svg:g style="fill:#C2C200; fill-opacity:1.0000;stroke:#C2C200; stroke-opacity:1.0000; stroke-linecap:round; stroke-linejoin:round;" transform="translate(0 0) scale(1 1)">
</svg:g>
<svg:g style="fill:#C2C200; fill-opacity:0.0;  stroke:#C2C200; stroke-width:0.0000; stroke-opacity:1;  stroke-linecap:round; stroke-linejoin:round;">
</svg:g>
<svg:g style="fill:#C2C200; fill-opacity:0.0;  stroke:#C2C200; stroke-width:0.7332; stroke-opacity:1;  stroke-linecap:round; stroke-linejoin:round;">
<svg:circle cx="149.4176" cy="72.9277" r="56.8202"/> 
</svg:g>
<svg:g style="fill:#C2C200; fill-opacity:0.0;  stroke:#C2C200; stroke-width:1.0997; stroke-opacity:1;  stroke-linecap:round; stroke-linejoin:round;">
<svg:circle cx="149.2277" cy="72.9612" r="139.3011"/> 
<svg:g>
</svg:g>
<svg:g>
</svg:g>
<svg:g>
</svg:g>
<svg:g>
</svg:g>
<svg:g>
</svg:g>
<svg:g>
</svg:g>
<svg:g>
</svg:g>
<svg:g>
</svg:g>
<svg:g>
</svg:g>
<svg:g>
</svg:g>
<svg:g>
</svg:g>
<svg:g>
</svg:g>
<svg:g>
</svg:g>
<svg:g>
</svg:g>
<svg:g>
</svg:g>
<svg:g>
</svg:g>
<svg:g>
</svg:g>
</svg:g> 
</svg:g></svg:g></svg>
