<?xml version='1.0' encoding='ASCII' standalone='yes'?>
<svg xmlns:svg="http://www.w3.org/2000/svg" xmlns="http://www.w3.org/2000/svg" xmlns:xlink="http://www.w3.org/1999/xlink" version="1.1" width="29.700220cm" height="21.000720cm" viewBox="0 0 297002200 210007200">
<title>SVG Picture created as LightPipe_PCB-B_Silkscreen.svg date 2023/05/21 22:33:13 </title>
  <desc>Picture generated by PCBNEW </desc>
<g style="fill:#649CCB; fill-opacity:1.000000;stroke:#649CCB; stroke-opacity:1.000000; stroke-linecap:round; stroke-linejoin:round;" transform="translate(0 0) scale(1 1)">
</g>
<g style="fill:#649CCB; fill-opacity:0.0;  stroke:#649CCB; stroke-width:0.000000; stroke-opacity:1;  stroke-linecap:round; stroke-linejoin:round;">
</g>
<g style="fill:#649CCB; fill-opacity:0.0;  stroke:#649CCB; stroke-width:1651376.146789; stroke-opacity:1;  stroke-linecap:round; stroke-linejoin:round;">
<text x="148643664.220183" y="204061029.357798" textLength="11558322.935780" font-size="14678895.412844" lengthAdjust="spacingAndGlyphs" text-anchor="middle" opacity="0">1</text>
<g class="stroked-text"><desc>1</desc>
<path d="M151789139 203536777 L145498183 203536777 "/>
<path d="M148643664 203536777 L148643664 192527603 L147595166 194100346 L146546675 195148838 L145498183 195673084 "/>
</g><text x="218827150.458716" y="65070203.669725" textLength="12631717.431193" font-size="14678895.412844" lengthAdjust="spacingAndGlyphs" text-anchor="middle" opacity="0">3</text>
<g class="stroked-text"><desc>3</desc>
<path d="M215157423 53536777 L221972625 53536777 L218302899 57730750 L219875642 57730750 L220924133 58254996 L221448379 58779242 L221972625 59827739 L221972625 62448968 L221448379 63497460 L220924133 64021706 L219875642 64545952 L216730161 64545952 L215681669 64021706 L215157423 63497460 "/>
</g><text x="77084031.192661" y="65070203.669725" textLength="12631717.431193" font-size="14678895.412844" lengthAdjust="spacingAndGlyphs" text-anchor="middle" opacity="0">2</text>
<g class="stroked-text"><desc>2</desc>
<path d="M73938550 54585275 L74462796 54061029 L75511288 53536777 L78132522 53536777 L79181014 54061029 L79705260 54585275 L80229506 55633766 L80229506 56682258 L79705260 58254996 L73414304 64545952 L80229506 64545952 "/>
</g></g>
<g style="fill:#649CCB; fill-opacity:0.0;  stroke:#649CCB; stroke-width:825688.073394; stroke-opacity:1;  stroke-linecap:round; stroke-linejoin:round;">
<g transform="rotate(-60.000000 192680361.467890 171033506.422018)">
<text x="192680361.467890" y="173235341.284404" transform="scale(-1 1) translate(-385360722.935780 0)" textLength="12532111.926606" font-size="5871555.963303" lengthAdjust="spacingAndGlyphs" text-anchor="middle" opacity="0">X5.2</text>
</g>
<g class="stroked-text"><desc>X5.2</desc>
<path d="M193947088 164016401 L196292884 168760695 "/>
<path d="M192479196 166558860 L197760776 166218236 "/>
<path d="M190591910 169827737 L191640401 168011691 L193561293 168878581 L193274840 168955337 L192883535 169213695 L192359289 170121721 L192331200 170589776 L192407950 170876229 L192666313 171267533 L193574333 171791779 L194042388 171819875 L194328842 171743119 L194720146 171484761 L195244392 170576735 L195272488 170108680 L195195732 169822227 "/>
<path d="M192993897 173635915 L193070653 173922368 L193357106 173845612 L193280350 173559159 L192993897 173635915 L193357106 173845612 "/>
<path d="M188962981 173487919 L188676528 173564669 L188285223 173823033 L187760977 174731053 L187732882 175199108 L187809638 175485561 L188067996 175876866 L188431205 176086563 L189080867 176219510 L192518311 175298449 L191155271 177659306 "/>
</g><g transform="rotate(-120.000000 231212471.559633 87088552.293578)">
<text x="231212471.559633" y="89840845.871560" transform="scale(-1 1) translate(-462424943.119266 0)" textLength="14129752.293578" font-size="7339447.706422" lengthAdjust="spacingAndGlyphs" text-anchor="middle" opacity="0">LD1</text>
</g>
<g class="stroked-text"><desc>LD1</desc>
<path d="M231534159 82665390 L230223539 80395337 L225456429 83147631 "/>
<path d="M232451587 84254427 L227684477 87006721 L228339781 88141744 L228959972 88691702 L229676108 88883587 L230261179 88848473 L231300264 88551231 L231981280 88158044 L232758236 87406794 L233081190 86917667 L233273075 86201532 L233106897 85389451 L232451587 84254427 "/>
<path d="M236645559 91518600 L235072822 88794533 "/>
<path d="M235859190 90156566 L231092075 92908860 L231510968 92061666 L231702858 91345530 L231667739 90760458 "/>
</g><g transform="rotate(-60.000000 228460177.981651 109106900.917431)">
<text x="228460177.981651" y="111308735.779817" transform="scale(-1 1) translate(-456920355.963303 0)" textLength="13605506.422018" font-size="5871555.963303" lengthAdjust="spacingAndGlyphs" text-anchor="middle" opacity="0">X5.1</text>
</g>
<g class="stroked-text"><desc>X5.1</desc>
<path d="M229726904 102089796 L232072700 106834089 "/>
<path d="M228259012 104632255 L233540592 104291631 "/>
<path d="M226371726 107901132 L227420218 106085086 L229341110 106951976 L229054656 107028732 L228663352 107287089 L228139106 108195115 L228111016 108663170 L228187766 108949623 L228446130 109340928 L229354150 109865174 L229822205 109893269 L230108658 109816513 L230499963 109558155 L231024209 108650130 L231052304 108182075 L230975548 107895622 "/>
<path d="M228773713 111709310 L228850469 111995763 L229136922 111919007 L229060166 111632554 L228773713 111709310 L229136922 111919007 "/>
<path d="M226935088 115732700 L228193277 113553445 "/>
<path d="M227564185 114643073 L223750491 112441238 L224505005 112392577 L225077911 112239066 L225469216 111980708 "/>
</g><text x="122496875.229358" y="187547267.889908" transform="scale(-1 1) translate(-244993750.458716 0)" textLength="14129752.293578" font-size="7339447.706422" lengthAdjust="spacingAndGlyphs" text-anchor="middle" opacity="0">LD3</text>
<g class="stroked-text"><desc>LD3</desc>
<path d="M126166596 187285139 L128787831 187285139 L128787831 181780552 "/>
<path d="M124331735 187285139 L124331735 181780552 L123021121 181780552 L122234746 182042680 L121710500 182566926 L121448377 183091172 L121186255 184139664 L121186255 184926033 L121448377 185974524 L121710500 186498770 L122234746 187023016 L123021121 187285139 L124331735 187285139 "/>
<path d="M119351394 181780552 L115943790 181780552 L117778656 183877541 L116992288 183877541 L116468036 184139664 L116205913 184401787 L115943790 184926033 L115943790 186236647 L116205913 186760893 L116468036 187023016 L116992288 187285139 L118565025 187285139 L119089271 187023016 L119351394 186760893 "/>
</g><g transform="rotate(-330.000000 180135539.449541 147313667.889908)">
<text x="180135539.449541" y="149515502.752294" transform="scale(-1 1) translate(-360271078.899083 0)" textLength="13605506.422018" font-size="5871555.963303" lengthAdjust="spacingAndGlyphs" text-anchor="middle" opacity="0">X4.1</text>
</g>
<g class="stroked-text"><desc>X4.1</desc>
<path d="M187152638 148580394 L182408344 150926190 "/>
<path d="M184610179 147112502 L184950803 152394082 "/>
<path d="M180788961 146601297 L179321075 149143755 "/>
<path d="M182535776 145672706 L181871058 148921018 L179510207 147557977 "/>
<path d="M177533124 147627203 L177246671 147703959 L177323427 147990412 L177609880 147913656 L177533124 147627203 L177323427 147990412 "/>
<path d="M173509733 145788577 L175688988 147046766 "/>
<path d="M174599361 146417675 L176801196 142603981 L176849856 143358495 L177003368 143931401 L177261726 144322706 "/>
</g><g transform="rotate(-330.000000 200777741.284404 111560328.440367)">
<text x="200777741.284404" y="113762163.302752" transform="scale(-1 1) translate(-401555482.568807 0)" textLength="13605506.422018" font-size="5871555.963303" lengthAdjust="spacingAndGlyphs" text-anchor="middle" opacity="0">X4.2</text>
</g>
<g class="stroked-text"><desc>X4.2</desc>
<path d="M207794840 112827055 L203050546 115172851 "/>
<path d="M205252381 111359163 L205593005 116640743 "/>
<path d="M201431163 110847957 L199963277 113390416 "/>
<path d="M203177977 109919366 L202513260 113167678 L200152409 111804638 "/>
<path d="M198175326 111873864 L197888873 111950620 L197965629 112237073 L198252082 112160317 L198175326 111873864 L197965629 112237073 "/>
<path d="M198323322 107842948 L198246572 107556495 L197988209 107165190 L197080188 106640944 L196612133 106612849 L196325680 106689605 L195934376 106947963 L195724678 107311172 L195591732 107960834 L196512792 111398278 L194151935 110035238 "/>
</g><g transform="rotate(-60.000000 67451003.669725 87088546.788991)">
<text x="67451003.669725" y="89840840.366972" transform="scale(-1 1) translate(-134902007.339450 0)" textLength="14129752.293578" font-size="7339447.706422" lengthAdjust="spacingAndGlyphs" text-anchor="middle" opacity="0">LD2</text>
</g>
<g class="stroked-text"><desc>LD2</desc>
<path d="M71442412 85155555 L72753027 82885502 L67985917 80133209 "/>
<path d="M70524985 86744592 L65757869 83992299 L65102565 85127322 L64936381 85939403 L65128271 86655533 L65451220 87144666 L66228181 87895915 L66909198 88289102 L67948277 88586344 L68533348 88621458 L69249484 88429574 L69869675 87879616 L70524985 86744592 "/>
<path d="M63590647 88794528 L63232579 88890473 L62743453 89213422 L62088143 90348445 L62053029 90933522 L62148974 91291585 L62471922 91780717 L62925930 92042840 L63738011 92209018 L68034814 91057695 L66331012 94008765 "/>
</g></g>
<g style="fill:#649CCB; fill-opacity:0.0;  stroke:#649CCB; stroke-width:1100917.431193; stroke-opacity:1;  stroke-linecap:round; stroke-linejoin:round;">
<path d="M198009561 44060680 L188234333 41441416 "/>
<path d="M214332429 106461165 L229110478 97929055 "/>
<path d="M188234333 41441416 L179653530 46395544 "/>
<path d="M229110478 97929055 L198009561 44060680 "/>
<circle cx="193551902.752294" cy="39642544.954128" r="550458.715596"/> 
<path d="M114515223 178189469 L176717058 178189469 "/>
<path d="M183873022 171033506 L183873022 161125249 "/>
<path d="M176717058 178189469 L183873022 171033506 "/>
<path d="M114515223 161125249 L114515223 178189469 "/>
<circle cx="182772104.587156" cy="176538093.577982" r="550458.715596"/> 
<path d="M108777765 41918130 L117358568 46872258 "/>
<path d="M99002537 44537394 L108777765 41918130 "/>
<path d="M67901620 98405763 L99002537 44537394 "/>
<path d="M82679669 106937873 L67901620 98405763 "/>
<circle cx="103460196.330275" cy="40119258.715596" r="550458.715596"/> 
<g>
</g>
<g>
</g>
<g>
</g>
<g>
</g>
<g>
</g>
<g>
</g>
<g>
</g>
<g>
</g>
<g>
</g>
<g>
</g>
<g>
</g>
<g>
</g>
<g>
</g>
<g>
</g>
<g>
</g>
<g>
</g>
<g>
</g>
</g> 
<svg:g><svg:g><svg:title>SVG Picture created as LightPipe_PCB-B_Fab.svg date 2023/05/21 22:33:13 </svg:title>
  <svg:desc>Picture generated by PCBNEW </svg:desc>
<svg:g style="fill:#B2D4FF; fill-opacity:1.000000;stroke:#B2D4FF; stroke-opacity:1.000000; stroke-linecap:round; stroke-linejoin:round;" transform="translate(0 0) scale(1 1)">
</svg:g>
<svg:g style="fill:#B2D4FF; fill-opacity:0.0;  stroke:#B2D4FF; stroke-width:0.000000; stroke-opacity:1;  stroke-linecap:round; stroke-linejoin:round;">
</svg:g>
<svg:g style="fill:#B2D4FF; fill-opacity:0.0;  stroke:#B2D4FF; stroke-width:825688.073394; stroke-opacity:1;  stroke-linecap:round; stroke-linejoin:round;">
<svg:g transform="rotate(-330.000000 203689535.779817 164152772.477064)">
<svg:text x="203689535.779817" y="166354607.339450" transform="scale(-1 1) translate(-407379071.559633 0)" textLength="45060286.238532" font-size="5871555.963303" lengthAdjust="spacingAndGlyphs" text-anchor="middle" opacity="0">Cable-1.5mm</svg:text>
</svg:g>
<svg:g class="stroked-text"><svg:desc>Cable-1.5mm</svg:desc>
<svg:path d="M219792363 175265785 L219869113 175552238 L220309078 176048388 L220672288 176258091 L221321950 176391033 L221894856 176237521 L222286161 175979163 L222887163 175357596 L223201711 174812785 L223439504 173981515 L223467594 173513460 L223314088 172940548 L222874122 172444398 L222510913 172234700 L221861251 172101759 L221574798 172178510 "/>
<svg:path d="M216313783 173741708 L217467126 171744060 L217858431 171485697 L218326486 171513792 L219052904 171933192 L219311262 172324491 "/>
<svg:path d="M216418634 173560100 L216676992 173951405 L217585018 174475651 L218053073 174503746 L218444377 174245388 L218654075 173882179 L218682170 173414119 L218423807 173022814 L217515787 172498568 L217257429 172107269 "/>
<svg:path d="M214497743 172693211 L216699577 168879522 "/>
<svg:path d="M215860783 170332359 L215602425 169941055 L214876007 169521660 L214407946 169493565 L214121493 169570321 L213730194 169828678 L213101097 170918300 L213073001 171386361 L213149757 171672814 L213408115 172064119 L214134533 172483513 L214602594 172511609 "/>
<svg:path d="M210502447 170386530 L210970508 170414625 L211361807 170156262 L213249099 166887385 "/>
<svg:path d="M207701631 168527333 L207959988 168918638 L208686407 169338038 L209154462 169366128 L209545766 169107770 L210384561 167654939 L210412656 167186878 L210154293 166795574 L209427880 166376179 L208959820 166348084 L208568515 166606442 L208358818 166969651 L209965161 168381352 "/>
<svg:path d="M206619533 166207612 L203713866 164530023 "/>
<svg:path d="M199061377 163781025 L201240633 165039214 "/>
<svg:path d="M200151005 164410122 L202352840 160596429 L202401500 161350943 L202555012 161923849 L202813370 162315154 "/>
<svg:path d="M197636636 162474170 L197350183 162550926 L197426939 162837379 L197713392 162760623 L197636636 162474170 L197426939 162837379 "/>
<svg:path d="M195996688 156926708 L197812733 157975200 L196945844 159896091 L196869088 159609638 L196610730 159218333 L195702710 158694088 L195234649 158665992 L194948196 158742748 L194556891 159001106 L194032645 159909126 L194004555 160377187 L194081306 160663640 L194339669 161054944 L195247689 161579190 L195715744 161607286 L196002198 161530530 "/>
<svg:path d="M191978812 159691904 L193446704 157149440 "/>
<svg:path d="M193237001 157512649 L193160251 157226196 L192901888 156834897 L192357077 156520348 L191889016 156492253 L191497717 156750611 L190344374 158748258 "/>
<svg:path d="M191497717 156750611 L191525812 156282555 L191267449 155891251 L190722638 155576702 L190254577 155548607 L189863278 155806970 L188709935 157804618 "/>
<svg:path d="M186893889 156756121 L188361781 154213662 "/>
<svg:path d="M188152084 154576871 L188075328 154290418 L187816970 153899113 L187272154 153584565 L186804099 153556475 L186412794 153814833 L185259451 155812480 "/>
<svg:path d="M186412794 153814833 L186440889 153346772 L186182532 152955473 L185637721 152640924 L185169660 152612829 L184778355 152871187 L183625018 154868834 "/>
</svg:g><svg:g transform="rotate(-120.000000 189928067.889908 81583965.137615)">
<svg:text x="189928067.889908" y="84336258.715596" transform="scale(-1 1) translate(-379856135.779817 0)" textLength="29595022.018349" font-size="7339447.706422" lengthAdjust="spacingAndGlyphs" text-anchor="middle" opacity="0">APA102</svg:text>
</svg:g>
<svg:g class="stroked-text"><svg:desc>APA102</svg:desc>
<svg:path d="M183579726 68753455 L184890341 71023508 "/>
<svg:path d="M184679636 67513073 L180829954 71854403 L186514497 70691152 "/>
<svg:path d="M187431930 72280188 L182664814 75032482 L183713311 76848522 L184202438 77171471 L184560506 77267416 L185145577 77232297 L185826594 76839115 L186149543 76349983 L186245488 75991921 L186210368 75406844 L185161877 73590803 "/>
<svg:path d="M188691126 77606664 L190001746 79876717 "/>
<svg:path d="M189791036 76366282 L185941354 80707612 L191625902 79544355 "/>
<svg:path d="M193985009 83630455 L192412271 80906388 "/>
<svg:path d="M193198640 82268422 L188431524 85020715 L188850418 84173521 L189042308 83457385 L189007188 82872313 "/>
<svg:path d="M190921695 89333818 L191183818 89787831 L191672950 90110779 L192031018 90206719 L192616089 90171605 L193655174 89874363 L194790198 89219053 L195567159 88467803 L195890108 87978671 L195986053 87620609 L195950933 87035537 L195688811 86581524 L195199678 86258576 L194841616 86162631 L194256539 86197750 L193217460 86494992 L192082431 87150297 L191305475 87901552 L190982521 88390678 L190886581 88748746 L190921695 89333818 "/>
<svg:path d="M193341633 92476772 L193245688 92834840 L193280807 93419911 L193936111 94554941 L194425244 94877889 L194783311 94973834 L195368383 94938715 L195822390 94676592 L196372348 94056401 L197523671 89759598 L199227473 92710667 "/>
</svg:g><svg:g transform="rotate(-330.000000 227084031.192661 122868368.807339)">
<svg:text x="227084031.192661" y="125070203.669725" transform="scale(-1 1) translate(-454168062.385321 0)" textLength="45060286.238532" font-size="5871555.963303" lengthAdjust="spacingAndGlyphs" text-anchor="middle" opacity="0">Cable-1.5mm</svg:text>
</svg:g>
<svg:g class="stroked-text"><svg:desc>Cable-1.5mm</svg:desc>
<svg:path d="M243186858 133981381 L243263609 134267834 L243703574 134763985 L244066783 134973688 L244716445 135106629 L245289352 134953117 L245680656 134694759 L246281658 134073192 L246596207 133528381 L246834000 132697111 L246862089 132229056 L246708583 131656144 L246268618 131159994 L245905409 130950297 L245255746 130817355 L244969293 130894106 "/>
<svg:path d="M239708278 132457304 L240861622 130459656 L241252926 130201293 L241720981 130229388 L242447400 130648788 L242705757 131040088 "/>
<svg:path d="M239813130 132275697 L240071488 132667001 L240979513 133191247 L241447568 133219343 L241838873 132960985 L242048570 132597776 L242076666 132129715 L241818302 131738411 L240910282 131214165 L240651924 130822866 "/>
<svg:path d="M237892238 131408807 L240094073 127595119 "/>
<svg:path d="M239255278 129047955 L238996921 128656651 L238270502 128237256 L237802442 128209161 L237515988 128285917 L237124689 128544275 L236495592 129633897 L236467497 130101957 L236544253 130388411 L236802611 130779715 L237529029 131199110 L237997089 131227205 "/>
<svg:path d="M233896943 129102126 L234365003 129130222 L234756302 128871858 L236643594 125602981 "/>
<svg:path d="M231096126 127242930 L231354484 127634234 L232080902 128053634 L232548957 128081724 L232940262 127823366 L233779056 126370535 L233807152 125902475 L233548788 125511170 L232822376 125091776 L232354315 125063680 L231963011 125322038 L231753313 125685247 L233359656 127096948 "/>
<svg:path d="M230014029 124923209 L227108361 123245620 "/>
<svg:path d="M222455873 122496622 L224635128 123754811 "/>
<svg:path d="M223545500 123125719 L225747335 119312025 L225795996 120066539 L225949508 120639445 L226207866 121030750 "/>
<svg:path d="M221031132 121189766 L220744678 121266522 L220821434 121552976 L221107888 121476220 L221031132 121189766 L220821434 121552976 "/>
<svg:path d="M219391183 115642304 L221207229 116690796 L220340339 118611688 L220263583 118325234 L220005225 117933930 L219097205 117409684 L218629144 117381588 L218342691 117458344 L217951387 117716702 L217427141 118624722 L217399051 119092783 L217475801 119379236 L217734165 119770541 L218642185 120294787 L219110240 120322882 L219396693 120246126 "/>
<svg:path d="M215373308 118407500 L216841200 115865036 "/>
<svg:path d="M216631497 116228245 L216554746 115941792 L216296383 115550493 L215751572 115235944 L215283511 115207849 L214892212 115466207 L213738869 117463855 "/>
<svg:path d="M214892212 115466207 L214920308 114998152 L214661944 114606847 L214117133 114292299 L213649073 114264203 L213257774 114522566 L212104431 116520214 "/>
<svg:path d="M210288385 115471717 L211756277 112929258 "/>
<svg:path d="M211546579 113292467 L211469823 113006014 L211211466 112614710 L210666649 112300161 L210198594 112272071 L209807289 112530429 L208653946 114528077 "/>
<svg:path d="M209807289 112530429 L209835385 112062368 L209577027 111671069 L209032216 111356521 L208564155 111328425 L208172851 111586783 L207019513 113584431 "/>
</svg:g><svg:text x="148643664.220183" y="154519744.954128" transform="scale(-1 1) translate(-297287328.440367 0)" textLength="29595022.018349" font-size="7339447.706422" lengthAdjust="spacingAndGlyphs" text-anchor="middle" opacity="0">APA102</svg:text>
<svg:g class="stroked-text"><svg:desc>APA102</svg:desc>
<svg:path d="M162929377 152684878 L160308143 152684878 "/>
<svg:path d="M163453623 154257616 L161618757 148753029 L159783897 154257616 "/>
<svg:path d="M157949036 154257616 L157949036 148753029 L155852047 148753029 L155327801 149015157 L155065678 149277280 L154803555 149801526 L154803555 150587895 L155065678 151112141 L155327801 151374264 L155852047 151636387 L157949036 151636387 "/>
<svg:path d="M152706572 152684878 L150085337 152684878 "/>
<svg:path d="M153230818 154257616 L151395957 148753029 L149561091 154257616 "/>
<svg:path d="M144842873 154257616 L147988354 154257616 "/>
<svg:path d="M146415616 154257616 L146415616 148753029 L146939862 149539403 L147464108 150063649 L147988354 150325772 "/>
<svg:path d="M141435275 148753029 L140911029 148753029 L140386783 149015157 L140124655 149277280 L139862532 149801526 L139600409 150850018 L139600409 152160633 L139862532 153209124 L140124655 153733370 L140386783 153995493 L140911029 154257616 L141435275 154257616 L141959521 153995493 L142221644 153733370 L142483766 153209124 L142745889 152160633 L142745889 150850018 L142483766 149801526 L142221644 149277280 L141959521 149015157 L141435275 148753029 "/>
<svg:path d="M137503425 149277280 L137241302 149015157 L136717056 148753029 L135406442 148753029 L134882196 149015157 L134620067 149277280 L134357944 149801526 L134357944 150325772 L134620067 151112141 L137765548 154257616 L134357944 154257616 "/>
</svg:g><svg:g transform="rotate(-330.000000 156900544.954128 122868368.807339)">
<svg:text x="156900544.954128" y="125070203.669725" transform="scale(-1 1) translate(-313801089.908257 0)" textLength="45060286.238532" font-size="5871555.963303" lengthAdjust="spacingAndGlyphs" text-anchor="middle" opacity="0">Cable-0.7mm</svg:text>
</svg:g>
<svg:g class="stroked-text"><svg:desc>Cable-0.7mm</svg:desc>
<svg:path d="M173003372 133981381 L173080122 134267834 L173520088 134763985 L173883297 134973688 L174532959 135106629 L175105866 134953117 L175497170 134694759 L176098172 134073192 L176412721 133528381 L176650513 132697111 L176678603 132229056 L176525097 131656144 L176085132 131159994 L175721922 130950297 L175072260 130817355 L174785807 130894106 "/>
<svg:path d="M169524792 132457304 L170678135 130459656 L171069440 130201293 L171537495 130229388 L172263913 130648788 L172522271 131040088 "/>
<svg:path d="M169629644 132275697 L169888001 132667001 L170796027 133191247 L171264082 133219343 L171655387 132960985 L171865084 132597776 L171893179 132129715 L171634816 131738411 L170726796 131214165 L170468438 130822866 "/>
<svg:path d="M167708752 131408807 L169910587 127595119 "/>
<svg:path d="M169071792 129047955 L168813434 128656651 L168087016 128237256 L167618955 128209161 L167332502 128285917 L166941203 128544275 L166312106 129633897 L166284011 130101957 L166360766 130388411 L166619124 130779715 L167345543 131199110 L167813603 131227205 "/>
<svg:path d="M163713456 129102126 L164181517 129130222 L164572816 128871858 L166460108 125602981 "/>
<svg:path d="M160912640 127242930 L161170998 127634234 L161897416 128053634 L162365471 128081724 L162756776 127823366 L163595570 126370535 L163623666 125902475 L163365302 125511170 L162638889 125091776 L162170829 125063680 L161779524 125322038 L161569827 125685247 L163176170 127096948 "/>
<svg:path d="M159830543 124923209 L156924875 123245620 "/>
<svg:path d="M155745451 119416877 L155382242 119207179 L154914187 119179084 L154627733 119255840 L154236429 119514198 L153635427 120135765 L153111181 121043785 L152873388 121875055 L152845293 122343110 L152922049 122629563 L153180407 123020867 L153543616 123230565 L154011677 123258660 L154298130 123181904 L154689434 122923546 L155290436 122301979 L155814682 121393954 L156052475 120562689 L156080565 120094634 L156003814 119808181 L155745451 119416877 "/>
<svg:path d="M150847645 121189766 L150561192 121266522 L150637948 121552976 L150924401 121476220 L150847645 121189766 L150637948 121552976 "/>
<svg:path d="M151386952 116900493 L148844488 115432601 L148277091 120189935 "/>
<svg:path d="M145189822 118407500 L146657713 115865036 "/>
<svg:path d="M146448011 116228245 L146371260 115941792 L146112897 115550493 L145568086 115235944 L145100025 115207849 L144708726 115466207 L143555383 117463855 "/>
<svg:path d="M144708726 115466207 L144736822 114998152 L144478458 114606847 L143933647 114292299 L143465587 114264203 L143074288 114522566 L141920944 116520214 "/>
<svg:path d="M140104899 115471717 L141572790 112929258 "/>
<svg:path d="M141363093 113292467 L141286337 113006014 L141027979 112614710 L140483163 112300161 L140015108 112272071 L139623803 112530429 L138470460 114528077 "/>
<svg:path d="M139623803 112530429 L139651899 112062368 L139393541 111671069 L138848730 111356521 L138380669 111328425 L137989365 111586783 L136836027 113584431 "/>
</svg:g><svg:g transform="rotate(-330.000000 169285866.055046 103602313.761468)">
<svg:text x="169285866.055046" y="105804148.623853" transform="scale(-1 1) translate(-338571732.110092 0)" textLength="45060286.238532" font-size="5871555.963303" lengthAdjust="spacingAndGlyphs" text-anchor="middle" opacity="0">Cable-0.7mm</svg:text>
</svg:g>
<svg:g class="stroked-text"><svg:desc>Cable-0.7mm</svg:desc>
<svg:path d="M185388693 114715326 L185465444 115001779 L185905409 115497930 L186268618 115707633 L186918280 115840574 L187491187 115687062 L187882491 115428704 L188483493 114807137 L188798042 114262326 L189035834 113431056 L189063924 112963001 L188910418 112390089 L188470453 111893939 L188107244 111684242 L187457581 111551300 L187171128 111628051 "/>
<svg:path d="M181910113 113191249 L183063456 111193601 L183454761 110935238 L183922816 110963333 L184649234 111382733 L184907592 111774033 "/>
<svg:path d="M182014965 113009642 L182273322 113400946 L183181348 113925192 L183649403 113953288 L184040708 113694930 L184250405 113331721 L184278500 112863660 L184020137 112472355 L183112117 111948110 L182853759 111556811 "/>
<svg:path d="M180094073 112142752 L182295908 108329064 "/>
<svg:path d="M181457113 109781900 L181198755 109390596 L180472337 108971201 L180004277 108943106 L179717823 109019862 L179326524 109278220 L178697427 110367842 L178669332 110835902 L178746088 111122355 L179004445 111513660 L179730864 111933055 L180198924 111961150 "/>
<svg:path d="M176098777 109836071 L176566838 109864166 L176958137 109605803 L178845429 106336926 "/>
<svg:path d="M173297961 107976875 L173556319 108368179 L174282737 108787579 L174750792 108815669 L175142097 108557311 L175980891 107104480 L176008987 106636420 L175750623 106245115 L175024211 105825721 L174556150 105797625 L174164845 106055983 L173955148 106419192 L175561491 107830893 "/>
<svg:path d="M172215864 105657154 L169310196 103979565 "/>
<svg:path d="M168130772 100150822 L167767563 99941124 L167299508 99913029 L167013055 99989785 L166621750 100248143 L166020748 100869710 L165496502 101777730 L165258710 102609000 L165230614 103077055 L165307370 103363508 L165565728 103754812 L165928937 103964510 L166396998 103992605 L166683451 103915849 L167074755 103657491 L167675757 103035924 L168200003 102127899 L168437796 101296634 L168465886 100828579 L168389135 100542126 L168130772 100150822 "/>
<svg:path d="M163232966 101923711 L162946513 102000467 L163023269 102286921 L163309722 102210165 L163232966 101923711 L163023269 102286921 "/>
<svg:path d="M163772273 97634438 L161229809 96166546 L160662412 100923880 "/>
<svg:path d="M157575143 99141445 L159043034 96598981 "/>
<svg:path d="M158833332 96962190 L158756581 96675737 L158498218 96284438 L157953407 95969889 L157485346 95941794 L157094047 96200152 L155940704 98197800 "/>
<svg:path d="M157094047 96200152 L157122143 95732097 L156863779 95340792 L156318968 95026244 L155850908 94998148 L155459609 95256511 L154306266 97254159 "/>
<svg:path d="M152490220 96205662 L153958111 93663203 "/>
<svg:path d="M153748414 94026412 L153671658 93739959 L153413300 93348655 L152868484 93034106 L152400429 93006016 L152009124 93264374 L150855781 95262022 "/>
<svg:path d="M152009124 93264374 L152037220 92796313 L151778862 92405014 L151234051 92090466 L150765990 92062370 L150374686 92320728 L149221348 94318376 "/>
</svg:g><svg:g transform="rotate(-60.000000 107359266.055046 82960111.926606)">
<svg:text x="107359266.055046" y="85712405.504587" transform="scale(-1 1) translate(-214718532.110092 0)" textLength="29595022.018349" font-size="7339447.706422" lengthAdjust="spacingAndGlyphs" text-anchor="middle" opacity="0">APA102</svg:text>
</svg:g>
<svg:g class="stroked-text"><svg:desc>APA102</svg:desc>
<svg:path d="M115296638 71047034 L113986023 73317088 "/>
<svg:path d="M116920794 71379390 L111236251 70216133 L115085933 74557469 "/>
<svg:path d="M114168500 76146506 L109401390 73394212 L108352893 75210253 L108317779 75795324 L108413719 76153392 L108736673 76642519 L109417684 77035706 L110002761 77070825 L110360823 76974880 L110849955 76651932 L111898447 74835886 "/>
<svg:path d="M110185238 79900244 L108874618 82170297 "/>
<svg:path d="M111809394 80232600 L106124845 79069343 L109974528 83410673 "/>
<svg:path d="M107615422 87496772 L109188159 84772706 "/>
<svg:path d="M108401790 86134739 L103634680 83382445 L104577820 83321620 L105293950 83129730 L105783082 82806781 "/>
<svg:path d="M101144510 87695548 L100882387 88149555 L100847267 88734633 L100943212 89092695 L101266161 89581827 L102043117 90333077 L103178146 90988387 L104217231 91285629 L104802302 91320743 L105160370 91224803 L105649497 90901849 L105911620 90447842 L105946739 89862770 L105850794 89504702 L105527845 89015576 L104750884 88264321 L103615860 87609016 L102576776 87311774 L101991704 87276655 L101633636 87372600 L101144510 87695548 "/>
<svg:path d="M99632592 91362748 L99274530 91458693 L98785398 91781642 L98130093 92916671 L98094974 93501743 L98190919 93859811 L98513867 94348937 L98967875 94611060 L99779955 94777244 L104076759 93625915 L102372957 96576985 "/>
</svg:g><svg:g>
</svg:g>
<svg:g>
</svg:g>
<svg:g>
</svg:g>
<svg:g>
</svg:g>
<svg:g>
</svg:g>
<svg:g>
</svg:g>
<svg:g>
</svg:g>
<svg:g>
</svg:g>
<svg:g>
</svg:g>
<svg:g>
</svg:g>
<svg:g>
</svg:g>
<svg:g>
</svg:g>
<svg:g>
</svg:g>
<svg:g>
</svg:g>
<svg:g>
</svg:g>
<svg:g>
</svg:g>
<svg:g>
</svg:g>
</svg:g> 
</svg:g></svg:g><svg:g><svg:g><svg:title>SVG Picture created as LightPipe_PCB-User_Comments.svg date 2023/05/21 22:33:13 </svg:title>
  <svg:desc>Picture generated by PCBNEW </svg:desc>
<svg:g style="fill:#C2C2C2; fill-opacity:1.000000;stroke:#C2C2C2; stroke-opacity:1.000000; stroke-linecap:round; stroke-linejoin:round;" transform="translate(0 0) scale(1 1)">
</svg:g>
<svg:g style="fill:#C2C2C2; fill-opacity:0.0;  stroke:#C2C2C2; stroke-width:0.000000; stroke-opacity:1;  stroke-linecap:round; stroke-linejoin:round;">
</svg:g>
<svg:g style="fill:#C2C2C2; fill-opacity:0.0;  stroke:#C2C2C2; stroke-width:825688.073394; stroke-opacity:1;  stroke-linecap:round; stroke-linejoin:round;">
<svg:circle cx="102955590.825688" cy="28464699.082569" r="12110091.743119"/> 
<svg:circle cx="194331737.614679" cy="28464699.082569" r="12110091.743119"/> 
<svg:g>
</svg:g>
<svg:g>
</svg:g>
<svg:g>
</svg:g>
<svg:g>
</svg:g>
<svg:g>
</svg:g>
<svg:g>
</svg:g>
<svg:g>
</svg:g>
<svg:g>
</svg:g>
<svg:g>
</svg:g>
<svg:g>
</svg:g>
<svg:g>
</svg:g>
<svg:g>
</svg:g>
<svg:g>
</svg:g>
<svg:g>
</svg:g>
<svg:g>
</svg:g>
<svg:g>
</svg:g>
<svg:g>
</svg:g>
</svg:g> 
</svg:g></svg:g><svg:g><svg:g><svg:title>SVG Picture created as LightPipe_PCB-Edge_Cuts.svg date 2023/05/21 22:33:13 </svg:title>
  <svg:desc>Picture generated by PCBNEW </svg:desc>
<svg:g style="fill:#C2C200; fill-opacity:1.000000;stroke:#C2C200; stroke-opacity:1.000000; stroke-linecap:round; stroke-linejoin:round;" transform="translate(0 0) scale(1 1)">
</svg:g>
<svg:g style="fill:#C2C200; fill-opacity:0.0;  stroke:#C2C200; stroke-width:0.000000; stroke-opacity:1;  stroke-linecap:round; stroke-linejoin:round;">
</svg:g>
<svg:g style="fill:#C2C200; fill-opacity:0.0;  stroke:#C2C200; stroke-width:550458.715596; stroke-opacity:1;  stroke-linecap:round; stroke-linejoin:round;">
<svg:circle cx="148643664.220183" cy="104978460.550459" r="42660550.458716"/> 
</svg:g>
<svg:g style="fill:#C2C200; fill-opacity:0.0;  stroke:#C2C200; stroke-width:825688.073394; stroke-opacity:1;  stroke-linecap:round; stroke-linejoin:round;">
<svg:circle cx="148501100.917431" cy="105003600.000000" r="104587155.963303"/> 
</svg:g>
<svg:g style="fill:#C2C200; fill-opacity:0.0;  stroke:#C2C200; stroke-width:660550.458716; stroke-opacity:1;  stroke-linecap:round; stroke-linejoin:round;">
<svg:path d="M212563200 107800436 L178159530 48211530 "/>
<svg:path d="M175775972 49587677 L210179642 109176583 "/>
<svg:path d="M178159536.491199 48211526.686432 A1376152.293578 1376152.293578 0.0 0 0 175775970.389532 49587678.269454"/>
<svg:path d="M210179644.881418 109176581.939185 A1376146.788991 1376146.788991 0.0 1 0 212563201.448859 107800435.860747"/>
<svg:path d="M114239994 158923414 L183047333 158923414 "/>
<svg:path d="M183047333 156171121 L114239994 156171121 "/>
<svg:path d="M114239994.495413 156171121.100917 A1376146.788991 1376146.788991 0.0 0 0 114239994.495413 158923414.678899"/>
<svg:path d="M183047333.944954 158923414.678899 A1376146.788991 1376146.788991 0.0 0 0 183047333.944954 156171121.100917"/>
<svg:path d="M87107686 109176583 L121511355 49587677 "/>
<svg:path d="M119127798 48211530 L84724128 107800436 "/>
<svg:path d="M84724122.224397 107800433.108450 A1376152.293578 1376152.293578 0.0 1 0 87107688.326065 109176584.691472"/>
<svg:path d="M121511353.283719 49587675.517167 A1376146.788991 1376146.788991 0.0 0 0 119127796.716278 48211529.438729"/>
<svg:g>
</svg:g>
<svg:g>
</svg:g>
<svg:g>
</svg:g>
<svg:g>
</svg:g>
<svg:g>
</svg:g>
<svg:g>
</svg:g>
<svg:g>
</svg:g>
<svg:g>
</svg:g>
<svg:g>
</svg:g>
<svg:g>
</svg:g>
<svg:g>
</svg:g>
<svg:g>
</svg:g>
<svg:g>
</svg:g>
<svg:g>
</svg:g>
<svg:g>
</svg:g>
<svg:g>
</svg:g>
<svg:g>
</svg:g>
</svg:g> 
</svg:g></svg:g></svg>
