G04 #@! TF.GenerationSoftware,KiCad,Pcbnew,7.0.8-7.0.8~ubuntu22.04.1*
G04 #@! TF.CreationDate,2023-10-19T22:21:27+02:00*
G04 #@! TF.ProjectId,LightPipe_PCB,4c696768-7450-4697-9065-5f5043422e6b,v0.1.2*
G04 #@! TF.SameCoordinates,Original*
G04 #@! TF.FileFunction,Soldermask,Top*
G04 #@! TF.FilePolarity,Negative*
%FSLAX46Y46*%
G04 Gerber Fmt 4.6, Leading zero omitted, Abs format (unit mm)*
G04 Created by KiCad (PCBNEW 7.0.8-7.0.8~ubuntu22.04.1) date 2023-10-19 22:21:27*
%MOMM*%
%LPD*%
G01*
G04 APERTURE LIST*
%ADD10R,4.400000X4.400000*%
%ADD11C,4.400000*%
%ADD12C,2.200000*%
%ADD13C,1.400000*%
G04 APERTURE END LIST*
G36*
G01*
X137296728Y-97965544D02*
X138335958Y-98565544D01*
G75*
G02*
X138647080Y-99726666I-425000J-736122D01*
G01*
X138647080Y-99726666D01*
G75*
G02*
X137485958Y-100037788I-736122J425000D01*
G01*
X136446728Y-99437788D01*
G75*
G02*
X136135606Y-98276666I425000J736122D01*
G01*
X136135606Y-98276666D01*
G75*
G02*
X137296728Y-97965544I736122J-425000D01*
G01*
G37*
G36*
G01*
X135396856Y-95656218D02*
X136096856Y-94443782D01*
G75*
G02*
X137257978Y-94132660I736122J-425000D01*
G01*
X137257978Y-94132660D01*
G75*
G02*
X137569100Y-95293782I-425000J-736122D01*
G01*
X136869100Y-96506218D01*
G75*
G02*
X135707978Y-96817340I-736122J425000D01*
G01*
X135707978Y-96817340D01*
G75*
G02*
X135396856Y-95656218I425000J736122D01*
G01*
G37*
G36*
G01*
X139813586Y-98206218D02*
X140513586Y-96993782D01*
G75*
G02*
X141674708Y-96682660I736122J-425000D01*
G01*
X141674708Y-96682660D01*
G75*
G02*
X141985830Y-97843782I-425000J-736122D01*
G01*
X141285830Y-99056218D01*
G75*
G02*
X140124708Y-99367340I-736122J425000D01*
G01*
X140124708Y-99367340D01*
G75*
G02*
X139813586Y-98206218I425000J736122D01*
G01*
G37*
G36*
G01*
X139896728Y-93462212D02*
X140935958Y-94062212D01*
G75*
G02*
X141247080Y-95223334I-425000J-736122D01*
G01*
X141247080Y-95223334D01*
G75*
G02*
X140085958Y-95534456I-736122J425000D01*
G01*
X139046728Y-94934456D01*
G75*
G02*
X138735606Y-93773334I425000J736122D01*
G01*
X138735606Y-93773334D01*
G75*
G02*
X139896728Y-93462212I736122J-425000D01*
G01*
G37*
G36*
G01*
X114953272Y-94934456D02*
X113914042Y-95534456D01*
G75*
G02*
X112752920Y-95223334I-425000J736122D01*
G01*
X112752920Y-95223334D01*
G75*
G02*
X113064042Y-94062212I736122J425000D01*
G01*
X114103272Y-93462212D01*
G75*
G02*
X115264394Y-93773334I425000J-736122D01*
G01*
X115264394Y-93773334D01*
G75*
G02*
X114953272Y-94934456I-736122J-425000D01*
G01*
G37*
G36*
G01*
X117903144Y-94443782D02*
X118603144Y-95656218D01*
G75*
G02*
X118292022Y-96817340I-736122J-425000D01*
G01*
X118292022Y-96817340D01*
G75*
G02*
X117130900Y-96506218I-425000J736122D01*
G01*
X116430900Y-95293782D01*
G75*
G02*
X116742022Y-94132660I736122J425000D01*
G01*
X116742022Y-94132660D01*
G75*
G02*
X117903144Y-94443782I425000J-736122D01*
G01*
G37*
G36*
G01*
X113486414Y-96993782D02*
X114186414Y-98206218D01*
G75*
G02*
X113875292Y-99367340I-736122J-425000D01*
G01*
X113875292Y-99367340D01*
G75*
G02*
X112714170Y-99056218I-425000J736122D01*
G01*
X112014170Y-97843782D01*
G75*
G02*
X112325292Y-96682660I736122J425000D01*
G01*
X112325292Y-96682660D01*
G75*
G02*
X113486414Y-96993782I425000J-736122D01*
G01*
G37*
G36*
G01*
X117553272Y-99437788D02*
X116514042Y-100037788D01*
G75*
G02*
X115352920Y-99726666I-425000J736122D01*
G01*
X115352920Y-99726666D01*
G75*
G02*
X115664042Y-98565544I736122J425000D01*
G01*
X116703272Y-97965544D01*
G75*
G02*
X117864394Y-98276666I425000J-736122D01*
G01*
X117864394Y-98276666D01*
G75*
G02*
X117553272Y-99437788I-736122J-425000D01*
G01*
G37*
D10*
X129500000Y-75300000D03*
D11*
X124500000Y-75300000D03*
D12*
X118700000Y-76100000D03*
X135300000Y-76100000D03*
X143240381Y-91870835D03*
D13*
X133384421Y-96341858D03*
D12*
X136740381Y-103129165D03*
D13*
X135684421Y-92358142D03*
M02*
