%TF.GenerationSoftware,KiCad,Pcbnew,7.0.8-7.0.8~ubuntu22.04.1*%
%TF.CreationDate,2023-10-19T22:21:27+02:00*%
%TF.ProjectId,LightPipe_PCB,4c696768-7450-4697-9065-5f5043422e6b,v0.1.2*%
%TF.SameCoordinates,Original*%
%TF.FileFunction,Drillmap*%
%TF.FilePolarity,Positive*%
%FSLAX45Y45*%
G04 Gerber Fmt 4.5, Leading zero omitted, Abs format (unit mm)*
G04 Created by KiCad (PCBNEW 7.0.8-7.0.8~ubuntu22.04.1) date 2023-10-19 22:21:27*
%MOMM*%
%LPD*%
G01*
G04 APERTURE LIST*
%ADD10C,0.100000*%
%ADD11C,0.150000*%
%ADD12C,0.200000*%
%ADD13C,0.020000*%
%ADD14C,0.070000*%
%ADD15C,0.270000*%
G04 APERTURE END LIST*
D10*
X13475000Y-9000000D02*
G75*
G03*
X13475000Y-9000000I-775000J0D01*
G01*
D11*
X14597410Y-9000457D02*
G75*
G03*
X14597410Y-9000457I-1900000J0D01*
G01*
D12*
D13*
X11419474Y-8732679D02*
X11439474Y-8752679D01*
X11439474Y-8732679D02*
X11419474Y-8752679D01*
X11454474Y-8672058D02*
X11474474Y-8692058D01*
X11474474Y-8672058D02*
X11454474Y-8692058D01*
X11600000Y-8860000D02*
X11620000Y-8880000D01*
X11620000Y-8860000D02*
X11600000Y-8880000D01*
X11655000Y-8764737D02*
X11675000Y-8784737D01*
X11675000Y-8764737D02*
X11655000Y-8784737D01*
X11792468Y-8077942D02*
X11812468Y-8097942D01*
X11812468Y-8077942D02*
X11792468Y-8097942D01*
X11827468Y-8017320D02*
X11847468Y-8037320D01*
X11847468Y-8017320D02*
X11827468Y-8037320D01*
X11972994Y-8205263D02*
X11992994Y-8225263D01*
X11992994Y-8205263D02*
X11972994Y-8225263D01*
X12027994Y-8110000D02*
X12047994Y-8130000D01*
X12047994Y-8110000D02*
X12027994Y-8130000D01*
X12254869Y-10020547D02*
X12274869Y-10040547D01*
X12274869Y-10020547D02*
X12254869Y-10040547D01*
X12264869Y-10150547D02*
X12284869Y-10170547D01*
X12284869Y-10150547D02*
X12264869Y-10170547D01*
X12364869Y-10020547D02*
X12384869Y-10040547D01*
X12384869Y-10020547D02*
X12364869Y-10040547D01*
X12364869Y-10150547D02*
X12384869Y-10170547D01*
X12384869Y-10150547D02*
X12364869Y-10170547D01*
X13016521Y-10009719D02*
X13036521Y-10029719D01*
X13036521Y-10009719D02*
X13016521Y-10029719D01*
X13016521Y-10139719D02*
X13036521Y-10159719D01*
X13036521Y-10139719D02*
X13016521Y-10159719D01*
X13116521Y-10139719D02*
X13136521Y-10159719D01*
X13136521Y-10139719D02*
X13116521Y-10159719D01*
X13126521Y-10009719D02*
X13146521Y-10029719D01*
X13146521Y-10009719D02*
X13126521Y-10029719D01*
X13358989Y-8107199D02*
X13378989Y-8127199D01*
X13378989Y-8107199D02*
X13358989Y-8127199D01*
X13413989Y-8202462D02*
X13433989Y-8222462D01*
X13433989Y-8202462D02*
X13413989Y-8222462D01*
X13559514Y-8014520D02*
X13579514Y-8034520D01*
X13579514Y-8014520D02*
X13559514Y-8034520D01*
X13594514Y-8075142D02*
X13614514Y-8095142D01*
X13614514Y-8075142D02*
X13594514Y-8095142D01*
X13733245Y-8758214D02*
X13753245Y-8778214D01*
X13753245Y-8758214D02*
X13733245Y-8778214D01*
X13788245Y-8853477D02*
X13808245Y-8873477D01*
X13808245Y-8853477D02*
X13788245Y-8873477D01*
X13933771Y-8665535D02*
X13953771Y-8685535D01*
X13953771Y-8665535D02*
X13933771Y-8685535D01*
X13968771Y-8726156D02*
X13988771Y-8746156D01*
X13988771Y-8726156D02*
X13968771Y-8746156D01*
D14*
X13373442Y-9634186D02*
G75*
G03*
X13373442Y-9634186I-35000J0D01*
G01*
X13603442Y-9235814D02*
G75*
G03*
X13603442Y-9235814I-35000J0D01*
G01*
D10*
X11310029Y-9752500D02*
X11310029Y-9852500D01*
X11260029Y-9802500D02*
X11360029Y-9802500D01*
D12*
X11388330Y-9838122D02*
X11318330Y-9716878D01*
X11318330Y-9716878D02*
G75*
G03*
X11231728Y-9766878I-43301J-25000D01*
G01*
X11231728Y-9766878D02*
X11301728Y-9888122D01*
X11301728Y-9888122D02*
G75*
G03*
X11388330Y-9838122I43301J25000D01*
G01*
D10*
X11400866Y-9399833D02*
X11400866Y-9499833D01*
X11350866Y-9449833D02*
X11450866Y-9449833D01*
D12*
X11373904Y-9523135D02*
X11477827Y-9463135D01*
X11477827Y-9463135D02*
G75*
G03*
X11427827Y-9376532I-25000J43301D01*
G01*
X11427827Y-9376532D02*
X11323904Y-9436532D01*
X11323904Y-9436532D02*
G75*
G03*
X11373904Y-9523135I25000J-43301D01*
G01*
D10*
X11660866Y-9850167D02*
X11660866Y-9950167D01*
X11610866Y-9900167D02*
X11710866Y-9900167D01*
D12*
X11633904Y-9973468D02*
X11737827Y-9913468D01*
X11737827Y-9913468D02*
G75*
G03*
X11687827Y-9826865I-25000J43301D01*
G01*
X11687827Y-9826865D02*
X11583904Y-9886865D01*
X11583904Y-9886865D02*
G75*
G03*
X11633904Y-9973468I25000J-43301D01*
G01*
D10*
X11751702Y-9497500D02*
X11751702Y-9597500D01*
X11701702Y-9547500D02*
X11801702Y-9547500D01*
D12*
X11830003Y-9583122D02*
X11760003Y-9461878D01*
X11760003Y-9461878D02*
G75*
G03*
X11673401Y-9511878I-43301J-25000D01*
G01*
X11673401Y-9511878D02*
X11743401Y-9633122D01*
X11743401Y-9633122D02*
G75*
G03*
X11830003Y-9583122I43301J25000D01*
G01*
D10*
X13648298Y-9497500D02*
X13648298Y-9597500D01*
X13598298Y-9547500D02*
X13698298Y-9547500D01*
D12*
X13639996Y-9461878D02*
X13569996Y-9583122D01*
X13569996Y-9583122D02*
G75*
G03*
X13656599Y-9633122I43301J-25000D01*
G01*
X13656599Y-9633122D02*
X13726599Y-9511878D01*
X13726599Y-9511878D02*
G75*
G03*
X13639996Y-9461878I-43301J25000D01*
G01*
D10*
X13739134Y-9850167D02*
X13739134Y-9950167D01*
X13689134Y-9900167D02*
X13789134Y-9900167D01*
D12*
X13816096Y-9886865D02*
X13712173Y-9826865D01*
X13712173Y-9826865D02*
G75*
G03*
X13662173Y-9913468I-25000J-43301D01*
G01*
X13662173Y-9913468D02*
X13766096Y-9973468D01*
X13766096Y-9973468D02*
G75*
G03*
X13816096Y-9886865I25000J43301D01*
G01*
D10*
X13999134Y-9399833D02*
X13999134Y-9499833D01*
X13949134Y-9449833D02*
X14049134Y-9449833D01*
D12*
X14076096Y-9436532D02*
X13972173Y-9376532D01*
X13972173Y-9376532D02*
G75*
G03*
X13922173Y-9463135I-25000J-43301D01*
G01*
X13922173Y-9463135D02*
X14026096Y-9523135D01*
X14026096Y-9523135D02*
G75*
G03*
X14076096Y-9436532I25000J43301D01*
G01*
D10*
X14089971Y-9752500D02*
X14089971Y-9852500D01*
X14039971Y-9802500D02*
X14139971Y-9802500D01*
D12*
X14081669Y-9716878D02*
X14011669Y-9838122D01*
X14011669Y-9838122D02*
G75*
G03*
X14098272Y-9888122I43301J-25000D01*
G01*
X14098272Y-9888122D02*
X14168272Y-9766878D01*
X14168272Y-9766878D02*
G75*
G03*
X14081669Y-9716878I-43301J25000D01*
G01*
D11*
X13727072Y-10365950D02*
X13727072Y-10259883D01*
X13621005Y-10259883D01*
X13621005Y-10365950D01*
X13727072Y-10365950D01*
X14377072Y-9240117D02*
X14377072Y-9134050D01*
X14271005Y-9134050D01*
X14271005Y-9240117D01*
X14377072Y-9240117D01*
D15*
X12450000Y-7665000D02*
X12585000Y-7530000D01*
X12450000Y-7395000D01*
X12315000Y-7530000D01*
X12450000Y-7665000D01*
X12950000Y-7665000D02*
X13085000Y-7530000D01*
X12950000Y-7395000D01*
X12815000Y-7530000D01*
X12950000Y-7665000D01*
D12*
X11050687Y-11219440D02*
X11050687Y-11019441D01*
X11050687Y-11019441D02*
X11098306Y-11019441D01*
X11098306Y-11019441D02*
X11126877Y-11028964D01*
X11126877Y-11028964D02*
X11145925Y-11048012D01*
X11145925Y-11048012D02*
X11155449Y-11067060D01*
X11155449Y-11067060D02*
X11164973Y-11105155D01*
X11164973Y-11105155D02*
X11164973Y-11133726D01*
X11164973Y-11133726D02*
X11155449Y-11171821D01*
X11155449Y-11171821D02*
X11145925Y-11190869D01*
X11145925Y-11190869D02*
X11126877Y-11209917D01*
X11126877Y-11209917D02*
X11098306Y-11219440D01*
X11098306Y-11219440D02*
X11050687Y-11219440D01*
X11250687Y-11219440D02*
X11250687Y-11086107D01*
X11250687Y-11124202D02*
X11260211Y-11105155D01*
X11260211Y-11105155D02*
X11269734Y-11095631D01*
X11269734Y-11095631D02*
X11288782Y-11086107D01*
X11288782Y-11086107D02*
X11307830Y-11086107D01*
X11374496Y-11219440D02*
X11374496Y-11086107D01*
X11374496Y-11019441D02*
X11364973Y-11028964D01*
X11364973Y-11028964D02*
X11374496Y-11038488D01*
X11374496Y-11038488D02*
X11384020Y-11028964D01*
X11384020Y-11028964D02*
X11374496Y-11019441D01*
X11374496Y-11019441D02*
X11374496Y-11038488D01*
X11498306Y-11219440D02*
X11479258Y-11209917D01*
X11479258Y-11209917D02*
X11469734Y-11190869D01*
X11469734Y-11190869D02*
X11469734Y-11019441D01*
X11603068Y-11219440D02*
X11584020Y-11209917D01*
X11584020Y-11209917D02*
X11574496Y-11190869D01*
X11574496Y-11190869D02*
X11574496Y-11019441D01*
X11831639Y-11219440D02*
X11831639Y-11019441D01*
X11831639Y-11019441D02*
X11898306Y-11162298D01*
X11898306Y-11162298D02*
X11964973Y-11019441D01*
X11964973Y-11019441D02*
X11964973Y-11219440D01*
X12145925Y-11219440D02*
X12145925Y-11114679D01*
X12145925Y-11114679D02*
X12136401Y-11095631D01*
X12136401Y-11095631D02*
X12117354Y-11086107D01*
X12117354Y-11086107D02*
X12079258Y-11086107D01*
X12079258Y-11086107D02*
X12060211Y-11095631D01*
X12145925Y-11209917D02*
X12126877Y-11219440D01*
X12126877Y-11219440D02*
X12079258Y-11219440D01*
X12079258Y-11219440D02*
X12060211Y-11209917D01*
X12060211Y-11209917D02*
X12050687Y-11190869D01*
X12050687Y-11190869D02*
X12050687Y-11171821D01*
X12050687Y-11171821D02*
X12060211Y-11152774D01*
X12060211Y-11152774D02*
X12079258Y-11143250D01*
X12079258Y-11143250D02*
X12126877Y-11143250D01*
X12126877Y-11143250D02*
X12145925Y-11133726D01*
X12241163Y-11086107D02*
X12241163Y-11286107D01*
X12241163Y-11095631D02*
X12260211Y-11086107D01*
X12260211Y-11086107D02*
X12298306Y-11086107D01*
X12298306Y-11086107D02*
X12317354Y-11095631D01*
X12317354Y-11095631D02*
X12326877Y-11105155D01*
X12326877Y-11105155D02*
X12336401Y-11124202D01*
X12336401Y-11124202D02*
X12336401Y-11181345D01*
X12336401Y-11181345D02*
X12326877Y-11200393D01*
X12326877Y-11200393D02*
X12317354Y-11209917D01*
X12317354Y-11209917D02*
X12298306Y-11219440D01*
X12298306Y-11219440D02*
X12260211Y-11219440D01*
X12260211Y-11219440D02*
X12241163Y-11209917D01*
X12422115Y-11200393D02*
X12431639Y-11209917D01*
X12431639Y-11209917D02*
X12422115Y-11219440D01*
X12422115Y-11219440D02*
X12412592Y-11209917D01*
X12412592Y-11209917D02*
X12422115Y-11200393D01*
X12422115Y-11200393D02*
X12422115Y-11219440D01*
X12422115Y-11095631D02*
X12431639Y-11105155D01*
X12431639Y-11105155D02*
X12422115Y-11114679D01*
X12422115Y-11114679D02*
X12412592Y-11105155D01*
X12412592Y-11105155D02*
X12422115Y-11095631D01*
X12422115Y-11095631D02*
X12422115Y-11114679D01*
D13*
X10769910Y-11537957D02*
X10789910Y-11557957D01*
X10789910Y-11537957D02*
X10769910Y-11557957D01*
D12*
X11088782Y-11439440D02*
X11107830Y-11439440D01*
X11107830Y-11439440D02*
X11126877Y-11448964D01*
X11126877Y-11448964D02*
X11136401Y-11458488D01*
X11136401Y-11458488D02*
X11145925Y-11477536D01*
X11145925Y-11477536D02*
X11155449Y-11515631D01*
X11155449Y-11515631D02*
X11155449Y-11563250D01*
X11155449Y-11563250D02*
X11145925Y-11601345D01*
X11145925Y-11601345D02*
X11136401Y-11620393D01*
X11136401Y-11620393D02*
X11126877Y-11629917D01*
X11126877Y-11629917D02*
X11107830Y-11639440D01*
X11107830Y-11639440D02*
X11088782Y-11639440D01*
X11088782Y-11639440D02*
X11069735Y-11629917D01*
X11069735Y-11629917D02*
X11060211Y-11620393D01*
X11060211Y-11620393D02*
X11050687Y-11601345D01*
X11050687Y-11601345D02*
X11041163Y-11563250D01*
X11041163Y-11563250D02*
X11041163Y-11515631D01*
X11041163Y-11515631D02*
X11050687Y-11477536D01*
X11050687Y-11477536D02*
X11060211Y-11458488D01*
X11060211Y-11458488D02*
X11069735Y-11448964D01*
X11069735Y-11448964D02*
X11088782Y-11439440D01*
X11241163Y-11620393D02*
X11250687Y-11629917D01*
X11250687Y-11629917D02*
X11241163Y-11639440D01*
X11241163Y-11639440D02*
X11231639Y-11629917D01*
X11231639Y-11629917D02*
X11241163Y-11620393D01*
X11241163Y-11620393D02*
X11241163Y-11639440D01*
X11326877Y-11458488D02*
X11336401Y-11448964D01*
X11336401Y-11448964D02*
X11355449Y-11439440D01*
X11355449Y-11439440D02*
X11403068Y-11439440D01*
X11403068Y-11439440D02*
X11422115Y-11448964D01*
X11422115Y-11448964D02*
X11431639Y-11458488D01*
X11431639Y-11458488D02*
X11441163Y-11477536D01*
X11441163Y-11477536D02*
X11441163Y-11496583D01*
X11441163Y-11496583D02*
X11431639Y-11525155D01*
X11431639Y-11525155D02*
X11317354Y-11639440D01*
X11317354Y-11639440D02*
X11441163Y-11639440D01*
X11564973Y-11439440D02*
X11584020Y-11439440D01*
X11584020Y-11439440D02*
X11603068Y-11448964D01*
X11603068Y-11448964D02*
X11612592Y-11458488D01*
X11612592Y-11458488D02*
X11622115Y-11477536D01*
X11622115Y-11477536D02*
X11631639Y-11515631D01*
X11631639Y-11515631D02*
X11631639Y-11563250D01*
X11631639Y-11563250D02*
X11622115Y-11601345D01*
X11622115Y-11601345D02*
X11612592Y-11620393D01*
X11612592Y-11620393D02*
X11603068Y-11629917D01*
X11603068Y-11629917D02*
X11584020Y-11639440D01*
X11584020Y-11639440D02*
X11564973Y-11639440D01*
X11564973Y-11639440D02*
X11545925Y-11629917D01*
X11545925Y-11629917D02*
X11536401Y-11620393D01*
X11536401Y-11620393D02*
X11526877Y-11601345D01*
X11526877Y-11601345D02*
X11517354Y-11563250D01*
X11517354Y-11563250D02*
X11517354Y-11515631D01*
X11517354Y-11515631D02*
X11526877Y-11477536D01*
X11526877Y-11477536D02*
X11536401Y-11458488D01*
X11536401Y-11458488D02*
X11545925Y-11448964D01*
X11545925Y-11448964D02*
X11564973Y-11439440D01*
X11755449Y-11439440D02*
X11774496Y-11439440D01*
X11774496Y-11439440D02*
X11793544Y-11448964D01*
X11793544Y-11448964D02*
X11803068Y-11458488D01*
X11803068Y-11458488D02*
X11812592Y-11477536D01*
X11812592Y-11477536D02*
X11822115Y-11515631D01*
X11822115Y-11515631D02*
X11822115Y-11563250D01*
X11822115Y-11563250D02*
X11812592Y-11601345D01*
X11812592Y-11601345D02*
X11803068Y-11620393D01*
X11803068Y-11620393D02*
X11793544Y-11629917D01*
X11793544Y-11629917D02*
X11774496Y-11639440D01*
X11774496Y-11639440D02*
X11755449Y-11639440D01*
X11755449Y-11639440D02*
X11736401Y-11629917D01*
X11736401Y-11629917D02*
X11726877Y-11620393D01*
X11726877Y-11620393D02*
X11717354Y-11601345D01*
X11717354Y-11601345D02*
X11707830Y-11563250D01*
X11707830Y-11563250D02*
X11707830Y-11515631D01*
X11707830Y-11515631D02*
X11717354Y-11477536D01*
X11717354Y-11477536D02*
X11726877Y-11458488D01*
X11726877Y-11458488D02*
X11736401Y-11448964D01*
X11736401Y-11448964D02*
X11755449Y-11439440D01*
X11907830Y-11639440D02*
X11907830Y-11506107D01*
X11907830Y-11525155D02*
X11917354Y-11515631D01*
X11917354Y-11515631D02*
X11936401Y-11506107D01*
X11936401Y-11506107D02*
X11964973Y-11506107D01*
X11964973Y-11506107D02*
X11984020Y-11515631D01*
X11984020Y-11515631D02*
X11993544Y-11534679D01*
X11993544Y-11534679D02*
X11993544Y-11639440D01*
X11993544Y-11534679D02*
X12003068Y-11515631D01*
X12003068Y-11515631D02*
X12022115Y-11506107D01*
X12022115Y-11506107D02*
X12050687Y-11506107D01*
X12050687Y-11506107D02*
X12069735Y-11515631D01*
X12069735Y-11515631D02*
X12079258Y-11534679D01*
X12079258Y-11534679D02*
X12079258Y-11639440D01*
X12174496Y-11639440D02*
X12174496Y-11506107D01*
X12174496Y-11525155D02*
X12184020Y-11515631D01*
X12184020Y-11515631D02*
X12203068Y-11506107D01*
X12203068Y-11506107D02*
X12231639Y-11506107D01*
X12231639Y-11506107D02*
X12250687Y-11515631D01*
X12250687Y-11515631D02*
X12260211Y-11534679D01*
X12260211Y-11534679D02*
X12260211Y-11639440D01*
X12260211Y-11534679D02*
X12269735Y-11515631D01*
X12269735Y-11515631D02*
X12288782Y-11506107D01*
X12288782Y-11506107D02*
X12317354Y-11506107D01*
X12317354Y-11506107D02*
X12336401Y-11515631D01*
X12336401Y-11515631D02*
X12345925Y-11534679D01*
X12345925Y-11534679D02*
X12345925Y-11639440D01*
X12736401Y-11429917D02*
X12564973Y-11687059D01*
X12993544Y-11439440D02*
X13012592Y-11439440D01*
X13012592Y-11439440D02*
X13031639Y-11448964D01*
X13031639Y-11448964D02*
X13041163Y-11458488D01*
X13041163Y-11458488D02*
X13050687Y-11477536D01*
X13050687Y-11477536D02*
X13060211Y-11515631D01*
X13060211Y-11515631D02*
X13060211Y-11563250D01*
X13060211Y-11563250D02*
X13050687Y-11601345D01*
X13050687Y-11601345D02*
X13041163Y-11620393D01*
X13041163Y-11620393D02*
X13031639Y-11629917D01*
X13031639Y-11629917D02*
X13012592Y-11639440D01*
X13012592Y-11639440D02*
X12993544Y-11639440D01*
X12993544Y-11639440D02*
X12974497Y-11629917D01*
X12974497Y-11629917D02*
X12964973Y-11620393D01*
X12964973Y-11620393D02*
X12955449Y-11601345D01*
X12955449Y-11601345D02*
X12945925Y-11563250D01*
X12945925Y-11563250D02*
X12945925Y-11515631D01*
X12945925Y-11515631D02*
X12955449Y-11477536D01*
X12955449Y-11477536D02*
X12964973Y-11458488D01*
X12964973Y-11458488D02*
X12974497Y-11448964D01*
X12974497Y-11448964D02*
X12993544Y-11439440D01*
X13145925Y-11620393D02*
X13155449Y-11629917D01*
X13155449Y-11629917D02*
X13145925Y-11639440D01*
X13145925Y-11639440D02*
X13136401Y-11629917D01*
X13136401Y-11629917D02*
X13145925Y-11620393D01*
X13145925Y-11620393D02*
X13145925Y-11639440D01*
X13279258Y-11439440D02*
X13298306Y-11439440D01*
X13298306Y-11439440D02*
X13317354Y-11448964D01*
X13317354Y-11448964D02*
X13326878Y-11458488D01*
X13326878Y-11458488D02*
X13336401Y-11477536D01*
X13336401Y-11477536D02*
X13345925Y-11515631D01*
X13345925Y-11515631D02*
X13345925Y-11563250D01*
X13345925Y-11563250D02*
X13336401Y-11601345D01*
X13336401Y-11601345D02*
X13326878Y-11620393D01*
X13326878Y-11620393D02*
X13317354Y-11629917D01*
X13317354Y-11629917D02*
X13298306Y-11639440D01*
X13298306Y-11639440D02*
X13279258Y-11639440D01*
X13279258Y-11639440D02*
X13260211Y-11629917D01*
X13260211Y-11629917D02*
X13250687Y-11620393D01*
X13250687Y-11620393D02*
X13241163Y-11601345D01*
X13241163Y-11601345D02*
X13231639Y-11563250D01*
X13231639Y-11563250D02*
X13231639Y-11515631D01*
X13231639Y-11515631D02*
X13241163Y-11477536D01*
X13241163Y-11477536D02*
X13250687Y-11458488D01*
X13250687Y-11458488D02*
X13260211Y-11448964D01*
X13260211Y-11448964D02*
X13279258Y-11439440D01*
X13469735Y-11439440D02*
X13488782Y-11439440D01*
X13488782Y-11439440D02*
X13507830Y-11448964D01*
X13507830Y-11448964D02*
X13517354Y-11458488D01*
X13517354Y-11458488D02*
X13526878Y-11477536D01*
X13526878Y-11477536D02*
X13536401Y-11515631D01*
X13536401Y-11515631D02*
X13536401Y-11563250D01*
X13536401Y-11563250D02*
X13526878Y-11601345D01*
X13526878Y-11601345D02*
X13517354Y-11620393D01*
X13517354Y-11620393D02*
X13507830Y-11629917D01*
X13507830Y-11629917D02*
X13488782Y-11639440D01*
X13488782Y-11639440D02*
X13469735Y-11639440D01*
X13469735Y-11639440D02*
X13450687Y-11629917D01*
X13450687Y-11629917D02*
X13441163Y-11620393D01*
X13441163Y-11620393D02*
X13431639Y-11601345D01*
X13431639Y-11601345D02*
X13422116Y-11563250D01*
X13422116Y-11563250D02*
X13422116Y-11515631D01*
X13422116Y-11515631D02*
X13431639Y-11477536D01*
X13431639Y-11477536D02*
X13441163Y-11458488D01*
X13441163Y-11458488D02*
X13450687Y-11448964D01*
X13450687Y-11448964D02*
X13469735Y-11439440D01*
X13603068Y-11439440D02*
X13736401Y-11439440D01*
X13736401Y-11439440D02*
X13650687Y-11639440D01*
X13822116Y-11639440D02*
X13860211Y-11639440D01*
X13860211Y-11639440D02*
X13879259Y-11629917D01*
X13879259Y-11629917D02*
X13888782Y-11620393D01*
X13888782Y-11620393D02*
X13907830Y-11591821D01*
X13907830Y-11591821D02*
X13917354Y-11553726D01*
X13917354Y-11553726D02*
X13917354Y-11477536D01*
X13917354Y-11477536D02*
X13907830Y-11458488D01*
X13907830Y-11458488D02*
X13898306Y-11448964D01*
X13898306Y-11448964D02*
X13879259Y-11439440D01*
X13879259Y-11439440D02*
X13841163Y-11439440D01*
X13841163Y-11439440D02*
X13822116Y-11448964D01*
X13822116Y-11448964D02*
X13812592Y-11458488D01*
X13812592Y-11458488D02*
X13803068Y-11477536D01*
X13803068Y-11477536D02*
X13803068Y-11525155D01*
X13803068Y-11525155D02*
X13812592Y-11544202D01*
X13812592Y-11544202D02*
X13822116Y-11553726D01*
X13822116Y-11553726D02*
X13841163Y-11563250D01*
X13841163Y-11563250D02*
X13879259Y-11563250D01*
X13879259Y-11563250D02*
X13898306Y-11553726D01*
X13898306Y-11553726D02*
X13907830Y-11544202D01*
X13907830Y-11544202D02*
X13917354Y-11525155D01*
X13993544Y-11439440D02*
X13993544Y-11477536D01*
X14069735Y-11439440D02*
X14069735Y-11477536D01*
X14364973Y-11715631D02*
X14355449Y-11706107D01*
X14355449Y-11706107D02*
X14336401Y-11677536D01*
X14336401Y-11677536D02*
X14326878Y-11658488D01*
X14326878Y-11658488D02*
X14317354Y-11629917D01*
X14317354Y-11629917D02*
X14307830Y-11582298D01*
X14307830Y-11582298D02*
X14307830Y-11544202D01*
X14307830Y-11544202D02*
X14317354Y-11496583D01*
X14317354Y-11496583D02*
X14326878Y-11468012D01*
X14326878Y-11468012D02*
X14336401Y-11448964D01*
X14336401Y-11448964D02*
X14355449Y-11420393D01*
X14355449Y-11420393D02*
X14364973Y-11410869D01*
X14431640Y-11458488D02*
X14441163Y-11448964D01*
X14441163Y-11448964D02*
X14460211Y-11439440D01*
X14460211Y-11439440D02*
X14507830Y-11439440D01*
X14507830Y-11439440D02*
X14526878Y-11448964D01*
X14526878Y-11448964D02*
X14536401Y-11458488D01*
X14536401Y-11458488D02*
X14545925Y-11477536D01*
X14545925Y-11477536D02*
X14545925Y-11496583D01*
X14545925Y-11496583D02*
X14536401Y-11525155D01*
X14536401Y-11525155D02*
X14422116Y-11639440D01*
X14422116Y-11639440D02*
X14545925Y-11639440D01*
X14717354Y-11506107D02*
X14717354Y-11639440D01*
X14669735Y-11429917D02*
X14622116Y-11572774D01*
X14622116Y-11572774D02*
X14745925Y-11572774D01*
X14974497Y-11639440D02*
X14974497Y-11439440D01*
X15060211Y-11639440D02*
X15060211Y-11534679D01*
X15060211Y-11534679D02*
X15050687Y-11515631D01*
X15050687Y-11515631D02*
X15031640Y-11506107D01*
X15031640Y-11506107D02*
X15003068Y-11506107D01*
X15003068Y-11506107D02*
X14984021Y-11515631D01*
X14984021Y-11515631D02*
X14974497Y-11525155D01*
X15184021Y-11639440D02*
X15164973Y-11629917D01*
X15164973Y-11629917D02*
X15155449Y-11620393D01*
X15155449Y-11620393D02*
X15145925Y-11601345D01*
X15145925Y-11601345D02*
X15145925Y-11544202D01*
X15145925Y-11544202D02*
X15155449Y-11525155D01*
X15155449Y-11525155D02*
X15164973Y-11515631D01*
X15164973Y-11515631D02*
X15184021Y-11506107D01*
X15184021Y-11506107D02*
X15212592Y-11506107D01*
X15212592Y-11506107D02*
X15231640Y-11515631D01*
X15231640Y-11515631D02*
X15241163Y-11525155D01*
X15241163Y-11525155D02*
X15250687Y-11544202D01*
X15250687Y-11544202D02*
X15250687Y-11601345D01*
X15250687Y-11601345D02*
X15241163Y-11620393D01*
X15241163Y-11620393D02*
X15231640Y-11629917D01*
X15231640Y-11629917D02*
X15212592Y-11639440D01*
X15212592Y-11639440D02*
X15184021Y-11639440D01*
X15364973Y-11639440D02*
X15345925Y-11629917D01*
X15345925Y-11629917D02*
X15336402Y-11610869D01*
X15336402Y-11610869D02*
X15336402Y-11439440D01*
X15517354Y-11629917D02*
X15498306Y-11639440D01*
X15498306Y-11639440D02*
X15460211Y-11639440D01*
X15460211Y-11639440D02*
X15441163Y-11629917D01*
X15441163Y-11629917D02*
X15431640Y-11610869D01*
X15431640Y-11610869D02*
X15431640Y-11534679D01*
X15431640Y-11534679D02*
X15441163Y-11515631D01*
X15441163Y-11515631D02*
X15460211Y-11506107D01*
X15460211Y-11506107D02*
X15498306Y-11506107D01*
X15498306Y-11506107D02*
X15517354Y-11515631D01*
X15517354Y-11515631D02*
X15526878Y-11534679D01*
X15526878Y-11534679D02*
X15526878Y-11553726D01*
X15526878Y-11553726D02*
X15431640Y-11572774D01*
X15603068Y-11629917D02*
X15622116Y-11639440D01*
X15622116Y-11639440D02*
X15660211Y-11639440D01*
X15660211Y-11639440D02*
X15679259Y-11629917D01*
X15679259Y-11629917D02*
X15688783Y-11610869D01*
X15688783Y-11610869D02*
X15688783Y-11601345D01*
X15688783Y-11601345D02*
X15679259Y-11582298D01*
X15679259Y-11582298D02*
X15660211Y-11572774D01*
X15660211Y-11572774D02*
X15631640Y-11572774D01*
X15631640Y-11572774D02*
X15612592Y-11563250D01*
X15612592Y-11563250D02*
X15603068Y-11544202D01*
X15603068Y-11544202D02*
X15603068Y-11534679D01*
X15603068Y-11534679D02*
X15612592Y-11515631D01*
X15612592Y-11515631D02*
X15631640Y-11506107D01*
X15631640Y-11506107D02*
X15660211Y-11506107D01*
X15660211Y-11506107D02*
X15679259Y-11515631D01*
X15755449Y-11715631D02*
X15764973Y-11706107D01*
X15764973Y-11706107D02*
X15784021Y-11677536D01*
X15784021Y-11677536D02*
X15793544Y-11658488D01*
X15793544Y-11658488D02*
X15803068Y-11629917D01*
X15803068Y-11629917D02*
X15812592Y-11582298D01*
X15812592Y-11582298D02*
X15812592Y-11544202D01*
X15812592Y-11544202D02*
X15803068Y-11496583D01*
X15803068Y-11496583D02*
X15793544Y-11468012D01*
X15793544Y-11468012D02*
X15784021Y-11448964D01*
X15784021Y-11448964D02*
X15764973Y-11420393D01*
X15764973Y-11420393D02*
X15755449Y-11410869D01*
D14*
X10789910Y-11811957D02*
G75*
G03*
X10789910Y-11811957I-35000J0D01*
G01*
D12*
X11088782Y-11703440D02*
X11107830Y-11703440D01*
X11107830Y-11703440D02*
X11126877Y-11712964D01*
X11126877Y-11712964D02*
X11136401Y-11722488D01*
X11136401Y-11722488D02*
X11145925Y-11741536D01*
X11145925Y-11741536D02*
X11155449Y-11779631D01*
X11155449Y-11779631D02*
X11155449Y-11827250D01*
X11155449Y-11827250D02*
X11145925Y-11865345D01*
X11145925Y-11865345D02*
X11136401Y-11884393D01*
X11136401Y-11884393D02*
X11126877Y-11893917D01*
X11126877Y-11893917D02*
X11107830Y-11903440D01*
X11107830Y-11903440D02*
X11088782Y-11903440D01*
X11088782Y-11903440D02*
X11069735Y-11893917D01*
X11069735Y-11893917D02*
X11060211Y-11884393D01*
X11060211Y-11884393D02*
X11050687Y-11865345D01*
X11050687Y-11865345D02*
X11041163Y-11827250D01*
X11041163Y-11827250D02*
X11041163Y-11779631D01*
X11041163Y-11779631D02*
X11050687Y-11741536D01*
X11050687Y-11741536D02*
X11060211Y-11722488D01*
X11060211Y-11722488D02*
X11069735Y-11712964D01*
X11069735Y-11712964D02*
X11088782Y-11703440D01*
X11241163Y-11884393D02*
X11250687Y-11893917D01*
X11250687Y-11893917D02*
X11241163Y-11903440D01*
X11241163Y-11903440D02*
X11231639Y-11893917D01*
X11231639Y-11893917D02*
X11241163Y-11884393D01*
X11241163Y-11884393D02*
X11241163Y-11903440D01*
X11317354Y-11703440D02*
X11450687Y-11703440D01*
X11450687Y-11703440D02*
X11364973Y-11903440D01*
X11564973Y-11703440D02*
X11584020Y-11703440D01*
X11584020Y-11703440D02*
X11603068Y-11712964D01*
X11603068Y-11712964D02*
X11612592Y-11722488D01*
X11612592Y-11722488D02*
X11622115Y-11741536D01*
X11622115Y-11741536D02*
X11631639Y-11779631D01*
X11631639Y-11779631D02*
X11631639Y-11827250D01*
X11631639Y-11827250D02*
X11622115Y-11865345D01*
X11622115Y-11865345D02*
X11612592Y-11884393D01*
X11612592Y-11884393D02*
X11603068Y-11893917D01*
X11603068Y-11893917D02*
X11584020Y-11903440D01*
X11584020Y-11903440D02*
X11564973Y-11903440D01*
X11564973Y-11903440D02*
X11545925Y-11893917D01*
X11545925Y-11893917D02*
X11536401Y-11884393D01*
X11536401Y-11884393D02*
X11526877Y-11865345D01*
X11526877Y-11865345D02*
X11517354Y-11827250D01*
X11517354Y-11827250D02*
X11517354Y-11779631D01*
X11517354Y-11779631D02*
X11526877Y-11741536D01*
X11526877Y-11741536D02*
X11536401Y-11722488D01*
X11536401Y-11722488D02*
X11545925Y-11712964D01*
X11545925Y-11712964D02*
X11564973Y-11703440D01*
X11755449Y-11703440D02*
X11774496Y-11703440D01*
X11774496Y-11703440D02*
X11793544Y-11712964D01*
X11793544Y-11712964D02*
X11803068Y-11722488D01*
X11803068Y-11722488D02*
X11812592Y-11741536D01*
X11812592Y-11741536D02*
X11822115Y-11779631D01*
X11822115Y-11779631D02*
X11822115Y-11827250D01*
X11822115Y-11827250D02*
X11812592Y-11865345D01*
X11812592Y-11865345D02*
X11803068Y-11884393D01*
X11803068Y-11884393D02*
X11793544Y-11893917D01*
X11793544Y-11893917D02*
X11774496Y-11903440D01*
X11774496Y-11903440D02*
X11755449Y-11903440D01*
X11755449Y-11903440D02*
X11736401Y-11893917D01*
X11736401Y-11893917D02*
X11726877Y-11884393D01*
X11726877Y-11884393D02*
X11717354Y-11865345D01*
X11717354Y-11865345D02*
X11707830Y-11827250D01*
X11707830Y-11827250D02*
X11707830Y-11779631D01*
X11707830Y-11779631D02*
X11717354Y-11741536D01*
X11717354Y-11741536D02*
X11726877Y-11722488D01*
X11726877Y-11722488D02*
X11736401Y-11712964D01*
X11736401Y-11712964D02*
X11755449Y-11703440D01*
X11907830Y-11903440D02*
X11907830Y-11770107D01*
X11907830Y-11789155D02*
X11917354Y-11779631D01*
X11917354Y-11779631D02*
X11936401Y-11770107D01*
X11936401Y-11770107D02*
X11964973Y-11770107D01*
X11964973Y-11770107D02*
X11984020Y-11779631D01*
X11984020Y-11779631D02*
X11993544Y-11798679D01*
X11993544Y-11798679D02*
X11993544Y-11903440D01*
X11993544Y-11798679D02*
X12003068Y-11779631D01*
X12003068Y-11779631D02*
X12022115Y-11770107D01*
X12022115Y-11770107D02*
X12050687Y-11770107D01*
X12050687Y-11770107D02*
X12069735Y-11779631D01*
X12069735Y-11779631D02*
X12079258Y-11798679D01*
X12079258Y-11798679D02*
X12079258Y-11903440D01*
X12174496Y-11903440D02*
X12174496Y-11770107D01*
X12174496Y-11789155D02*
X12184020Y-11779631D01*
X12184020Y-11779631D02*
X12203068Y-11770107D01*
X12203068Y-11770107D02*
X12231639Y-11770107D01*
X12231639Y-11770107D02*
X12250687Y-11779631D01*
X12250687Y-11779631D02*
X12260211Y-11798679D01*
X12260211Y-11798679D02*
X12260211Y-11903440D01*
X12260211Y-11798679D02*
X12269735Y-11779631D01*
X12269735Y-11779631D02*
X12288782Y-11770107D01*
X12288782Y-11770107D02*
X12317354Y-11770107D01*
X12317354Y-11770107D02*
X12336401Y-11779631D01*
X12336401Y-11779631D02*
X12345925Y-11798679D01*
X12345925Y-11798679D02*
X12345925Y-11903440D01*
X12736401Y-11693917D02*
X12564973Y-11951059D01*
X12993544Y-11703440D02*
X13012592Y-11703440D01*
X13012592Y-11703440D02*
X13031639Y-11712964D01*
X13031639Y-11712964D02*
X13041163Y-11722488D01*
X13041163Y-11722488D02*
X13050687Y-11741536D01*
X13050687Y-11741536D02*
X13060211Y-11779631D01*
X13060211Y-11779631D02*
X13060211Y-11827250D01*
X13060211Y-11827250D02*
X13050687Y-11865345D01*
X13050687Y-11865345D02*
X13041163Y-11884393D01*
X13041163Y-11884393D02*
X13031639Y-11893917D01*
X13031639Y-11893917D02*
X13012592Y-11903440D01*
X13012592Y-11903440D02*
X12993544Y-11903440D01*
X12993544Y-11903440D02*
X12974497Y-11893917D01*
X12974497Y-11893917D02*
X12964973Y-11884393D01*
X12964973Y-11884393D02*
X12955449Y-11865345D01*
X12955449Y-11865345D02*
X12945925Y-11827250D01*
X12945925Y-11827250D02*
X12945925Y-11779631D01*
X12945925Y-11779631D02*
X12955449Y-11741536D01*
X12955449Y-11741536D02*
X12964973Y-11722488D01*
X12964973Y-11722488D02*
X12974497Y-11712964D01*
X12974497Y-11712964D02*
X12993544Y-11703440D01*
X13145925Y-11884393D02*
X13155449Y-11893917D01*
X13155449Y-11893917D02*
X13145925Y-11903440D01*
X13145925Y-11903440D02*
X13136401Y-11893917D01*
X13136401Y-11893917D02*
X13145925Y-11884393D01*
X13145925Y-11884393D02*
X13145925Y-11903440D01*
X13279258Y-11703440D02*
X13298306Y-11703440D01*
X13298306Y-11703440D02*
X13317354Y-11712964D01*
X13317354Y-11712964D02*
X13326878Y-11722488D01*
X13326878Y-11722488D02*
X13336401Y-11741536D01*
X13336401Y-11741536D02*
X13345925Y-11779631D01*
X13345925Y-11779631D02*
X13345925Y-11827250D01*
X13345925Y-11827250D02*
X13336401Y-11865345D01*
X13336401Y-11865345D02*
X13326878Y-11884393D01*
X13326878Y-11884393D02*
X13317354Y-11893917D01*
X13317354Y-11893917D02*
X13298306Y-11903440D01*
X13298306Y-11903440D02*
X13279258Y-11903440D01*
X13279258Y-11903440D02*
X13260211Y-11893917D01*
X13260211Y-11893917D02*
X13250687Y-11884393D01*
X13250687Y-11884393D02*
X13241163Y-11865345D01*
X13241163Y-11865345D02*
X13231639Y-11827250D01*
X13231639Y-11827250D02*
X13231639Y-11779631D01*
X13231639Y-11779631D02*
X13241163Y-11741536D01*
X13241163Y-11741536D02*
X13250687Y-11722488D01*
X13250687Y-11722488D02*
X13260211Y-11712964D01*
X13260211Y-11712964D02*
X13279258Y-11703440D01*
X13422116Y-11722488D02*
X13431639Y-11712964D01*
X13431639Y-11712964D02*
X13450687Y-11703440D01*
X13450687Y-11703440D02*
X13498306Y-11703440D01*
X13498306Y-11703440D02*
X13517354Y-11712964D01*
X13517354Y-11712964D02*
X13526878Y-11722488D01*
X13526878Y-11722488D02*
X13536401Y-11741536D01*
X13536401Y-11741536D02*
X13536401Y-11760583D01*
X13536401Y-11760583D02*
X13526878Y-11789155D01*
X13526878Y-11789155D02*
X13412592Y-11903440D01*
X13412592Y-11903440D02*
X13536401Y-11903440D01*
X13603068Y-11703440D02*
X13736401Y-11703440D01*
X13736401Y-11703440D02*
X13650687Y-11903440D01*
X13898306Y-11703440D02*
X13860211Y-11703440D01*
X13860211Y-11703440D02*
X13841163Y-11712964D01*
X13841163Y-11712964D02*
X13831639Y-11722488D01*
X13831639Y-11722488D02*
X13812592Y-11751059D01*
X13812592Y-11751059D02*
X13803068Y-11789155D01*
X13803068Y-11789155D02*
X13803068Y-11865345D01*
X13803068Y-11865345D02*
X13812592Y-11884393D01*
X13812592Y-11884393D02*
X13822116Y-11893917D01*
X13822116Y-11893917D02*
X13841163Y-11903440D01*
X13841163Y-11903440D02*
X13879259Y-11903440D01*
X13879259Y-11903440D02*
X13898306Y-11893917D01*
X13898306Y-11893917D02*
X13907830Y-11884393D01*
X13907830Y-11884393D02*
X13917354Y-11865345D01*
X13917354Y-11865345D02*
X13917354Y-11817726D01*
X13917354Y-11817726D02*
X13907830Y-11798679D01*
X13907830Y-11798679D02*
X13898306Y-11789155D01*
X13898306Y-11789155D02*
X13879259Y-11779631D01*
X13879259Y-11779631D02*
X13841163Y-11779631D01*
X13841163Y-11779631D02*
X13822116Y-11789155D01*
X13822116Y-11789155D02*
X13812592Y-11798679D01*
X13812592Y-11798679D02*
X13803068Y-11817726D01*
X13993544Y-11703440D02*
X13993544Y-11741536D01*
X14069735Y-11703440D02*
X14069735Y-11741536D01*
X14364973Y-11979631D02*
X14355449Y-11970107D01*
X14355449Y-11970107D02*
X14336401Y-11941536D01*
X14336401Y-11941536D02*
X14326878Y-11922488D01*
X14326878Y-11922488D02*
X14317354Y-11893917D01*
X14317354Y-11893917D02*
X14307830Y-11846298D01*
X14307830Y-11846298D02*
X14307830Y-11808202D01*
X14307830Y-11808202D02*
X14317354Y-11760583D01*
X14317354Y-11760583D02*
X14326878Y-11732012D01*
X14326878Y-11732012D02*
X14336401Y-11712964D01*
X14336401Y-11712964D02*
X14355449Y-11684393D01*
X14355449Y-11684393D02*
X14364973Y-11674869D01*
X14431640Y-11722488D02*
X14441163Y-11712964D01*
X14441163Y-11712964D02*
X14460211Y-11703440D01*
X14460211Y-11703440D02*
X14507830Y-11703440D01*
X14507830Y-11703440D02*
X14526878Y-11712964D01*
X14526878Y-11712964D02*
X14536401Y-11722488D01*
X14536401Y-11722488D02*
X14545925Y-11741536D01*
X14545925Y-11741536D02*
X14545925Y-11760583D01*
X14545925Y-11760583D02*
X14536401Y-11789155D01*
X14536401Y-11789155D02*
X14422116Y-11903440D01*
X14422116Y-11903440D02*
X14545925Y-11903440D01*
X14784021Y-11903440D02*
X14784021Y-11703440D01*
X14869735Y-11903440D02*
X14869735Y-11798679D01*
X14869735Y-11798679D02*
X14860211Y-11779631D01*
X14860211Y-11779631D02*
X14841163Y-11770107D01*
X14841163Y-11770107D02*
X14812592Y-11770107D01*
X14812592Y-11770107D02*
X14793544Y-11779631D01*
X14793544Y-11779631D02*
X14784021Y-11789155D01*
X14993544Y-11903440D02*
X14974497Y-11893917D01*
X14974497Y-11893917D02*
X14964973Y-11884393D01*
X14964973Y-11884393D02*
X14955449Y-11865345D01*
X14955449Y-11865345D02*
X14955449Y-11808202D01*
X14955449Y-11808202D02*
X14964973Y-11789155D01*
X14964973Y-11789155D02*
X14974497Y-11779631D01*
X14974497Y-11779631D02*
X14993544Y-11770107D01*
X14993544Y-11770107D02*
X15022116Y-11770107D01*
X15022116Y-11770107D02*
X15041163Y-11779631D01*
X15041163Y-11779631D02*
X15050687Y-11789155D01*
X15050687Y-11789155D02*
X15060211Y-11808202D01*
X15060211Y-11808202D02*
X15060211Y-11865345D01*
X15060211Y-11865345D02*
X15050687Y-11884393D01*
X15050687Y-11884393D02*
X15041163Y-11893917D01*
X15041163Y-11893917D02*
X15022116Y-11903440D01*
X15022116Y-11903440D02*
X14993544Y-11903440D01*
X15174497Y-11903440D02*
X15155449Y-11893917D01*
X15155449Y-11893917D02*
X15145925Y-11874869D01*
X15145925Y-11874869D02*
X15145925Y-11703440D01*
X15326878Y-11893917D02*
X15307830Y-11903440D01*
X15307830Y-11903440D02*
X15269735Y-11903440D01*
X15269735Y-11903440D02*
X15250687Y-11893917D01*
X15250687Y-11893917D02*
X15241163Y-11874869D01*
X15241163Y-11874869D02*
X15241163Y-11798679D01*
X15241163Y-11798679D02*
X15250687Y-11779631D01*
X15250687Y-11779631D02*
X15269735Y-11770107D01*
X15269735Y-11770107D02*
X15307830Y-11770107D01*
X15307830Y-11770107D02*
X15326878Y-11779631D01*
X15326878Y-11779631D02*
X15336402Y-11798679D01*
X15336402Y-11798679D02*
X15336402Y-11817726D01*
X15336402Y-11817726D02*
X15241163Y-11836774D01*
X15412592Y-11893917D02*
X15431640Y-11903440D01*
X15431640Y-11903440D02*
X15469735Y-11903440D01*
X15469735Y-11903440D02*
X15488783Y-11893917D01*
X15488783Y-11893917D02*
X15498306Y-11874869D01*
X15498306Y-11874869D02*
X15498306Y-11865345D01*
X15498306Y-11865345D02*
X15488783Y-11846298D01*
X15488783Y-11846298D02*
X15469735Y-11836774D01*
X15469735Y-11836774D02*
X15441163Y-11836774D01*
X15441163Y-11836774D02*
X15422116Y-11827250D01*
X15422116Y-11827250D02*
X15412592Y-11808202D01*
X15412592Y-11808202D02*
X15412592Y-11798679D01*
X15412592Y-11798679D02*
X15422116Y-11779631D01*
X15422116Y-11779631D02*
X15441163Y-11770107D01*
X15441163Y-11770107D02*
X15469735Y-11770107D01*
X15469735Y-11770107D02*
X15488783Y-11779631D01*
X15564973Y-11979631D02*
X15574497Y-11970107D01*
X15574497Y-11970107D02*
X15593544Y-11941536D01*
X15593544Y-11941536D02*
X15603068Y-11922488D01*
X15603068Y-11922488D02*
X15612592Y-11893917D01*
X15612592Y-11893917D02*
X15622116Y-11846298D01*
X15622116Y-11846298D02*
X15622116Y-11808202D01*
X15622116Y-11808202D02*
X15612592Y-11760583D01*
X15612592Y-11760583D02*
X15603068Y-11732012D01*
X15603068Y-11732012D02*
X15593544Y-11712964D01*
X15593544Y-11712964D02*
X15574497Y-11684393D01*
X15574497Y-11684393D02*
X15564973Y-11674869D01*
D10*
X10739910Y-12025957D02*
X10739910Y-12125957D01*
X10689910Y-12075957D02*
X10789910Y-12075957D01*
D12*
X11155449Y-12167440D02*
X11041163Y-12167440D01*
X11098306Y-12167440D02*
X11098306Y-11967440D01*
X11098306Y-11967440D02*
X11079258Y-11996012D01*
X11079258Y-11996012D02*
X11060211Y-12015059D01*
X11060211Y-12015059D02*
X11041163Y-12024583D01*
X11241163Y-12148393D02*
X11250687Y-12157917D01*
X11250687Y-12157917D02*
X11241163Y-12167440D01*
X11241163Y-12167440D02*
X11231639Y-12157917D01*
X11231639Y-12157917D02*
X11241163Y-12148393D01*
X11241163Y-12148393D02*
X11241163Y-12167440D01*
X11374496Y-11967440D02*
X11393544Y-11967440D01*
X11393544Y-11967440D02*
X11412592Y-11976964D01*
X11412592Y-11976964D02*
X11422115Y-11986488D01*
X11422115Y-11986488D02*
X11431639Y-12005536D01*
X11431639Y-12005536D02*
X11441163Y-12043631D01*
X11441163Y-12043631D02*
X11441163Y-12091250D01*
X11441163Y-12091250D02*
X11431639Y-12129345D01*
X11431639Y-12129345D02*
X11422115Y-12148393D01*
X11422115Y-12148393D02*
X11412592Y-12157917D01*
X11412592Y-12157917D02*
X11393544Y-12167440D01*
X11393544Y-12167440D02*
X11374496Y-12167440D01*
X11374496Y-12167440D02*
X11355449Y-12157917D01*
X11355449Y-12157917D02*
X11345925Y-12148393D01*
X11345925Y-12148393D02*
X11336401Y-12129345D01*
X11336401Y-12129345D02*
X11326877Y-12091250D01*
X11326877Y-12091250D02*
X11326877Y-12043631D01*
X11326877Y-12043631D02*
X11336401Y-12005536D01*
X11336401Y-12005536D02*
X11345925Y-11986488D01*
X11345925Y-11986488D02*
X11355449Y-11976964D01*
X11355449Y-11976964D02*
X11374496Y-11967440D01*
X11564973Y-11967440D02*
X11584020Y-11967440D01*
X11584020Y-11967440D02*
X11603068Y-11976964D01*
X11603068Y-11976964D02*
X11612592Y-11986488D01*
X11612592Y-11986488D02*
X11622115Y-12005536D01*
X11622115Y-12005536D02*
X11631639Y-12043631D01*
X11631639Y-12043631D02*
X11631639Y-12091250D01*
X11631639Y-12091250D02*
X11622115Y-12129345D01*
X11622115Y-12129345D02*
X11612592Y-12148393D01*
X11612592Y-12148393D02*
X11603068Y-12157917D01*
X11603068Y-12157917D02*
X11584020Y-12167440D01*
X11584020Y-12167440D02*
X11564973Y-12167440D01*
X11564973Y-12167440D02*
X11545925Y-12157917D01*
X11545925Y-12157917D02*
X11536401Y-12148393D01*
X11536401Y-12148393D02*
X11526877Y-12129345D01*
X11526877Y-12129345D02*
X11517354Y-12091250D01*
X11517354Y-12091250D02*
X11517354Y-12043631D01*
X11517354Y-12043631D02*
X11526877Y-12005536D01*
X11526877Y-12005536D02*
X11536401Y-11986488D01*
X11536401Y-11986488D02*
X11545925Y-11976964D01*
X11545925Y-11976964D02*
X11564973Y-11967440D01*
X11755449Y-11967440D02*
X11774496Y-11967440D01*
X11774496Y-11967440D02*
X11793544Y-11976964D01*
X11793544Y-11976964D02*
X11803068Y-11986488D01*
X11803068Y-11986488D02*
X11812592Y-12005536D01*
X11812592Y-12005536D02*
X11822115Y-12043631D01*
X11822115Y-12043631D02*
X11822115Y-12091250D01*
X11822115Y-12091250D02*
X11812592Y-12129345D01*
X11812592Y-12129345D02*
X11803068Y-12148393D01*
X11803068Y-12148393D02*
X11793544Y-12157917D01*
X11793544Y-12157917D02*
X11774496Y-12167440D01*
X11774496Y-12167440D02*
X11755449Y-12167440D01*
X11755449Y-12167440D02*
X11736401Y-12157917D01*
X11736401Y-12157917D02*
X11726877Y-12148393D01*
X11726877Y-12148393D02*
X11717354Y-12129345D01*
X11717354Y-12129345D02*
X11707830Y-12091250D01*
X11707830Y-12091250D02*
X11707830Y-12043631D01*
X11707830Y-12043631D02*
X11717354Y-12005536D01*
X11717354Y-12005536D02*
X11726877Y-11986488D01*
X11726877Y-11986488D02*
X11736401Y-11976964D01*
X11736401Y-11976964D02*
X11755449Y-11967440D01*
X11907830Y-12167440D02*
X11907830Y-12034107D01*
X11907830Y-12053155D02*
X11917354Y-12043631D01*
X11917354Y-12043631D02*
X11936401Y-12034107D01*
X11936401Y-12034107D02*
X11964973Y-12034107D01*
X11964973Y-12034107D02*
X11984020Y-12043631D01*
X11984020Y-12043631D02*
X11993544Y-12062679D01*
X11993544Y-12062679D02*
X11993544Y-12167440D01*
X11993544Y-12062679D02*
X12003068Y-12043631D01*
X12003068Y-12043631D02*
X12022115Y-12034107D01*
X12022115Y-12034107D02*
X12050687Y-12034107D01*
X12050687Y-12034107D02*
X12069735Y-12043631D01*
X12069735Y-12043631D02*
X12079258Y-12062679D01*
X12079258Y-12062679D02*
X12079258Y-12167440D01*
X12174496Y-12167440D02*
X12174496Y-12034107D01*
X12174496Y-12053155D02*
X12184020Y-12043631D01*
X12184020Y-12043631D02*
X12203068Y-12034107D01*
X12203068Y-12034107D02*
X12231639Y-12034107D01*
X12231639Y-12034107D02*
X12250687Y-12043631D01*
X12250687Y-12043631D02*
X12260211Y-12062679D01*
X12260211Y-12062679D02*
X12260211Y-12167440D01*
X12260211Y-12062679D02*
X12269735Y-12043631D01*
X12269735Y-12043631D02*
X12288782Y-12034107D01*
X12288782Y-12034107D02*
X12317354Y-12034107D01*
X12317354Y-12034107D02*
X12336401Y-12043631D01*
X12336401Y-12043631D02*
X12345925Y-12062679D01*
X12345925Y-12062679D02*
X12345925Y-12167440D01*
X12736401Y-11957917D02*
X12564973Y-12215059D01*
X12993544Y-11967440D02*
X13012592Y-11967440D01*
X13012592Y-11967440D02*
X13031639Y-11976964D01*
X13031639Y-11976964D02*
X13041163Y-11986488D01*
X13041163Y-11986488D02*
X13050687Y-12005536D01*
X13050687Y-12005536D02*
X13060211Y-12043631D01*
X13060211Y-12043631D02*
X13060211Y-12091250D01*
X13060211Y-12091250D02*
X13050687Y-12129345D01*
X13050687Y-12129345D02*
X13041163Y-12148393D01*
X13041163Y-12148393D02*
X13031639Y-12157917D01*
X13031639Y-12157917D02*
X13012592Y-12167440D01*
X13012592Y-12167440D02*
X12993544Y-12167440D01*
X12993544Y-12167440D02*
X12974497Y-12157917D01*
X12974497Y-12157917D02*
X12964973Y-12148393D01*
X12964973Y-12148393D02*
X12955449Y-12129345D01*
X12955449Y-12129345D02*
X12945925Y-12091250D01*
X12945925Y-12091250D02*
X12945925Y-12043631D01*
X12945925Y-12043631D02*
X12955449Y-12005536D01*
X12955449Y-12005536D02*
X12964973Y-11986488D01*
X12964973Y-11986488D02*
X12974497Y-11976964D01*
X12974497Y-11976964D02*
X12993544Y-11967440D01*
X13145925Y-12148393D02*
X13155449Y-12157917D01*
X13155449Y-12157917D02*
X13145925Y-12167440D01*
X13145925Y-12167440D02*
X13136401Y-12157917D01*
X13136401Y-12157917D02*
X13145925Y-12148393D01*
X13145925Y-12148393D02*
X13145925Y-12167440D01*
X13279258Y-11967440D02*
X13298306Y-11967440D01*
X13298306Y-11967440D02*
X13317354Y-11976964D01*
X13317354Y-11976964D02*
X13326878Y-11986488D01*
X13326878Y-11986488D02*
X13336401Y-12005536D01*
X13336401Y-12005536D02*
X13345925Y-12043631D01*
X13345925Y-12043631D02*
X13345925Y-12091250D01*
X13345925Y-12091250D02*
X13336401Y-12129345D01*
X13336401Y-12129345D02*
X13326878Y-12148393D01*
X13326878Y-12148393D02*
X13317354Y-12157917D01*
X13317354Y-12157917D02*
X13298306Y-12167440D01*
X13298306Y-12167440D02*
X13279258Y-12167440D01*
X13279258Y-12167440D02*
X13260211Y-12157917D01*
X13260211Y-12157917D02*
X13250687Y-12148393D01*
X13250687Y-12148393D02*
X13241163Y-12129345D01*
X13241163Y-12129345D02*
X13231639Y-12091250D01*
X13231639Y-12091250D02*
X13231639Y-12043631D01*
X13231639Y-12043631D02*
X13241163Y-12005536D01*
X13241163Y-12005536D02*
X13250687Y-11986488D01*
X13250687Y-11986488D02*
X13260211Y-11976964D01*
X13260211Y-11976964D02*
X13279258Y-11967440D01*
X13412592Y-11967440D02*
X13536401Y-11967440D01*
X13536401Y-11967440D02*
X13469735Y-12043631D01*
X13469735Y-12043631D02*
X13498306Y-12043631D01*
X13498306Y-12043631D02*
X13517354Y-12053155D01*
X13517354Y-12053155D02*
X13526878Y-12062679D01*
X13526878Y-12062679D02*
X13536401Y-12081726D01*
X13536401Y-12081726D02*
X13536401Y-12129345D01*
X13536401Y-12129345D02*
X13526878Y-12148393D01*
X13526878Y-12148393D02*
X13517354Y-12157917D01*
X13517354Y-12157917D02*
X13498306Y-12167440D01*
X13498306Y-12167440D02*
X13441163Y-12167440D01*
X13441163Y-12167440D02*
X13422116Y-12157917D01*
X13422116Y-12157917D02*
X13412592Y-12148393D01*
X13631639Y-12167440D02*
X13669735Y-12167440D01*
X13669735Y-12167440D02*
X13688782Y-12157917D01*
X13688782Y-12157917D02*
X13698306Y-12148393D01*
X13698306Y-12148393D02*
X13717354Y-12119821D01*
X13717354Y-12119821D02*
X13726878Y-12081726D01*
X13726878Y-12081726D02*
X13726878Y-12005536D01*
X13726878Y-12005536D02*
X13717354Y-11986488D01*
X13717354Y-11986488D02*
X13707830Y-11976964D01*
X13707830Y-11976964D02*
X13688782Y-11967440D01*
X13688782Y-11967440D02*
X13650687Y-11967440D01*
X13650687Y-11967440D02*
X13631639Y-11976964D01*
X13631639Y-11976964D02*
X13622116Y-11986488D01*
X13622116Y-11986488D02*
X13612592Y-12005536D01*
X13612592Y-12005536D02*
X13612592Y-12053155D01*
X13612592Y-12053155D02*
X13622116Y-12072202D01*
X13622116Y-12072202D02*
X13631639Y-12081726D01*
X13631639Y-12081726D02*
X13650687Y-12091250D01*
X13650687Y-12091250D02*
X13688782Y-12091250D01*
X13688782Y-12091250D02*
X13707830Y-12081726D01*
X13707830Y-12081726D02*
X13717354Y-12072202D01*
X13717354Y-12072202D02*
X13726878Y-12053155D01*
X13898306Y-12034107D02*
X13898306Y-12167440D01*
X13850687Y-11957917D02*
X13803068Y-12100774D01*
X13803068Y-12100774D02*
X13926878Y-12100774D01*
X13993544Y-11967440D02*
X13993544Y-12005536D01*
X14069735Y-11967440D02*
X14069735Y-12005536D01*
X14364973Y-12243631D02*
X14355449Y-12234107D01*
X14355449Y-12234107D02*
X14336401Y-12205536D01*
X14336401Y-12205536D02*
X14326878Y-12186488D01*
X14326878Y-12186488D02*
X14317354Y-12157917D01*
X14317354Y-12157917D02*
X14307830Y-12110298D01*
X14307830Y-12110298D02*
X14307830Y-12072202D01*
X14307830Y-12072202D02*
X14317354Y-12024583D01*
X14317354Y-12024583D02*
X14326878Y-11996012D01*
X14326878Y-11996012D02*
X14336401Y-11976964D01*
X14336401Y-11976964D02*
X14355449Y-11948393D01*
X14355449Y-11948393D02*
X14364973Y-11938869D01*
X14479259Y-11967440D02*
X14498306Y-11967440D01*
X14498306Y-11967440D02*
X14517354Y-11976964D01*
X14517354Y-11976964D02*
X14526878Y-11986488D01*
X14526878Y-11986488D02*
X14536401Y-12005536D01*
X14536401Y-12005536D02*
X14545925Y-12043631D01*
X14545925Y-12043631D02*
X14545925Y-12091250D01*
X14545925Y-12091250D02*
X14536401Y-12129345D01*
X14536401Y-12129345D02*
X14526878Y-12148393D01*
X14526878Y-12148393D02*
X14517354Y-12157917D01*
X14517354Y-12157917D02*
X14498306Y-12167440D01*
X14498306Y-12167440D02*
X14479259Y-12167440D01*
X14479259Y-12167440D02*
X14460211Y-12157917D01*
X14460211Y-12157917D02*
X14450687Y-12148393D01*
X14450687Y-12148393D02*
X14441163Y-12129345D01*
X14441163Y-12129345D02*
X14431640Y-12091250D01*
X14431640Y-12091250D02*
X14431640Y-12043631D01*
X14431640Y-12043631D02*
X14441163Y-12005536D01*
X14441163Y-12005536D02*
X14450687Y-11986488D01*
X14450687Y-11986488D02*
X14460211Y-11976964D01*
X14460211Y-11976964D02*
X14479259Y-11967440D01*
X14784021Y-12167440D02*
X14784021Y-11967440D01*
X14869735Y-12167440D02*
X14869735Y-12062679D01*
X14869735Y-12062679D02*
X14860211Y-12043631D01*
X14860211Y-12043631D02*
X14841163Y-12034107D01*
X14841163Y-12034107D02*
X14812592Y-12034107D01*
X14812592Y-12034107D02*
X14793544Y-12043631D01*
X14793544Y-12043631D02*
X14784021Y-12053155D01*
X14993544Y-12167440D02*
X14974497Y-12157917D01*
X14974497Y-12157917D02*
X14964973Y-12148393D01*
X14964973Y-12148393D02*
X14955449Y-12129345D01*
X14955449Y-12129345D02*
X14955449Y-12072202D01*
X14955449Y-12072202D02*
X14964973Y-12053155D01*
X14964973Y-12053155D02*
X14974497Y-12043631D01*
X14974497Y-12043631D02*
X14993544Y-12034107D01*
X14993544Y-12034107D02*
X15022116Y-12034107D01*
X15022116Y-12034107D02*
X15041163Y-12043631D01*
X15041163Y-12043631D02*
X15050687Y-12053155D01*
X15050687Y-12053155D02*
X15060211Y-12072202D01*
X15060211Y-12072202D02*
X15060211Y-12129345D01*
X15060211Y-12129345D02*
X15050687Y-12148393D01*
X15050687Y-12148393D02*
X15041163Y-12157917D01*
X15041163Y-12157917D02*
X15022116Y-12167440D01*
X15022116Y-12167440D02*
X14993544Y-12167440D01*
X15174497Y-12167440D02*
X15155449Y-12157917D01*
X15155449Y-12157917D02*
X15145925Y-12138869D01*
X15145925Y-12138869D02*
X15145925Y-11967440D01*
X15326878Y-12157917D02*
X15307830Y-12167440D01*
X15307830Y-12167440D02*
X15269735Y-12167440D01*
X15269735Y-12167440D02*
X15250687Y-12157917D01*
X15250687Y-12157917D02*
X15241163Y-12138869D01*
X15241163Y-12138869D02*
X15241163Y-12062679D01*
X15241163Y-12062679D02*
X15250687Y-12043631D01*
X15250687Y-12043631D02*
X15269735Y-12034107D01*
X15269735Y-12034107D02*
X15307830Y-12034107D01*
X15307830Y-12034107D02*
X15326878Y-12043631D01*
X15326878Y-12043631D02*
X15336402Y-12062679D01*
X15336402Y-12062679D02*
X15336402Y-12081726D01*
X15336402Y-12081726D02*
X15241163Y-12100774D01*
X15412592Y-12157917D02*
X15431640Y-12167440D01*
X15431640Y-12167440D02*
X15469735Y-12167440D01*
X15469735Y-12167440D02*
X15488783Y-12157917D01*
X15488783Y-12157917D02*
X15498306Y-12138869D01*
X15498306Y-12138869D02*
X15498306Y-12129345D01*
X15498306Y-12129345D02*
X15488783Y-12110298D01*
X15488783Y-12110298D02*
X15469735Y-12100774D01*
X15469735Y-12100774D02*
X15441163Y-12100774D01*
X15441163Y-12100774D02*
X15422116Y-12091250D01*
X15422116Y-12091250D02*
X15412592Y-12072202D01*
X15412592Y-12072202D02*
X15412592Y-12062679D01*
X15412592Y-12062679D02*
X15422116Y-12043631D01*
X15422116Y-12043631D02*
X15441163Y-12034107D01*
X15441163Y-12034107D02*
X15469735Y-12034107D01*
X15469735Y-12034107D02*
X15488783Y-12043631D01*
X15736402Y-12091250D02*
X15888783Y-12091250D01*
X15812592Y-12167440D02*
X15812592Y-12015059D01*
X16164973Y-12053155D02*
X16145925Y-12043631D01*
X16145925Y-12043631D02*
X16136402Y-12034107D01*
X16136402Y-12034107D02*
X16126878Y-12015059D01*
X16126878Y-12015059D02*
X16126878Y-12005536D01*
X16126878Y-12005536D02*
X16136402Y-11986488D01*
X16136402Y-11986488D02*
X16145925Y-11976964D01*
X16145925Y-11976964D02*
X16164973Y-11967440D01*
X16164973Y-11967440D02*
X16203068Y-11967440D01*
X16203068Y-11967440D02*
X16222116Y-11976964D01*
X16222116Y-11976964D02*
X16231640Y-11986488D01*
X16231640Y-11986488D02*
X16241164Y-12005536D01*
X16241164Y-12005536D02*
X16241164Y-12015059D01*
X16241164Y-12015059D02*
X16231640Y-12034107D01*
X16231640Y-12034107D02*
X16222116Y-12043631D01*
X16222116Y-12043631D02*
X16203068Y-12053155D01*
X16203068Y-12053155D02*
X16164973Y-12053155D01*
X16164973Y-12053155D02*
X16145925Y-12062679D01*
X16145925Y-12062679D02*
X16136402Y-12072202D01*
X16136402Y-12072202D02*
X16126878Y-12091250D01*
X16126878Y-12091250D02*
X16126878Y-12129345D01*
X16126878Y-12129345D02*
X16136402Y-12148393D01*
X16136402Y-12148393D02*
X16145925Y-12157917D01*
X16145925Y-12157917D02*
X16164973Y-12167440D01*
X16164973Y-12167440D02*
X16203068Y-12167440D01*
X16203068Y-12167440D02*
X16222116Y-12157917D01*
X16222116Y-12157917D02*
X16231640Y-12148393D01*
X16231640Y-12148393D02*
X16241164Y-12129345D01*
X16241164Y-12129345D02*
X16241164Y-12091250D01*
X16241164Y-12091250D02*
X16231640Y-12072202D01*
X16231640Y-12072202D02*
X16222116Y-12062679D01*
X16222116Y-12062679D02*
X16203068Y-12053155D01*
X16469735Y-12157917D02*
X16488783Y-12167440D01*
X16488783Y-12167440D02*
X16526878Y-12167440D01*
X16526878Y-12167440D02*
X16545926Y-12157917D01*
X16545926Y-12157917D02*
X16555449Y-12138869D01*
X16555449Y-12138869D02*
X16555449Y-12129345D01*
X16555449Y-12129345D02*
X16545926Y-12110298D01*
X16545926Y-12110298D02*
X16526878Y-12100774D01*
X16526878Y-12100774D02*
X16498306Y-12100774D01*
X16498306Y-12100774D02*
X16479259Y-12091250D01*
X16479259Y-12091250D02*
X16469735Y-12072202D01*
X16469735Y-12072202D02*
X16469735Y-12062679D01*
X16469735Y-12062679D02*
X16479259Y-12043631D01*
X16479259Y-12043631D02*
X16498306Y-12034107D01*
X16498306Y-12034107D02*
X16526878Y-12034107D01*
X16526878Y-12034107D02*
X16545926Y-12043631D01*
X16669735Y-12167440D02*
X16650687Y-12157917D01*
X16650687Y-12157917D02*
X16641164Y-12138869D01*
X16641164Y-12138869D02*
X16641164Y-11967440D01*
X16774497Y-12167440D02*
X16755449Y-12157917D01*
X16755449Y-12157917D02*
X16745926Y-12148393D01*
X16745926Y-12148393D02*
X16736402Y-12129345D01*
X16736402Y-12129345D02*
X16736402Y-12072202D01*
X16736402Y-12072202D02*
X16745926Y-12053155D01*
X16745926Y-12053155D02*
X16755449Y-12043631D01*
X16755449Y-12043631D02*
X16774497Y-12034107D01*
X16774497Y-12034107D02*
X16803069Y-12034107D01*
X16803069Y-12034107D02*
X16822116Y-12043631D01*
X16822116Y-12043631D02*
X16831640Y-12053155D01*
X16831640Y-12053155D02*
X16841164Y-12072202D01*
X16841164Y-12072202D02*
X16841164Y-12129345D01*
X16841164Y-12129345D02*
X16831640Y-12148393D01*
X16831640Y-12148393D02*
X16822116Y-12157917D01*
X16822116Y-12157917D02*
X16803069Y-12167440D01*
X16803069Y-12167440D02*
X16774497Y-12167440D01*
X16898307Y-12034107D02*
X16974497Y-12034107D01*
X16926878Y-11967440D02*
X16926878Y-12138869D01*
X16926878Y-12138869D02*
X16936402Y-12157917D01*
X16936402Y-12157917D02*
X16955449Y-12167440D01*
X16955449Y-12167440D02*
X16974497Y-12167440D01*
X17031640Y-12157917D02*
X17050688Y-12167440D01*
X17050688Y-12167440D02*
X17088783Y-12167440D01*
X17088783Y-12167440D02*
X17107830Y-12157917D01*
X17107830Y-12157917D02*
X17117354Y-12138869D01*
X17117354Y-12138869D02*
X17117354Y-12129345D01*
X17117354Y-12129345D02*
X17107830Y-12110298D01*
X17107830Y-12110298D02*
X17088783Y-12100774D01*
X17088783Y-12100774D02*
X17060211Y-12100774D01*
X17060211Y-12100774D02*
X17041164Y-12091250D01*
X17041164Y-12091250D02*
X17031640Y-12072202D01*
X17031640Y-12072202D02*
X17031640Y-12062679D01*
X17031640Y-12062679D02*
X17041164Y-12043631D01*
X17041164Y-12043631D02*
X17060211Y-12034107D01*
X17060211Y-12034107D02*
X17088783Y-12034107D01*
X17088783Y-12034107D02*
X17107830Y-12043631D01*
X17184021Y-12243631D02*
X17193545Y-12234107D01*
X17193545Y-12234107D02*
X17212592Y-12205536D01*
X17212592Y-12205536D02*
X17222116Y-12186488D01*
X17222116Y-12186488D02*
X17231640Y-12157917D01*
X17231640Y-12157917D02*
X17241164Y-12110298D01*
X17241164Y-12110298D02*
X17241164Y-12072202D01*
X17241164Y-12072202D02*
X17231640Y-12024583D01*
X17231640Y-12024583D02*
X17222116Y-11996012D01*
X17222116Y-11996012D02*
X17212592Y-11976964D01*
X17212592Y-11976964D02*
X17193545Y-11948393D01*
X17193545Y-11948393D02*
X17184021Y-11938869D01*
D11*
X10767944Y-12392990D02*
X10767944Y-12286923D01*
X10661877Y-12286923D01*
X10661877Y-12392990D01*
X10767944Y-12392990D01*
D12*
X11155449Y-12431440D02*
X11041163Y-12431440D01*
X11098306Y-12431440D02*
X11098306Y-12231440D01*
X11098306Y-12231440D02*
X11079258Y-12260012D01*
X11079258Y-12260012D02*
X11060211Y-12279059D01*
X11060211Y-12279059D02*
X11041163Y-12288583D01*
X11241163Y-12412393D02*
X11250687Y-12421917D01*
X11250687Y-12421917D02*
X11241163Y-12431440D01*
X11241163Y-12431440D02*
X11231639Y-12421917D01*
X11231639Y-12421917D02*
X11241163Y-12412393D01*
X11241163Y-12412393D02*
X11241163Y-12431440D01*
X11431639Y-12231440D02*
X11336401Y-12231440D01*
X11336401Y-12231440D02*
X11326877Y-12326679D01*
X11326877Y-12326679D02*
X11336401Y-12317155D01*
X11336401Y-12317155D02*
X11355449Y-12307631D01*
X11355449Y-12307631D02*
X11403068Y-12307631D01*
X11403068Y-12307631D02*
X11422115Y-12317155D01*
X11422115Y-12317155D02*
X11431639Y-12326679D01*
X11431639Y-12326679D02*
X11441163Y-12345726D01*
X11441163Y-12345726D02*
X11441163Y-12393345D01*
X11441163Y-12393345D02*
X11431639Y-12412393D01*
X11431639Y-12412393D02*
X11422115Y-12421917D01*
X11422115Y-12421917D02*
X11403068Y-12431440D01*
X11403068Y-12431440D02*
X11355449Y-12431440D01*
X11355449Y-12431440D02*
X11336401Y-12421917D01*
X11336401Y-12421917D02*
X11326877Y-12412393D01*
X11564973Y-12231440D02*
X11584020Y-12231440D01*
X11584020Y-12231440D02*
X11603068Y-12240964D01*
X11603068Y-12240964D02*
X11612592Y-12250488D01*
X11612592Y-12250488D02*
X11622115Y-12269536D01*
X11622115Y-12269536D02*
X11631639Y-12307631D01*
X11631639Y-12307631D02*
X11631639Y-12355250D01*
X11631639Y-12355250D02*
X11622115Y-12393345D01*
X11622115Y-12393345D02*
X11612592Y-12412393D01*
X11612592Y-12412393D02*
X11603068Y-12421917D01*
X11603068Y-12421917D02*
X11584020Y-12431440D01*
X11584020Y-12431440D02*
X11564973Y-12431440D01*
X11564973Y-12431440D02*
X11545925Y-12421917D01*
X11545925Y-12421917D02*
X11536401Y-12412393D01*
X11536401Y-12412393D02*
X11526877Y-12393345D01*
X11526877Y-12393345D02*
X11517354Y-12355250D01*
X11517354Y-12355250D02*
X11517354Y-12307631D01*
X11517354Y-12307631D02*
X11526877Y-12269536D01*
X11526877Y-12269536D02*
X11536401Y-12250488D01*
X11536401Y-12250488D02*
X11545925Y-12240964D01*
X11545925Y-12240964D02*
X11564973Y-12231440D01*
X11755449Y-12231440D02*
X11774496Y-12231440D01*
X11774496Y-12231440D02*
X11793544Y-12240964D01*
X11793544Y-12240964D02*
X11803068Y-12250488D01*
X11803068Y-12250488D02*
X11812592Y-12269536D01*
X11812592Y-12269536D02*
X11822115Y-12307631D01*
X11822115Y-12307631D02*
X11822115Y-12355250D01*
X11822115Y-12355250D02*
X11812592Y-12393345D01*
X11812592Y-12393345D02*
X11803068Y-12412393D01*
X11803068Y-12412393D02*
X11793544Y-12421917D01*
X11793544Y-12421917D02*
X11774496Y-12431440D01*
X11774496Y-12431440D02*
X11755449Y-12431440D01*
X11755449Y-12431440D02*
X11736401Y-12421917D01*
X11736401Y-12421917D02*
X11726877Y-12412393D01*
X11726877Y-12412393D02*
X11717354Y-12393345D01*
X11717354Y-12393345D02*
X11707830Y-12355250D01*
X11707830Y-12355250D02*
X11707830Y-12307631D01*
X11707830Y-12307631D02*
X11717354Y-12269536D01*
X11717354Y-12269536D02*
X11726877Y-12250488D01*
X11726877Y-12250488D02*
X11736401Y-12240964D01*
X11736401Y-12240964D02*
X11755449Y-12231440D01*
X11907830Y-12431440D02*
X11907830Y-12298107D01*
X11907830Y-12317155D02*
X11917354Y-12307631D01*
X11917354Y-12307631D02*
X11936401Y-12298107D01*
X11936401Y-12298107D02*
X11964973Y-12298107D01*
X11964973Y-12298107D02*
X11984020Y-12307631D01*
X11984020Y-12307631D02*
X11993544Y-12326679D01*
X11993544Y-12326679D02*
X11993544Y-12431440D01*
X11993544Y-12326679D02*
X12003068Y-12307631D01*
X12003068Y-12307631D02*
X12022115Y-12298107D01*
X12022115Y-12298107D02*
X12050687Y-12298107D01*
X12050687Y-12298107D02*
X12069735Y-12307631D01*
X12069735Y-12307631D02*
X12079258Y-12326679D01*
X12079258Y-12326679D02*
X12079258Y-12431440D01*
X12174496Y-12431440D02*
X12174496Y-12298107D01*
X12174496Y-12317155D02*
X12184020Y-12307631D01*
X12184020Y-12307631D02*
X12203068Y-12298107D01*
X12203068Y-12298107D02*
X12231639Y-12298107D01*
X12231639Y-12298107D02*
X12250687Y-12307631D01*
X12250687Y-12307631D02*
X12260211Y-12326679D01*
X12260211Y-12326679D02*
X12260211Y-12431440D01*
X12260211Y-12326679D02*
X12269735Y-12307631D01*
X12269735Y-12307631D02*
X12288782Y-12298107D01*
X12288782Y-12298107D02*
X12317354Y-12298107D01*
X12317354Y-12298107D02*
X12336401Y-12307631D01*
X12336401Y-12307631D02*
X12345925Y-12326679D01*
X12345925Y-12326679D02*
X12345925Y-12431440D01*
X12736401Y-12221917D02*
X12564973Y-12479059D01*
X12993544Y-12231440D02*
X13012592Y-12231440D01*
X13012592Y-12231440D02*
X13031639Y-12240964D01*
X13031639Y-12240964D02*
X13041163Y-12250488D01*
X13041163Y-12250488D02*
X13050687Y-12269536D01*
X13050687Y-12269536D02*
X13060211Y-12307631D01*
X13060211Y-12307631D02*
X13060211Y-12355250D01*
X13060211Y-12355250D02*
X13050687Y-12393345D01*
X13050687Y-12393345D02*
X13041163Y-12412393D01*
X13041163Y-12412393D02*
X13031639Y-12421917D01*
X13031639Y-12421917D02*
X13012592Y-12431440D01*
X13012592Y-12431440D02*
X12993544Y-12431440D01*
X12993544Y-12431440D02*
X12974497Y-12421917D01*
X12974497Y-12421917D02*
X12964973Y-12412393D01*
X12964973Y-12412393D02*
X12955449Y-12393345D01*
X12955449Y-12393345D02*
X12945925Y-12355250D01*
X12945925Y-12355250D02*
X12945925Y-12307631D01*
X12945925Y-12307631D02*
X12955449Y-12269536D01*
X12955449Y-12269536D02*
X12964973Y-12250488D01*
X12964973Y-12250488D02*
X12974497Y-12240964D01*
X12974497Y-12240964D02*
X12993544Y-12231440D01*
X13145925Y-12412393D02*
X13155449Y-12421917D01*
X13155449Y-12421917D02*
X13145925Y-12431440D01*
X13145925Y-12431440D02*
X13136401Y-12421917D01*
X13136401Y-12421917D02*
X13145925Y-12412393D01*
X13145925Y-12412393D02*
X13145925Y-12431440D01*
X13279258Y-12231440D02*
X13298306Y-12231440D01*
X13298306Y-12231440D02*
X13317354Y-12240964D01*
X13317354Y-12240964D02*
X13326878Y-12250488D01*
X13326878Y-12250488D02*
X13336401Y-12269536D01*
X13336401Y-12269536D02*
X13345925Y-12307631D01*
X13345925Y-12307631D02*
X13345925Y-12355250D01*
X13345925Y-12355250D02*
X13336401Y-12393345D01*
X13336401Y-12393345D02*
X13326878Y-12412393D01*
X13326878Y-12412393D02*
X13317354Y-12421917D01*
X13317354Y-12421917D02*
X13298306Y-12431440D01*
X13298306Y-12431440D02*
X13279258Y-12431440D01*
X13279258Y-12431440D02*
X13260211Y-12421917D01*
X13260211Y-12421917D02*
X13250687Y-12412393D01*
X13250687Y-12412393D02*
X13241163Y-12393345D01*
X13241163Y-12393345D02*
X13231639Y-12355250D01*
X13231639Y-12355250D02*
X13231639Y-12307631D01*
X13231639Y-12307631D02*
X13241163Y-12269536D01*
X13241163Y-12269536D02*
X13250687Y-12250488D01*
X13250687Y-12250488D02*
X13260211Y-12240964D01*
X13260211Y-12240964D02*
X13279258Y-12231440D01*
X13526878Y-12231440D02*
X13431639Y-12231440D01*
X13431639Y-12231440D02*
X13422116Y-12326679D01*
X13422116Y-12326679D02*
X13431639Y-12317155D01*
X13431639Y-12317155D02*
X13450687Y-12307631D01*
X13450687Y-12307631D02*
X13498306Y-12307631D01*
X13498306Y-12307631D02*
X13517354Y-12317155D01*
X13517354Y-12317155D02*
X13526878Y-12326679D01*
X13526878Y-12326679D02*
X13536401Y-12345726D01*
X13536401Y-12345726D02*
X13536401Y-12393345D01*
X13536401Y-12393345D02*
X13526878Y-12412393D01*
X13526878Y-12412393D02*
X13517354Y-12421917D01*
X13517354Y-12421917D02*
X13498306Y-12431440D01*
X13498306Y-12431440D02*
X13450687Y-12431440D01*
X13450687Y-12431440D02*
X13431639Y-12421917D01*
X13431639Y-12421917D02*
X13422116Y-12412393D01*
X13631639Y-12431440D02*
X13669735Y-12431440D01*
X13669735Y-12431440D02*
X13688782Y-12421917D01*
X13688782Y-12421917D02*
X13698306Y-12412393D01*
X13698306Y-12412393D02*
X13717354Y-12383821D01*
X13717354Y-12383821D02*
X13726878Y-12345726D01*
X13726878Y-12345726D02*
X13726878Y-12269536D01*
X13726878Y-12269536D02*
X13717354Y-12250488D01*
X13717354Y-12250488D02*
X13707830Y-12240964D01*
X13707830Y-12240964D02*
X13688782Y-12231440D01*
X13688782Y-12231440D02*
X13650687Y-12231440D01*
X13650687Y-12231440D02*
X13631639Y-12240964D01*
X13631639Y-12240964D02*
X13622116Y-12250488D01*
X13622116Y-12250488D02*
X13612592Y-12269536D01*
X13612592Y-12269536D02*
X13612592Y-12317155D01*
X13612592Y-12317155D02*
X13622116Y-12336202D01*
X13622116Y-12336202D02*
X13631639Y-12345726D01*
X13631639Y-12345726D02*
X13650687Y-12355250D01*
X13650687Y-12355250D02*
X13688782Y-12355250D01*
X13688782Y-12355250D02*
X13707830Y-12345726D01*
X13707830Y-12345726D02*
X13717354Y-12336202D01*
X13717354Y-12336202D02*
X13726878Y-12317155D01*
X13917354Y-12431440D02*
X13803068Y-12431440D01*
X13860211Y-12431440D02*
X13860211Y-12231440D01*
X13860211Y-12231440D02*
X13841163Y-12260012D01*
X13841163Y-12260012D02*
X13822116Y-12279059D01*
X13822116Y-12279059D02*
X13803068Y-12288583D01*
X13993544Y-12231440D02*
X13993544Y-12269536D01*
X14069735Y-12231440D02*
X14069735Y-12269536D01*
X14364973Y-12507631D02*
X14355449Y-12498107D01*
X14355449Y-12498107D02*
X14336401Y-12469536D01*
X14336401Y-12469536D02*
X14326878Y-12450488D01*
X14326878Y-12450488D02*
X14317354Y-12421917D01*
X14317354Y-12421917D02*
X14307830Y-12374298D01*
X14307830Y-12374298D02*
X14307830Y-12336202D01*
X14307830Y-12336202D02*
X14317354Y-12288583D01*
X14317354Y-12288583D02*
X14326878Y-12260012D01*
X14326878Y-12260012D02*
X14336401Y-12240964D01*
X14336401Y-12240964D02*
X14355449Y-12212393D01*
X14355449Y-12212393D02*
X14364973Y-12202869D01*
X14431640Y-12250488D02*
X14441163Y-12240964D01*
X14441163Y-12240964D02*
X14460211Y-12231440D01*
X14460211Y-12231440D02*
X14507830Y-12231440D01*
X14507830Y-12231440D02*
X14526878Y-12240964D01*
X14526878Y-12240964D02*
X14536401Y-12250488D01*
X14536401Y-12250488D02*
X14545925Y-12269536D01*
X14545925Y-12269536D02*
X14545925Y-12288583D01*
X14545925Y-12288583D02*
X14536401Y-12317155D01*
X14536401Y-12317155D02*
X14422116Y-12431440D01*
X14422116Y-12431440D02*
X14545925Y-12431440D01*
X14784021Y-12431440D02*
X14784021Y-12231440D01*
X14869735Y-12431440D02*
X14869735Y-12326679D01*
X14869735Y-12326679D02*
X14860211Y-12307631D01*
X14860211Y-12307631D02*
X14841163Y-12298107D01*
X14841163Y-12298107D02*
X14812592Y-12298107D01*
X14812592Y-12298107D02*
X14793544Y-12307631D01*
X14793544Y-12307631D02*
X14784021Y-12317155D01*
X14993544Y-12431440D02*
X14974497Y-12421917D01*
X14974497Y-12421917D02*
X14964973Y-12412393D01*
X14964973Y-12412393D02*
X14955449Y-12393345D01*
X14955449Y-12393345D02*
X14955449Y-12336202D01*
X14955449Y-12336202D02*
X14964973Y-12317155D01*
X14964973Y-12317155D02*
X14974497Y-12307631D01*
X14974497Y-12307631D02*
X14993544Y-12298107D01*
X14993544Y-12298107D02*
X15022116Y-12298107D01*
X15022116Y-12298107D02*
X15041163Y-12307631D01*
X15041163Y-12307631D02*
X15050687Y-12317155D01*
X15050687Y-12317155D02*
X15060211Y-12336202D01*
X15060211Y-12336202D02*
X15060211Y-12393345D01*
X15060211Y-12393345D02*
X15050687Y-12412393D01*
X15050687Y-12412393D02*
X15041163Y-12421917D01*
X15041163Y-12421917D02*
X15022116Y-12431440D01*
X15022116Y-12431440D02*
X14993544Y-12431440D01*
X15174497Y-12431440D02*
X15155449Y-12421917D01*
X15155449Y-12421917D02*
X15145925Y-12402869D01*
X15145925Y-12402869D02*
X15145925Y-12231440D01*
X15326878Y-12421917D02*
X15307830Y-12431440D01*
X15307830Y-12431440D02*
X15269735Y-12431440D01*
X15269735Y-12431440D02*
X15250687Y-12421917D01*
X15250687Y-12421917D02*
X15241163Y-12402869D01*
X15241163Y-12402869D02*
X15241163Y-12326679D01*
X15241163Y-12326679D02*
X15250687Y-12307631D01*
X15250687Y-12307631D02*
X15269735Y-12298107D01*
X15269735Y-12298107D02*
X15307830Y-12298107D01*
X15307830Y-12298107D02*
X15326878Y-12307631D01*
X15326878Y-12307631D02*
X15336402Y-12326679D01*
X15336402Y-12326679D02*
X15336402Y-12345726D01*
X15336402Y-12345726D02*
X15241163Y-12364774D01*
X15412592Y-12421917D02*
X15431640Y-12431440D01*
X15431640Y-12431440D02*
X15469735Y-12431440D01*
X15469735Y-12431440D02*
X15488783Y-12421917D01*
X15488783Y-12421917D02*
X15498306Y-12402869D01*
X15498306Y-12402869D02*
X15498306Y-12393345D01*
X15498306Y-12393345D02*
X15488783Y-12374298D01*
X15488783Y-12374298D02*
X15469735Y-12364774D01*
X15469735Y-12364774D02*
X15441163Y-12364774D01*
X15441163Y-12364774D02*
X15422116Y-12355250D01*
X15422116Y-12355250D02*
X15412592Y-12336202D01*
X15412592Y-12336202D02*
X15412592Y-12326679D01*
X15412592Y-12326679D02*
X15422116Y-12307631D01*
X15422116Y-12307631D02*
X15441163Y-12298107D01*
X15441163Y-12298107D02*
X15469735Y-12298107D01*
X15469735Y-12298107D02*
X15488783Y-12307631D01*
X15564973Y-12507631D02*
X15574497Y-12498107D01*
X15574497Y-12498107D02*
X15593544Y-12469536D01*
X15593544Y-12469536D02*
X15603068Y-12450488D01*
X15603068Y-12450488D02*
X15612592Y-12421917D01*
X15612592Y-12421917D02*
X15622116Y-12374298D01*
X15622116Y-12374298D02*
X15622116Y-12336202D01*
X15622116Y-12336202D02*
X15612592Y-12288583D01*
X15612592Y-12288583D02*
X15603068Y-12260012D01*
X15603068Y-12260012D02*
X15593544Y-12240964D01*
X15593544Y-12240964D02*
X15574497Y-12212393D01*
X15574497Y-12212393D02*
X15564973Y-12202869D01*
X10689910Y-12709957D02*
X10789910Y-12609957D01*
X10689910Y-12509957D01*
X10589910Y-12609957D01*
X10689910Y-12709957D01*
X11041163Y-12520488D02*
X11050687Y-12510964D01*
X11050687Y-12510964D02*
X11069735Y-12501440D01*
X11069735Y-12501440D02*
X11117354Y-12501440D01*
X11117354Y-12501440D02*
X11136401Y-12510964D01*
X11136401Y-12510964D02*
X11145925Y-12520488D01*
X11145925Y-12520488D02*
X11155449Y-12539536D01*
X11155449Y-12539536D02*
X11155449Y-12558583D01*
X11155449Y-12558583D02*
X11145925Y-12587155D01*
X11145925Y-12587155D02*
X11031639Y-12701440D01*
X11031639Y-12701440D02*
X11155449Y-12701440D01*
X11241163Y-12682393D02*
X11250687Y-12691917D01*
X11250687Y-12691917D02*
X11241163Y-12701440D01*
X11241163Y-12701440D02*
X11231639Y-12691917D01*
X11231639Y-12691917D02*
X11241163Y-12682393D01*
X11241163Y-12682393D02*
X11241163Y-12701440D01*
X11317354Y-12501440D02*
X11450687Y-12501440D01*
X11450687Y-12501440D02*
X11364973Y-12701440D01*
X11564973Y-12501440D02*
X11584020Y-12501440D01*
X11584020Y-12501440D02*
X11603068Y-12510964D01*
X11603068Y-12510964D02*
X11612592Y-12520488D01*
X11612592Y-12520488D02*
X11622115Y-12539536D01*
X11622115Y-12539536D02*
X11631639Y-12577631D01*
X11631639Y-12577631D02*
X11631639Y-12625250D01*
X11631639Y-12625250D02*
X11622115Y-12663345D01*
X11622115Y-12663345D02*
X11612592Y-12682393D01*
X11612592Y-12682393D02*
X11603068Y-12691917D01*
X11603068Y-12691917D02*
X11584020Y-12701440D01*
X11584020Y-12701440D02*
X11564973Y-12701440D01*
X11564973Y-12701440D02*
X11545925Y-12691917D01*
X11545925Y-12691917D02*
X11536401Y-12682393D01*
X11536401Y-12682393D02*
X11526877Y-12663345D01*
X11526877Y-12663345D02*
X11517354Y-12625250D01*
X11517354Y-12625250D02*
X11517354Y-12577631D01*
X11517354Y-12577631D02*
X11526877Y-12539536D01*
X11526877Y-12539536D02*
X11536401Y-12520488D01*
X11536401Y-12520488D02*
X11545925Y-12510964D01*
X11545925Y-12510964D02*
X11564973Y-12501440D01*
X11755449Y-12501440D02*
X11774496Y-12501440D01*
X11774496Y-12501440D02*
X11793544Y-12510964D01*
X11793544Y-12510964D02*
X11803068Y-12520488D01*
X11803068Y-12520488D02*
X11812592Y-12539536D01*
X11812592Y-12539536D02*
X11822115Y-12577631D01*
X11822115Y-12577631D02*
X11822115Y-12625250D01*
X11822115Y-12625250D02*
X11812592Y-12663345D01*
X11812592Y-12663345D02*
X11803068Y-12682393D01*
X11803068Y-12682393D02*
X11793544Y-12691917D01*
X11793544Y-12691917D02*
X11774496Y-12701440D01*
X11774496Y-12701440D02*
X11755449Y-12701440D01*
X11755449Y-12701440D02*
X11736401Y-12691917D01*
X11736401Y-12691917D02*
X11726877Y-12682393D01*
X11726877Y-12682393D02*
X11717354Y-12663345D01*
X11717354Y-12663345D02*
X11707830Y-12625250D01*
X11707830Y-12625250D02*
X11707830Y-12577631D01*
X11707830Y-12577631D02*
X11717354Y-12539536D01*
X11717354Y-12539536D02*
X11726877Y-12520488D01*
X11726877Y-12520488D02*
X11736401Y-12510964D01*
X11736401Y-12510964D02*
X11755449Y-12501440D01*
X11907830Y-12701440D02*
X11907830Y-12568107D01*
X11907830Y-12587155D02*
X11917354Y-12577631D01*
X11917354Y-12577631D02*
X11936401Y-12568107D01*
X11936401Y-12568107D02*
X11964973Y-12568107D01*
X11964973Y-12568107D02*
X11984020Y-12577631D01*
X11984020Y-12577631D02*
X11993544Y-12596679D01*
X11993544Y-12596679D02*
X11993544Y-12701440D01*
X11993544Y-12596679D02*
X12003068Y-12577631D01*
X12003068Y-12577631D02*
X12022115Y-12568107D01*
X12022115Y-12568107D02*
X12050687Y-12568107D01*
X12050687Y-12568107D02*
X12069735Y-12577631D01*
X12069735Y-12577631D02*
X12079258Y-12596679D01*
X12079258Y-12596679D02*
X12079258Y-12701440D01*
X12174496Y-12701440D02*
X12174496Y-12568107D01*
X12174496Y-12587155D02*
X12184020Y-12577631D01*
X12184020Y-12577631D02*
X12203068Y-12568107D01*
X12203068Y-12568107D02*
X12231639Y-12568107D01*
X12231639Y-12568107D02*
X12250687Y-12577631D01*
X12250687Y-12577631D02*
X12260211Y-12596679D01*
X12260211Y-12596679D02*
X12260211Y-12701440D01*
X12260211Y-12596679D02*
X12269735Y-12577631D01*
X12269735Y-12577631D02*
X12288782Y-12568107D01*
X12288782Y-12568107D02*
X12317354Y-12568107D01*
X12317354Y-12568107D02*
X12336401Y-12577631D01*
X12336401Y-12577631D02*
X12345925Y-12596679D01*
X12345925Y-12596679D02*
X12345925Y-12701440D01*
X12736401Y-12491917D02*
X12564973Y-12749059D01*
X12993544Y-12501440D02*
X13012592Y-12501440D01*
X13012592Y-12501440D02*
X13031639Y-12510964D01*
X13031639Y-12510964D02*
X13041163Y-12520488D01*
X13041163Y-12520488D02*
X13050687Y-12539536D01*
X13050687Y-12539536D02*
X13060211Y-12577631D01*
X13060211Y-12577631D02*
X13060211Y-12625250D01*
X13060211Y-12625250D02*
X13050687Y-12663345D01*
X13050687Y-12663345D02*
X13041163Y-12682393D01*
X13041163Y-12682393D02*
X13031639Y-12691917D01*
X13031639Y-12691917D02*
X13012592Y-12701440D01*
X13012592Y-12701440D02*
X12993544Y-12701440D01*
X12993544Y-12701440D02*
X12974497Y-12691917D01*
X12974497Y-12691917D02*
X12964973Y-12682393D01*
X12964973Y-12682393D02*
X12955449Y-12663345D01*
X12955449Y-12663345D02*
X12945925Y-12625250D01*
X12945925Y-12625250D02*
X12945925Y-12577631D01*
X12945925Y-12577631D02*
X12955449Y-12539536D01*
X12955449Y-12539536D02*
X12964973Y-12520488D01*
X12964973Y-12520488D02*
X12974497Y-12510964D01*
X12974497Y-12510964D02*
X12993544Y-12501440D01*
X13145925Y-12682393D02*
X13155449Y-12691917D01*
X13155449Y-12691917D02*
X13145925Y-12701440D01*
X13145925Y-12701440D02*
X13136401Y-12691917D01*
X13136401Y-12691917D02*
X13145925Y-12682393D01*
X13145925Y-12682393D02*
X13145925Y-12701440D01*
X13345925Y-12701440D02*
X13231639Y-12701440D01*
X13288782Y-12701440D02*
X13288782Y-12501440D01*
X13288782Y-12501440D02*
X13269735Y-12530012D01*
X13269735Y-12530012D02*
X13250687Y-12549059D01*
X13250687Y-12549059D02*
X13231639Y-12558583D01*
X13469735Y-12501440D02*
X13488782Y-12501440D01*
X13488782Y-12501440D02*
X13507830Y-12510964D01*
X13507830Y-12510964D02*
X13517354Y-12520488D01*
X13517354Y-12520488D02*
X13526878Y-12539536D01*
X13526878Y-12539536D02*
X13536401Y-12577631D01*
X13536401Y-12577631D02*
X13536401Y-12625250D01*
X13536401Y-12625250D02*
X13526878Y-12663345D01*
X13526878Y-12663345D02*
X13517354Y-12682393D01*
X13517354Y-12682393D02*
X13507830Y-12691917D01*
X13507830Y-12691917D02*
X13488782Y-12701440D01*
X13488782Y-12701440D02*
X13469735Y-12701440D01*
X13469735Y-12701440D02*
X13450687Y-12691917D01*
X13450687Y-12691917D02*
X13441163Y-12682393D01*
X13441163Y-12682393D02*
X13431639Y-12663345D01*
X13431639Y-12663345D02*
X13422116Y-12625250D01*
X13422116Y-12625250D02*
X13422116Y-12577631D01*
X13422116Y-12577631D02*
X13431639Y-12539536D01*
X13431639Y-12539536D02*
X13441163Y-12520488D01*
X13441163Y-12520488D02*
X13450687Y-12510964D01*
X13450687Y-12510964D02*
X13469735Y-12501440D01*
X13707830Y-12501440D02*
X13669735Y-12501440D01*
X13669735Y-12501440D02*
X13650687Y-12510964D01*
X13650687Y-12510964D02*
X13641163Y-12520488D01*
X13641163Y-12520488D02*
X13622116Y-12549059D01*
X13622116Y-12549059D02*
X13612592Y-12587155D01*
X13612592Y-12587155D02*
X13612592Y-12663345D01*
X13612592Y-12663345D02*
X13622116Y-12682393D01*
X13622116Y-12682393D02*
X13631639Y-12691917D01*
X13631639Y-12691917D02*
X13650687Y-12701440D01*
X13650687Y-12701440D02*
X13688782Y-12701440D01*
X13688782Y-12701440D02*
X13707830Y-12691917D01*
X13707830Y-12691917D02*
X13717354Y-12682393D01*
X13717354Y-12682393D02*
X13726878Y-12663345D01*
X13726878Y-12663345D02*
X13726878Y-12615726D01*
X13726878Y-12615726D02*
X13717354Y-12596679D01*
X13717354Y-12596679D02*
X13707830Y-12587155D01*
X13707830Y-12587155D02*
X13688782Y-12577631D01*
X13688782Y-12577631D02*
X13650687Y-12577631D01*
X13650687Y-12577631D02*
X13631639Y-12587155D01*
X13631639Y-12587155D02*
X13622116Y-12596679D01*
X13622116Y-12596679D02*
X13612592Y-12615726D01*
X13793544Y-12501440D02*
X13917354Y-12501440D01*
X13917354Y-12501440D02*
X13850687Y-12577631D01*
X13850687Y-12577631D02*
X13879259Y-12577631D01*
X13879259Y-12577631D02*
X13898306Y-12587155D01*
X13898306Y-12587155D02*
X13907830Y-12596679D01*
X13907830Y-12596679D02*
X13917354Y-12615726D01*
X13917354Y-12615726D02*
X13917354Y-12663345D01*
X13917354Y-12663345D02*
X13907830Y-12682393D01*
X13907830Y-12682393D02*
X13898306Y-12691917D01*
X13898306Y-12691917D02*
X13879259Y-12701440D01*
X13879259Y-12701440D02*
X13822116Y-12701440D01*
X13822116Y-12701440D02*
X13803068Y-12691917D01*
X13803068Y-12691917D02*
X13793544Y-12682393D01*
X13993544Y-12501440D02*
X13993544Y-12539536D01*
X14069735Y-12501440D02*
X14069735Y-12539536D01*
X14364973Y-12777631D02*
X14355449Y-12768107D01*
X14355449Y-12768107D02*
X14336401Y-12739536D01*
X14336401Y-12739536D02*
X14326878Y-12720488D01*
X14326878Y-12720488D02*
X14317354Y-12691917D01*
X14317354Y-12691917D02*
X14307830Y-12644298D01*
X14307830Y-12644298D02*
X14307830Y-12606202D01*
X14307830Y-12606202D02*
X14317354Y-12558583D01*
X14317354Y-12558583D02*
X14326878Y-12530012D01*
X14326878Y-12530012D02*
X14336401Y-12510964D01*
X14336401Y-12510964D02*
X14355449Y-12482393D01*
X14355449Y-12482393D02*
X14364973Y-12472869D01*
X14431640Y-12520488D02*
X14441163Y-12510964D01*
X14441163Y-12510964D02*
X14460211Y-12501440D01*
X14460211Y-12501440D02*
X14507830Y-12501440D01*
X14507830Y-12501440D02*
X14526878Y-12510964D01*
X14526878Y-12510964D02*
X14536401Y-12520488D01*
X14536401Y-12520488D02*
X14545925Y-12539536D01*
X14545925Y-12539536D02*
X14545925Y-12558583D01*
X14545925Y-12558583D02*
X14536401Y-12587155D01*
X14536401Y-12587155D02*
X14422116Y-12701440D01*
X14422116Y-12701440D02*
X14545925Y-12701440D01*
X14784021Y-12701440D02*
X14784021Y-12501440D01*
X14869735Y-12701440D02*
X14869735Y-12596679D01*
X14869735Y-12596679D02*
X14860211Y-12577631D01*
X14860211Y-12577631D02*
X14841163Y-12568107D01*
X14841163Y-12568107D02*
X14812592Y-12568107D01*
X14812592Y-12568107D02*
X14793544Y-12577631D01*
X14793544Y-12577631D02*
X14784021Y-12587155D01*
X14993544Y-12701440D02*
X14974497Y-12691917D01*
X14974497Y-12691917D02*
X14964973Y-12682393D01*
X14964973Y-12682393D02*
X14955449Y-12663345D01*
X14955449Y-12663345D02*
X14955449Y-12606202D01*
X14955449Y-12606202D02*
X14964973Y-12587155D01*
X14964973Y-12587155D02*
X14974497Y-12577631D01*
X14974497Y-12577631D02*
X14993544Y-12568107D01*
X14993544Y-12568107D02*
X15022116Y-12568107D01*
X15022116Y-12568107D02*
X15041163Y-12577631D01*
X15041163Y-12577631D02*
X15050687Y-12587155D01*
X15050687Y-12587155D02*
X15060211Y-12606202D01*
X15060211Y-12606202D02*
X15060211Y-12663345D01*
X15060211Y-12663345D02*
X15050687Y-12682393D01*
X15050687Y-12682393D02*
X15041163Y-12691917D01*
X15041163Y-12691917D02*
X15022116Y-12701440D01*
X15022116Y-12701440D02*
X14993544Y-12701440D01*
X15174497Y-12701440D02*
X15155449Y-12691917D01*
X15155449Y-12691917D02*
X15145925Y-12672869D01*
X15145925Y-12672869D02*
X15145925Y-12501440D01*
X15326878Y-12691917D02*
X15307830Y-12701440D01*
X15307830Y-12701440D02*
X15269735Y-12701440D01*
X15269735Y-12701440D02*
X15250687Y-12691917D01*
X15250687Y-12691917D02*
X15241163Y-12672869D01*
X15241163Y-12672869D02*
X15241163Y-12596679D01*
X15241163Y-12596679D02*
X15250687Y-12577631D01*
X15250687Y-12577631D02*
X15269735Y-12568107D01*
X15269735Y-12568107D02*
X15307830Y-12568107D01*
X15307830Y-12568107D02*
X15326878Y-12577631D01*
X15326878Y-12577631D02*
X15336402Y-12596679D01*
X15336402Y-12596679D02*
X15336402Y-12615726D01*
X15336402Y-12615726D02*
X15241163Y-12634774D01*
X15412592Y-12691917D02*
X15431640Y-12701440D01*
X15431640Y-12701440D02*
X15469735Y-12701440D01*
X15469735Y-12701440D02*
X15488783Y-12691917D01*
X15488783Y-12691917D02*
X15498306Y-12672869D01*
X15498306Y-12672869D02*
X15498306Y-12663345D01*
X15498306Y-12663345D02*
X15488783Y-12644298D01*
X15488783Y-12644298D02*
X15469735Y-12634774D01*
X15469735Y-12634774D02*
X15441163Y-12634774D01*
X15441163Y-12634774D02*
X15422116Y-12625250D01*
X15422116Y-12625250D02*
X15412592Y-12606202D01*
X15412592Y-12606202D02*
X15412592Y-12596679D01*
X15412592Y-12596679D02*
X15422116Y-12577631D01*
X15422116Y-12577631D02*
X15441163Y-12568107D01*
X15441163Y-12568107D02*
X15469735Y-12568107D01*
X15469735Y-12568107D02*
X15488783Y-12577631D01*
X15564973Y-12777631D02*
X15574497Y-12768107D01*
X15574497Y-12768107D02*
X15593544Y-12739536D01*
X15593544Y-12739536D02*
X15603068Y-12720488D01*
X15603068Y-12720488D02*
X15612592Y-12691917D01*
X15612592Y-12691917D02*
X15622116Y-12644298D01*
X15622116Y-12644298D02*
X15622116Y-12606202D01*
X15622116Y-12606202D02*
X15612592Y-12558583D01*
X15612592Y-12558583D02*
X15603068Y-12530012D01*
X15603068Y-12530012D02*
X15593544Y-12510964D01*
X15593544Y-12510964D02*
X15574497Y-12482393D01*
X15574497Y-12482393D02*
X15564973Y-12472869D01*
M02*
