M48
; DRILL file {KiCad 7.0.8-7.0.8~ubuntu22.04.1} date Do 26 Okt 2023 21:40:47 CEST
; FORMAT={-:-/ absolute / metric / decimal}
; #@! TF.CreationDate,2023-10-26T21:40:47+02:00
; #@! TF.GenerationSoftware,Kicad,Pcbnew,7.0.8-7.0.8~ubuntu22.04.1
; #@! TF.FileFunction,Plated,1,4,PTH
FMAT,2
METRIC
; #@! TA.AperFunction,Plated,PTH,ViaDrill
T1C0.200
; #@! TA.AperFunction,Plated,PTH,ComponentDrill
T2C0.700
; #@! TA.AperFunction,Plated,PTH,ComponentDrill
T3C1.000
; #@! TA.AperFunction,Plated,PTH,ComponentDrill
T4C1.500
; #@! TA.AperFunction,Plated,PTH,ComponentDrill
T5C2.700
%
G90
G05
T1
X114.295Y-87.427
X114.645Y-86.821
X116.1Y-88.7
X116.65Y-87.747
X118.025Y-80.879
X118.375Y-80.273
X119.83Y-82.153
X120.38Y-81.2
X122.649Y-100.305
X122.749Y-101.605
X123.749Y-100.305
X123.749Y-101.605
X130.265Y-100.197
X130.265Y-101.497
X131.265Y-101.497
X131.365Y-100.197
X133.69Y-81.172
X134.24Y-82.125
X135.695Y-80.245
X136.045Y-80.851
X137.432Y-87.682
X137.982Y-88.635
X139.438Y-86.755
X139.788Y-87.362
T2
X133.384Y-96.342
X135.684Y-92.358
T4
X136.74Y-103.129
X143.24Y-91.871
T5
X124.5Y-75.3
X129.5Y-75.3
T3
X113.45Y-98.631G85X112.75Y-97.419
G05
X113.489Y-94.798G85X114.528Y-94.198
G05
X116.089Y-99.302G85X117.128Y-98.702
G05
X117.867Y-96.081G85X117.167Y-94.869
G05
X136.833Y-94.869G85X136.133Y-96.081
G05
X137.911Y-99.302G85X136.872Y-98.702
G05
X140.511Y-94.798G85X139.472Y-94.198
G05
X141.25Y-97.419G85X140.55Y-98.631
G05
T0
M30
