%TF.GenerationSoftware,KiCad,Pcbnew,7.0.8-7.0.8~ubuntu22.04.1*%
%TF.CreationDate,2023-10-26T21:40:47+02:00*%
%TF.ProjectId,LightPipe_PCB,4c696768-7450-4697-9065-5f5043422e6b,v0.1.2*%
%TF.SameCoordinates,Original*%
%TF.FileFunction,Drillmap*%
%TF.FilePolarity,Positive*%
%FSLAX45Y45*%
G04 Gerber Fmt 4.5, Leading zero omitted, Abs format (unit mm)*
G04 Created by KiCad (PCBNEW 7.0.8-7.0.8~ubuntu22.04.1) date 2023-10-26 21:40:47*
%MOMM*%
%LPD*%
G01*
G04 APERTURE LIST*
%ADD10C,0.100000*%
%ADD11C,0.150000*%
%ADD12C,0.200000*%
%ADD13C,0.220000*%
G04 APERTURE END LIST*
D10*
X13475000Y-9000000D02*
G75*
G03*
X13475000Y-9000000I-775000J0D01*
G01*
D11*
X14597410Y-9000457D02*
G75*
G03*
X14597410Y-9000457I-1900000J0D01*
G01*
D12*
D13*
X11760000Y-7500000D02*
X11980000Y-7720000D01*
X11980000Y-7500000D02*
X11760000Y-7720000D01*
X13420000Y-7500000D02*
X13640000Y-7720000D01*
X13640000Y-7500000D02*
X13420000Y-7720000D01*
D12*
X11050687Y-11219440D02*
X11050687Y-11019441D01*
X11050687Y-11019441D02*
X11098306Y-11019441D01*
X11098306Y-11019441D02*
X11126877Y-11028964D01*
X11126877Y-11028964D02*
X11145925Y-11048012D01*
X11145925Y-11048012D02*
X11155449Y-11067060D01*
X11155449Y-11067060D02*
X11164973Y-11105155D01*
X11164973Y-11105155D02*
X11164973Y-11133726D01*
X11164973Y-11133726D02*
X11155449Y-11171821D01*
X11155449Y-11171821D02*
X11145925Y-11190869D01*
X11145925Y-11190869D02*
X11126877Y-11209917D01*
X11126877Y-11209917D02*
X11098306Y-11219440D01*
X11098306Y-11219440D02*
X11050687Y-11219440D01*
X11250687Y-11219440D02*
X11250687Y-11086107D01*
X11250687Y-11124202D02*
X11260211Y-11105155D01*
X11260211Y-11105155D02*
X11269734Y-11095631D01*
X11269734Y-11095631D02*
X11288782Y-11086107D01*
X11288782Y-11086107D02*
X11307830Y-11086107D01*
X11374496Y-11219440D02*
X11374496Y-11086107D01*
X11374496Y-11019441D02*
X11364973Y-11028964D01*
X11364973Y-11028964D02*
X11374496Y-11038488D01*
X11374496Y-11038488D02*
X11384020Y-11028964D01*
X11384020Y-11028964D02*
X11374496Y-11019441D01*
X11374496Y-11019441D02*
X11374496Y-11038488D01*
X11498306Y-11219440D02*
X11479258Y-11209917D01*
X11479258Y-11209917D02*
X11469734Y-11190869D01*
X11469734Y-11190869D02*
X11469734Y-11019441D01*
X11603068Y-11219440D02*
X11584020Y-11209917D01*
X11584020Y-11209917D02*
X11574496Y-11190869D01*
X11574496Y-11190869D02*
X11574496Y-11019441D01*
X11831639Y-11219440D02*
X11831639Y-11019441D01*
X11831639Y-11019441D02*
X11898306Y-11162298D01*
X11898306Y-11162298D02*
X11964973Y-11019441D01*
X11964973Y-11019441D02*
X11964973Y-11219440D01*
X12145925Y-11219440D02*
X12145925Y-11114679D01*
X12145925Y-11114679D02*
X12136401Y-11095631D01*
X12136401Y-11095631D02*
X12117354Y-11086107D01*
X12117354Y-11086107D02*
X12079258Y-11086107D01*
X12079258Y-11086107D02*
X12060211Y-11095631D01*
X12145925Y-11209917D02*
X12126877Y-11219440D01*
X12126877Y-11219440D02*
X12079258Y-11219440D01*
X12079258Y-11219440D02*
X12060211Y-11209917D01*
X12060211Y-11209917D02*
X12050687Y-11190869D01*
X12050687Y-11190869D02*
X12050687Y-11171821D01*
X12050687Y-11171821D02*
X12060211Y-11152774D01*
X12060211Y-11152774D02*
X12079258Y-11143250D01*
X12079258Y-11143250D02*
X12126877Y-11143250D01*
X12126877Y-11143250D02*
X12145925Y-11133726D01*
X12241163Y-11086107D02*
X12241163Y-11286107D01*
X12241163Y-11095631D02*
X12260211Y-11086107D01*
X12260211Y-11086107D02*
X12298306Y-11086107D01*
X12298306Y-11086107D02*
X12317354Y-11095631D01*
X12317354Y-11095631D02*
X12326877Y-11105155D01*
X12326877Y-11105155D02*
X12336401Y-11124202D01*
X12336401Y-11124202D02*
X12336401Y-11181345D01*
X12336401Y-11181345D02*
X12326877Y-11200393D01*
X12326877Y-11200393D02*
X12317354Y-11209917D01*
X12317354Y-11209917D02*
X12298306Y-11219440D01*
X12298306Y-11219440D02*
X12260211Y-11219440D01*
X12260211Y-11219440D02*
X12241163Y-11209917D01*
X12422115Y-11200393D02*
X12431639Y-11209917D01*
X12431639Y-11209917D02*
X12422115Y-11219440D01*
X12422115Y-11219440D02*
X12412592Y-11209917D01*
X12412592Y-11209917D02*
X12422115Y-11200393D01*
X12422115Y-11200393D02*
X12422115Y-11219440D01*
X12422115Y-11095631D02*
X12431639Y-11105155D01*
X12431639Y-11105155D02*
X12422115Y-11114679D01*
X12422115Y-11114679D02*
X12412592Y-11105155D01*
X12412592Y-11105155D02*
X12422115Y-11095631D01*
X12422115Y-11095631D02*
X12422115Y-11114679D01*
X10589910Y-11447957D02*
X10789910Y-11647957D01*
X10789910Y-11447957D02*
X10589910Y-11647957D01*
X11041163Y-11458488D02*
X11050687Y-11448964D01*
X11050687Y-11448964D02*
X11069735Y-11439440D01*
X11069735Y-11439440D02*
X11117354Y-11439440D01*
X11117354Y-11439440D02*
X11136401Y-11448964D01*
X11136401Y-11448964D02*
X11145925Y-11458488D01*
X11145925Y-11458488D02*
X11155449Y-11477536D01*
X11155449Y-11477536D02*
X11155449Y-11496583D01*
X11155449Y-11496583D02*
X11145925Y-11525155D01*
X11145925Y-11525155D02*
X11031639Y-11639440D01*
X11031639Y-11639440D02*
X11155449Y-11639440D01*
X11241163Y-11620393D02*
X11250687Y-11629917D01*
X11250687Y-11629917D02*
X11241163Y-11639440D01*
X11241163Y-11639440D02*
X11231639Y-11629917D01*
X11231639Y-11629917D02*
X11241163Y-11620393D01*
X11241163Y-11620393D02*
X11241163Y-11639440D01*
X11326877Y-11458488D02*
X11336401Y-11448964D01*
X11336401Y-11448964D02*
X11355449Y-11439440D01*
X11355449Y-11439440D02*
X11403068Y-11439440D01*
X11403068Y-11439440D02*
X11422115Y-11448964D01*
X11422115Y-11448964D02*
X11431639Y-11458488D01*
X11431639Y-11458488D02*
X11441163Y-11477536D01*
X11441163Y-11477536D02*
X11441163Y-11496583D01*
X11441163Y-11496583D02*
X11431639Y-11525155D01*
X11431639Y-11525155D02*
X11317354Y-11639440D01*
X11317354Y-11639440D02*
X11441163Y-11639440D01*
X11564973Y-11439440D02*
X11584020Y-11439440D01*
X11584020Y-11439440D02*
X11603068Y-11448964D01*
X11603068Y-11448964D02*
X11612592Y-11458488D01*
X11612592Y-11458488D02*
X11622115Y-11477536D01*
X11622115Y-11477536D02*
X11631639Y-11515631D01*
X11631639Y-11515631D02*
X11631639Y-11563250D01*
X11631639Y-11563250D02*
X11622115Y-11601345D01*
X11622115Y-11601345D02*
X11612592Y-11620393D01*
X11612592Y-11620393D02*
X11603068Y-11629917D01*
X11603068Y-11629917D02*
X11584020Y-11639440D01*
X11584020Y-11639440D02*
X11564973Y-11639440D01*
X11564973Y-11639440D02*
X11545925Y-11629917D01*
X11545925Y-11629917D02*
X11536401Y-11620393D01*
X11536401Y-11620393D02*
X11526877Y-11601345D01*
X11526877Y-11601345D02*
X11517354Y-11563250D01*
X11517354Y-11563250D02*
X11517354Y-11515631D01*
X11517354Y-11515631D02*
X11526877Y-11477536D01*
X11526877Y-11477536D02*
X11536401Y-11458488D01*
X11536401Y-11458488D02*
X11545925Y-11448964D01*
X11545925Y-11448964D02*
X11564973Y-11439440D01*
X11755449Y-11439440D02*
X11774496Y-11439440D01*
X11774496Y-11439440D02*
X11793544Y-11448964D01*
X11793544Y-11448964D02*
X11803068Y-11458488D01*
X11803068Y-11458488D02*
X11812592Y-11477536D01*
X11812592Y-11477536D02*
X11822115Y-11515631D01*
X11822115Y-11515631D02*
X11822115Y-11563250D01*
X11822115Y-11563250D02*
X11812592Y-11601345D01*
X11812592Y-11601345D02*
X11803068Y-11620393D01*
X11803068Y-11620393D02*
X11793544Y-11629917D01*
X11793544Y-11629917D02*
X11774496Y-11639440D01*
X11774496Y-11639440D02*
X11755449Y-11639440D01*
X11755449Y-11639440D02*
X11736401Y-11629917D01*
X11736401Y-11629917D02*
X11726877Y-11620393D01*
X11726877Y-11620393D02*
X11717354Y-11601345D01*
X11717354Y-11601345D02*
X11707830Y-11563250D01*
X11707830Y-11563250D02*
X11707830Y-11515631D01*
X11707830Y-11515631D02*
X11717354Y-11477536D01*
X11717354Y-11477536D02*
X11726877Y-11458488D01*
X11726877Y-11458488D02*
X11736401Y-11448964D01*
X11736401Y-11448964D02*
X11755449Y-11439440D01*
X11907830Y-11639440D02*
X11907830Y-11506107D01*
X11907830Y-11525155D02*
X11917354Y-11515631D01*
X11917354Y-11515631D02*
X11936401Y-11506107D01*
X11936401Y-11506107D02*
X11964973Y-11506107D01*
X11964973Y-11506107D02*
X11984020Y-11515631D01*
X11984020Y-11515631D02*
X11993544Y-11534679D01*
X11993544Y-11534679D02*
X11993544Y-11639440D01*
X11993544Y-11534679D02*
X12003068Y-11515631D01*
X12003068Y-11515631D02*
X12022115Y-11506107D01*
X12022115Y-11506107D02*
X12050687Y-11506107D01*
X12050687Y-11506107D02*
X12069735Y-11515631D01*
X12069735Y-11515631D02*
X12079258Y-11534679D01*
X12079258Y-11534679D02*
X12079258Y-11639440D01*
X12174496Y-11639440D02*
X12174496Y-11506107D01*
X12174496Y-11525155D02*
X12184020Y-11515631D01*
X12184020Y-11515631D02*
X12203068Y-11506107D01*
X12203068Y-11506107D02*
X12231639Y-11506107D01*
X12231639Y-11506107D02*
X12250687Y-11515631D01*
X12250687Y-11515631D02*
X12260211Y-11534679D01*
X12260211Y-11534679D02*
X12260211Y-11639440D01*
X12260211Y-11534679D02*
X12269735Y-11515631D01*
X12269735Y-11515631D02*
X12288782Y-11506107D01*
X12288782Y-11506107D02*
X12317354Y-11506107D01*
X12317354Y-11506107D02*
X12336401Y-11515631D01*
X12336401Y-11515631D02*
X12345925Y-11534679D01*
X12345925Y-11534679D02*
X12345925Y-11639440D01*
X12736401Y-11429917D02*
X12564973Y-11687059D01*
X12993544Y-11439440D02*
X13012592Y-11439440D01*
X13012592Y-11439440D02*
X13031639Y-11448964D01*
X13031639Y-11448964D02*
X13041163Y-11458488D01*
X13041163Y-11458488D02*
X13050687Y-11477536D01*
X13050687Y-11477536D02*
X13060211Y-11515631D01*
X13060211Y-11515631D02*
X13060211Y-11563250D01*
X13060211Y-11563250D02*
X13050687Y-11601345D01*
X13050687Y-11601345D02*
X13041163Y-11620393D01*
X13041163Y-11620393D02*
X13031639Y-11629917D01*
X13031639Y-11629917D02*
X13012592Y-11639440D01*
X13012592Y-11639440D02*
X12993544Y-11639440D01*
X12993544Y-11639440D02*
X12974497Y-11629917D01*
X12974497Y-11629917D02*
X12964973Y-11620393D01*
X12964973Y-11620393D02*
X12955449Y-11601345D01*
X12955449Y-11601345D02*
X12945925Y-11563250D01*
X12945925Y-11563250D02*
X12945925Y-11515631D01*
X12945925Y-11515631D02*
X12955449Y-11477536D01*
X12955449Y-11477536D02*
X12964973Y-11458488D01*
X12964973Y-11458488D02*
X12974497Y-11448964D01*
X12974497Y-11448964D02*
X12993544Y-11439440D01*
X13145925Y-11620393D02*
X13155449Y-11629917D01*
X13155449Y-11629917D02*
X13145925Y-11639440D01*
X13145925Y-11639440D02*
X13136401Y-11629917D01*
X13136401Y-11629917D02*
X13145925Y-11620393D01*
X13145925Y-11620393D02*
X13145925Y-11639440D01*
X13279258Y-11439440D02*
X13298306Y-11439440D01*
X13298306Y-11439440D02*
X13317354Y-11448964D01*
X13317354Y-11448964D02*
X13326878Y-11458488D01*
X13326878Y-11458488D02*
X13336401Y-11477536D01*
X13336401Y-11477536D02*
X13345925Y-11515631D01*
X13345925Y-11515631D02*
X13345925Y-11563250D01*
X13345925Y-11563250D02*
X13336401Y-11601345D01*
X13336401Y-11601345D02*
X13326878Y-11620393D01*
X13326878Y-11620393D02*
X13317354Y-11629917D01*
X13317354Y-11629917D02*
X13298306Y-11639440D01*
X13298306Y-11639440D02*
X13279258Y-11639440D01*
X13279258Y-11639440D02*
X13260211Y-11629917D01*
X13260211Y-11629917D02*
X13250687Y-11620393D01*
X13250687Y-11620393D02*
X13241163Y-11601345D01*
X13241163Y-11601345D02*
X13231639Y-11563250D01*
X13231639Y-11563250D02*
X13231639Y-11515631D01*
X13231639Y-11515631D02*
X13241163Y-11477536D01*
X13241163Y-11477536D02*
X13250687Y-11458488D01*
X13250687Y-11458488D02*
X13260211Y-11448964D01*
X13260211Y-11448964D02*
X13279258Y-11439440D01*
X13460211Y-11525155D02*
X13441163Y-11515631D01*
X13441163Y-11515631D02*
X13431639Y-11506107D01*
X13431639Y-11506107D02*
X13422116Y-11487059D01*
X13422116Y-11487059D02*
X13422116Y-11477536D01*
X13422116Y-11477536D02*
X13431639Y-11458488D01*
X13431639Y-11458488D02*
X13441163Y-11448964D01*
X13441163Y-11448964D02*
X13460211Y-11439440D01*
X13460211Y-11439440D02*
X13498306Y-11439440D01*
X13498306Y-11439440D02*
X13517354Y-11448964D01*
X13517354Y-11448964D02*
X13526878Y-11458488D01*
X13526878Y-11458488D02*
X13536401Y-11477536D01*
X13536401Y-11477536D02*
X13536401Y-11487059D01*
X13536401Y-11487059D02*
X13526878Y-11506107D01*
X13526878Y-11506107D02*
X13517354Y-11515631D01*
X13517354Y-11515631D02*
X13498306Y-11525155D01*
X13498306Y-11525155D02*
X13460211Y-11525155D01*
X13460211Y-11525155D02*
X13441163Y-11534679D01*
X13441163Y-11534679D02*
X13431639Y-11544202D01*
X13431639Y-11544202D02*
X13422116Y-11563250D01*
X13422116Y-11563250D02*
X13422116Y-11601345D01*
X13422116Y-11601345D02*
X13431639Y-11620393D01*
X13431639Y-11620393D02*
X13441163Y-11629917D01*
X13441163Y-11629917D02*
X13460211Y-11639440D01*
X13460211Y-11639440D02*
X13498306Y-11639440D01*
X13498306Y-11639440D02*
X13517354Y-11629917D01*
X13517354Y-11629917D02*
X13526878Y-11620393D01*
X13526878Y-11620393D02*
X13536401Y-11601345D01*
X13536401Y-11601345D02*
X13536401Y-11563250D01*
X13536401Y-11563250D02*
X13526878Y-11544202D01*
X13526878Y-11544202D02*
X13517354Y-11534679D01*
X13517354Y-11534679D02*
X13498306Y-11525155D01*
X13707830Y-11439440D02*
X13669735Y-11439440D01*
X13669735Y-11439440D02*
X13650687Y-11448964D01*
X13650687Y-11448964D02*
X13641163Y-11458488D01*
X13641163Y-11458488D02*
X13622116Y-11487059D01*
X13622116Y-11487059D02*
X13612592Y-11525155D01*
X13612592Y-11525155D02*
X13612592Y-11601345D01*
X13612592Y-11601345D02*
X13622116Y-11620393D01*
X13622116Y-11620393D02*
X13631639Y-11629917D01*
X13631639Y-11629917D02*
X13650687Y-11639440D01*
X13650687Y-11639440D02*
X13688782Y-11639440D01*
X13688782Y-11639440D02*
X13707830Y-11629917D01*
X13707830Y-11629917D02*
X13717354Y-11620393D01*
X13717354Y-11620393D02*
X13726878Y-11601345D01*
X13726878Y-11601345D02*
X13726878Y-11553726D01*
X13726878Y-11553726D02*
X13717354Y-11534679D01*
X13717354Y-11534679D02*
X13707830Y-11525155D01*
X13707830Y-11525155D02*
X13688782Y-11515631D01*
X13688782Y-11515631D02*
X13650687Y-11515631D01*
X13650687Y-11515631D02*
X13631639Y-11525155D01*
X13631639Y-11525155D02*
X13622116Y-11534679D01*
X13622116Y-11534679D02*
X13612592Y-11553726D01*
X13898306Y-11439440D02*
X13860211Y-11439440D01*
X13860211Y-11439440D02*
X13841163Y-11448964D01*
X13841163Y-11448964D02*
X13831639Y-11458488D01*
X13831639Y-11458488D02*
X13812592Y-11487059D01*
X13812592Y-11487059D02*
X13803068Y-11525155D01*
X13803068Y-11525155D02*
X13803068Y-11601345D01*
X13803068Y-11601345D02*
X13812592Y-11620393D01*
X13812592Y-11620393D02*
X13822116Y-11629917D01*
X13822116Y-11629917D02*
X13841163Y-11639440D01*
X13841163Y-11639440D02*
X13879259Y-11639440D01*
X13879259Y-11639440D02*
X13898306Y-11629917D01*
X13898306Y-11629917D02*
X13907830Y-11620393D01*
X13907830Y-11620393D02*
X13917354Y-11601345D01*
X13917354Y-11601345D02*
X13917354Y-11553726D01*
X13917354Y-11553726D02*
X13907830Y-11534679D01*
X13907830Y-11534679D02*
X13898306Y-11525155D01*
X13898306Y-11525155D02*
X13879259Y-11515631D01*
X13879259Y-11515631D02*
X13841163Y-11515631D01*
X13841163Y-11515631D02*
X13822116Y-11525155D01*
X13822116Y-11525155D02*
X13812592Y-11534679D01*
X13812592Y-11534679D02*
X13803068Y-11553726D01*
X13993544Y-11439440D02*
X13993544Y-11477536D01*
X14069735Y-11439440D02*
X14069735Y-11477536D01*
X14364973Y-11715631D02*
X14355449Y-11706107D01*
X14355449Y-11706107D02*
X14336401Y-11677536D01*
X14336401Y-11677536D02*
X14326878Y-11658488D01*
X14326878Y-11658488D02*
X14317354Y-11629917D01*
X14317354Y-11629917D02*
X14307830Y-11582298D01*
X14307830Y-11582298D02*
X14307830Y-11544202D01*
X14307830Y-11544202D02*
X14317354Y-11496583D01*
X14317354Y-11496583D02*
X14326878Y-11468012D01*
X14326878Y-11468012D02*
X14336401Y-11448964D01*
X14336401Y-11448964D02*
X14355449Y-11420393D01*
X14355449Y-11420393D02*
X14364973Y-11410869D01*
X14431640Y-11458488D02*
X14441163Y-11448964D01*
X14441163Y-11448964D02*
X14460211Y-11439440D01*
X14460211Y-11439440D02*
X14507830Y-11439440D01*
X14507830Y-11439440D02*
X14526878Y-11448964D01*
X14526878Y-11448964D02*
X14536401Y-11458488D01*
X14536401Y-11458488D02*
X14545925Y-11477536D01*
X14545925Y-11477536D02*
X14545925Y-11496583D01*
X14545925Y-11496583D02*
X14536401Y-11525155D01*
X14536401Y-11525155D02*
X14422116Y-11639440D01*
X14422116Y-11639440D02*
X14545925Y-11639440D01*
X14784021Y-11639440D02*
X14784021Y-11439440D01*
X14869735Y-11639440D02*
X14869735Y-11534679D01*
X14869735Y-11534679D02*
X14860211Y-11515631D01*
X14860211Y-11515631D02*
X14841163Y-11506107D01*
X14841163Y-11506107D02*
X14812592Y-11506107D01*
X14812592Y-11506107D02*
X14793544Y-11515631D01*
X14793544Y-11515631D02*
X14784021Y-11525155D01*
X14993544Y-11639440D02*
X14974497Y-11629917D01*
X14974497Y-11629917D02*
X14964973Y-11620393D01*
X14964973Y-11620393D02*
X14955449Y-11601345D01*
X14955449Y-11601345D02*
X14955449Y-11544202D01*
X14955449Y-11544202D02*
X14964973Y-11525155D01*
X14964973Y-11525155D02*
X14974497Y-11515631D01*
X14974497Y-11515631D02*
X14993544Y-11506107D01*
X14993544Y-11506107D02*
X15022116Y-11506107D01*
X15022116Y-11506107D02*
X15041163Y-11515631D01*
X15041163Y-11515631D02*
X15050687Y-11525155D01*
X15050687Y-11525155D02*
X15060211Y-11544202D01*
X15060211Y-11544202D02*
X15060211Y-11601345D01*
X15060211Y-11601345D02*
X15050687Y-11620393D01*
X15050687Y-11620393D02*
X15041163Y-11629917D01*
X15041163Y-11629917D02*
X15022116Y-11639440D01*
X15022116Y-11639440D02*
X14993544Y-11639440D01*
X15174497Y-11639440D02*
X15155449Y-11629917D01*
X15155449Y-11629917D02*
X15145925Y-11610869D01*
X15145925Y-11610869D02*
X15145925Y-11439440D01*
X15326878Y-11629917D02*
X15307830Y-11639440D01*
X15307830Y-11639440D02*
X15269735Y-11639440D01*
X15269735Y-11639440D02*
X15250687Y-11629917D01*
X15250687Y-11629917D02*
X15241163Y-11610869D01*
X15241163Y-11610869D02*
X15241163Y-11534679D01*
X15241163Y-11534679D02*
X15250687Y-11515631D01*
X15250687Y-11515631D02*
X15269735Y-11506107D01*
X15269735Y-11506107D02*
X15307830Y-11506107D01*
X15307830Y-11506107D02*
X15326878Y-11515631D01*
X15326878Y-11515631D02*
X15336402Y-11534679D01*
X15336402Y-11534679D02*
X15336402Y-11553726D01*
X15336402Y-11553726D02*
X15241163Y-11572774D01*
X15412592Y-11629917D02*
X15431640Y-11639440D01*
X15431640Y-11639440D02*
X15469735Y-11639440D01*
X15469735Y-11639440D02*
X15488783Y-11629917D01*
X15488783Y-11629917D02*
X15498306Y-11610869D01*
X15498306Y-11610869D02*
X15498306Y-11601345D01*
X15498306Y-11601345D02*
X15488783Y-11582298D01*
X15488783Y-11582298D02*
X15469735Y-11572774D01*
X15469735Y-11572774D02*
X15441163Y-11572774D01*
X15441163Y-11572774D02*
X15422116Y-11563250D01*
X15422116Y-11563250D02*
X15412592Y-11544202D01*
X15412592Y-11544202D02*
X15412592Y-11534679D01*
X15412592Y-11534679D02*
X15422116Y-11515631D01*
X15422116Y-11515631D02*
X15441163Y-11506107D01*
X15441163Y-11506107D02*
X15469735Y-11506107D01*
X15469735Y-11506107D02*
X15488783Y-11515631D01*
X15564973Y-11715631D02*
X15574497Y-11706107D01*
X15574497Y-11706107D02*
X15593544Y-11677536D01*
X15593544Y-11677536D02*
X15603068Y-11658488D01*
X15603068Y-11658488D02*
X15612592Y-11629917D01*
X15612592Y-11629917D02*
X15622116Y-11582298D01*
X15622116Y-11582298D02*
X15622116Y-11544202D01*
X15622116Y-11544202D02*
X15612592Y-11496583D01*
X15612592Y-11496583D02*
X15603068Y-11468012D01*
X15603068Y-11468012D02*
X15593544Y-11448964D01*
X15593544Y-11448964D02*
X15574497Y-11420393D01*
X15574497Y-11420393D02*
X15564973Y-11410869D01*
X15926878Y-11715631D02*
X15917354Y-11706107D01*
X15917354Y-11706107D02*
X15898306Y-11677536D01*
X15898306Y-11677536D02*
X15888783Y-11658488D01*
X15888783Y-11658488D02*
X15879259Y-11629917D01*
X15879259Y-11629917D02*
X15869735Y-11582298D01*
X15869735Y-11582298D02*
X15869735Y-11544202D01*
X15869735Y-11544202D02*
X15879259Y-11496583D01*
X15879259Y-11496583D02*
X15888783Y-11468012D01*
X15888783Y-11468012D02*
X15898306Y-11448964D01*
X15898306Y-11448964D02*
X15917354Y-11420393D01*
X15917354Y-11420393D02*
X15926878Y-11410869D01*
X16003068Y-11506107D02*
X16003068Y-11639440D01*
X16003068Y-11525155D02*
X16012592Y-11515631D01*
X16012592Y-11515631D02*
X16031640Y-11506107D01*
X16031640Y-11506107D02*
X16060211Y-11506107D01*
X16060211Y-11506107D02*
X16079259Y-11515631D01*
X16079259Y-11515631D02*
X16088783Y-11534679D01*
X16088783Y-11534679D02*
X16088783Y-11639440D01*
X16212592Y-11639440D02*
X16193544Y-11629917D01*
X16193544Y-11629917D02*
X16184021Y-11620393D01*
X16184021Y-11620393D02*
X16174497Y-11601345D01*
X16174497Y-11601345D02*
X16174497Y-11544202D01*
X16174497Y-11544202D02*
X16184021Y-11525155D01*
X16184021Y-11525155D02*
X16193544Y-11515631D01*
X16193544Y-11515631D02*
X16212592Y-11506107D01*
X16212592Y-11506107D02*
X16241164Y-11506107D01*
X16241164Y-11506107D02*
X16260211Y-11515631D01*
X16260211Y-11515631D02*
X16269735Y-11525155D01*
X16269735Y-11525155D02*
X16279259Y-11544202D01*
X16279259Y-11544202D02*
X16279259Y-11601345D01*
X16279259Y-11601345D02*
X16269735Y-11620393D01*
X16269735Y-11620393D02*
X16260211Y-11629917D01*
X16260211Y-11629917D02*
X16241164Y-11639440D01*
X16241164Y-11639440D02*
X16212592Y-11639440D01*
X16336402Y-11506107D02*
X16412592Y-11506107D01*
X16364973Y-11439440D02*
X16364973Y-11610869D01*
X16364973Y-11610869D02*
X16374497Y-11629917D01*
X16374497Y-11629917D02*
X16393544Y-11639440D01*
X16393544Y-11639440D02*
X16412592Y-11639440D01*
X16631640Y-11506107D02*
X16631640Y-11706107D01*
X16631640Y-11515631D02*
X16650687Y-11506107D01*
X16650687Y-11506107D02*
X16688783Y-11506107D01*
X16688783Y-11506107D02*
X16707830Y-11515631D01*
X16707830Y-11515631D02*
X16717354Y-11525155D01*
X16717354Y-11525155D02*
X16726878Y-11544202D01*
X16726878Y-11544202D02*
X16726878Y-11601345D01*
X16726878Y-11601345D02*
X16717354Y-11620393D01*
X16717354Y-11620393D02*
X16707830Y-11629917D01*
X16707830Y-11629917D02*
X16688783Y-11639440D01*
X16688783Y-11639440D02*
X16650687Y-11639440D01*
X16650687Y-11639440D02*
X16631640Y-11629917D01*
X16841164Y-11639440D02*
X16822116Y-11629917D01*
X16822116Y-11629917D02*
X16812592Y-11610869D01*
X16812592Y-11610869D02*
X16812592Y-11439440D01*
X17003068Y-11639440D02*
X17003068Y-11534679D01*
X17003068Y-11534679D02*
X16993545Y-11515631D01*
X16993545Y-11515631D02*
X16974497Y-11506107D01*
X16974497Y-11506107D02*
X16936402Y-11506107D01*
X16936402Y-11506107D02*
X16917354Y-11515631D01*
X17003068Y-11629917D02*
X16984021Y-11639440D01*
X16984021Y-11639440D02*
X16936402Y-11639440D01*
X16936402Y-11639440D02*
X16917354Y-11629917D01*
X16917354Y-11629917D02*
X16907830Y-11610869D01*
X16907830Y-11610869D02*
X16907830Y-11591821D01*
X16907830Y-11591821D02*
X16917354Y-11572774D01*
X16917354Y-11572774D02*
X16936402Y-11563250D01*
X16936402Y-11563250D02*
X16984021Y-11563250D01*
X16984021Y-11563250D02*
X17003068Y-11553726D01*
X17069735Y-11506107D02*
X17145926Y-11506107D01*
X17098307Y-11439440D02*
X17098307Y-11610869D01*
X17098307Y-11610869D02*
X17107830Y-11629917D01*
X17107830Y-11629917D02*
X17126878Y-11639440D01*
X17126878Y-11639440D02*
X17145926Y-11639440D01*
X17288783Y-11629917D02*
X17269735Y-11639440D01*
X17269735Y-11639440D02*
X17231640Y-11639440D01*
X17231640Y-11639440D02*
X17212592Y-11629917D01*
X17212592Y-11629917D02*
X17203068Y-11610869D01*
X17203068Y-11610869D02*
X17203068Y-11534679D01*
X17203068Y-11534679D02*
X17212592Y-11515631D01*
X17212592Y-11515631D02*
X17231640Y-11506107D01*
X17231640Y-11506107D02*
X17269735Y-11506107D01*
X17269735Y-11506107D02*
X17288783Y-11515631D01*
X17288783Y-11515631D02*
X17298307Y-11534679D01*
X17298307Y-11534679D02*
X17298307Y-11553726D01*
X17298307Y-11553726D02*
X17203068Y-11572774D01*
X17469735Y-11639440D02*
X17469735Y-11439440D01*
X17469735Y-11629917D02*
X17450688Y-11639440D01*
X17450688Y-11639440D02*
X17412592Y-11639440D01*
X17412592Y-11639440D02*
X17393545Y-11629917D01*
X17393545Y-11629917D02*
X17384021Y-11620393D01*
X17384021Y-11620393D02*
X17374497Y-11601345D01*
X17374497Y-11601345D02*
X17374497Y-11544202D01*
X17374497Y-11544202D02*
X17384021Y-11525155D01*
X17384021Y-11525155D02*
X17393545Y-11515631D01*
X17393545Y-11515631D02*
X17412592Y-11506107D01*
X17412592Y-11506107D02*
X17450688Y-11506107D01*
X17450688Y-11506107D02*
X17469735Y-11515631D01*
X17545926Y-11715631D02*
X17555449Y-11706107D01*
X17555449Y-11706107D02*
X17574497Y-11677536D01*
X17574497Y-11677536D02*
X17584021Y-11658488D01*
X17584021Y-11658488D02*
X17593545Y-11629917D01*
X17593545Y-11629917D02*
X17603068Y-11582298D01*
X17603068Y-11582298D02*
X17603068Y-11544202D01*
X17603068Y-11544202D02*
X17593545Y-11496583D01*
X17593545Y-11496583D02*
X17584021Y-11468012D01*
X17584021Y-11468012D02*
X17574497Y-11448964D01*
X17574497Y-11448964D02*
X17555449Y-11420393D01*
X17555449Y-11420393D02*
X17545926Y-11410869D01*
M02*
