G04 #@! TF.GenerationSoftware,KiCad,Pcbnew,7.0.8-7.0.8~ubuntu22.04.1*
G04 #@! TF.CreationDate,2023-10-19T22:21:27+02:00*
G04 #@! TF.ProjectId,LightPipe_PCB,4c696768-7450-4697-9065-5f5043422e6b,v0.1.2*
G04 #@! TF.SameCoordinates,Original*
G04 #@! TF.FileFunction,Soldermask,Bot*
G04 #@! TF.FilePolarity,Negative*
%FSLAX46Y46*%
G04 Gerber Fmt 4.6, Leading zero omitted, Abs format (unit mm)*
G04 Created by KiCad (PCBNEW 7.0.8-7.0.8~ubuntu22.04.1) date 2023-10-19 22:21:27*
%MOMM*%
%LPD*%
G01*
G04 APERTURE LIST*
%ADD10C,0.200000*%
%ADD11R,4.400000X4.400000*%
%ADD12C,4.400000*%
%ADD13C,2.200000*%
%ADD14C,1.400000*%
G04 APERTURE END LIST*
D10*
X132227241Y-79880642D02*
G75*
G03*
X132227241Y-79880642I-100000J0D01*
G01*
X138427241Y-90619358D02*
G75*
G03*
X138427241Y-90619358I-100000J0D01*
G01*
G36*
X138500446Y-90519358D02*
G01*
X138327241Y-90619358D01*
X138154036Y-90719358D01*
X131954036Y-79980642D01*
X132127241Y-79880642D01*
X132300446Y-79780642D01*
X138500446Y-90519358D01*
G37*
X133300000Y-99500000D02*
G75*
G03*
X133300000Y-99500000I-100000J0D01*
G01*
X120900000Y-99500000D02*
G75*
G03*
X120900000Y-99500000I-100000J0D01*
G01*
G36*
X133200000Y-99500000D02*
G01*
X133200000Y-99700000D01*
X120800000Y-99700000D01*
X120800000Y-99500000D01*
X120800000Y-99300000D01*
X133200000Y-99300000D01*
X133200000Y-99500000D01*
G37*
X115686156Y-90569358D02*
G75*
G03*
X115686156Y-90569358I-100000J0D01*
G01*
X121886156Y-79830642D02*
G75*
G03*
X121886156Y-79830642I-100000J0D01*
G01*
G36*
X121786156Y-79830642D02*
G01*
X121959361Y-79930642D01*
X115759361Y-90669358D01*
X115586156Y-90569358D01*
X115412951Y-90469358D01*
X121612951Y-79730642D01*
X121786156Y-79830642D01*
G37*
G36*
G01*
X137296728Y-97965544D02*
X138335958Y-98565544D01*
G75*
G02*
X138647080Y-99726666I-425000J-736122D01*
G01*
X138647080Y-99726666D01*
G75*
G02*
X137485958Y-100037788I-736122J425000D01*
G01*
X136446728Y-99437788D01*
G75*
G02*
X136135606Y-98276666I425000J736122D01*
G01*
X136135606Y-98276666D01*
G75*
G02*
X137296728Y-97965544I736122J-425000D01*
G01*
G37*
G36*
G01*
X135396856Y-95656218D02*
X136096856Y-94443782D01*
G75*
G02*
X137257978Y-94132660I736122J-425000D01*
G01*
X137257978Y-94132660D01*
G75*
G02*
X137569100Y-95293782I-425000J-736122D01*
G01*
X136869100Y-96506218D01*
G75*
G02*
X135707978Y-96817340I-736122J425000D01*
G01*
X135707978Y-96817340D01*
G75*
G02*
X135396856Y-95656218I425000J736122D01*
G01*
G37*
G36*
G01*
X139813586Y-98206218D02*
X140513586Y-96993782D01*
G75*
G02*
X141674708Y-96682660I736122J-425000D01*
G01*
X141674708Y-96682660D01*
G75*
G02*
X141985830Y-97843782I-425000J-736122D01*
G01*
X141285830Y-99056218D01*
G75*
G02*
X140124708Y-99367340I-736122J425000D01*
G01*
X140124708Y-99367340D01*
G75*
G02*
X139813586Y-98206218I425000J736122D01*
G01*
G37*
G36*
G01*
X139896728Y-93462212D02*
X140935958Y-94062212D01*
G75*
G02*
X141247080Y-95223334I-425000J-736122D01*
G01*
X141247080Y-95223334D01*
G75*
G02*
X140085958Y-95534456I-736122J425000D01*
G01*
X139046728Y-94934456D01*
G75*
G02*
X138735606Y-93773334I425000J736122D01*
G01*
X138735606Y-93773334D01*
G75*
G02*
X139896728Y-93462212I736122J-425000D01*
G01*
G37*
G36*
G01*
X114953272Y-94934456D02*
X113914042Y-95534456D01*
G75*
G02*
X112752920Y-95223334I-425000J736122D01*
G01*
X112752920Y-95223334D01*
G75*
G02*
X113064042Y-94062212I736122J425000D01*
G01*
X114103272Y-93462212D01*
G75*
G02*
X115264394Y-93773334I425000J-736122D01*
G01*
X115264394Y-93773334D01*
G75*
G02*
X114953272Y-94934456I-736122J-425000D01*
G01*
G37*
G36*
G01*
X117903144Y-94443782D02*
X118603144Y-95656218D01*
G75*
G02*
X118292022Y-96817340I-736122J-425000D01*
G01*
X118292022Y-96817340D01*
G75*
G02*
X117130900Y-96506218I-425000J736122D01*
G01*
X116430900Y-95293782D01*
G75*
G02*
X116742022Y-94132660I736122J425000D01*
G01*
X116742022Y-94132660D01*
G75*
G02*
X117903144Y-94443782I425000J-736122D01*
G01*
G37*
G36*
G01*
X113486414Y-96993782D02*
X114186414Y-98206218D01*
G75*
G02*
X113875292Y-99367340I-736122J-425000D01*
G01*
X113875292Y-99367340D01*
G75*
G02*
X112714170Y-99056218I-425000J736122D01*
G01*
X112014170Y-97843782D01*
G75*
G02*
X112325292Y-96682660I736122J425000D01*
G01*
X112325292Y-96682660D01*
G75*
G02*
X113486414Y-96993782I425000J-736122D01*
G01*
G37*
G36*
G01*
X117553272Y-99437788D02*
X116514042Y-100037788D01*
G75*
G02*
X115352920Y-99726666I-425000J736122D01*
G01*
X115352920Y-99726666D01*
G75*
G02*
X115664042Y-98565544I736122J425000D01*
G01*
X116703272Y-97965544D01*
G75*
G02*
X117864394Y-98276666I425000J-736122D01*
G01*
X117864394Y-98276666D01*
G75*
G02*
X117553272Y-99437788I-736122J-425000D01*
G01*
G37*
D11*
X129500000Y-75300000D03*
D12*
X124500000Y-75300000D03*
D13*
X118700000Y-76100000D03*
X135300000Y-76100000D03*
G36*
X134000447Y-82725129D02*
G01*
X136448523Y-80965322D01*
X135798523Y-79839488D01*
X133050447Y-81079681D01*
X134000447Y-82725129D01*
G37*
G36*
X135250447Y-84890192D02*
G01*
X137698523Y-83130385D01*
X137048523Y-82004551D01*
X134300447Y-83244744D01*
X135250447Y-84890192D01*
G37*
G36*
X136500447Y-87055256D02*
G01*
X138948523Y-85295449D01*
X138298523Y-84169615D01*
X135550447Y-85409808D01*
X136500447Y-87055256D01*
G37*
G36*
X137750447Y-89220319D02*
G01*
X140198523Y-87460512D01*
X139548523Y-86334678D01*
X136800447Y-87574871D01*
X137750447Y-89220319D01*
G37*
X143240381Y-91870835D03*
G36*
X129800000Y-99700000D02*
G01*
X130100000Y-102700000D01*
X131400000Y-102700000D01*
X131700000Y-99700000D01*
X129800000Y-99700000D01*
G37*
G36*
X127300000Y-99700000D02*
G01*
X127600000Y-102700000D01*
X128900000Y-102700000D01*
X129200000Y-99700000D01*
X127300000Y-99700000D01*
G37*
G36*
X124800000Y-99700000D02*
G01*
X125100000Y-102700000D01*
X126400000Y-102700000D01*
X126700000Y-99700000D01*
X124800000Y-99700000D01*
G37*
G36*
X122300000Y-99700000D02*
G01*
X122600000Y-102700000D01*
X123900000Y-102700000D01*
X124200000Y-99700000D01*
X122300000Y-99700000D01*
G37*
D14*
X133384421Y-96341858D03*
D13*
X136740381Y-103129165D03*
D14*
X135684421Y-92358142D03*
G36*
X120862951Y-81029681D02*
G01*
X118114875Y-79789488D01*
X117464875Y-80915322D01*
X119912951Y-82675129D01*
X120862951Y-81029681D01*
G37*
G36*
X119612951Y-83194744D02*
G01*
X116864875Y-81954551D01*
X116214875Y-83080385D01*
X118662951Y-84840192D01*
X119612951Y-83194744D01*
G37*
G36*
X118362951Y-85359808D02*
G01*
X115614875Y-84119615D01*
X114964875Y-85245449D01*
X117412951Y-87005256D01*
X118362951Y-85359808D01*
G37*
G36*
X117112951Y-87524871D02*
G01*
X114364875Y-86284678D01*
X113714875Y-87410512D01*
X116162951Y-89170319D01*
X117112951Y-87524871D01*
G37*
M02*
