G04 #@! TF.GenerationSoftware,KiCad,Pcbnew,7.0.8-7.0.8~ubuntu22.04.1*
G04 #@! TF.CreationDate,2023-10-19T22:21:27+02:00*
G04 #@! TF.ProjectId,LightPipe_PCB,4c696768-7450-4697-9065-5f5043422e6b,v0.1.2*
G04 #@! TF.SameCoordinates,Original*
G04 #@! TF.FileFunction,Copper,L3,Inr*
G04 #@! TF.FilePolarity,Positive*
%FSLAX46Y46*%
G04 Gerber Fmt 4.6, Leading zero omitted, Abs format (unit mm)*
G04 Created by KiCad (PCBNEW 7.0.8-7.0.8~ubuntu22.04.1) date 2023-10-19 22:21:27*
%MOMM*%
%LPD*%
G01*
G04 APERTURE LIST*
G04 #@! TA.AperFunction,ComponentPad*
%ADD10R,4.400000X4.400000*%
G04 #@! TD*
G04 #@! TA.AperFunction,ComponentPad*
%ADD11C,4.400000*%
G04 #@! TD*
G04 #@! TA.AperFunction,ComponentPad*
%ADD12C,2.200000*%
G04 #@! TD*
G04 #@! TA.AperFunction,ComponentPad*
%ADD13C,1.400000*%
G04 #@! TD*
G04 #@! TA.AperFunction,ViaPad*
%ADD14C,0.600000*%
G04 #@! TD*
G04 APERTURE END LIST*
G04 #@! TA.AperFunction,ComponentPad*
G36*
G01*
X137296728Y-97965544D02*
X138335958Y-98565544D01*
G75*
G02*
X138647080Y-99726666I-425000J-736122D01*
G01*
X138647080Y-99726666D01*
G75*
G02*
X137485958Y-100037788I-736122J425000D01*
G01*
X136446728Y-99437788D01*
G75*
G02*
X136135606Y-98276666I425000J736122D01*
G01*
X136135606Y-98276666D01*
G75*
G02*
X137296728Y-97965544I736122J-425000D01*
G01*
G37*
G04 #@! TD.AperFunction*
G04 #@! TA.AperFunction,ComponentPad*
G36*
G01*
X135396856Y-95656218D02*
X136096856Y-94443782D01*
G75*
G02*
X137257978Y-94132660I736122J-425000D01*
G01*
X137257978Y-94132660D01*
G75*
G02*
X137569100Y-95293782I-425000J-736122D01*
G01*
X136869100Y-96506218D01*
G75*
G02*
X135707978Y-96817340I-736122J425000D01*
G01*
X135707978Y-96817340D01*
G75*
G02*
X135396856Y-95656218I425000J736122D01*
G01*
G37*
G04 #@! TD.AperFunction*
G04 #@! TA.AperFunction,ComponentPad*
G36*
G01*
X139813586Y-98206218D02*
X140513586Y-96993782D01*
G75*
G02*
X141674708Y-96682660I736122J-425000D01*
G01*
X141674708Y-96682660D01*
G75*
G02*
X141985830Y-97843782I-425000J-736122D01*
G01*
X141285830Y-99056218D01*
G75*
G02*
X140124708Y-99367340I-736122J425000D01*
G01*
X140124708Y-99367340D01*
G75*
G02*
X139813586Y-98206218I425000J736122D01*
G01*
G37*
G04 #@! TD.AperFunction*
G04 #@! TA.AperFunction,ComponentPad*
G36*
G01*
X139896728Y-93462212D02*
X140935958Y-94062212D01*
G75*
G02*
X141247080Y-95223334I-425000J-736122D01*
G01*
X141247080Y-95223334D01*
G75*
G02*
X140085958Y-95534456I-736122J425000D01*
G01*
X139046728Y-94934456D01*
G75*
G02*
X138735606Y-93773334I425000J736122D01*
G01*
X138735606Y-93773334D01*
G75*
G02*
X139896728Y-93462212I736122J-425000D01*
G01*
G37*
G04 #@! TD.AperFunction*
G04 #@! TA.AperFunction,ComponentPad*
G36*
G01*
X114953272Y-94934456D02*
X113914042Y-95534456D01*
G75*
G02*
X112752920Y-95223334I-425000J736122D01*
G01*
X112752920Y-95223334D01*
G75*
G02*
X113064042Y-94062212I736122J425000D01*
G01*
X114103272Y-93462212D01*
G75*
G02*
X115264394Y-93773334I425000J-736122D01*
G01*
X115264394Y-93773334D01*
G75*
G02*
X114953272Y-94934456I-736122J-425000D01*
G01*
G37*
G04 #@! TD.AperFunction*
G04 #@! TA.AperFunction,ComponentPad*
G36*
G01*
X117903144Y-94443782D02*
X118603144Y-95656218D01*
G75*
G02*
X118292022Y-96817340I-736122J-425000D01*
G01*
X118292022Y-96817340D01*
G75*
G02*
X117130900Y-96506218I-425000J736122D01*
G01*
X116430900Y-95293782D01*
G75*
G02*
X116742022Y-94132660I736122J425000D01*
G01*
X116742022Y-94132660D01*
G75*
G02*
X117903144Y-94443782I425000J-736122D01*
G01*
G37*
G04 #@! TD.AperFunction*
G04 #@! TA.AperFunction,ComponentPad*
G36*
G01*
X113486414Y-96993782D02*
X114186414Y-98206218D01*
G75*
G02*
X113875292Y-99367340I-736122J-425000D01*
G01*
X113875292Y-99367340D01*
G75*
G02*
X112714170Y-99056218I-425000J736122D01*
G01*
X112014170Y-97843782D01*
G75*
G02*
X112325292Y-96682660I736122J425000D01*
G01*
X112325292Y-96682660D01*
G75*
G02*
X113486414Y-96993782I425000J-736122D01*
G01*
G37*
G04 #@! TD.AperFunction*
G04 #@! TA.AperFunction,ComponentPad*
G36*
G01*
X117553272Y-99437788D02*
X116514042Y-100037788D01*
G75*
G02*
X115352920Y-99726666I-425000J736122D01*
G01*
X115352920Y-99726666D01*
G75*
G02*
X115664042Y-98565544I736122J425000D01*
G01*
X116703272Y-97965544D01*
G75*
G02*
X117864394Y-98276666I425000J-736122D01*
G01*
X117864394Y-98276666D01*
G75*
G02*
X117553272Y-99437788I-736122J-425000D01*
G01*
G37*
G04 #@! TD.AperFunction*
D10*
X129500000Y-75300000D03*
D11*
X124500000Y-75300000D03*
D12*
X143240381Y-91870835D03*
D13*
X133384421Y-96341858D03*
D12*
X136740381Y-103129165D03*
D13*
X135684421Y-92358142D03*
D14*
X118374682Y-80273205D03*
X131365209Y-100197189D03*
X119829938Y-82152628D03*
X130265209Y-101497189D03*
X133689888Y-81171995D03*
X118024682Y-80879423D03*
X120379938Y-81200000D03*
X136045144Y-80851418D03*
X131265209Y-101497189D03*
X134239888Y-82124623D03*
X135695144Y-80245200D03*
X130265209Y-100197189D03*
X122748693Y-101605472D03*
X139787711Y-87361563D03*
X137982455Y-88634768D03*
X114294744Y-87426794D03*
X123748693Y-101605472D03*
X116650000Y-87747372D03*
X116100000Y-88700000D03*
X122648693Y-100305472D03*
X123748693Y-100305472D03*
X114644744Y-86820577D03*
X139437711Y-86755345D03*
X137432455Y-87682140D03*
G04 #@! TA.AperFunction,Conductor*
G36*
X127405417Y-71110014D02*
G01*
X128262754Y-71149076D01*
X128264948Y-71149226D01*
X128686919Y-71187758D01*
X129119591Y-71227267D01*
X129121830Y-71227523D01*
X129972001Y-71344376D01*
X129974212Y-71344730D01*
X130818241Y-71500168D01*
X130820400Y-71500617D01*
X131139028Y-71574433D01*
X131656445Y-71694303D01*
X131658629Y-71694861D01*
X132484988Y-71926396D01*
X132487144Y-71927054D01*
X133302079Y-72195951D01*
X133304203Y-72196706D01*
X133599000Y-72309098D01*
X134106116Y-72502437D01*
X134108150Y-72503266D01*
X134895297Y-72845173D01*
X134897335Y-72846114D01*
X135668093Y-73223487D01*
X135670094Y-73224524D01*
X136422855Y-73636575D01*
X136424807Y-73637702D01*
X137158051Y-74083596D01*
X137159949Y-74084811D01*
X137872149Y-74563625D01*
X137873973Y-74564913D01*
X138544547Y-75061505D01*
X138563629Y-75075636D01*
X138565381Y-75076996D01*
X138989657Y-75422170D01*
X139231106Y-75618604D01*
X139232821Y-75620066D01*
X139873168Y-76191378D01*
X139874815Y-76192916D01*
X140488500Y-76792787D01*
X140490076Y-76794399D01*
X141075835Y-77421594D01*
X141077335Y-77423276D01*
X141633925Y-78076462D01*
X141635348Y-78078210D01*
X142161638Y-78756063D01*
X142162979Y-78757874D01*
X142657861Y-79458961D01*
X142659118Y-79460832D01*
X143121591Y-80183737D01*
X143122762Y-80185663D01*
X143551853Y-80928870D01*
X143552935Y-80930847D01*
X143947746Y-81692798D01*
X143948737Y-81694822D01*
X144308468Y-82473974D01*
X144309365Y-82476040D01*
X144633261Y-83270758D01*
X144634050Y-83272828D01*
X144921439Y-84081465D01*
X144922145Y-84083605D01*
X145172427Y-84904465D01*
X145173035Y-84906635D01*
X145385698Y-85738045D01*
X145386207Y-85740241D01*
X145560802Y-86580440D01*
X145561210Y-86582657D01*
X145697393Y-87429990D01*
X145697700Y-87432223D01*
X145795168Y-88284819D01*
X145795373Y-88287064D01*
X145853938Y-89143241D01*
X145854040Y-89145480D01*
X145856203Y-89240450D01*
X145873575Y-90003440D01*
X145873575Y-90005694D01*
X145854041Y-90863640D01*
X145853938Y-90865892D01*
X145795373Y-91722069D01*
X145795168Y-91724314D01*
X145697700Y-92576910D01*
X145697393Y-92579143D01*
X145561210Y-93426476D01*
X145560802Y-93428693D01*
X145386207Y-94268892D01*
X145385698Y-94271088D01*
X145173035Y-95102498D01*
X145172427Y-95104668D01*
X144922145Y-95925528D01*
X144921439Y-95927668D01*
X144634050Y-96736305D01*
X144633256Y-96738389D01*
X144458491Y-97167197D01*
X144309366Y-97533092D01*
X144308468Y-97535159D01*
X143948737Y-98314311D01*
X143947746Y-98316335D01*
X143552935Y-99078286D01*
X143551853Y-99080263D01*
X143122762Y-99823470D01*
X143121591Y-99825396D01*
X142659118Y-100548301D01*
X142657861Y-100550172D01*
X142162979Y-101251259D01*
X142161638Y-101253070D01*
X141635348Y-101930923D01*
X141633925Y-101932671D01*
X141077335Y-102585857D01*
X141075835Y-102587539D01*
X140490076Y-103214734D01*
X140488500Y-103216346D01*
X139874815Y-103816217D01*
X139873168Y-103817755D01*
X139232821Y-104389067D01*
X139231106Y-104390529D01*
X138565410Y-104932115D01*
X138563629Y-104933497D01*
X137873990Y-105444208D01*
X137872149Y-105445508D01*
X137159949Y-105924322D01*
X137158051Y-105925537D01*
X136424807Y-106371431D01*
X136422855Y-106372558D01*
X135670094Y-106784609D01*
X135668093Y-106785646D01*
X134897335Y-107163019D01*
X134895288Y-107163964D01*
X134108165Y-107505860D01*
X134106078Y-107506711D01*
X133304203Y-107812427D01*
X133302079Y-107813182D01*
X132487144Y-108082079D01*
X132484988Y-108082737D01*
X131658629Y-108314272D01*
X131656445Y-108314830D01*
X130820416Y-108508512D01*
X130818209Y-108508971D01*
X129974226Y-108664400D01*
X129972001Y-108664757D01*
X129121830Y-108781610D01*
X129119591Y-108781866D01*
X128264956Y-108859906D01*
X128262710Y-108860059D01*
X127405417Y-108899119D01*
X127403196Y-108899170D01*
X126545006Y-108899170D01*
X126542784Y-108899119D01*
X125685488Y-108860059D01*
X125683245Y-108859906D01*
X124828610Y-108781866D01*
X124826371Y-108781610D01*
X123976200Y-108664757D01*
X123973975Y-108664400D01*
X123129992Y-108508971D01*
X123127785Y-108508512D01*
X122291756Y-108314830D01*
X122289572Y-108314272D01*
X121463213Y-108082737D01*
X121461057Y-108082079D01*
X120646122Y-107813182D01*
X120643998Y-107812427D01*
X120040118Y-107582196D01*
X119842108Y-107506704D01*
X119840036Y-107505860D01*
X119052913Y-107163964D01*
X119050866Y-107163019D01*
X118280108Y-106785646D01*
X118278107Y-106784609D01*
X117525346Y-106372558D01*
X117523394Y-106371431D01*
X116790150Y-105925537D01*
X116788252Y-105924322D01*
X116076052Y-105445508D01*
X116074211Y-105444208D01*
X115384572Y-104933497D01*
X115382814Y-104932132D01*
X115050053Y-104661411D01*
X136268794Y-104661411D01*
X136489313Y-104714353D01*
X136740381Y-104734112D01*
X136991448Y-104714353D01*
X137211966Y-104661411D01*
X136740380Y-104189825D01*
X136268794Y-104661411D01*
X115050053Y-104661411D01*
X114992689Y-104614742D01*
X114717095Y-104390529D01*
X114715380Y-104389067D01*
X114075033Y-103817755D01*
X114073386Y-103816217D01*
X113459701Y-103216346D01*
X113458125Y-103214734D01*
X113378209Y-103129165D01*
X135135433Y-103129165D01*
X135155192Y-103380232D01*
X135208134Y-103600750D01*
X135635812Y-103173071D01*
X135986553Y-103173071D01*
X136016997Y-103345732D01*
X136086440Y-103506718D01*
X136191137Y-103647350D01*
X136325443Y-103760047D01*
X136482120Y-103838733D01*
X136652719Y-103879165D01*
X136784065Y-103879165D01*
X136914520Y-103863917D01*
X137079272Y-103803952D01*
X137225754Y-103707610D01*
X137346069Y-103580083D01*
X137433731Y-103428247D01*
X137484015Y-103260288D01*
X137491652Y-103129164D01*
X137801041Y-103129164D01*
X138272627Y-103600750D01*
X138325569Y-103380232D01*
X138345328Y-103129165D01*
X138325569Y-102878097D01*
X138272627Y-102657578D01*
X137801041Y-103129164D01*
X137491652Y-103129164D01*
X137494209Y-103085259D01*
X137463765Y-102912598D01*
X137394322Y-102751612D01*
X137289625Y-102610980D01*
X137155319Y-102498283D01*
X136998642Y-102419597D01*
X136828043Y-102379165D01*
X136696697Y-102379165D01*
X136566242Y-102394413D01*
X136401490Y-102454378D01*
X136255008Y-102550720D01*
X136134693Y-102678247D01*
X136047031Y-102830083D01*
X135996747Y-102998042D01*
X135986553Y-103173071D01*
X135635812Y-103173071D01*
X135679719Y-103129164D01*
X135208134Y-102657579D01*
X135155192Y-102878097D01*
X135135433Y-103129165D01*
X113378209Y-103129165D01*
X112872366Y-102587539D01*
X112870866Y-102585857D01*
X112314276Y-101932671D01*
X112312853Y-101930923D01*
X112295298Y-101908313D01*
X111825043Y-101302632D01*
X111786563Y-101253070D01*
X111785222Y-101251259D01*
X111636436Y-101040477D01*
X111290330Y-100550158D01*
X111289083Y-100548301D01*
X110826610Y-99825396D01*
X110825439Y-99823470D01*
X110551802Y-99349517D01*
X112306157Y-99349517D01*
X112310635Y-99357272D01*
X112412178Y-99502291D01*
X112579218Y-99669331D01*
X112772714Y-99804817D01*
X112986802Y-99904647D01*
X113214979Y-99965787D01*
X113362215Y-99978668D01*
X113012416Y-99372797D01*
X114935804Y-99372797D01*
X114968510Y-99583485D01*
X114968511Y-99583492D01*
X115039373Y-99784585D01*
X115039374Y-99784587D01*
X115039375Y-99784589D01*
X115145985Y-99969243D01*
X115284709Y-100131162D01*
X115450823Y-100264835D01*
X115450825Y-100264836D01*
X115562167Y-100324625D01*
X115638673Y-100365707D01*
X115638675Y-100365707D01*
X115638676Y-100365708D01*
X115841853Y-100430343D01*
X115841856Y-100430343D01*
X115841858Y-100430344D01*
X116053461Y-100456547D01*
X116266275Y-100443421D01*
X116422627Y-100404096D01*
X116473047Y-100391416D01*
X116473048Y-100391415D01*
X116473054Y-100391414D01*
X116618225Y-100324625D01*
X116651399Y-100305472D01*
X122043011Y-100305472D01*
X122063648Y-100462230D01*
X122063650Y-100462238D01*
X122124155Y-100608310D01*
X122124155Y-100608311D01*
X122124157Y-100608313D01*
X122220411Y-100733754D01*
X122345852Y-100830008D01*
X122477934Y-100884718D01*
X122524460Y-100924454D01*
X122538744Y-100983949D01*
X122515330Y-101040477D01*
X122477936Y-101067646D01*
X122445852Y-101080936D01*
X122320416Y-101177185D01*
X122320406Y-101177195D01*
X122224155Y-101302632D01*
X122224155Y-101302633D01*
X122163650Y-101448705D01*
X122163648Y-101448713D01*
X122143011Y-101605471D01*
X122143011Y-101605472D01*
X122163648Y-101762230D01*
X122163650Y-101762238D01*
X122224155Y-101908310D01*
X122224155Y-101908311D01*
X122242847Y-101932671D01*
X122320411Y-102033754D01*
X122445852Y-102130008D01*
X122591931Y-102190516D01*
X122709502Y-102205994D01*
X122748692Y-102211154D01*
X122748693Y-102211154D01*
X122748694Y-102211154D01*
X122780045Y-102207026D01*
X122905455Y-102190516D01*
X123051534Y-102130008D01*
X123176975Y-102033754D01*
X123176981Y-102033745D01*
X123178689Y-102032039D01*
X123180240Y-102031248D01*
X123182123Y-102029804D01*
X123182390Y-102030152D01*
X123233206Y-102004262D01*
X123293638Y-102013833D01*
X123318697Y-102032039D01*
X123320406Y-102033748D01*
X123320411Y-102033754D01*
X123445852Y-102130008D01*
X123591931Y-102190516D01*
X123709502Y-102205994D01*
X123748692Y-102211154D01*
X123748693Y-102211154D01*
X123748694Y-102211154D01*
X123780045Y-102207026D01*
X123905455Y-102190516D01*
X124051534Y-102130008D01*
X124176975Y-102033754D01*
X124273229Y-101908313D01*
X124333737Y-101762234D01*
X124354375Y-101605472D01*
X124353249Y-101596918D01*
X136268795Y-101596918D01*
X136740380Y-102068503D01*
X137211966Y-101596918D01*
X136991448Y-101543976D01*
X136740381Y-101524217D01*
X136489313Y-101543976D01*
X136268795Y-101596918D01*
X124353249Y-101596918D01*
X124333737Y-101448710D01*
X124273230Y-101302633D01*
X124273230Y-101302632D01*
X124176979Y-101177195D01*
X124176978Y-101177194D01*
X124176975Y-101177190D01*
X124176970Y-101177186D01*
X124176969Y-101177185D01*
X124051531Y-101080934D01*
X123969451Y-101046936D01*
X123922925Y-101007200D01*
X123908641Y-100947705D01*
X123932055Y-100891177D01*
X123969451Y-100864008D01*
X124019454Y-100843296D01*
X124051534Y-100830008D01*
X124176975Y-100733754D01*
X124273229Y-100608313D01*
X124333737Y-100462234D01*
X124354375Y-100305472D01*
X124333737Y-100148710D01*
X124273230Y-100002633D01*
X124273230Y-100002632D01*
X124176979Y-99877195D01*
X124176978Y-99877194D01*
X124176975Y-99877190D01*
X124176970Y-99877186D01*
X124176969Y-99877185D01*
X124082656Y-99804817D01*
X124051534Y-99780936D01*
X124051533Y-99780935D01*
X124051531Y-99780934D01*
X123905459Y-99720429D01*
X123905451Y-99720427D01*
X123748694Y-99699790D01*
X123748692Y-99699790D01*
X123591934Y-99720427D01*
X123591926Y-99720429D01*
X123445854Y-99780934D01*
X123445853Y-99780934D01*
X123320416Y-99877185D01*
X123320406Y-99877195D01*
X123277235Y-99933458D01*
X123226811Y-99968114D01*
X123165646Y-99966513D01*
X123120151Y-99933458D01*
X123076979Y-99877195D01*
X123076978Y-99877194D01*
X123076975Y-99877190D01*
X123076970Y-99877186D01*
X123076969Y-99877185D01*
X122982656Y-99804817D01*
X122951534Y-99780936D01*
X122951533Y-99780935D01*
X122951531Y-99780934D01*
X122805459Y-99720429D01*
X122805451Y-99720427D01*
X122648694Y-99699790D01*
X122648692Y-99699790D01*
X122491934Y-99720427D01*
X122491926Y-99720429D01*
X122345854Y-99780934D01*
X122345853Y-99780934D01*
X122220416Y-99877185D01*
X122220406Y-99877195D01*
X122124155Y-100002632D01*
X122124155Y-100002633D01*
X122063650Y-100148705D01*
X122063648Y-100148713D01*
X122043011Y-100305471D01*
X122043011Y-100305472D01*
X116651399Y-100305472D01*
X117749590Y-99671431D01*
X117880016Y-99579104D01*
X118028444Y-99426031D01*
X118146220Y-99248292D01*
X118229329Y-99051937D01*
X118274944Y-98843655D01*
X118281510Y-98630539D01*
X135718490Y-98630539D01*
X135725056Y-98843650D01*
X135725058Y-98843660D01*
X135770671Y-99051937D01*
X135853780Y-99248291D01*
X135971552Y-99426025D01*
X135971556Y-99426031D01*
X136119984Y-99579104D01*
X136250410Y-99671431D01*
X137381776Y-100324625D01*
X137526946Y-100391415D01*
X137526948Y-100391415D01*
X137526952Y-100391417D01*
X137585213Y-100406069D01*
X137733725Y-100443421D01*
X137946539Y-100456548D01*
X138158142Y-100430345D01*
X138158147Y-100430343D01*
X138158149Y-100430343D01*
X138280521Y-100391414D01*
X138361328Y-100365708D01*
X138361333Y-100365705D01*
X138361336Y-100365704D01*
X138549172Y-100264838D01*
X138549173Y-100264837D01*
X138549177Y-100264835D01*
X138715291Y-100131162D01*
X138845940Y-99978668D01*
X140637782Y-99978668D01*
X140785020Y-99965788D01*
X141013197Y-99904648D01*
X141227285Y-99804818D01*
X141420781Y-99669331D01*
X141587821Y-99502291D01*
X141689368Y-99357269D01*
X141693841Y-99349518D01*
X141174227Y-99049518D01*
X140637782Y-99978667D01*
X140637782Y-99978668D01*
X138845940Y-99978668D01*
X138854015Y-99969243D01*
X138960625Y-99784589D01*
X139031490Y-99583491D01*
X139064196Y-99372796D01*
X139057630Y-99159677D01*
X139012015Y-98951395D01*
X139000516Y-98924228D01*
X138928906Y-98755040D01*
X138846859Y-98631221D01*
X139194552Y-98631221D01*
X139215137Y-98866531D01*
X139276277Y-99094708D01*
X139338743Y-99228668D01*
X139669804Y-98655254D01*
X140045139Y-98655254D01*
X140072348Y-98796434D01*
X140138231Y-98924229D01*
X140237450Y-99028286D01*
X140361966Y-99100175D01*
X140501692Y-99134073D01*
X140645307Y-99127232D01*
X140781177Y-99080206D01*
X140898296Y-98996806D01*
X140964839Y-98912190D01*
X141635553Y-97750479D01*
X141924226Y-97750479D01*
X142443841Y-98050479D01*
X142443842Y-98050478D01*
X142448315Y-98042735D01*
X142523138Y-97882272D01*
X142584278Y-97654095D01*
X142604864Y-97418785D01*
X142604864Y-97418777D01*
X142584277Y-97183468D01*
X142523136Y-96955287D01*
X142460671Y-96821331D01*
X142460670Y-96821331D01*
X141924226Y-97750478D01*
X141924226Y-97750479D01*
X141635553Y-97750479D01*
X141700602Y-97637811D01*
X141740611Y-97537874D01*
X141754277Y-97394747D01*
X141727068Y-97253567D01*
X141661185Y-97125772D01*
X141561965Y-97021714D01*
X141437450Y-96949825D01*
X141297724Y-96915928D01*
X141154109Y-96922769D01*
X141018239Y-96969795D01*
X140901120Y-97053194D01*
X140834577Y-97137811D01*
X140098814Y-98412190D01*
X140058805Y-98512126D01*
X140045139Y-98655254D01*
X139669804Y-98655254D01*
X139875188Y-98299520D01*
X139875188Y-98299519D01*
X139355573Y-97999519D01*
X139355572Y-97999519D01*
X139351104Y-98007261D01*
X139276277Y-98167728D01*
X139215137Y-98395905D01*
X139194552Y-98631214D01*
X139194552Y-98631221D01*
X138846859Y-98631221D01*
X138811130Y-98577301D01*
X138662702Y-98424228D01*
X138662698Y-98424225D01*
X138662697Y-98424224D01*
X138532280Y-98331904D01*
X138532281Y-98331904D01*
X138532276Y-98331901D01*
X137400911Y-97678707D01*
X137255740Y-97611918D01*
X137255739Y-97611917D01*
X137255733Y-97611915D01*
X137048966Y-97559912D01*
X137048956Y-97559910D01*
X136836150Y-97546785D01*
X136836149Y-97546785D01*
X136836147Y-97546785D01*
X136756795Y-97556611D01*
X136624539Y-97572988D01*
X136421362Y-97637623D01*
X136421355Y-97637626D01*
X136233511Y-97738495D01*
X136067393Y-97872171D01*
X135928672Y-98034087D01*
X135928671Y-98034088D01*
X135822059Y-98218746D01*
X135751197Y-98419839D01*
X135751196Y-98419846D01*
X135718490Y-98630534D01*
X135718490Y-98630539D01*
X118281510Y-98630539D01*
X118281510Y-98630536D01*
X118248804Y-98419841D01*
X118212329Y-98316335D01*
X118177940Y-98218746D01*
X118177939Y-98218743D01*
X118071329Y-98034089D01*
X117932605Y-97872170D01*
X117766491Y-97738497D01*
X117766490Y-97738496D01*
X117766486Y-97738493D01*
X117578650Y-97637627D01*
X117578638Y-97637622D01*
X117375463Y-97572988D01*
X117375458Y-97572987D01*
X117304921Y-97564252D01*
X117163853Y-97546784D01*
X117163850Y-97546784D01*
X117163849Y-97546784D01*
X116993601Y-97557285D01*
X116951039Y-97559911D01*
X116921194Y-97567417D01*
X116744266Y-97611914D01*
X116744261Y-97611916D01*
X116599096Y-97678704D01*
X116599088Y-97678708D01*
X115467719Y-98331904D01*
X115337302Y-98424224D01*
X115188873Y-98577297D01*
X115188866Y-98577306D01*
X115071094Y-98755040D01*
X114987985Y-98951394D01*
X114942372Y-99159671D01*
X114942370Y-99159681D01*
X114935804Y-99372792D01*
X114935804Y-99372797D01*
X113012416Y-99372797D01*
X112825771Y-99049518D01*
X112306157Y-99349517D01*
X110551802Y-99349517D01*
X110396348Y-99080263D01*
X110395266Y-99078286D01*
X110353046Y-98996806D01*
X110000451Y-98316328D01*
X109999464Y-98314311D01*
X109877653Y-98050478D01*
X109854126Y-97999519D01*
X109639733Y-97535159D01*
X109638844Y-97533114D01*
X109592248Y-97418785D01*
X111395136Y-97418785D01*
X111415721Y-97654094D01*
X111476861Y-97882271D01*
X111551684Y-98042731D01*
X111551684Y-98042732D01*
X111556156Y-98050478D01*
X112075772Y-97750479D01*
X112075772Y-97750478D01*
X111870390Y-97394746D01*
X112245723Y-97394746D01*
X112259389Y-97537874D01*
X112299398Y-97637810D01*
X113035161Y-98912189D01*
X113101704Y-98996806D01*
X113218823Y-99080205D01*
X113354693Y-99127231D01*
X113498308Y-99134072D01*
X113638034Y-99100175D01*
X113762549Y-99028286D01*
X113861769Y-98924228D01*
X113927652Y-98796433D01*
X113954861Y-98655253D01*
X113941195Y-98512126D01*
X113901186Y-98412189D01*
X113836137Y-98299520D01*
X114124810Y-98299520D01*
X114661254Y-99228668D01*
X114723721Y-99094710D01*
X114784861Y-98866531D01*
X114805448Y-98631222D01*
X114805448Y-98631214D01*
X114784862Y-98395904D01*
X114723722Y-98167727D01*
X114648897Y-98007262D01*
X114648898Y-98007263D01*
X114644426Y-97999519D01*
X114124810Y-98299519D01*
X114124810Y-98299520D01*
X113836137Y-98299520D01*
X113165423Y-97137810D01*
X113098880Y-97053194D01*
X112981761Y-96969794D01*
X112845891Y-96922768D01*
X112702276Y-96915927D01*
X112562550Y-96949825D01*
X112438034Y-97021714D01*
X112338815Y-97125771D01*
X112272932Y-97253566D01*
X112245723Y-97394746D01*
X111870390Y-97394746D01*
X111539327Y-96821330D01*
X111476860Y-96955294D01*
X111415721Y-97183468D01*
X111395136Y-97418778D01*
X111395136Y-97418785D01*
X109592248Y-97418785D01*
X109314930Y-96738352D01*
X109314151Y-96736305D01*
X109077819Y-96071329D01*
X112838366Y-96071329D01*
X113374811Y-97000480D01*
X113374812Y-97000480D01*
X113894425Y-96700481D01*
X113894425Y-96700480D01*
X113889953Y-96692733D01*
X113889953Y-96692732D01*
X113788405Y-96547708D01*
X113621365Y-96380668D01*
X113427869Y-96245181D01*
X113213781Y-96145351D01*
X112985604Y-96084211D01*
X112838366Y-96071329D01*
X109077819Y-96071329D01*
X109026762Y-95927668D01*
X109026056Y-95925528D01*
X108912179Y-95552042D01*
X108775769Y-95104652D01*
X108775166Y-95102498D01*
X108769453Y-95080164D01*
X108715559Y-94869465D01*
X112335804Y-94869465D01*
X112368510Y-95080153D01*
X112368511Y-95080160D01*
X112439373Y-95281253D01*
X112439374Y-95281255D01*
X112439375Y-95281257D01*
X112482432Y-95355834D01*
X112545985Y-95465911D01*
X112545986Y-95465912D01*
X112619772Y-95552036D01*
X112684709Y-95627830D01*
X112850823Y-95761503D01*
X112850825Y-95761504D01*
X112962167Y-95821293D01*
X113038673Y-95862375D01*
X113038675Y-95862375D01*
X113038676Y-95862376D01*
X113241853Y-95927011D01*
X113241856Y-95927011D01*
X113241858Y-95927012D01*
X113453461Y-95953215D01*
X113666275Y-95940089D01*
X113822627Y-95900764D01*
X113873047Y-95888084D01*
X113873048Y-95888083D01*
X113873054Y-95888082D01*
X114018225Y-95821293D01*
X115149590Y-95168099D01*
X115280016Y-95075772D01*
X115428444Y-94922699D01*
X115487746Y-94833204D01*
X116012141Y-94833204D01*
X116025267Y-95046014D01*
X116077270Y-95252787D01*
X116077272Y-95252792D01*
X116077273Y-95252794D01*
X116144063Y-95397964D01*
X116897256Y-96702535D01*
X116897259Y-96702539D01*
X116989579Y-96832957D01*
X116989583Y-96832962D01*
X117142647Y-96981382D01*
X117142650Y-96981385D01*
X117142656Y-96981390D01*
X117250327Y-97052736D01*
X117320395Y-97099165D01*
X117516749Y-97182274D01*
X117567152Y-97193312D01*
X117725032Y-97227889D01*
X117938151Y-97234456D01*
X118148847Y-97201749D01*
X118349945Y-97130885D01*
X118534599Y-97024275D01*
X118696518Y-96885551D01*
X118830190Y-96719437D01*
X118833215Y-96713805D01*
X118931059Y-96531595D01*
X118931062Y-96531588D01*
X118931063Y-96531587D01*
X118979073Y-96380668D01*
X118995699Y-96328406D01*
X118995699Y-96328404D01*
X118995700Y-96328402D01*
X119021903Y-96116799D01*
X119008776Y-95903985D01*
X118965114Y-95730381D01*
X118956772Y-95697212D01*
X118956770Y-95697207D01*
X118956770Y-95697206D01*
X118889981Y-95552035D01*
X118136787Y-94247465D01*
X118044461Y-94117038D01*
X117891388Y-93968610D01*
X117819375Y-93920892D01*
X117713648Y-93850834D01*
X117517295Y-93767726D01*
X117309016Y-93722112D01*
X117309006Y-93722110D01*
X117095896Y-93715544D01*
X117095891Y-93715544D01*
X116885202Y-93748250D01*
X116885195Y-93748251D01*
X116684102Y-93819113D01*
X116499444Y-93925725D01*
X116499443Y-93925726D01*
X116337532Y-94064443D01*
X116337527Y-94064448D01*
X116337526Y-94064449D01*
X116329865Y-94073969D01*
X116203850Y-94230567D01*
X116102984Y-94418403D01*
X116102979Y-94418415D01*
X116038345Y-94621590D01*
X116038344Y-94621595D01*
X116012141Y-94833204D01*
X115487746Y-94833204D01*
X115546220Y-94744960D01*
X115629329Y-94548605D01*
X115674944Y-94340323D01*
X115681510Y-94127204D01*
X115648804Y-93916509D01*
X115577939Y-93715411D01*
X115471329Y-93530757D01*
X115332605Y-93368838D01*
X115166491Y-93235165D01*
X115166490Y-93235164D01*
X115166486Y-93235161D01*
X114978650Y-93134295D01*
X114978638Y-93134290D01*
X114775463Y-93069656D01*
X114775458Y-93069655D01*
X114704921Y-93060920D01*
X114563853Y-93043452D01*
X114563850Y-93043452D01*
X114563849Y-93043452D01*
X114393601Y-93053953D01*
X114351039Y-93056579D01*
X114321194Y-93064085D01*
X114144266Y-93108582D01*
X114144261Y-93108584D01*
X113999096Y-93175372D01*
X113999088Y-93175376D01*
X113846815Y-93263291D01*
X112978278Y-93764741D01*
X112867719Y-93828572D01*
X112737302Y-93920892D01*
X112588873Y-94073965D01*
X112588866Y-94073974D01*
X112471094Y-94251708D01*
X112387985Y-94448062D01*
X112342372Y-94656339D01*
X112342370Y-94656349D01*
X112335804Y-94869460D01*
X112335804Y-94869465D01*
X108715559Y-94869465D01*
X108600184Y-94418403D01*
X108562503Y-94271088D01*
X108561994Y-94268892D01*
X108557542Y-94247467D01*
X108387393Y-93428661D01*
X108386991Y-93426476D01*
X108250808Y-92579143D01*
X108250505Y-92576944D01*
X108153031Y-91724292D01*
X108152828Y-91722069D01*
X108149254Y-91669813D01*
X108094261Y-90865859D01*
X108094162Y-90863695D01*
X108074626Y-90005664D01*
X108074626Y-90003469D01*
X108074705Y-90000000D01*
X119144495Y-90000000D01*
X119164510Y-90560407D01*
X119164510Y-90560406D01*
X119224453Y-91117955D01*
X119324018Y-91669808D01*
X119324019Y-91669813D01*
X119366642Y-91836808D01*
X119462698Y-92213152D01*
X119511633Y-92360177D01*
X119639784Y-92745209D01*
X119639784Y-92745210D01*
X119842727Y-93235161D01*
X119854381Y-93263295D01*
X119955284Y-93464874D01*
X120105386Y-93764741D01*
X120105387Y-93764742D01*
X120391526Y-94247004D01*
X120391526Y-94247003D01*
X120675739Y-94656349D01*
X120711344Y-94707629D01*
X120884658Y-94922699D01*
X121063201Y-95144258D01*
X121445319Y-95554681D01*
X121855742Y-95936799D01*
X122022687Y-96071331D01*
X122292371Y-96288656D01*
X122292378Y-96288661D01*
X122292382Y-96288664D01*
X122752997Y-96608474D01*
X122752996Y-96608474D01*
X123131353Y-96832963D01*
X123235257Y-96894612D01*
X123235259Y-96894613D01*
X123235258Y-96894613D01*
X123385451Y-96969794D01*
X123736705Y-97145619D01*
X123736708Y-97145620D01*
X123736709Y-97145621D01*
X123951177Y-97234456D01*
X124254782Y-97360213D01*
X124254785Y-97360214D01*
X124254790Y-97360216D01*
X124254791Y-97360216D01*
X124786848Y-97537302D01*
X124786852Y-97537303D01*
X125330187Y-97675981D01*
X125330190Y-97675981D01*
X125330192Y-97675982D01*
X125882045Y-97775547D01*
X126160820Y-97805518D01*
X126439594Y-97835490D01*
X126439593Y-97835490D01*
X127000000Y-97855505D01*
X127560407Y-97835490D01*
X127560406Y-97835490D01*
X127839180Y-97805518D01*
X128117955Y-97775547D01*
X128669808Y-97675982D01*
X128669809Y-97675981D01*
X128669813Y-97675981D01*
X129213148Y-97537303D01*
X129213147Y-97537303D01*
X129213152Y-97537302D01*
X129745209Y-97360216D01*
X129745210Y-97360216D01*
X129745214Y-97360214D01*
X129745218Y-97360213D01*
X130048823Y-97234456D01*
X130263291Y-97145621D01*
X130263291Y-97145620D01*
X130263295Y-97145619D01*
X130614549Y-96969794D01*
X130764742Y-96894613D01*
X130764741Y-96894613D01*
X130764743Y-96894612D01*
X130868647Y-96832963D01*
X131247004Y-96608474D01*
X131247003Y-96608474D01*
X131707618Y-96288664D01*
X131707621Y-96288661D01*
X131707629Y-96288656D01*
X131977313Y-96071331D01*
X132144258Y-95936799D01*
X132350831Y-95744473D01*
X132406304Y-95718658D01*
X132466356Y-95730381D01*
X132508049Y-95775162D01*
X132515457Y-95835897D01*
X132505601Y-95863598D01*
X132455609Y-95957125D01*
X132455608Y-95957127D01*
X132398396Y-96145728D01*
X132398395Y-96145731D01*
X132379080Y-96341854D01*
X132379080Y-96341861D01*
X132398395Y-96537984D01*
X132398396Y-96537987D01*
X132398397Y-96537990D01*
X132448311Y-96702535D01*
X132455608Y-96726588D01*
X132455609Y-96726590D01*
X132461928Y-96738411D01*
X132548511Y-96900396D01*
X132548513Y-96900398D01*
X132548514Y-96900400D01*
X132673533Y-97052736D01*
X132673542Y-97052745D01*
X132786712Y-97145621D01*
X132825883Y-97177768D01*
X132999694Y-97270672D01*
X133188289Y-97327882D01*
X133188291Y-97327882D01*
X133188294Y-97327883D01*
X133384418Y-97347199D01*
X133384421Y-97347199D01*
X133384424Y-97347199D01*
X133580547Y-97327883D01*
X133580548Y-97327882D01*
X133580553Y-97327882D01*
X133769148Y-97270672D01*
X133942959Y-97177768D01*
X134095304Y-97052741D01*
X134220331Y-96900396D01*
X134313235Y-96726585D01*
X134370445Y-96537990D01*
X134389762Y-96341858D01*
X134389762Y-96341854D01*
X134370446Y-96145731D01*
X134370445Y-96145728D01*
X134370445Y-96145726D01*
X134361670Y-96116799D01*
X134978097Y-96116799D01*
X134981680Y-96145731D01*
X135004300Y-96328404D01*
X135004301Y-96328409D01*
X135068935Y-96531584D01*
X135068940Y-96531596D01*
X135169806Y-96719432D01*
X135169809Y-96719436D01*
X135169810Y-96719437D01*
X135303482Y-96885551D01*
X135465401Y-97024275D01*
X135650055Y-97130885D01*
X135851153Y-97201749D01*
X136061849Y-97234456D01*
X136274967Y-97227889D01*
X136483250Y-97182274D01*
X136679605Y-97099165D01*
X136857344Y-96981390D01*
X137010417Y-96832962D01*
X137102743Y-96702535D01*
X137103929Y-96700480D01*
X140105573Y-96700480D01*
X140625187Y-97000480D01*
X141161631Y-96071331D01*
X141014389Y-96084214D01*
X140786218Y-96145352D01*
X140572130Y-96245182D01*
X140378634Y-96380668D01*
X140211594Y-96547708D01*
X140110047Y-96692734D01*
X140105573Y-96700480D01*
X137103929Y-96700480D01*
X137855937Y-95397965D01*
X137922726Y-95252794D01*
X137974732Y-95046015D01*
X137987859Y-94833201D01*
X137961656Y-94621598D01*
X137961655Y-94621595D01*
X137961655Y-94621593D01*
X137897020Y-94418416D01*
X137897015Y-94418404D01*
X137796149Y-94230567D01*
X137796146Y-94230563D01*
X137712975Y-94127207D01*
X138318490Y-94127207D01*
X138325056Y-94340318D01*
X138325058Y-94340328D01*
X138370671Y-94548605D01*
X138453780Y-94744959D01*
X138571552Y-94922693D01*
X138571556Y-94922699D01*
X138719984Y-95075772D01*
X138850410Y-95168099D01*
X139981776Y-95821293D01*
X140126946Y-95888083D01*
X140126948Y-95888083D01*
X140126952Y-95888085D01*
X140185213Y-95902737D01*
X140333725Y-95940089D01*
X140546539Y-95953216D01*
X140758142Y-95927013D01*
X140758147Y-95927011D01*
X140758149Y-95927011D01*
X140880521Y-95888082D01*
X140961328Y-95862376D01*
X140961333Y-95862373D01*
X140961336Y-95862372D01*
X141149172Y-95761506D01*
X141149173Y-95761505D01*
X141149177Y-95761503D01*
X141315291Y-95627830D01*
X141454015Y-95465911D01*
X141560625Y-95281257D01*
X141631490Y-95080159D01*
X141664196Y-94869464D01*
X141657630Y-94656345D01*
X141612015Y-94448063D01*
X141599466Y-94418415D01*
X141528906Y-94251708D01*
X141446404Y-94127202D01*
X141411130Y-94073969D01*
X141262702Y-93920896D01*
X141262698Y-93920893D01*
X141262697Y-93920892D01*
X141132280Y-93828572D01*
X141132281Y-93828572D01*
X141132276Y-93828569D01*
X140000911Y-93175375D01*
X139855740Y-93108586D01*
X139855739Y-93108585D01*
X139855733Y-93108583D01*
X139648966Y-93056580D01*
X139648956Y-93056578D01*
X139436150Y-93043453D01*
X139436149Y-93043453D01*
X139436147Y-93043453D01*
X139356795Y-93053279D01*
X139224539Y-93069656D01*
X139021362Y-93134291D01*
X139021355Y-93134294D01*
X138833511Y-93235163D01*
X138667393Y-93368839D01*
X138528672Y-93530755D01*
X138528671Y-93530756D01*
X138422059Y-93715414D01*
X138351197Y-93916507D01*
X138351196Y-93916514D01*
X138318490Y-94127202D01*
X138318490Y-94127207D01*
X137712975Y-94127207D01*
X137662474Y-94064449D01*
X137500555Y-93925725D01*
X137315901Y-93819115D01*
X137315899Y-93819114D01*
X137315897Y-93819113D01*
X137114804Y-93748251D01*
X137114797Y-93748250D01*
X136904108Y-93715544D01*
X136904103Y-93715544D01*
X136690992Y-93722110D01*
X136690982Y-93722112D01*
X136482705Y-93767725D01*
X136286351Y-93850834D01*
X136108617Y-93968606D01*
X136108603Y-93968617D01*
X135955539Y-94117037D01*
X135955535Y-94117042D01*
X135863215Y-94247460D01*
X135863212Y-94247464D01*
X135863212Y-94247465D01*
X135747397Y-94448063D01*
X135110020Y-95552034D01*
X135110016Y-95552042D01*
X135043228Y-95697207D01*
X135043226Y-95697212D01*
X134991223Y-95903985D01*
X134980902Y-96071329D01*
X134978097Y-96116799D01*
X134361670Y-96116799D01*
X134313235Y-95957131D01*
X134311142Y-95953216D01*
X134276329Y-95888085D01*
X134220331Y-95783320D01*
X134149664Y-95697212D01*
X134095308Y-95630979D01*
X134095299Y-95630970D01*
X133942963Y-95505951D01*
X133942961Y-95505950D01*
X133942959Y-95505948D01*
X133868055Y-95465911D01*
X133769153Y-95413046D01*
X133769151Y-95413045D01*
X133755859Y-95409013D01*
X133580553Y-95355834D01*
X133580550Y-95355833D01*
X133580547Y-95355832D01*
X133384424Y-95336517D01*
X133384418Y-95336517D01*
X133188294Y-95355832D01*
X133188291Y-95355833D01*
X132999690Y-95413045D01*
X132999688Y-95413046D01*
X132900317Y-95466161D01*
X132840084Y-95476917D01*
X132785033Y-95450215D01*
X132756191Y-95396254D01*
X132764574Y-95335646D01*
X132781188Y-95311394D01*
X132936795Y-95144262D01*
X132936799Y-95144258D01*
X133115342Y-94922699D01*
X133288656Y-94707629D01*
X133324261Y-94656349D01*
X133608474Y-94247003D01*
X133608474Y-94247004D01*
X133894613Y-93764742D01*
X133894614Y-93764741D01*
X134044716Y-93464874D01*
X134145619Y-93263295D01*
X134157273Y-93235161D01*
X134360216Y-92745210D01*
X134360216Y-92745209D01*
X134384174Y-92673226D01*
X134488815Y-92358831D01*
X134525131Y-92309591D01*
X134583455Y-92291100D01*
X134641509Y-92310422D01*
X134677119Y-92360177D01*
X134681271Y-92380394D01*
X134698395Y-92554268D01*
X134698396Y-92554271D01*
X134755608Y-92742872D01*
X134755609Y-92742874D01*
X134826639Y-92875760D01*
X134848511Y-92916680D01*
X134848513Y-92916682D01*
X134848514Y-92916684D01*
X134973533Y-93069020D01*
X134973542Y-93069029D01*
X135103121Y-93175372D01*
X135125883Y-93194052D01*
X135299694Y-93286956D01*
X135488289Y-93344166D01*
X135488291Y-93344166D01*
X135488294Y-93344167D01*
X135684418Y-93363483D01*
X135684421Y-93363483D01*
X135684424Y-93363483D01*
X135880547Y-93344167D01*
X135880548Y-93344166D01*
X135880553Y-93344166D01*
X136069148Y-93286956D01*
X136242959Y-93194052D01*
X136395304Y-93069025D01*
X136520331Y-92916680D01*
X136613235Y-92742869D01*
X136670445Y-92554274D01*
X136671883Y-92539681D01*
X136689762Y-92358145D01*
X136689762Y-92358138D01*
X136670446Y-92162015D01*
X136670445Y-92162012D01*
X136670445Y-92162010D01*
X136613235Y-91973415D01*
X136558405Y-91870835D01*
X141835081Y-91870835D01*
X141854246Y-92102138D01*
X141882358Y-92213148D01*
X141911224Y-92327135D01*
X142004457Y-92539684D01*
X142131402Y-92733988D01*
X142288597Y-92904748D01*
X142471755Y-93047305D01*
X142584992Y-93108586D01*
X142632494Y-93134293D01*
X142675878Y-93157771D01*
X142895400Y-93233133D01*
X143124332Y-93271335D01*
X143356430Y-93271335D01*
X143585362Y-93233133D01*
X143804884Y-93157771D01*
X144009007Y-93047305D01*
X144192165Y-92904748D01*
X144349360Y-92733988D01*
X144476305Y-92539684D01*
X144569538Y-92327135D01*
X144626515Y-92102140D01*
X144645681Y-91870835D01*
X144626515Y-91639530D01*
X144569538Y-91414535D01*
X144476305Y-91201986D01*
X144349360Y-91007682D01*
X144192165Y-90836922D01*
X144009007Y-90694365D01*
X143804887Y-90583900D01*
X143693640Y-90545709D01*
X143585362Y-90508537D01*
X143585359Y-90508536D01*
X143585358Y-90508536D01*
X143356430Y-90470335D01*
X143124332Y-90470335D01*
X142895403Y-90508536D01*
X142675874Y-90583900D01*
X142471754Y-90694365D01*
X142471751Y-90694367D01*
X142288600Y-90836919D01*
X142288597Y-90836921D01*
X142288597Y-90836922D01*
X142254332Y-90874144D01*
X142131401Y-91007683D01*
X142064042Y-91110784D01*
X142004457Y-91201986D01*
X141911224Y-91414535D01*
X141896795Y-91471513D01*
X141854246Y-91639531D01*
X141835081Y-91870835D01*
X136558405Y-91870835D01*
X136520331Y-91799604D01*
X136505683Y-91781755D01*
X136395308Y-91647263D01*
X136395299Y-91647254D01*
X136242963Y-91522235D01*
X136242961Y-91522234D01*
X136242959Y-91522232D01*
X136202039Y-91500360D01*
X136069153Y-91429330D01*
X136069151Y-91429329D01*
X136020385Y-91414536D01*
X135880553Y-91372118D01*
X135880550Y-91372117D01*
X135880547Y-91372116D01*
X135684424Y-91352801D01*
X135684418Y-91352801D01*
X135488294Y-91372116D01*
X135488291Y-91372117D01*
X135299690Y-91429329D01*
X135299688Y-91429330D01*
X135125888Y-91522229D01*
X135125878Y-91522235D01*
X134973542Y-91647254D01*
X134973533Y-91647263D01*
X134848514Y-91799599D01*
X134848510Y-91799606D01*
X134840351Y-91814869D01*
X134796243Y-91857273D01*
X134735634Y-91865653D01*
X134681675Y-91836808D01*
X134654976Y-91781755D01*
X134657117Y-91743717D01*
X134675982Y-91669808D01*
X134775547Y-91117955D01*
X134835490Y-90560406D01*
X134835490Y-90560407D01*
X134855505Y-90000000D01*
X134835490Y-89439593D01*
X134835490Y-89439594D01*
X134775547Y-88882045D01*
X134675982Y-88330192D01*
X134664974Y-88287064D01*
X134537303Y-87786852D01*
X134524162Y-87747371D01*
X134502451Y-87682140D01*
X136826773Y-87682140D01*
X136847410Y-87838898D01*
X136847412Y-87838906D01*
X136907917Y-87984978D01*
X136907917Y-87984979D01*
X137004027Y-88110232D01*
X137004173Y-88110422D01*
X137004177Y-88110425D01*
X137004178Y-88110426D01*
X137010082Y-88114956D01*
X137129614Y-88206676D01*
X137275693Y-88267184D01*
X137346011Y-88276441D01*
X137401235Y-88302782D01*
X137430430Y-88356552D01*
X137424553Y-88412479D01*
X137397411Y-88478007D01*
X137397410Y-88478009D01*
X137376773Y-88634767D01*
X137376773Y-88634768D01*
X137397410Y-88791526D01*
X137397412Y-88791534D01*
X137457917Y-88937606D01*
X137457917Y-88937607D01*
X137507973Y-89002841D01*
X137554173Y-89063050D01*
X137679614Y-89159304D01*
X137825693Y-89219812D01*
X137943264Y-89235290D01*
X137982454Y-89240450D01*
X137982455Y-89240450D01*
X137982456Y-89240450D01*
X138013807Y-89236322D01*
X138139217Y-89219812D01*
X138285296Y-89159304D01*
X138410737Y-89063050D01*
X138506991Y-88937609D01*
X138567499Y-88791530D01*
X138588137Y-88634768D01*
X138567499Y-88478006D01*
X138567377Y-88477712D01*
X138506992Y-88331929D01*
X138506992Y-88331928D01*
X138410741Y-88206491D01*
X138410740Y-88206490D01*
X138410737Y-88206486D01*
X138410732Y-88206482D01*
X138410731Y-88206481D01*
X138339559Y-88151869D01*
X138285296Y-88110232D01*
X138285295Y-88110231D01*
X138285293Y-88110230D01*
X138139221Y-88049725D01*
X138139214Y-88049723D01*
X138068898Y-88040466D01*
X138013673Y-88014125D01*
X137984479Y-87960354D01*
X137990356Y-87904428D01*
X138017499Y-87838902D01*
X138038137Y-87682140D01*
X138017499Y-87525378D01*
X137984012Y-87444533D01*
X137956992Y-87379301D01*
X137956992Y-87379300D01*
X137860741Y-87253863D01*
X137860740Y-87253862D01*
X137860737Y-87253858D01*
X137860732Y-87253854D01*
X137860731Y-87253853D01*
X137769202Y-87183621D01*
X137735296Y-87157604D01*
X137735295Y-87157603D01*
X137735293Y-87157602D01*
X137589221Y-87097097D01*
X137589213Y-87097095D01*
X137432456Y-87076458D01*
X137432454Y-87076458D01*
X137275696Y-87097095D01*
X137275688Y-87097097D01*
X137129616Y-87157602D01*
X137129615Y-87157602D01*
X137004178Y-87253853D01*
X137004168Y-87253863D01*
X136907917Y-87379300D01*
X136907917Y-87379301D01*
X136847412Y-87525373D01*
X136847410Y-87525381D01*
X136826773Y-87682139D01*
X136826773Y-87682140D01*
X134502451Y-87682140D01*
X134360213Y-87254782D01*
X134187174Y-86837027D01*
X134153340Y-86755345D01*
X138832029Y-86755345D01*
X138852666Y-86912103D01*
X138852668Y-86912111D01*
X138913173Y-87058183D01*
X138913173Y-87058184D01*
X139009424Y-87183621D01*
X139009429Y-87183627D01*
X139009433Y-87183630D01*
X139009434Y-87183631D01*
X139037027Y-87204804D01*
X139122038Y-87270035D01*
X139140018Y-87283831D01*
X139138767Y-87285460D01*
X139173465Y-87323987D01*
X139180116Y-87355270D01*
X139181182Y-87355130D01*
X139202666Y-87518321D01*
X139202668Y-87518329D01*
X139263173Y-87664401D01*
X139263173Y-87664402D01*
X139326838Y-87747372D01*
X139359429Y-87789845D01*
X139484870Y-87886099D01*
X139484871Y-87886099D01*
X139484872Y-87886100D01*
X139630944Y-87946605D01*
X139630949Y-87946607D01*
X139748520Y-87962085D01*
X139787710Y-87967245D01*
X139787711Y-87967245D01*
X139787712Y-87967245D01*
X139819063Y-87963117D01*
X139944473Y-87946607D01*
X140090552Y-87886099D01*
X140215993Y-87789845D01*
X140312247Y-87664404D01*
X140372755Y-87518325D01*
X140393393Y-87361563D01*
X140372755Y-87204801D01*
X140363986Y-87183631D01*
X140312248Y-87058724D01*
X140312248Y-87058723D01*
X140215997Y-86933286D01*
X140215996Y-86933285D01*
X140215993Y-86933281D01*
X140215988Y-86933277D01*
X140215987Y-86933276D01*
X140085404Y-86833077D01*
X140086652Y-86831450D01*
X140051948Y-86792900D01*
X140045304Y-86761637D01*
X140044240Y-86761778D01*
X140022755Y-86598586D01*
X140022755Y-86598583D01*
X139989268Y-86517738D01*
X139962248Y-86452506D01*
X139962248Y-86452505D01*
X139865997Y-86327068D01*
X139865996Y-86327067D01*
X139865993Y-86327063D01*
X139865988Y-86327059D01*
X139865987Y-86327058D01*
X139794815Y-86272446D01*
X139740552Y-86230809D01*
X139740551Y-86230808D01*
X139740549Y-86230807D01*
X139594477Y-86170302D01*
X139594469Y-86170300D01*
X139437712Y-86149663D01*
X139437710Y-86149663D01*
X139280952Y-86170300D01*
X139280944Y-86170302D01*
X139134872Y-86230807D01*
X139134871Y-86230807D01*
X139009434Y-86327058D01*
X139009424Y-86327068D01*
X138913173Y-86452505D01*
X138913173Y-86452506D01*
X138852668Y-86598578D01*
X138852666Y-86598586D01*
X138832029Y-86755344D01*
X138832029Y-86755345D01*
X134153340Y-86755345D01*
X134145621Y-86736709D01*
X134145620Y-86736708D01*
X134145619Y-86736705D01*
X133944032Y-86333985D01*
X133894613Y-86235258D01*
X133894613Y-86235259D01*
X133894612Y-86235257D01*
X133843827Y-86149663D01*
X133608474Y-85752996D01*
X133608474Y-85752997D01*
X133288664Y-85292382D01*
X133288661Y-85292378D01*
X133288656Y-85292371D01*
X133103322Y-85062385D01*
X132936799Y-84855742D01*
X132554681Y-84445319D01*
X132144258Y-84063201D01*
X131912277Y-83876260D01*
X131707629Y-83711344D01*
X131707621Y-83711338D01*
X131707618Y-83711336D01*
X131247003Y-83391526D01*
X131247004Y-83391526D01*
X130764741Y-83105387D01*
X130764742Y-83105387D01*
X130514582Y-82980166D01*
X130263295Y-82854381D01*
X130263291Y-82854379D01*
X129992636Y-82742270D01*
X129745218Y-82639787D01*
X129745214Y-82639785D01*
X129745210Y-82639784D01*
X129745209Y-82639784D01*
X129213152Y-82462698D01*
X128939819Y-82392934D01*
X128669813Y-82324019D01*
X128669809Y-82324018D01*
X128669808Y-82324018D01*
X128117955Y-82224453D01*
X127839180Y-82194481D01*
X127560406Y-82164510D01*
X127560407Y-82164510D01*
X127000000Y-82144495D01*
X126439593Y-82164510D01*
X126439594Y-82164510D01*
X126160820Y-82194481D01*
X125882045Y-82224453D01*
X125330192Y-82324018D01*
X125330190Y-82324018D01*
X125330187Y-82324019D01*
X125060181Y-82392934D01*
X124786848Y-82462698D01*
X124254791Y-82639784D01*
X124254790Y-82639784D01*
X124254785Y-82639785D01*
X124254782Y-82639787D01*
X124007363Y-82742270D01*
X123736709Y-82854379D01*
X123736708Y-82854379D01*
X123736705Y-82854381D01*
X123485417Y-82980166D01*
X123235258Y-83105387D01*
X123235259Y-83105387D01*
X122752996Y-83391526D01*
X122752997Y-83391526D01*
X122292382Y-83711336D01*
X122292378Y-83711338D01*
X122292371Y-83711344D01*
X122087723Y-83876260D01*
X121855742Y-84063201D01*
X121445319Y-84445319D01*
X121063201Y-84855742D01*
X120896677Y-85062385D01*
X120711344Y-85292371D01*
X120711338Y-85292378D01*
X120711336Y-85292382D01*
X120391526Y-85752997D01*
X120391526Y-85752996D01*
X120156173Y-86149663D01*
X120105388Y-86235257D01*
X120105387Y-86235259D01*
X120105387Y-86235258D01*
X120055968Y-86333985D01*
X119854381Y-86736705D01*
X119854380Y-86736708D01*
X119854379Y-86736709D01*
X119812826Y-86837027D01*
X119639787Y-87254782D01*
X119475838Y-87747371D01*
X119462697Y-87786852D01*
X119335026Y-88287064D01*
X119324018Y-88330192D01*
X119224453Y-88882045D01*
X119164510Y-89439594D01*
X119164510Y-89439593D01*
X119144495Y-90000000D01*
X108074705Y-90000000D01*
X108094162Y-89145436D01*
X108094261Y-89143276D01*
X108124582Y-88700000D01*
X115494318Y-88700000D01*
X115514955Y-88856758D01*
X115514957Y-88856766D01*
X115575462Y-89002838D01*
X115575462Y-89002839D01*
X115621667Y-89063054D01*
X115671718Y-89128282D01*
X115671722Y-89128285D01*
X115671723Y-89128286D01*
X115694148Y-89145493D01*
X115797159Y-89224536D01*
X115797160Y-89224536D01*
X115797161Y-89224537D01*
X115943233Y-89285042D01*
X115943238Y-89285044D01*
X116060809Y-89300522D01*
X116099999Y-89305682D01*
X116100000Y-89305682D01*
X116100001Y-89305682D01*
X116131352Y-89301554D01*
X116256762Y-89285044D01*
X116402841Y-89224536D01*
X116528282Y-89128282D01*
X116624536Y-89002841D01*
X116685044Y-88856762D01*
X116705682Y-88700000D01*
X116685044Y-88543238D01*
X116657901Y-88477711D01*
X116653101Y-88416715D01*
X116685071Y-88364546D01*
X116736442Y-88341673D01*
X116806762Y-88332416D01*
X116952841Y-88271908D01*
X117078282Y-88175654D01*
X117174536Y-88050213D01*
X117235044Y-87904134D01*
X117255682Y-87747372D01*
X117253346Y-87729632D01*
X117235044Y-87590613D01*
X117235044Y-87590610D01*
X117232122Y-87583556D01*
X117174537Y-87444533D01*
X117174537Y-87444532D01*
X117078286Y-87319095D01*
X117078285Y-87319094D01*
X117078282Y-87319090D01*
X117078277Y-87319086D01*
X117078276Y-87319085D01*
X116952838Y-87222834D01*
X116806766Y-87162329D01*
X116806758Y-87162327D01*
X116650001Y-87141690D01*
X116649999Y-87141690D01*
X116493241Y-87162327D01*
X116493233Y-87162329D01*
X116347161Y-87222834D01*
X116347160Y-87222834D01*
X116221723Y-87319085D01*
X116221713Y-87319095D01*
X116125462Y-87444532D01*
X116125462Y-87444533D01*
X116064957Y-87590605D01*
X116064955Y-87590613D01*
X116044318Y-87747371D01*
X116044318Y-87747372D01*
X116064955Y-87904130D01*
X116064957Y-87904139D01*
X116092097Y-87969660D01*
X116096897Y-88030657D01*
X116064928Y-88082826D01*
X116013556Y-88105698D01*
X115943240Y-88114955D01*
X115943233Y-88114957D01*
X115797161Y-88175462D01*
X115797160Y-88175462D01*
X115671723Y-88271713D01*
X115671713Y-88271723D01*
X115575462Y-88397160D01*
X115575462Y-88397161D01*
X115514957Y-88543233D01*
X115514955Y-88543241D01*
X115494318Y-88699999D01*
X115494318Y-88700000D01*
X108124582Y-88700000D01*
X108152829Y-88287047D01*
X108153030Y-88284845D01*
X108250506Y-87432183D01*
X108250808Y-87429990D01*
X108251322Y-87426794D01*
X113689062Y-87426794D01*
X113709699Y-87583552D01*
X113709701Y-87583560D01*
X113770206Y-87729632D01*
X113770206Y-87729633D01*
X113866457Y-87855070D01*
X113866462Y-87855076D01*
X113991903Y-87951330D01*
X113991904Y-87951330D01*
X113991905Y-87951331D01*
X114137977Y-88011836D01*
X114137982Y-88011838D01*
X114255553Y-88027316D01*
X114294743Y-88032476D01*
X114294744Y-88032476D01*
X114294745Y-88032476D01*
X114326096Y-88028348D01*
X114451506Y-88011838D01*
X114597585Y-87951330D01*
X114723026Y-87855076D01*
X114819280Y-87729635D01*
X114879788Y-87583556D01*
X114900426Y-87426794D01*
X114900426Y-87426793D01*
X114901273Y-87420361D01*
X114903307Y-87420628D01*
X114919333Y-87371306D01*
X114943091Y-87349916D01*
X114942437Y-87349063D01*
X114981505Y-87319085D01*
X115073026Y-87248859D01*
X115169280Y-87123418D01*
X115229788Y-86977339D01*
X115250426Y-86820577D01*
X115229788Y-86663815D01*
X115169281Y-86517738D01*
X115169281Y-86517737D01*
X115073030Y-86392300D01*
X115073029Y-86392299D01*
X115073026Y-86392295D01*
X115073021Y-86392291D01*
X115073020Y-86392290D01*
X114947582Y-86296039D01*
X114801510Y-86235534D01*
X114801502Y-86235532D01*
X114644745Y-86214895D01*
X114644743Y-86214895D01*
X114487985Y-86235532D01*
X114487977Y-86235534D01*
X114341905Y-86296039D01*
X114341904Y-86296039D01*
X114216467Y-86392290D01*
X114216457Y-86392300D01*
X114120206Y-86517737D01*
X114120206Y-86517738D01*
X114059701Y-86663810D01*
X114059699Y-86663818D01*
X114038215Y-86827010D01*
X114036179Y-86826742D01*
X114020155Y-86876063D01*
X113996397Y-86897458D01*
X113997050Y-86898308D01*
X113866467Y-86998507D01*
X113866457Y-86998517D01*
X113770206Y-87123954D01*
X113770206Y-87123955D01*
X113709701Y-87270027D01*
X113709699Y-87270035D01*
X113689062Y-87426793D01*
X113689062Y-87426794D01*
X108251322Y-87426794D01*
X108386991Y-86582657D01*
X108387391Y-86580479D01*
X108561999Y-85740218D01*
X108562503Y-85738045D01*
X108574114Y-85692651D01*
X108775173Y-84906607D01*
X108775766Y-84904492D01*
X109026057Y-84083601D01*
X109026762Y-84081465D01*
X109158306Y-83711336D01*
X109314158Y-83272809D01*
X109314924Y-83270795D01*
X109638851Y-82476002D01*
X109639733Y-82473974D01*
X109644940Y-82462697D01*
X109999474Y-81694800D01*
X110000442Y-81692822D01*
X110395279Y-80930821D01*
X110396336Y-80928890D01*
X110825443Y-80185655D01*
X110826597Y-80183758D01*
X111289083Y-79460832D01*
X111290316Y-79458995D01*
X111785238Y-78757851D01*
X111786549Y-78756081D01*
X112312874Y-78078183D01*
X112314276Y-78076462D01*
X112870866Y-77423276D01*
X112872366Y-77421594D01*
X113458125Y-76794399D01*
X113459701Y-76792787D01*
X114073407Y-76192895D01*
X114075006Y-76191402D01*
X114177448Y-76100004D01*
X117344341Y-76100004D01*
X117364935Y-76335400D01*
X117364936Y-76335407D01*
X117364937Y-76335408D01*
X117401965Y-76473600D01*
X117426098Y-76563667D01*
X117525959Y-76777818D01*
X117525963Y-76777826D01*
X117525964Y-76777828D01*
X117525965Y-76777829D01*
X117661505Y-76971401D01*
X117828599Y-77138495D01*
X118022171Y-77274035D01*
X118022172Y-77274035D01*
X118022173Y-77274036D01*
X118022181Y-77274040D01*
X118236333Y-77373901D01*
X118236337Y-77373903D01*
X118464592Y-77435063D01*
X118464596Y-77435063D01*
X118464599Y-77435064D01*
X118641028Y-77450500D01*
X118641034Y-77450500D01*
X118758972Y-77450500D01*
X118935400Y-77435064D01*
X118935401Y-77435063D01*
X118935408Y-77435063D01*
X119163663Y-77373903D01*
X119377829Y-77274035D01*
X119571401Y-77138495D01*
X119738495Y-76971401D01*
X119874035Y-76777830D01*
X119973903Y-76563663D01*
X120035063Y-76335408D01*
X120047530Y-76192916D01*
X120055659Y-76100004D01*
X120055659Y-76099995D01*
X120035064Y-75864599D01*
X120035063Y-75864596D01*
X120035063Y-75864592D01*
X119973903Y-75636337D01*
X119874035Y-75422171D01*
X119788495Y-75300006D01*
X121795065Y-75300006D01*
X121814785Y-75626033D01*
X121814788Y-75626058D01*
X121873664Y-75947330D01*
X121873664Y-75947331D01*
X121970842Y-76259184D01*
X122104899Y-76557045D01*
X122134058Y-76605278D01*
X123173584Y-75565751D01*
X123226569Y-75763491D01*
X123326400Y-75977578D01*
X123461890Y-76171078D01*
X123628922Y-76338110D01*
X123822422Y-76473600D01*
X124036509Y-76573431D01*
X124234245Y-76626414D01*
X123194719Y-77665941D01*
X123242956Y-77695101D01*
X123540815Y-77829157D01*
X123852669Y-77926335D01*
X124173941Y-77985211D01*
X124173966Y-77985214D01*
X124499994Y-78004935D01*
X124500006Y-78004935D01*
X124826033Y-77985214D01*
X124826058Y-77985211D01*
X125147330Y-77926335D01*
X125147331Y-77926335D01*
X125459184Y-77829157D01*
X125757046Y-77695100D01*
X125757052Y-77695097D01*
X125805279Y-77665941D01*
X124765752Y-76626414D01*
X124963491Y-76573431D01*
X125177578Y-76473600D01*
X125371078Y-76338110D01*
X125538110Y-76171078D01*
X125673600Y-75977579D01*
X125773431Y-75763491D01*
X125826414Y-75565752D01*
X126865942Y-76605280D01*
X126888568Y-76602533D01*
X126948613Y-76614289D01*
X126990281Y-76659093D01*
X126999500Y-76700811D01*
X126999500Y-77544860D01*
X126999501Y-77544863D01*
X127002414Y-77569990D01*
X127027756Y-77627385D01*
X127047794Y-77672765D01*
X127127235Y-77752206D01*
X127230009Y-77797585D01*
X127255135Y-77800500D01*
X131744864Y-77800499D01*
X131769991Y-77797585D01*
X131872765Y-77752206D01*
X131952206Y-77672765D01*
X131997585Y-77569991D01*
X132000500Y-77544865D01*
X132000500Y-76100004D01*
X133944341Y-76100004D01*
X133964935Y-76335400D01*
X133964936Y-76335407D01*
X133964937Y-76335408D01*
X134001965Y-76473600D01*
X134026098Y-76563667D01*
X134125959Y-76777818D01*
X134125963Y-76777826D01*
X134125964Y-76777828D01*
X134125965Y-76777829D01*
X134261505Y-76971401D01*
X134428599Y-77138495D01*
X134622171Y-77274035D01*
X134622172Y-77274035D01*
X134622173Y-77274036D01*
X134622181Y-77274040D01*
X134836333Y-77373901D01*
X134836337Y-77373903D01*
X135064592Y-77435063D01*
X135064596Y-77435063D01*
X135064599Y-77435064D01*
X135241028Y-77450500D01*
X135241034Y-77450500D01*
X135358972Y-77450500D01*
X135535400Y-77435064D01*
X135535401Y-77435063D01*
X135535408Y-77435063D01*
X135763663Y-77373903D01*
X135977829Y-77274035D01*
X136171401Y-77138495D01*
X136338495Y-76971401D01*
X136474035Y-76777830D01*
X136573903Y-76563663D01*
X136635063Y-76335408D01*
X136647530Y-76192916D01*
X136655659Y-76100004D01*
X136655659Y-76099995D01*
X136635064Y-75864599D01*
X136635063Y-75864596D01*
X136635063Y-75864592D01*
X136573903Y-75636337D01*
X136474035Y-75422171D01*
X136338495Y-75228599D01*
X136171401Y-75061505D01*
X136171397Y-75061502D01*
X136171396Y-75061501D01*
X135977826Y-74925963D01*
X135977818Y-74925959D01*
X135763666Y-74826098D01*
X135763667Y-74826098D01*
X135687578Y-74805710D01*
X135535408Y-74764937D01*
X135535407Y-74764936D01*
X135535400Y-74764935D01*
X135358972Y-74749500D01*
X135358966Y-74749500D01*
X135241034Y-74749500D01*
X135241028Y-74749500D01*
X135064599Y-74764935D01*
X134836332Y-74826098D01*
X134622181Y-74925959D01*
X134622173Y-74925963D01*
X134428603Y-75061501D01*
X134261501Y-75228603D01*
X134125964Y-75422171D01*
X134026097Y-75636337D01*
X133964935Y-75864599D01*
X133944341Y-76099995D01*
X133944341Y-76100004D01*
X132000500Y-76100004D01*
X132000499Y-73055136D01*
X131997585Y-73030009D01*
X131952206Y-72927235D01*
X131872765Y-72847794D01*
X131769991Y-72802415D01*
X131769990Y-72802414D01*
X131769988Y-72802414D01*
X131744868Y-72799500D01*
X127255139Y-72799500D01*
X127255136Y-72799501D01*
X127230009Y-72802414D01*
X127127235Y-72847794D01*
X127047794Y-72927235D01*
X127002414Y-73030011D01*
X126999500Y-73055130D01*
X126999500Y-73899188D01*
X126980593Y-73957379D01*
X126931093Y-73993343D01*
X126888568Y-73997466D01*
X126865942Y-73994718D01*
X125826414Y-75034245D01*
X125773431Y-74836509D01*
X125673600Y-74622422D01*
X125538110Y-74428922D01*
X125371078Y-74261890D01*
X125177578Y-74126400D01*
X124963491Y-74026569D01*
X124765751Y-73973584D01*
X125805278Y-72934058D01*
X125757045Y-72904899D01*
X125459184Y-72770842D01*
X125147330Y-72673664D01*
X124826058Y-72614788D01*
X124826033Y-72614785D01*
X124500006Y-72595065D01*
X124499994Y-72595065D01*
X124173966Y-72614785D01*
X124173941Y-72614788D01*
X123852669Y-72673664D01*
X123852668Y-72673664D01*
X123540815Y-72770842D01*
X123242960Y-72904896D01*
X123242939Y-72904907D01*
X123194719Y-72934057D01*
X124234247Y-73973585D01*
X124036509Y-74026569D01*
X123822422Y-74126400D01*
X123628922Y-74261890D01*
X123461890Y-74428922D01*
X123326400Y-74622421D01*
X123226569Y-74836509D01*
X123173585Y-75034247D01*
X122134057Y-73994719D01*
X122104907Y-74042939D01*
X122104896Y-74042960D01*
X121970842Y-74340815D01*
X121873664Y-74652668D01*
X121873664Y-74652669D01*
X121814788Y-74973941D01*
X121814785Y-74973966D01*
X121795065Y-75299993D01*
X121795065Y-75300006D01*
X119788495Y-75300006D01*
X119738495Y-75228599D01*
X119571401Y-75061505D01*
X119571397Y-75061502D01*
X119571396Y-75061501D01*
X119377826Y-74925963D01*
X119377818Y-74925959D01*
X119163666Y-74826098D01*
X119163667Y-74826098D01*
X119087578Y-74805710D01*
X118935408Y-74764937D01*
X118935407Y-74764936D01*
X118935400Y-74764935D01*
X118758972Y-74749500D01*
X118758966Y-74749500D01*
X118641034Y-74749500D01*
X118641028Y-74749500D01*
X118464599Y-74764935D01*
X118236332Y-74826098D01*
X118022181Y-74925959D01*
X118022173Y-74925963D01*
X117828603Y-75061501D01*
X117661501Y-75228603D01*
X117525964Y-75422171D01*
X117426097Y-75636337D01*
X117364935Y-75864599D01*
X117344341Y-76099995D01*
X117344341Y-76100004D01*
X114177448Y-76100004D01*
X114715380Y-75620065D01*
X114717095Y-75618604D01*
X115382840Y-75076979D01*
X115384541Y-75075659D01*
X116074248Y-74564898D01*
X116076028Y-74563641D01*
X116788252Y-74084811D01*
X116790125Y-74083611D01*
X117523394Y-73637702D01*
X117525334Y-73636581D01*
X118278129Y-73224512D01*
X118280092Y-73223495D01*
X119050884Y-72846105D01*
X119052887Y-72845180D01*
X119840067Y-72503260D01*
X119842070Y-72502443D01*
X120539647Y-72236489D01*
X120643998Y-72196706D01*
X120646110Y-72195955D01*
X121461057Y-71927053D01*
X121463213Y-71926396D01*
X122289583Y-71694858D01*
X122291756Y-71694303D01*
X122610368Y-71620490D01*
X123127810Y-71500615D01*
X123129952Y-71500170D01*
X123973996Y-71344729D01*
X123976200Y-71344376D01*
X124308344Y-71298724D01*
X124826374Y-71227522D01*
X124828610Y-71227267D01*
X125041443Y-71207832D01*
X125683256Y-71149226D01*
X125685444Y-71149076D01*
X126542784Y-71110014D01*
X126545006Y-71109964D01*
X127403196Y-71109964D01*
X127405417Y-71110014D01*
G37*
G04 #@! TD.AperFunction*
M02*
