G04 #@! TF.GenerationSoftware,KiCad,Pcbnew,7.0.8-7.0.8~ubuntu22.04.1*
G04 #@! TF.CreationDate,2023-10-26T21:40:47+02:00*
G04 #@! TF.ProjectId,LightPipe_PCB,4c696768-7450-4697-9065-5f5043422e6b,v0.1.2*
G04 #@! TF.SameCoordinates,Original*
G04 #@! TF.FileFunction,Legend,Top*
G04 #@! TF.FilePolarity,Positive*
%FSLAX46Y46*%
G04 Gerber Fmt 4.6, Leading zero omitted, Abs format (unit mm)*
G04 Created by KiCad (PCBNEW 7.0.8-7.0.8~ubuntu22.04.1) date 2023-10-26 21:40:47*
%MOMM*%
%LPD*%
G01*
G04 APERTURE LIST*
%ADD10C,0.300000*%
%ADD11C,0.150000*%
%ADD12C,0.120000*%
%ADD13C,0.200000*%
%ADD14C,0.100000*%
%ADD15R,4.400000X4.400000*%
%ADD16C,4.400000*%
%ADD17C,2.200000*%
%ADD18C,1.400000*%
G04 APERTURE END LIST*
D10*
X127000000Y-102750000D02*
X125500000Y-102750000D01*
X125500000Y-101250000D01*
X127000000Y-101250000D01*
X127000000Y-102750000D01*
X127000000Y-105449999D02*
X125500000Y-105449999D01*
X125500000Y-103949999D01*
X127000000Y-103949999D01*
X127000000Y-105449999D01*
D11*
X133928562Y-94923967D02*
X134004753Y-94792002D01*
X134004753Y-94792002D02*
X134075839Y-94745066D01*
X134075839Y-94745066D02*
X134179917Y-94717179D01*
X134179917Y-94717179D02*
X134330931Y-94760378D01*
X134330931Y-94760378D02*
X134561871Y-94893711D01*
X134561871Y-94893711D02*
X134674789Y-95002893D01*
X134674789Y-95002893D02*
X134702677Y-95106971D01*
X134702677Y-95106971D02*
X134697573Y-95192002D01*
X134697573Y-95192002D02*
X134621382Y-95323967D01*
X134621382Y-95323967D02*
X134550296Y-95370903D01*
X134550296Y-95370903D02*
X134446218Y-95398790D01*
X134446218Y-95398790D02*
X134295204Y-95355591D01*
X134295204Y-95355591D02*
X134064264Y-95222258D01*
X134064264Y-95222258D02*
X133951346Y-95113076D01*
X133951346Y-95113076D02*
X133923458Y-95008998D01*
X133923458Y-95008998D02*
X133928562Y-94923967D01*
X134271419Y-94330122D02*
X134832274Y-94653931D01*
X134832274Y-94653931D02*
X134917304Y-94659035D01*
X134917304Y-94659035D02*
X134969343Y-94645091D01*
X134969343Y-94645091D02*
X135040430Y-94598156D01*
X135040430Y-94598156D02*
X135116620Y-94466190D01*
X135116620Y-94466190D02*
X135121724Y-94381159D01*
X135121724Y-94381159D02*
X135107780Y-94329120D01*
X135107780Y-94329120D02*
X135060845Y-94258034D01*
X135060845Y-94258034D02*
X134499991Y-93934224D01*
X134633324Y-93703284D02*
X134861895Y-93307387D01*
X135440430Y-93905336D02*
X134747610Y-93505336D01*
X122950000Y-78962295D02*
X123102381Y-78962295D01*
X123102381Y-78962295D02*
X123178571Y-79000390D01*
X123178571Y-79000390D02*
X123254762Y-79076580D01*
X123254762Y-79076580D02*
X123292857Y-79228961D01*
X123292857Y-79228961D02*
X123292857Y-79495628D01*
X123292857Y-79495628D02*
X123254762Y-79648009D01*
X123254762Y-79648009D02*
X123178571Y-79724200D01*
X123178571Y-79724200D02*
X123102381Y-79762295D01*
X123102381Y-79762295D02*
X122950000Y-79762295D01*
X122950000Y-79762295D02*
X122873809Y-79724200D01*
X122873809Y-79724200D02*
X122797619Y-79648009D01*
X122797619Y-79648009D02*
X122759523Y-79495628D01*
X122759523Y-79495628D02*
X122759523Y-79228961D01*
X122759523Y-79228961D02*
X122797619Y-79076580D01*
X122797619Y-79076580D02*
X122873809Y-79000390D01*
X122873809Y-79000390D02*
X122950000Y-78962295D01*
X123635714Y-78962295D02*
X123635714Y-79609914D01*
X123635714Y-79609914D02*
X123673809Y-79686104D01*
X123673809Y-79686104D02*
X123711904Y-79724200D01*
X123711904Y-79724200D02*
X123788095Y-79762295D01*
X123788095Y-79762295D02*
X123940476Y-79762295D01*
X123940476Y-79762295D02*
X124016666Y-79724200D01*
X124016666Y-79724200D02*
X124054761Y-79686104D01*
X124054761Y-79686104D02*
X124092857Y-79609914D01*
X124092857Y-79609914D02*
X124092857Y-78962295D01*
X124359523Y-78962295D02*
X124816666Y-78962295D01*
X124588094Y-79762295D02*
X124588094Y-78962295D01*
D10*
X128028572Y-102639543D02*
X128028572Y-101439543D01*
X128600001Y-101839543D02*
X128600001Y-102639543D01*
X128600001Y-101953829D02*
X128657144Y-101896686D01*
X128657144Y-101896686D02*
X128771429Y-101839543D01*
X128771429Y-101839543D02*
X128942858Y-101839543D01*
X128942858Y-101839543D02*
X129057144Y-101896686D01*
X129057144Y-101896686D02*
X129114287Y-102010972D01*
X129114287Y-102010972D02*
X129114287Y-102639543D01*
X129685715Y-101839543D02*
X129685715Y-103039543D01*
X129685715Y-101896686D02*
X129800001Y-101839543D01*
X129800001Y-101839543D02*
X130028572Y-101839543D01*
X130028572Y-101839543D02*
X130142858Y-101896686D01*
X130142858Y-101896686D02*
X130200001Y-101953829D01*
X130200001Y-101953829D02*
X130257143Y-102068115D01*
X130257143Y-102068115D02*
X130257143Y-102410972D01*
X130257143Y-102410972D02*
X130200001Y-102525258D01*
X130200001Y-102525258D02*
X130142858Y-102582401D01*
X130142858Y-102582401D02*
X130028572Y-102639543D01*
X130028572Y-102639543D02*
X129800001Y-102639543D01*
X129800001Y-102639543D02*
X129685715Y-102582401D01*
X131285715Y-101839543D02*
X131285715Y-102639543D01*
X130771429Y-101839543D02*
X130771429Y-102468115D01*
X130771429Y-102468115D02*
X130828572Y-102582401D01*
X130828572Y-102582401D02*
X130942857Y-102639543D01*
X130942857Y-102639543D02*
X131114286Y-102639543D01*
X131114286Y-102639543D02*
X131228572Y-102582401D01*
X131228572Y-102582401D02*
X131285715Y-102525258D01*
X131685714Y-101839543D02*
X132142857Y-101839543D01*
X131857143Y-101439543D02*
X131857143Y-102468115D01*
X131857143Y-102468115D02*
X131914286Y-102582401D01*
X131914286Y-102582401D02*
X132028571Y-102639543D01*
X132028571Y-102639543D02*
X132142857Y-102639543D01*
D11*
X119271437Y-93538327D02*
X119347627Y-93670293D01*
X119347627Y-93670293D02*
X119352731Y-93755323D01*
X119352731Y-93755323D02*
X119324844Y-93859401D01*
X119324844Y-93859401D02*
X119211925Y-93968583D01*
X119211925Y-93968583D02*
X118980985Y-94101917D01*
X118980985Y-94101917D02*
X118829972Y-94145116D01*
X118829972Y-94145116D02*
X118725894Y-94117228D01*
X118725894Y-94117228D02*
X118654807Y-94070293D01*
X118654807Y-94070293D02*
X118578617Y-93938327D01*
X118578617Y-93938327D02*
X118573513Y-93853296D01*
X118573513Y-93853296D02*
X118601401Y-93749218D01*
X118601401Y-93749218D02*
X118714319Y-93640036D01*
X118714319Y-93640036D02*
X118945259Y-93506703D01*
X118945259Y-93506703D02*
X119096272Y-93463504D01*
X119096272Y-93463504D02*
X119200350Y-93491392D01*
X119200350Y-93491392D02*
X119271437Y-93538327D01*
X119614294Y-94132173D02*
X119053439Y-94455982D01*
X119053439Y-94455982D02*
X119006504Y-94527069D01*
X119006504Y-94527069D02*
X118992560Y-94579108D01*
X118992560Y-94579108D02*
X118997664Y-94664138D01*
X118997664Y-94664138D02*
X119073855Y-94796104D01*
X119073855Y-94796104D02*
X119144941Y-94843040D01*
X119144941Y-94843040D02*
X119196980Y-94856983D01*
X119196980Y-94856983D02*
X119282011Y-94851880D01*
X119282011Y-94851880D02*
X119842865Y-94528070D01*
X119976199Y-94759010D02*
X120204770Y-95154907D01*
X119397664Y-95356959D02*
X120090484Y-94956959D01*
X110671755Y-98943242D02*
X111364576Y-98543242D01*
X110862231Y-99273156D02*
X111555052Y-98873156D01*
X111555052Y-98873156D02*
X111090803Y-99669053D01*
X111090803Y-99669053D02*
X111783623Y-99269053D01*
X129830954Y-79762294D02*
X129830954Y-78962294D01*
X130211906Y-79762294D02*
X130211906Y-78962294D01*
X130211906Y-78962294D02*
X130669049Y-79762294D01*
X130669049Y-79762294D02*
X130669049Y-78962294D01*
D10*
X116374060Y-102789542D02*
X115802632Y-102789542D01*
X115802632Y-102789542D02*
X115802632Y-101589542D01*
X116774061Y-102789542D02*
X116774061Y-101989542D01*
X116774061Y-101589542D02*
X116716918Y-101646685D01*
X116716918Y-101646685D02*
X116774061Y-101703828D01*
X116774061Y-101703828D02*
X116831204Y-101646685D01*
X116831204Y-101646685D02*
X116774061Y-101589542D01*
X116774061Y-101589542D02*
X116774061Y-101703828D01*
X117859776Y-101989542D02*
X117859776Y-102960971D01*
X117859776Y-102960971D02*
X117802633Y-103075257D01*
X117802633Y-103075257D02*
X117745490Y-103132400D01*
X117745490Y-103132400D02*
X117631204Y-103189542D01*
X117631204Y-103189542D02*
X117459776Y-103189542D01*
X117459776Y-103189542D02*
X117345490Y-103132400D01*
X117859776Y-102732400D02*
X117745490Y-102789542D01*
X117745490Y-102789542D02*
X117516918Y-102789542D01*
X117516918Y-102789542D02*
X117402633Y-102732400D01*
X117402633Y-102732400D02*
X117345490Y-102675257D01*
X117345490Y-102675257D02*
X117288347Y-102560971D01*
X117288347Y-102560971D02*
X117288347Y-102218114D01*
X117288347Y-102218114D02*
X117345490Y-102103828D01*
X117345490Y-102103828D02*
X117402633Y-102046685D01*
X117402633Y-102046685D02*
X117516918Y-101989542D01*
X117516918Y-101989542D02*
X117745490Y-101989542D01*
X117745490Y-101989542D02*
X117859776Y-102046685D01*
X118431204Y-102789542D02*
X118431204Y-101589542D01*
X118945490Y-102789542D02*
X118945490Y-102160971D01*
X118945490Y-102160971D02*
X118888347Y-102046685D01*
X118888347Y-102046685D02*
X118774061Y-101989542D01*
X118774061Y-101989542D02*
X118602632Y-101989542D01*
X118602632Y-101989542D02*
X118488347Y-102046685D01*
X118488347Y-102046685D02*
X118431204Y-102103828D01*
X119345489Y-101989542D02*
X119802632Y-101989542D01*
X119516918Y-101589542D02*
X119516918Y-102618114D01*
X119516918Y-102618114D02*
X119574061Y-102732400D01*
X119574061Y-102732400D02*
X119688346Y-102789542D01*
X119688346Y-102789542D02*
X119802632Y-102789542D01*
X120202632Y-102789542D02*
X120202632Y-101589542D01*
X120202632Y-101589542D02*
X120659775Y-101589542D01*
X120659775Y-101589542D02*
X120774060Y-101646685D01*
X120774060Y-101646685D02*
X120831203Y-101703828D01*
X120831203Y-101703828D02*
X120888346Y-101818114D01*
X120888346Y-101818114D02*
X120888346Y-101989542D01*
X120888346Y-101989542D02*
X120831203Y-102103828D01*
X120831203Y-102103828D02*
X120774060Y-102160971D01*
X120774060Y-102160971D02*
X120659775Y-102218114D01*
X120659775Y-102218114D02*
X120202632Y-102218114D01*
X121402632Y-102789542D02*
X121402632Y-101989542D01*
X121402632Y-101589542D02*
X121345489Y-101646685D01*
X121345489Y-101646685D02*
X121402632Y-101703828D01*
X121402632Y-101703828D02*
X121459775Y-101646685D01*
X121459775Y-101646685D02*
X121402632Y-101589542D01*
X121402632Y-101589542D02*
X121402632Y-101703828D01*
X121974061Y-101989542D02*
X121974061Y-103189542D01*
X121974061Y-102046685D02*
X122088347Y-101989542D01*
X122088347Y-101989542D02*
X122316918Y-101989542D01*
X122316918Y-101989542D02*
X122431204Y-102046685D01*
X122431204Y-102046685D02*
X122488347Y-102103828D01*
X122488347Y-102103828D02*
X122545489Y-102218114D01*
X122545489Y-102218114D02*
X122545489Y-102560971D01*
X122545489Y-102560971D02*
X122488347Y-102675257D01*
X122488347Y-102675257D02*
X122431204Y-102732400D01*
X122431204Y-102732400D02*
X122316918Y-102789542D01*
X122316918Y-102789542D02*
X122088347Y-102789542D01*
X122088347Y-102789542D02*
X121974061Y-102732400D01*
X123516918Y-102732400D02*
X123402632Y-102789542D01*
X123402632Y-102789542D02*
X123174061Y-102789542D01*
X123174061Y-102789542D02*
X123059775Y-102732400D01*
X123059775Y-102732400D02*
X123002632Y-102618114D01*
X123002632Y-102618114D02*
X123002632Y-102160971D01*
X123002632Y-102160971D02*
X123059775Y-102046685D01*
X123059775Y-102046685D02*
X123174061Y-101989542D01*
X123174061Y-101989542D02*
X123402632Y-101989542D01*
X123402632Y-101989542D02*
X123516918Y-102046685D01*
X123516918Y-102046685D02*
X123574061Y-102160971D01*
X123574061Y-102160971D02*
X123574061Y-102275257D01*
X123574061Y-102275257D02*
X123002632Y-102389542D01*
X128428572Y-104089542D02*
X128657144Y-104089542D01*
X128657144Y-104089542D02*
X128771429Y-104146685D01*
X128771429Y-104146685D02*
X128885715Y-104260971D01*
X128885715Y-104260971D02*
X128942858Y-104489542D01*
X128942858Y-104489542D02*
X128942858Y-104889542D01*
X128942858Y-104889542D02*
X128885715Y-105118114D01*
X128885715Y-105118114D02*
X128771429Y-105232400D01*
X128771429Y-105232400D02*
X128657144Y-105289542D01*
X128657144Y-105289542D02*
X128428572Y-105289542D01*
X128428572Y-105289542D02*
X128314287Y-105232400D01*
X128314287Y-105232400D02*
X128200001Y-105118114D01*
X128200001Y-105118114D02*
X128142858Y-104889542D01*
X128142858Y-104889542D02*
X128142858Y-104489542D01*
X128142858Y-104489542D02*
X128200001Y-104260971D01*
X128200001Y-104260971D02*
X128314287Y-104146685D01*
X128314287Y-104146685D02*
X128428572Y-104089542D01*
X129971430Y-104489542D02*
X129971430Y-105289542D01*
X129457144Y-104489542D02*
X129457144Y-105118114D01*
X129457144Y-105118114D02*
X129514287Y-105232400D01*
X129514287Y-105232400D02*
X129628572Y-105289542D01*
X129628572Y-105289542D02*
X129800001Y-105289542D01*
X129800001Y-105289542D02*
X129914287Y-105232400D01*
X129914287Y-105232400D02*
X129971430Y-105175257D01*
X130371429Y-104489542D02*
X130828572Y-104489542D01*
X130542858Y-104089542D02*
X130542858Y-105118114D01*
X130542858Y-105118114D02*
X130600001Y-105232400D01*
X130600001Y-105232400D02*
X130714286Y-105289542D01*
X130714286Y-105289542D02*
X130828572Y-105289542D01*
X131228572Y-104489542D02*
X131228572Y-105689542D01*
X131228572Y-104546685D02*
X131342858Y-104489542D01*
X131342858Y-104489542D02*
X131571429Y-104489542D01*
X131571429Y-104489542D02*
X131685715Y-104546685D01*
X131685715Y-104546685D02*
X131742858Y-104603828D01*
X131742858Y-104603828D02*
X131800000Y-104718114D01*
X131800000Y-104718114D02*
X131800000Y-105060971D01*
X131800000Y-105060971D02*
X131742858Y-105175257D01*
X131742858Y-105175257D02*
X131685715Y-105232400D01*
X131685715Y-105232400D02*
X131571429Y-105289542D01*
X131571429Y-105289542D02*
X131342858Y-105289542D01*
X131342858Y-105289542D02*
X131228572Y-105232400D01*
X132828572Y-104489542D02*
X132828572Y-105289542D01*
X132314286Y-104489542D02*
X132314286Y-105118114D01*
X132314286Y-105118114D02*
X132371429Y-105232400D01*
X132371429Y-105232400D02*
X132485714Y-105289542D01*
X132485714Y-105289542D02*
X132657143Y-105289542D01*
X132657143Y-105289542D02*
X132771429Y-105232400D01*
X132771429Y-105232400D02*
X132828572Y-105175257D01*
X133228571Y-104489542D02*
X133685714Y-104489542D01*
X133400000Y-104089542D02*
X133400000Y-105118114D01*
X133400000Y-105118114D02*
X133457143Y-105232400D01*
X133457143Y-105232400D02*
X133571428Y-105289542D01*
X133571428Y-105289542D02*
X133685714Y-105289542D01*
D11*
X142909197Y-99669052D02*
X142216377Y-99269052D01*
X143099673Y-99339138D02*
X142406853Y-98939138D01*
X142406853Y-98939138D02*
X143328244Y-98943241D01*
X143328244Y-98943241D02*
X142635424Y-98543241D01*
X119472745Y-104038152D02*
X119710840Y-104704819D01*
X119710840Y-104704819D02*
X119948935Y-104038152D01*
X120520364Y-103704819D02*
X120615602Y-103704819D01*
X120615602Y-103704819D02*
X120710840Y-103752438D01*
X120710840Y-103752438D02*
X120758459Y-103800057D01*
X120758459Y-103800057D02*
X120806078Y-103895295D01*
X120806078Y-103895295D02*
X120853697Y-104085771D01*
X120853697Y-104085771D02*
X120853697Y-104323866D01*
X120853697Y-104323866D02*
X120806078Y-104514342D01*
X120806078Y-104514342D02*
X120758459Y-104609580D01*
X120758459Y-104609580D02*
X120710840Y-104657200D01*
X120710840Y-104657200D02*
X120615602Y-104704819D01*
X120615602Y-104704819D02*
X120520364Y-104704819D01*
X120520364Y-104704819D02*
X120425126Y-104657200D01*
X120425126Y-104657200D02*
X120377507Y-104609580D01*
X120377507Y-104609580D02*
X120329888Y-104514342D01*
X120329888Y-104514342D02*
X120282269Y-104323866D01*
X120282269Y-104323866D02*
X120282269Y-104085771D01*
X120282269Y-104085771D02*
X120329888Y-103895295D01*
X120329888Y-103895295D02*
X120377507Y-103800057D01*
X120377507Y-103800057D02*
X120425126Y-103752438D01*
X120425126Y-103752438D02*
X120520364Y-103704819D01*
X121282269Y-104609580D02*
X121329888Y-104657200D01*
X121329888Y-104657200D02*
X121282269Y-104704819D01*
X121282269Y-104704819D02*
X121234650Y-104657200D01*
X121234650Y-104657200D02*
X121282269Y-104609580D01*
X121282269Y-104609580D02*
X121282269Y-104704819D01*
X122282268Y-104704819D02*
X121710840Y-104704819D01*
X121996554Y-104704819D02*
X121996554Y-103704819D01*
X121996554Y-103704819D02*
X121901316Y-103847676D01*
X121901316Y-103847676D02*
X121806078Y-103942914D01*
X121806078Y-103942914D02*
X121710840Y-103990533D01*
X122710840Y-104609580D02*
X122758459Y-104657200D01*
X122758459Y-104657200D02*
X122710840Y-104704819D01*
X122710840Y-104704819D02*
X122663221Y-104657200D01*
X122663221Y-104657200D02*
X122710840Y-104609580D01*
X122710840Y-104609580D02*
X122710840Y-104704819D01*
X123139411Y-103800057D02*
X123187030Y-103752438D01*
X123187030Y-103752438D02*
X123282268Y-103704819D01*
X123282268Y-103704819D02*
X123520363Y-103704819D01*
X123520363Y-103704819D02*
X123615601Y-103752438D01*
X123615601Y-103752438D02*
X123663220Y-103800057D01*
X123663220Y-103800057D02*
X123710839Y-103895295D01*
X123710839Y-103895295D02*
X123710839Y-103990533D01*
X123710839Y-103990533D02*
X123663220Y-104133390D01*
X123663220Y-104133390D02*
X123091792Y-104704819D01*
X123091792Y-104704819D02*
X123710839Y-104704819D01*
D12*
X122769423Y-106469855D02*
X122769423Y-105669855D01*
X122769423Y-105974617D02*
X122845613Y-105936521D01*
X122845613Y-105936521D02*
X122997994Y-105936521D01*
X122997994Y-105936521D02*
X123074185Y-105974617D01*
X123074185Y-105974617D02*
X123112280Y-106012712D01*
X123112280Y-106012712D02*
X123150375Y-106088902D01*
X123150375Y-106088902D02*
X123150375Y-106317474D01*
X123150375Y-106317474D02*
X123112280Y-106393664D01*
X123112280Y-106393664D02*
X123074185Y-106431760D01*
X123074185Y-106431760D02*
X122997994Y-106469855D01*
X122997994Y-106469855D02*
X122845613Y-106469855D01*
X122845613Y-106469855D02*
X122769423Y-106431760D01*
X123417042Y-105936521D02*
X123607518Y-106469855D01*
X123797995Y-105936521D02*
X123607518Y-106469855D01*
X123607518Y-106469855D02*
X123531328Y-106660331D01*
X123531328Y-106660331D02*
X123493233Y-106698426D01*
X123493233Y-106698426D02*
X123417042Y-106736521D01*
X122769423Y-107757855D02*
X122769423Y-106957855D01*
X122769423Y-107338807D02*
X123226566Y-107338807D01*
X123226566Y-107757855D02*
X123226566Y-106957855D01*
X123950375Y-107757855D02*
X123950375Y-107338807D01*
X123950375Y-107338807D02*
X123912280Y-107262617D01*
X123912280Y-107262617D02*
X123836089Y-107224521D01*
X123836089Y-107224521D02*
X123683708Y-107224521D01*
X123683708Y-107224521D02*
X123607518Y-107262617D01*
X123950375Y-107719760D02*
X123874184Y-107757855D01*
X123874184Y-107757855D02*
X123683708Y-107757855D01*
X123683708Y-107757855D02*
X123607518Y-107719760D01*
X123607518Y-107719760D02*
X123569422Y-107643569D01*
X123569422Y-107643569D02*
X123569422Y-107567379D01*
X123569422Y-107567379D02*
X123607518Y-107491188D01*
X123607518Y-107491188D02*
X123683708Y-107453093D01*
X123683708Y-107453093D02*
X123874184Y-107453093D01*
X123874184Y-107453093D02*
X123950375Y-107414998D01*
X124331328Y-107224521D02*
X124331328Y-107757855D01*
X124331328Y-107300712D02*
X124369423Y-107262617D01*
X124369423Y-107262617D02*
X124445613Y-107224521D01*
X124445613Y-107224521D02*
X124559899Y-107224521D01*
X124559899Y-107224521D02*
X124636090Y-107262617D01*
X124636090Y-107262617D02*
X124674185Y-107338807D01*
X124674185Y-107338807D02*
X124674185Y-107757855D01*
X125017042Y-107719760D02*
X125093233Y-107757855D01*
X125093233Y-107757855D02*
X125245614Y-107757855D01*
X125245614Y-107757855D02*
X125321804Y-107719760D01*
X125321804Y-107719760D02*
X125359900Y-107643569D01*
X125359900Y-107643569D02*
X125359900Y-107605474D01*
X125359900Y-107605474D02*
X125321804Y-107529283D01*
X125321804Y-107529283D02*
X125245614Y-107491188D01*
X125245614Y-107491188D02*
X125131328Y-107491188D01*
X125131328Y-107491188D02*
X125055138Y-107453093D01*
X125055138Y-107453093D02*
X125017042Y-107376902D01*
X125017042Y-107376902D02*
X125017042Y-107338807D01*
X125017042Y-107338807D02*
X125055138Y-107262617D01*
X125055138Y-107262617D02*
X125131328Y-107224521D01*
X125131328Y-107224521D02*
X125245614Y-107224521D01*
X125245614Y-107224521D02*
X125321804Y-107262617D01*
X125664661Y-107529283D02*
X126045614Y-107529283D01*
X125588471Y-107757855D02*
X125855138Y-106957855D01*
X125855138Y-106957855D02*
X126121804Y-107757855D01*
X126731328Y-107719760D02*
X126655137Y-107757855D01*
X126655137Y-107757855D02*
X126502756Y-107757855D01*
X126502756Y-107757855D02*
X126426566Y-107719760D01*
X126426566Y-107719760D02*
X126388471Y-107681664D01*
X126388471Y-107681664D02*
X126350375Y-107605474D01*
X126350375Y-107605474D02*
X126350375Y-107376902D01*
X126350375Y-107376902D02*
X126388471Y-107300712D01*
X126388471Y-107300712D02*
X126426566Y-107262617D01*
X126426566Y-107262617D02*
X126502756Y-107224521D01*
X126502756Y-107224521D02*
X126655137Y-107224521D01*
X126655137Y-107224521D02*
X126731328Y-107262617D01*
X127074185Y-107757855D02*
X127074185Y-106957855D01*
X127417042Y-107757855D02*
X127417042Y-107338807D01*
X127417042Y-107338807D02*
X127378947Y-107262617D01*
X127378947Y-107262617D02*
X127302756Y-107224521D01*
X127302756Y-107224521D02*
X127188470Y-107224521D01*
X127188470Y-107224521D02*
X127112280Y-107262617D01*
X127112280Y-107262617D02*
X127074185Y-107300712D01*
X127683709Y-107224521D02*
X127988471Y-107224521D01*
X127797995Y-106957855D02*
X127797995Y-107643569D01*
X127797995Y-107643569D02*
X127836090Y-107719760D01*
X127836090Y-107719760D02*
X127912280Y-107757855D01*
X127912280Y-107757855D02*
X127988471Y-107757855D01*
X128559900Y-107719760D02*
X128483709Y-107757855D01*
X128483709Y-107757855D02*
X128331328Y-107757855D01*
X128331328Y-107757855D02*
X128255138Y-107719760D01*
X128255138Y-107719760D02*
X128217042Y-107643569D01*
X128217042Y-107643569D02*
X128217042Y-107338807D01*
X128217042Y-107338807D02*
X128255138Y-107262617D01*
X128255138Y-107262617D02*
X128331328Y-107224521D01*
X128331328Y-107224521D02*
X128483709Y-107224521D01*
X128483709Y-107224521D02*
X128559900Y-107262617D01*
X128559900Y-107262617D02*
X128597995Y-107338807D01*
X128597995Y-107338807D02*
X128597995Y-107414998D01*
X128597995Y-107414998D02*
X128217042Y-107491188D01*
X128940852Y-107757855D02*
X128940852Y-107224521D01*
X128940852Y-107376902D02*
X128978947Y-107300712D01*
X128978947Y-107300712D02*
X129017042Y-107262617D01*
X129017042Y-107262617D02*
X129093233Y-107224521D01*
X129093233Y-107224521D02*
X129169423Y-107224521D01*
X129436090Y-107757855D02*
X129436090Y-106957855D01*
X129436090Y-107262617D02*
X129512280Y-107224521D01*
X129512280Y-107224521D02*
X129664661Y-107224521D01*
X129664661Y-107224521D02*
X129740852Y-107262617D01*
X129740852Y-107262617D02*
X129778947Y-107300712D01*
X129778947Y-107300712D02*
X129817042Y-107376902D01*
X129817042Y-107376902D02*
X129817042Y-107605474D01*
X129817042Y-107605474D02*
X129778947Y-107681664D01*
X129778947Y-107681664D02*
X129740852Y-107719760D01*
X129740852Y-107719760D02*
X129664661Y-107757855D01*
X129664661Y-107757855D02*
X129512280Y-107757855D01*
X129512280Y-107757855D02*
X129436090Y-107719760D01*
X130502757Y-107757855D02*
X130502757Y-107338807D01*
X130502757Y-107338807D02*
X130464662Y-107262617D01*
X130464662Y-107262617D02*
X130388471Y-107224521D01*
X130388471Y-107224521D02*
X130236090Y-107224521D01*
X130236090Y-107224521D02*
X130159900Y-107262617D01*
X130502757Y-107719760D02*
X130426566Y-107757855D01*
X130426566Y-107757855D02*
X130236090Y-107757855D01*
X130236090Y-107757855D02*
X130159900Y-107719760D01*
X130159900Y-107719760D02*
X130121804Y-107643569D01*
X130121804Y-107643569D02*
X130121804Y-107567379D01*
X130121804Y-107567379D02*
X130159900Y-107491188D01*
X130159900Y-107491188D02*
X130236090Y-107453093D01*
X130236090Y-107453093D02*
X130426566Y-107453093D01*
X130426566Y-107453093D02*
X130502757Y-107414998D01*
X130883710Y-107757855D02*
X130883710Y-106957855D01*
X131226567Y-107757855D02*
X131226567Y-107338807D01*
X131226567Y-107338807D02*
X131188472Y-107262617D01*
X131188472Y-107262617D02*
X131112281Y-107224521D01*
X131112281Y-107224521D02*
X130997995Y-107224521D01*
X130997995Y-107224521D02*
X130921805Y-107262617D01*
X130921805Y-107262617D02*
X130883710Y-107300712D01*
X131607520Y-107224521D02*
X131607520Y-107757855D01*
X131607520Y-107300712D02*
X131645615Y-107262617D01*
X131645615Y-107262617D02*
X131721805Y-107224521D01*
X131721805Y-107224521D02*
X131836091Y-107224521D01*
X131836091Y-107224521D02*
X131912282Y-107262617D01*
X131912282Y-107262617D02*
X131950377Y-107338807D01*
X131950377Y-107338807D02*
X131950377Y-107757855D01*
D11*
X138290476Y-91154819D02*
X138957142Y-92154819D01*
X138957142Y-91154819D02*
X138290476Y-92154819D01*
X139861904Y-92154819D02*
X139290476Y-92154819D01*
X139576190Y-92154819D02*
X139576190Y-91154819D01*
X139576190Y-91154819D02*
X139480952Y-91297676D01*
X139480952Y-91297676D02*
X139385714Y-91392914D01*
X139385714Y-91392914D02*
X139290476Y-91440533D01*
X113190476Y-91154819D02*
X113857142Y-92154819D01*
X113857142Y-91154819D02*
X113190476Y-92154819D01*
X114190476Y-91250057D02*
X114238095Y-91202438D01*
X114238095Y-91202438D02*
X114333333Y-91154819D01*
X114333333Y-91154819D02*
X114571428Y-91154819D01*
X114571428Y-91154819D02*
X114666666Y-91202438D01*
X114666666Y-91202438D02*
X114714285Y-91250057D01*
X114714285Y-91250057D02*
X114761904Y-91345295D01*
X114761904Y-91345295D02*
X114761904Y-91440533D01*
X114761904Y-91440533D02*
X114714285Y-91583390D01*
X114714285Y-91583390D02*
X114142857Y-92154819D01*
X114142857Y-92154819D02*
X114761904Y-92154819D01*
D13*
X126190476Y-79752219D02*
X126857142Y-80752219D01*
X126857142Y-79752219D02*
X126190476Y-80752219D01*
X127142857Y-79752219D02*
X127761904Y-79752219D01*
X127761904Y-79752219D02*
X127428571Y-80133171D01*
X127428571Y-80133171D02*
X127571428Y-80133171D01*
X127571428Y-80133171D02*
X127666666Y-80180790D01*
X127666666Y-80180790D02*
X127714285Y-80228409D01*
X127714285Y-80228409D02*
X127761904Y-80323647D01*
X127761904Y-80323647D02*
X127761904Y-80561742D01*
X127761904Y-80561742D02*
X127714285Y-80656980D01*
X127714285Y-80656980D02*
X127666666Y-80704600D01*
X127666666Y-80704600D02*
X127571428Y-80752219D01*
X127571428Y-80752219D02*
X127285714Y-80752219D01*
X127285714Y-80752219D02*
X127190476Y-80704600D01*
X127190476Y-80704600D02*
X127142857Y-80656980D01*
D14*
X135937049Y-94120577D02*
X135037049Y-95679423D01*
X135763844Y-94020577D02*
X135937049Y-94120577D01*
X135037049Y-95679423D02*
X134863844Y-95579423D01*
X134863844Y-95579423D02*
G75*
G03*
X135763844Y-94020577I3827499J-1170577D01*
G01*
X118962951Y-95679423D02*
X118062951Y-94120577D01*
X119136156Y-95579423D02*
X118962951Y-95679423D01*
X118062951Y-94120577D02*
X118236156Y-94020577D01*
X118236156Y-94020577D02*
G75*
G03*
X119136156Y-95579423I-2927499J-2729423D01*
G01*
X132700000Y-78400000D02*
X131000000Y-78400000D01*
X132700000Y-72200000D02*
X132700000Y-78400000D01*
X131000000Y-72200000D02*
X132700000Y-72200000D01*
X123000000Y-78400000D02*
X121300000Y-78400000D01*
X121300000Y-78400000D02*
X121300000Y-72200000D01*
X121300000Y-72200000D02*
X123000000Y-72200000D01*
G36*
X138381350Y-86893076D02*
G01*
X138199485Y-86998076D01*
X138094485Y-86816211D01*
X138276350Y-86711211D01*
X138381350Y-86893076D01*
G37*
G36*
X138563215Y-86788076D02*
G01*
X138381350Y-86893076D01*
X138276350Y-86711211D01*
X138458215Y-86606211D01*
X138563215Y-86788076D01*
G37*
G36*
X138745081Y-86683076D02*
G01*
X138563215Y-86788076D01*
X138458215Y-86606211D01*
X138640081Y-86501211D01*
X138745081Y-86683076D01*
G37*
G36*
X138926946Y-86578076D02*
G01*
X138745081Y-86683076D01*
X138640081Y-86501211D01*
X138821946Y-86396211D01*
X138926946Y-86578076D01*
G37*
G36*
X139108811Y-86473076D02*
G01*
X138926946Y-86578076D01*
X138821946Y-86396211D01*
X139003811Y-86291211D01*
X139108811Y-86473076D01*
G37*
G36*
X139290677Y-86368076D02*
G01*
X139108811Y-86473076D01*
X139003811Y-86291211D01*
X139185677Y-86186211D01*
X139290677Y-86368076D01*
G37*
G36*
X139472542Y-86263076D02*
G01*
X139290677Y-86368076D01*
X139185677Y-86186211D01*
X139367542Y-86081211D01*
X139472542Y-86263076D01*
G37*
G36*
X139836273Y-86053076D02*
G01*
X139654407Y-86158076D01*
X139549407Y-85976211D01*
X139731273Y-85871211D01*
X139836273Y-86053076D01*
G37*
G36*
X140200003Y-85843076D02*
G01*
X140018138Y-85948076D01*
X139913138Y-85766211D01*
X140095003Y-85661211D01*
X140200003Y-85843076D01*
G37*
G36*
X140381869Y-85738076D02*
G01*
X140200003Y-85843076D01*
X140095003Y-85661211D01*
X140276869Y-85556211D01*
X140381869Y-85738076D01*
G37*
G36*
X140563734Y-85633076D02*
G01*
X140381869Y-85738076D01*
X140276869Y-85556211D01*
X140458734Y-85451211D01*
X140563734Y-85633076D01*
G37*
G36*
X141109330Y-85318076D02*
G01*
X140927465Y-85423076D01*
X140822465Y-85241211D01*
X141004330Y-85136211D01*
X141109330Y-85318076D01*
G37*
G36*
X141291195Y-85213076D02*
G01*
X141109330Y-85318076D01*
X141004330Y-85136211D01*
X141186195Y-85031211D01*
X141291195Y-85213076D01*
G37*
G36*
X141473061Y-85108076D02*
G01*
X141291195Y-85213076D01*
X141186195Y-85031211D01*
X141368061Y-84926211D01*
X141473061Y-85108076D01*
G37*
G36*
X141654926Y-85003076D02*
G01*
X141473061Y-85108076D01*
X141368061Y-84926211D01*
X141549926Y-84821211D01*
X141654926Y-85003076D01*
G37*
G36*
X141836791Y-84898076D02*
G01*
X141654926Y-85003076D01*
X141549926Y-84821211D01*
X141731791Y-84716211D01*
X141836791Y-84898076D01*
G37*
G36*
X142018657Y-84793076D02*
G01*
X141836791Y-84898076D01*
X141731791Y-84716211D01*
X141913657Y-84611211D01*
X142018657Y-84793076D01*
G37*
G36*
X142382387Y-84583076D02*
G01*
X142200522Y-84688076D01*
X142095522Y-84506211D01*
X142277387Y-84401211D01*
X142382387Y-84583076D01*
G37*
G36*
X142564253Y-84478076D02*
G01*
X142382387Y-84583076D01*
X142277387Y-84401211D01*
X142459253Y-84296211D01*
X142564253Y-84478076D01*
G37*
G36*
X142746118Y-84373076D02*
G01*
X142564253Y-84478076D01*
X142459253Y-84296211D01*
X142641118Y-84191211D01*
X142746118Y-84373076D01*
G37*
G36*
X142927983Y-84268076D02*
G01*
X142746118Y-84373076D01*
X142641118Y-84191211D01*
X142822983Y-84086211D01*
X142927983Y-84268076D01*
G37*
G36*
X143109849Y-84163076D02*
G01*
X142927983Y-84268076D01*
X142822983Y-84086211D01*
X143004849Y-83981211D01*
X143109849Y-84163076D01*
G37*
G36*
X143291714Y-84058076D02*
G01*
X143109849Y-84163076D01*
X143004849Y-83981211D01*
X143186714Y-83876211D01*
X143291714Y-84058076D01*
G37*
G36*
X143473579Y-83953076D02*
G01*
X143291714Y-84058076D01*
X143186714Y-83876211D01*
X143368579Y-83771211D01*
X143473579Y-83953076D01*
G37*
G36*
X138276350Y-86711211D02*
G01*
X138094485Y-86816211D01*
X137989485Y-86634346D01*
X138171350Y-86529346D01*
X138276350Y-86711211D01*
G37*
G36*
X139367542Y-86081211D02*
G01*
X139185677Y-86186211D01*
X139080677Y-86004346D01*
X139262542Y-85899346D01*
X139367542Y-86081211D01*
G37*
G36*
X139731273Y-85871211D02*
G01*
X139549407Y-85976211D01*
X139444407Y-85794346D01*
X139626273Y-85689346D01*
X139731273Y-85871211D01*
G37*
G36*
X139913138Y-85766211D02*
G01*
X139731273Y-85871211D01*
X139626273Y-85689346D01*
X139808138Y-85584346D01*
X139913138Y-85766211D01*
G37*
G36*
X140095003Y-85661211D02*
G01*
X139913138Y-85766211D01*
X139808138Y-85584346D01*
X139990003Y-85479346D01*
X140095003Y-85661211D01*
G37*
G36*
X140822465Y-85241211D02*
G01*
X140640599Y-85346211D01*
X140535599Y-85164346D01*
X140717465Y-85059346D01*
X140822465Y-85241211D01*
G37*
G36*
X141368061Y-84926211D02*
G01*
X141186195Y-85031211D01*
X141081195Y-84849346D01*
X141263061Y-84744346D01*
X141368061Y-84926211D01*
G37*
G36*
X142277387Y-84401211D02*
G01*
X142095522Y-84506211D01*
X141990522Y-84324346D01*
X142172387Y-84219346D01*
X142277387Y-84401211D01*
G37*
G36*
X143368579Y-83771211D02*
G01*
X143186714Y-83876211D01*
X143081714Y-83694346D01*
X143263579Y-83589346D01*
X143368579Y-83771211D01*
G37*
G36*
X138171350Y-86529346D02*
G01*
X137989485Y-86634346D01*
X137884485Y-86452480D01*
X138066350Y-86347480D01*
X138171350Y-86529346D01*
G37*
G36*
X138535081Y-86319346D02*
G01*
X138353215Y-86424346D01*
X138248215Y-86242480D01*
X138430081Y-86137480D01*
X138535081Y-86319346D01*
G37*
G36*
X138716946Y-86214346D02*
G01*
X138535081Y-86319346D01*
X138430081Y-86137480D01*
X138611946Y-86032480D01*
X138716946Y-86214346D01*
G37*
G36*
X138898811Y-86109346D02*
G01*
X138716946Y-86214346D01*
X138611946Y-86032480D01*
X138793811Y-85927480D01*
X138898811Y-86109346D01*
G37*
G36*
X139262542Y-85899346D02*
G01*
X139080677Y-86004346D01*
X138975677Y-85822480D01*
X139157542Y-85717480D01*
X139262542Y-85899346D01*
G37*
G36*
X139626273Y-85689346D02*
G01*
X139444407Y-85794346D01*
X139339407Y-85612480D01*
X139521273Y-85507480D01*
X139626273Y-85689346D01*
G37*
G36*
X139808138Y-85584346D02*
G01*
X139626273Y-85689346D01*
X139521273Y-85507480D01*
X139703138Y-85402480D01*
X139808138Y-85584346D01*
G37*
G36*
X139990003Y-85479346D02*
G01*
X139808138Y-85584346D01*
X139703138Y-85402480D01*
X139885003Y-85297480D01*
X139990003Y-85479346D01*
G37*
G36*
X141081195Y-84849346D02*
G01*
X140899330Y-84954346D01*
X140794330Y-84772480D01*
X140976195Y-84667480D01*
X141081195Y-84849346D01*
G37*
G36*
X141263061Y-84744346D02*
G01*
X141081195Y-84849346D01*
X140976195Y-84667480D01*
X141158061Y-84562480D01*
X141263061Y-84744346D01*
G37*
G36*
X141444926Y-84639346D02*
G01*
X141263061Y-84744346D01*
X141158061Y-84562480D01*
X141339926Y-84457480D01*
X141444926Y-84639346D01*
G37*
G36*
X141808657Y-84429346D02*
G01*
X141626791Y-84534346D01*
X141521791Y-84352480D01*
X141703657Y-84247480D01*
X141808657Y-84429346D01*
G37*
G36*
X142172387Y-84219346D02*
G01*
X141990522Y-84324346D01*
X141885522Y-84142480D01*
X142067387Y-84037480D01*
X142172387Y-84219346D01*
G37*
G36*
X142536118Y-84009346D02*
G01*
X142354253Y-84114346D01*
X142249253Y-83932480D01*
X142431118Y-83827480D01*
X142536118Y-84009346D01*
G37*
G36*
X142717983Y-83904346D02*
G01*
X142536118Y-84009346D01*
X142431118Y-83827480D01*
X142612983Y-83722480D01*
X142717983Y-83904346D01*
G37*
G36*
X142899849Y-83799346D02*
G01*
X142717983Y-83904346D01*
X142612983Y-83722480D01*
X142794849Y-83617480D01*
X142899849Y-83799346D01*
G37*
G36*
X143263579Y-83589346D02*
G01*
X143081714Y-83694346D01*
X142976714Y-83512480D01*
X143158579Y-83407480D01*
X143263579Y-83589346D01*
G37*
G36*
X138066350Y-86347480D02*
G01*
X137884485Y-86452480D01*
X137779485Y-86270615D01*
X137961350Y-86165615D01*
X138066350Y-86347480D01*
G37*
G36*
X138430081Y-86137480D02*
G01*
X138248215Y-86242480D01*
X138143215Y-86060615D01*
X138325081Y-85955615D01*
X138430081Y-86137480D01*
G37*
G36*
X138611946Y-86032480D02*
G01*
X138430081Y-86137480D01*
X138325081Y-85955615D01*
X138506946Y-85850615D01*
X138611946Y-86032480D01*
G37*
G36*
X138793811Y-85927480D02*
G01*
X138611946Y-86032480D01*
X138506946Y-85850615D01*
X138688811Y-85745615D01*
X138793811Y-85927480D01*
G37*
G36*
X139157542Y-85717480D02*
G01*
X138975677Y-85822480D01*
X138870677Y-85640615D01*
X139052542Y-85535615D01*
X139157542Y-85717480D01*
G37*
G36*
X139521273Y-85507480D02*
G01*
X139339407Y-85612480D01*
X139234407Y-85430615D01*
X139416273Y-85325615D01*
X139521273Y-85507480D01*
G37*
G36*
X139703138Y-85402480D02*
G01*
X139521273Y-85507480D01*
X139416273Y-85325615D01*
X139598138Y-85220615D01*
X139703138Y-85402480D01*
G37*
G36*
X140248734Y-85087480D02*
G01*
X140066869Y-85192480D01*
X139961869Y-85010615D01*
X140143734Y-84905615D01*
X140248734Y-85087480D01*
G37*
G36*
X140430599Y-84982480D02*
G01*
X140248734Y-85087480D01*
X140143734Y-84905615D01*
X140325599Y-84800615D01*
X140430599Y-84982480D01*
G37*
G36*
X140794330Y-84772480D02*
G01*
X140612465Y-84877480D01*
X140507465Y-84695615D01*
X140689330Y-84590615D01*
X140794330Y-84772480D01*
G37*
G36*
X141158061Y-84562480D02*
G01*
X140976195Y-84667480D01*
X140871195Y-84485615D01*
X141053061Y-84380615D01*
X141158061Y-84562480D01*
G37*
G36*
X142067387Y-84037480D02*
G01*
X141885522Y-84142480D01*
X141780522Y-83960615D01*
X141962387Y-83855615D01*
X142067387Y-84037480D01*
G37*
G36*
X142431118Y-83827480D02*
G01*
X142249253Y-83932480D01*
X142144253Y-83750615D01*
X142326118Y-83645615D01*
X142431118Y-83827480D01*
G37*
G36*
X142612983Y-83722480D02*
G01*
X142431118Y-83827480D01*
X142326118Y-83645615D01*
X142507983Y-83540615D01*
X142612983Y-83722480D01*
G37*
G36*
X142794849Y-83617480D02*
G01*
X142612983Y-83722480D01*
X142507983Y-83540615D01*
X142689849Y-83435615D01*
X142794849Y-83617480D01*
G37*
G36*
X143158579Y-83407480D02*
G01*
X142976714Y-83512480D01*
X142871714Y-83330615D01*
X143053579Y-83225615D01*
X143158579Y-83407480D01*
G37*
G36*
X137961350Y-86165615D02*
G01*
X137779485Y-86270615D01*
X137674485Y-86088750D01*
X137856350Y-85983750D01*
X137961350Y-86165615D01*
G37*
G36*
X138325081Y-85955615D02*
G01*
X138143215Y-86060615D01*
X138038215Y-85878750D01*
X138220081Y-85773750D01*
X138325081Y-85955615D01*
G37*
G36*
X138506946Y-85850615D02*
G01*
X138325081Y-85955615D01*
X138220081Y-85773750D01*
X138401946Y-85668750D01*
X138506946Y-85850615D01*
G37*
G36*
X138688811Y-85745615D02*
G01*
X138506946Y-85850615D01*
X138401946Y-85668750D01*
X138583811Y-85563750D01*
X138688811Y-85745615D01*
G37*
G36*
X139052542Y-85535615D02*
G01*
X138870677Y-85640615D01*
X138765677Y-85458750D01*
X138947542Y-85353750D01*
X139052542Y-85535615D01*
G37*
G36*
X139416273Y-85325615D02*
G01*
X139234407Y-85430615D01*
X139129407Y-85248750D01*
X139311273Y-85143750D01*
X139416273Y-85325615D01*
G37*
G36*
X140143734Y-84905615D02*
G01*
X139961869Y-85010615D01*
X139856869Y-84828750D01*
X140038734Y-84723750D01*
X140143734Y-84905615D01*
G37*
G36*
X140325599Y-84800615D02*
G01*
X140143734Y-84905615D01*
X140038734Y-84723750D01*
X140220599Y-84618750D01*
X140325599Y-84800615D01*
G37*
G36*
X140871195Y-84485615D02*
G01*
X140689330Y-84590615D01*
X140584330Y-84408750D01*
X140766195Y-84303750D01*
X140871195Y-84485615D01*
G37*
G36*
X141598657Y-84065615D02*
G01*
X141416791Y-84170615D01*
X141311791Y-83988750D01*
X141493657Y-83883750D01*
X141598657Y-84065615D01*
G37*
G36*
X141962387Y-83855615D02*
G01*
X141780522Y-83960615D01*
X141675522Y-83778750D01*
X141857387Y-83673750D01*
X141962387Y-83855615D01*
G37*
G36*
X142326118Y-83645615D02*
G01*
X142144253Y-83750615D01*
X142039253Y-83568750D01*
X142221118Y-83463750D01*
X142326118Y-83645615D01*
G37*
G36*
X142507983Y-83540615D02*
G01*
X142326118Y-83645615D01*
X142221118Y-83463750D01*
X142402983Y-83358750D01*
X142507983Y-83540615D01*
G37*
G36*
X142689849Y-83435615D02*
G01*
X142507983Y-83540615D01*
X142402983Y-83358750D01*
X142584849Y-83253750D01*
X142689849Y-83435615D01*
G37*
G36*
X143053579Y-83225615D02*
G01*
X142871714Y-83330615D01*
X142766714Y-83148750D01*
X142948579Y-83043750D01*
X143053579Y-83225615D01*
G37*
G36*
X137856350Y-85983750D02*
G01*
X137674485Y-86088750D01*
X137569485Y-85906884D01*
X137751350Y-85801884D01*
X137856350Y-85983750D01*
G37*
G36*
X138947542Y-85353750D02*
G01*
X138765677Y-85458750D01*
X138660677Y-85276884D01*
X138842542Y-85171884D01*
X138947542Y-85353750D01*
G37*
G36*
X139675003Y-84933750D02*
G01*
X139493138Y-85038750D01*
X139388138Y-84856884D01*
X139570003Y-84751884D01*
X139675003Y-84933750D01*
G37*
G36*
X139856869Y-84828750D02*
G01*
X139675003Y-84933750D01*
X139570003Y-84751884D01*
X139751869Y-84646884D01*
X139856869Y-84828750D01*
G37*
G36*
X140038734Y-84723750D02*
G01*
X139856869Y-84828750D01*
X139751869Y-84646884D01*
X139933734Y-84541884D01*
X140038734Y-84723750D01*
G37*
G36*
X140402465Y-84513750D02*
G01*
X140220599Y-84618750D01*
X140115599Y-84436884D01*
X140297465Y-84331884D01*
X140402465Y-84513750D01*
G37*
G36*
X140766195Y-84303750D02*
G01*
X140584330Y-84408750D01*
X140479330Y-84226884D01*
X140661195Y-84121884D01*
X140766195Y-84303750D01*
G37*
G36*
X140948061Y-84198750D02*
G01*
X140766195Y-84303750D01*
X140661195Y-84121884D01*
X140843061Y-84016884D01*
X140948061Y-84198750D01*
G37*
G36*
X141311791Y-83988750D02*
G01*
X141129926Y-84093750D01*
X141024926Y-83911884D01*
X141206791Y-83806884D01*
X141311791Y-83988750D01*
G37*
G36*
X141493657Y-83883750D02*
G01*
X141311791Y-83988750D01*
X141206791Y-83806884D01*
X141388657Y-83701884D01*
X141493657Y-83883750D01*
G37*
G36*
X141857387Y-83673750D02*
G01*
X141675522Y-83778750D01*
X141570522Y-83596884D01*
X141752387Y-83491884D01*
X141857387Y-83673750D01*
G37*
G36*
X142948579Y-83043750D02*
G01*
X142766714Y-83148750D01*
X142661714Y-82966884D01*
X142843579Y-82861884D01*
X142948579Y-83043750D01*
G37*
G36*
X137751350Y-85801884D02*
G01*
X137569485Y-85906884D01*
X137464485Y-85725019D01*
X137646350Y-85620019D01*
X137751350Y-85801884D01*
G37*
G36*
X137933215Y-85696884D02*
G01*
X137751350Y-85801884D01*
X137646350Y-85620019D01*
X137828215Y-85515019D01*
X137933215Y-85696884D01*
G37*
G36*
X138115081Y-85591884D02*
G01*
X137933215Y-85696884D01*
X137828215Y-85515019D01*
X138010081Y-85410019D01*
X138115081Y-85591884D01*
G37*
G36*
X138296946Y-85486884D02*
G01*
X138115081Y-85591884D01*
X138010081Y-85410019D01*
X138191946Y-85305019D01*
X138296946Y-85486884D01*
G37*
G36*
X138478811Y-85381884D02*
G01*
X138296946Y-85486884D01*
X138191946Y-85305019D01*
X138373811Y-85200019D01*
X138478811Y-85381884D01*
G37*
G36*
X138660677Y-85276884D02*
G01*
X138478811Y-85381884D01*
X138373811Y-85200019D01*
X138555677Y-85095019D01*
X138660677Y-85276884D01*
G37*
G36*
X138842542Y-85171884D02*
G01*
X138660677Y-85276884D01*
X138555677Y-85095019D01*
X138737542Y-84990019D01*
X138842542Y-85171884D01*
G37*
G36*
X139206273Y-84961884D02*
G01*
X139024407Y-85066884D01*
X138919407Y-84885019D01*
X139101273Y-84780019D01*
X139206273Y-84961884D01*
G37*
G36*
X139570003Y-84751884D02*
G01*
X139388138Y-84856884D01*
X139283138Y-84675019D01*
X139465003Y-84570019D01*
X139570003Y-84751884D01*
G37*
G36*
X139933734Y-84541884D02*
G01*
X139751869Y-84646884D01*
X139646869Y-84465019D01*
X139828734Y-84360019D01*
X139933734Y-84541884D01*
G37*
G36*
X140297465Y-84331884D02*
G01*
X140115599Y-84436884D01*
X140010599Y-84255019D01*
X140192465Y-84150019D01*
X140297465Y-84331884D01*
G37*
G36*
X140661195Y-84121884D02*
G01*
X140479330Y-84226884D01*
X140374330Y-84045019D01*
X140556195Y-83940019D01*
X140661195Y-84121884D01*
G37*
G36*
X141024926Y-83911884D02*
G01*
X140843061Y-84016884D01*
X140738061Y-83835019D01*
X140919926Y-83730019D01*
X141024926Y-83911884D01*
G37*
G36*
X141388657Y-83701884D02*
G01*
X141206791Y-83806884D01*
X141101791Y-83625019D01*
X141283657Y-83520019D01*
X141388657Y-83701884D01*
G37*
G36*
X141752387Y-83491884D02*
G01*
X141570522Y-83596884D01*
X141465522Y-83415019D01*
X141647387Y-83310019D01*
X141752387Y-83491884D01*
G37*
G36*
X141934253Y-83386884D02*
G01*
X141752387Y-83491884D01*
X141647387Y-83310019D01*
X141829253Y-83205019D01*
X141934253Y-83386884D01*
G37*
G36*
X142116118Y-83281884D02*
G01*
X141934253Y-83386884D01*
X141829253Y-83205019D01*
X142011118Y-83100019D01*
X142116118Y-83281884D01*
G37*
G36*
X142297983Y-83176884D02*
G01*
X142116118Y-83281884D01*
X142011118Y-83100019D01*
X142192983Y-82995019D01*
X142297983Y-83176884D01*
G37*
G36*
X142479849Y-83071884D02*
G01*
X142297983Y-83176884D01*
X142192983Y-82995019D01*
X142374849Y-82890019D01*
X142479849Y-83071884D01*
G37*
G36*
X142661714Y-82966884D02*
G01*
X142479849Y-83071884D01*
X142374849Y-82890019D01*
X142556714Y-82785019D01*
X142661714Y-82966884D01*
G37*
G36*
X142843579Y-82861884D02*
G01*
X142661714Y-82966884D01*
X142556714Y-82785019D01*
X142738579Y-82680019D01*
X142843579Y-82861884D01*
G37*
G36*
X139101273Y-84780019D02*
G01*
X138919407Y-84885019D01*
X138814407Y-84703154D01*
X138996273Y-84598154D01*
X139101273Y-84780019D01*
G37*
G36*
X139646869Y-84465019D02*
G01*
X139465003Y-84570019D01*
X139360003Y-84388154D01*
X139541869Y-84283154D01*
X139646869Y-84465019D01*
G37*
G36*
X140192465Y-84150019D02*
G01*
X140010599Y-84255019D01*
X139905599Y-84073154D01*
X140087465Y-83968154D01*
X140192465Y-84150019D01*
G37*
G36*
X140738061Y-83835019D02*
G01*
X140556195Y-83940019D01*
X140451195Y-83758154D01*
X140633061Y-83653154D01*
X140738061Y-83835019D01*
G37*
G36*
X141101791Y-83625019D02*
G01*
X140919926Y-83730019D01*
X140814926Y-83548154D01*
X140996791Y-83443154D01*
X141101791Y-83625019D01*
G37*
G36*
X137723215Y-85333154D02*
G01*
X137541350Y-85438154D01*
X137436350Y-85256288D01*
X137618215Y-85151288D01*
X137723215Y-85333154D01*
G37*
G36*
X138086946Y-85123154D02*
G01*
X137905081Y-85228154D01*
X137800081Y-85046288D01*
X137981946Y-84941288D01*
X138086946Y-85123154D01*
G37*
G36*
X138450677Y-84913154D02*
G01*
X138268811Y-85018154D01*
X138163811Y-84836288D01*
X138345677Y-84731288D01*
X138450677Y-84913154D01*
G37*
G36*
X138632542Y-84808154D02*
G01*
X138450677Y-84913154D01*
X138345677Y-84731288D01*
X138527542Y-84626288D01*
X138632542Y-84808154D01*
G37*
G36*
X138996273Y-84598154D02*
G01*
X138814407Y-84703154D01*
X138709407Y-84521288D01*
X138891273Y-84416288D01*
X138996273Y-84598154D01*
G37*
G36*
X139178138Y-84493154D02*
G01*
X138996273Y-84598154D01*
X138891273Y-84416288D01*
X139073138Y-84311288D01*
X139178138Y-84493154D01*
G37*
G36*
X140087465Y-83968154D02*
G01*
X139905599Y-84073154D01*
X139800599Y-83891288D01*
X139982465Y-83786288D01*
X140087465Y-83968154D01*
G37*
G36*
X140269330Y-83863154D02*
G01*
X140087465Y-83968154D01*
X139982465Y-83786288D01*
X140164330Y-83681288D01*
X140269330Y-83863154D01*
G37*
G36*
X140451195Y-83758154D02*
G01*
X140269330Y-83863154D01*
X140164330Y-83681288D01*
X140346195Y-83576288D01*
X140451195Y-83758154D01*
G37*
G36*
X140633061Y-83653154D02*
G01*
X140451195Y-83758154D01*
X140346195Y-83576288D01*
X140528061Y-83471288D01*
X140633061Y-83653154D01*
G37*
G36*
X140814926Y-83548154D02*
G01*
X140633061Y-83653154D01*
X140528061Y-83471288D01*
X140709926Y-83366288D01*
X140814926Y-83548154D01*
G37*
G36*
X140996791Y-83443154D02*
G01*
X140814926Y-83548154D01*
X140709926Y-83366288D01*
X140891791Y-83261288D01*
X140996791Y-83443154D01*
G37*
G36*
X141178657Y-83338154D02*
G01*
X140996791Y-83443154D01*
X140891791Y-83261288D01*
X141073657Y-83156288D01*
X141178657Y-83338154D01*
G37*
G36*
X141360522Y-83233154D02*
G01*
X141178657Y-83338154D01*
X141073657Y-83156288D01*
X141255522Y-83051288D01*
X141360522Y-83233154D01*
G37*
G36*
X141542387Y-83128154D02*
G01*
X141360522Y-83233154D01*
X141255522Y-83051288D01*
X141437387Y-82946288D01*
X141542387Y-83128154D01*
G37*
G36*
X141906118Y-82918154D02*
G01*
X141724253Y-83023154D01*
X141619253Y-82841288D01*
X141801118Y-82736288D01*
X141906118Y-82918154D01*
G37*
G36*
X142087983Y-82813154D02*
G01*
X141906118Y-82918154D01*
X141801118Y-82736288D01*
X141982983Y-82631288D01*
X142087983Y-82813154D01*
G37*
G36*
X142269849Y-82708154D02*
G01*
X142087983Y-82813154D01*
X141982983Y-82631288D01*
X142164849Y-82526288D01*
X142269849Y-82708154D01*
G37*
G36*
X142451714Y-82603154D02*
G01*
X142269849Y-82708154D01*
X142164849Y-82526288D01*
X142346714Y-82421288D01*
X142451714Y-82603154D01*
G37*
G36*
X142633579Y-82498154D02*
G01*
X142451714Y-82603154D01*
X142346714Y-82421288D01*
X142528579Y-82316288D01*
X142633579Y-82498154D01*
G37*
G36*
X137800081Y-85046288D02*
G01*
X137618215Y-85151288D01*
X137513215Y-84969423D01*
X137695081Y-84864423D01*
X137800081Y-85046288D01*
G37*
G36*
X137981946Y-84941288D02*
G01*
X137800081Y-85046288D01*
X137695081Y-84864423D01*
X137876946Y-84759423D01*
X137981946Y-84941288D01*
G37*
G36*
X138891273Y-84416288D02*
G01*
X138709407Y-84521288D01*
X138604407Y-84339423D01*
X138786273Y-84234423D01*
X138891273Y-84416288D01*
G37*
G36*
X139073138Y-84311288D02*
G01*
X138891273Y-84416288D01*
X138786273Y-84234423D01*
X138968138Y-84129423D01*
X139073138Y-84311288D01*
G37*
G36*
X139255003Y-84206288D02*
G01*
X139073138Y-84311288D01*
X138968138Y-84129423D01*
X139150003Y-84024423D01*
X139255003Y-84206288D01*
G37*
G36*
X139436869Y-84101288D02*
G01*
X139255003Y-84206288D01*
X139150003Y-84024423D01*
X139331869Y-83919423D01*
X139436869Y-84101288D01*
G37*
G36*
X139618734Y-83996288D02*
G01*
X139436869Y-84101288D01*
X139331869Y-83919423D01*
X139513734Y-83814423D01*
X139618734Y-83996288D01*
G37*
G36*
X139800599Y-83891288D02*
G01*
X139618734Y-83996288D01*
X139513734Y-83814423D01*
X139695599Y-83709423D01*
X139800599Y-83891288D01*
G37*
G36*
X140164330Y-83681288D02*
G01*
X139982465Y-83786288D01*
X139877465Y-83604423D01*
X140059330Y-83499423D01*
X140164330Y-83681288D01*
G37*
G36*
X140346195Y-83576288D02*
G01*
X140164330Y-83681288D01*
X140059330Y-83499423D01*
X140241195Y-83394423D01*
X140346195Y-83576288D01*
G37*
G36*
X140709926Y-83366288D02*
G01*
X140528061Y-83471288D01*
X140423061Y-83289423D01*
X140604926Y-83184423D01*
X140709926Y-83366288D01*
G37*
G36*
X140891791Y-83261288D02*
G01*
X140709926Y-83366288D01*
X140604926Y-83184423D01*
X140786791Y-83079423D01*
X140891791Y-83261288D01*
G37*
G36*
X141437387Y-82946288D02*
G01*
X141255522Y-83051288D01*
X141150522Y-82869423D01*
X141332387Y-82764423D01*
X141437387Y-82946288D01*
G37*
G36*
X141619253Y-82841288D02*
G01*
X141437387Y-82946288D01*
X141332387Y-82764423D01*
X141514253Y-82659423D01*
X141619253Y-82841288D01*
G37*
G36*
X141982983Y-82631288D02*
G01*
X141801118Y-82736288D01*
X141696118Y-82554423D01*
X141877983Y-82449423D01*
X141982983Y-82631288D01*
G37*
G36*
X142346714Y-82421288D02*
G01*
X142164849Y-82526288D01*
X142059849Y-82344423D01*
X142241714Y-82239423D01*
X142346714Y-82421288D01*
G37*
G36*
X142528579Y-82316288D02*
G01*
X142346714Y-82421288D01*
X142241714Y-82239423D01*
X142423579Y-82134423D01*
X142528579Y-82316288D01*
G37*
G36*
X137513215Y-84969423D02*
G01*
X137331350Y-85074423D01*
X137226350Y-84892558D01*
X137408215Y-84787558D01*
X137513215Y-84969423D01*
G37*
G36*
X138240677Y-84549423D02*
G01*
X138058811Y-84654423D01*
X137953811Y-84472558D01*
X138135677Y-84367558D01*
X138240677Y-84549423D01*
G37*
G36*
X138422542Y-84444423D02*
G01*
X138240677Y-84549423D01*
X138135677Y-84367558D01*
X138317542Y-84262558D01*
X138422542Y-84444423D01*
G37*
G36*
X138786273Y-84234423D02*
G01*
X138604407Y-84339423D01*
X138499407Y-84157558D01*
X138681273Y-84052558D01*
X138786273Y-84234423D01*
G37*
G36*
X139331869Y-83919423D02*
G01*
X139150003Y-84024423D01*
X139045003Y-83842558D01*
X139226869Y-83737558D01*
X139331869Y-83919423D01*
G37*
G36*
X139695599Y-83709423D02*
G01*
X139513734Y-83814423D01*
X139408734Y-83632558D01*
X139590599Y-83527558D01*
X139695599Y-83709423D01*
G37*
G36*
X140059330Y-83499423D02*
G01*
X139877465Y-83604423D01*
X139772465Y-83422558D01*
X139954330Y-83317558D01*
X140059330Y-83499423D01*
G37*
G36*
X140241195Y-83394423D02*
G01*
X140059330Y-83499423D01*
X139954330Y-83317558D01*
X140136195Y-83212558D01*
X140241195Y-83394423D01*
G37*
G36*
X140423061Y-83289423D02*
G01*
X140241195Y-83394423D01*
X140136195Y-83212558D01*
X140318061Y-83107558D01*
X140423061Y-83289423D01*
G37*
G36*
X140786791Y-83079423D02*
G01*
X140604926Y-83184423D01*
X140499926Y-83002558D01*
X140681791Y-82897558D01*
X140786791Y-83079423D01*
G37*
G36*
X141332387Y-82764423D02*
G01*
X141150522Y-82869423D01*
X141045522Y-82687558D01*
X141227387Y-82582558D01*
X141332387Y-82764423D01*
G37*
G36*
X141514253Y-82659423D02*
G01*
X141332387Y-82764423D01*
X141227387Y-82582558D01*
X141409253Y-82477558D01*
X141514253Y-82659423D01*
G37*
G36*
X141877983Y-82449423D02*
G01*
X141696118Y-82554423D01*
X141591118Y-82372558D01*
X141772983Y-82267558D01*
X141877983Y-82449423D01*
G37*
G36*
X142059849Y-82344423D02*
G01*
X141877983Y-82449423D01*
X141772983Y-82267558D01*
X141954849Y-82162558D01*
X142059849Y-82344423D01*
G37*
G36*
X142241714Y-82239423D02*
G01*
X142059849Y-82344423D01*
X141954849Y-82162558D01*
X142136714Y-82057558D01*
X142241714Y-82239423D01*
G37*
G36*
X137226350Y-84892558D02*
G01*
X137044485Y-84997558D01*
X136939485Y-84815692D01*
X137121350Y-84710692D01*
X137226350Y-84892558D01*
G37*
G36*
X137771946Y-84577558D02*
G01*
X137590081Y-84682558D01*
X137485081Y-84500692D01*
X137666946Y-84395692D01*
X137771946Y-84577558D01*
G37*
G36*
X137953811Y-84472558D02*
G01*
X137771946Y-84577558D01*
X137666946Y-84395692D01*
X137848811Y-84290692D01*
X137953811Y-84472558D01*
G37*
G36*
X138863138Y-83947558D02*
G01*
X138681273Y-84052558D01*
X138576273Y-83870692D01*
X138758138Y-83765692D01*
X138863138Y-83947558D01*
G37*
G36*
X139226869Y-83737558D02*
G01*
X139045003Y-83842558D01*
X138940003Y-83660692D01*
X139121869Y-83555692D01*
X139226869Y-83737558D01*
G37*
G36*
X139590599Y-83527558D02*
G01*
X139408734Y-83632558D01*
X139303734Y-83450692D01*
X139485599Y-83345692D01*
X139590599Y-83527558D01*
G37*
G36*
X139954330Y-83317558D02*
G01*
X139772465Y-83422558D01*
X139667465Y-83240692D01*
X139849330Y-83135692D01*
X139954330Y-83317558D01*
G37*
G36*
X140318061Y-83107558D02*
G01*
X140136195Y-83212558D01*
X140031195Y-83030692D01*
X140213061Y-82925692D01*
X140318061Y-83107558D01*
G37*
G36*
X141045522Y-82687558D02*
G01*
X140863657Y-82792558D01*
X140758657Y-82610692D01*
X140940522Y-82505692D01*
X141045522Y-82687558D01*
G37*
G36*
X141772983Y-82267558D02*
G01*
X141591118Y-82372558D01*
X141486118Y-82190692D01*
X141667983Y-82085692D01*
X141772983Y-82267558D01*
G37*
G36*
X142318579Y-81952558D02*
G01*
X142136714Y-82057558D01*
X142031714Y-81875692D01*
X142213579Y-81770692D01*
X142318579Y-81952558D01*
G37*
G36*
X137303215Y-84605692D02*
G01*
X137121350Y-84710692D01*
X137016350Y-84528827D01*
X137198215Y-84423827D01*
X137303215Y-84605692D01*
G37*
G36*
X137485081Y-84500692D02*
G01*
X137303215Y-84605692D01*
X137198215Y-84423827D01*
X137380081Y-84318827D01*
X137485081Y-84500692D01*
G37*
G36*
X137666946Y-84395692D02*
G01*
X137485081Y-84500692D01*
X137380081Y-84318827D01*
X137561946Y-84213827D01*
X137666946Y-84395692D01*
G37*
G36*
X138212542Y-84080692D02*
G01*
X138030677Y-84185692D01*
X137925677Y-84003827D01*
X138107542Y-83898827D01*
X138212542Y-84080692D01*
G37*
G36*
X138394407Y-83975692D02*
G01*
X138212542Y-84080692D01*
X138107542Y-83898827D01*
X138289407Y-83793827D01*
X138394407Y-83975692D01*
G37*
G36*
X138576273Y-83870692D02*
G01*
X138394407Y-83975692D01*
X138289407Y-83793827D01*
X138471273Y-83688827D01*
X138576273Y-83870692D01*
G37*
G36*
X138940003Y-83660692D02*
G01*
X138758138Y-83765692D01*
X138653138Y-83583827D01*
X138835003Y-83478827D01*
X138940003Y-83660692D01*
G37*
G36*
X139121869Y-83555692D02*
G01*
X138940003Y-83660692D01*
X138835003Y-83478827D01*
X139016869Y-83373827D01*
X139121869Y-83555692D01*
G37*
G36*
X139303734Y-83450692D02*
G01*
X139121869Y-83555692D01*
X139016869Y-83373827D01*
X139198734Y-83268827D01*
X139303734Y-83450692D01*
G37*
G36*
X139667465Y-83240692D02*
G01*
X139485599Y-83345692D01*
X139380599Y-83163827D01*
X139562465Y-83058827D01*
X139667465Y-83240692D01*
G37*
G36*
X139849330Y-83135692D02*
G01*
X139667465Y-83240692D01*
X139562465Y-83058827D01*
X139744330Y-82953827D01*
X139849330Y-83135692D01*
G37*
G36*
X140758657Y-82610692D02*
G01*
X140576791Y-82715692D01*
X140471791Y-82533827D01*
X140653657Y-82428827D01*
X140758657Y-82610692D01*
G37*
G36*
X141122387Y-82400692D02*
G01*
X140940522Y-82505692D01*
X140835522Y-82323827D01*
X141017387Y-82218827D01*
X141122387Y-82400692D01*
G37*
G36*
X141849849Y-81980692D02*
G01*
X141667983Y-82085692D01*
X141562983Y-81903827D01*
X141744849Y-81798827D01*
X141849849Y-81980692D01*
G37*
G36*
X142031714Y-81875692D02*
G01*
X141849849Y-81980692D01*
X141744849Y-81798827D01*
X141926714Y-81693827D01*
X142031714Y-81875692D01*
G37*
G36*
X142213579Y-81770692D02*
G01*
X142031714Y-81875692D01*
X141926714Y-81693827D01*
X142108579Y-81588827D01*
X142213579Y-81770692D01*
G37*
G36*
X137743811Y-84108827D02*
G01*
X137561946Y-84213827D01*
X137456946Y-84031962D01*
X137638811Y-83926962D01*
X137743811Y-84108827D01*
G37*
G36*
X138471273Y-83688827D02*
G01*
X138289407Y-83793827D01*
X138184407Y-83611962D01*
X138366273Y-83506962D01*
X138471273Y-83688827D01*
G37*
G36*
X139198734Y-83268827D02*
G01*
X139016869Y-83373827D01*
X138911869Y-83191962D01*
X139093734Y-83086962D01*
X139198734Y-83268827D01*
G37*
G36*
X139380599Y-83163827D02*
G01*
X139198734Y-83268827D01*
X139093734Y-83086962D01*
X139275599Y-82981962D01*
X139380599Y-83163827D01*
G37*
G36*
X139562465Y-83058827D02*
G01*
X139380599Y-83163827D01*
X139275599Y-82981962D01*
X139457465Y-82876962D01*
X139562465Y-83058827D01*
G37*
G36*
X139926195Y-82848827D02*
G01*
X139744330Y-82953827D01*
X139639330Y-82771962D01*
X139821195Y-82666962D01*
X139926195Y-82848827D01*
G37*
G36*
X140289926Y-82638827D02*
G01*
X140108061Y-82743827D01*
X140003061Y-82561962D01*
X140184926Y-82456962D01*
X140289926Y-82638827D01*
G37*
G36*
X141381118Y-82008827D02*
G01*
X141199253Y-82113827D01*
X141094253Y-81931962D01*
X141276118Y-81826962D01*
X141381118Y-82008827D01*
G37*
G36*
X141744849Y-81798827D02*
G01*
X141562983Y-81903827D01*
X141457983Y-81721962D01*
X141639849Y-81616962D01*
X141744849Y-81798827D01*
G37*
G36*
X142108579Y-81588827D02*
G01*
X141926714Y-81693827D01*
X141821714Y-81511962D01*
X142003579Y-81406962D01*
X142108579Y-81588827D01*
G37*
G36*
X137456946Y-84031962D02*
G01*
X137275081Y-84136962D01*
X137170081Y-83955096D01*
X137351946Y-83850096D01*
X137456946Y-84031962D01*
G37*
G36*
X138002542Y-83716962D02*
G01*
X137820677Y-83821962D01*
X137715677Y-83640096D01*
X137897542Y-83535096D01*
X138002542Y-83716962D01*
G37*
G36*
X138366273Y-83506962D02*
G01*
X138184407Y-83611962D01*
X138079407Y-83430096D01*
X138261273Y-83325096D01*
X138366273Y-83506962D01*
G37*
G36*
X138911869Y-83191962D02*
G01*
X138730003Y-83296962D01*
X138625003Y-83115096D01*
X138806869Y-83010096D01*
X138911869Y-83191962D01*
G37*
G36*
X139093734Y-83086962D02*
G01*
X138911869Y-83191962D01*
X138806869Y-83010096D01*
X138988734Y-82905096D01*
X139093734Y-83086962D01*
G37*
G36*
X139457465Y-82876962D02*
G01*
X139275599Y-82981962D01*
X139170599Y-82800096D01*
X139352465Y-82695096D01*
X139457465Y-82876962D01*
G37*
G36*
X139821195Y-82666962D02*
G01*
X139639330Y-82771962D01*
X139534330Y-82590096D01*
X139716195Y-82485096D01*
X139821195Y-82666962D01*
G37*
G36*
X140003061Y-82561962D02*
G01*
X139821195Y-82666962D01*
X139716195Y-82485096D01*
X139898061Y-82380096D01*
X140003061Y-82561962D01*
G37*
G36*
X140366791Y-82351962D02*
G01*
X140184926Y-82456962D01*
X140079926Y-82275096D01*
X140261791Y-82170096D01*
X140366791Y-82351962D01*
G37*
G36*
X140548657Y-82246962D02*
G01*
X140366791Y-82351962D01*
X140261791Y-82170096D01*
X140443657Y-82065096D01*
X140548657Y-82246962D01*
G37*
G36*
X141094253Y-81931962D02*
G01*
X140912387Y-82036962D01*
X140807387Y-81855096D01*
X140989253Y-81750096D01*
X141094253Y-81931962D01*
G37*
G36*
X141276118Y-81826962D02*
G01*
X141094253Y-81931962D01*
X140989253Y-81750096D01*
X141171118Y-81645096D01*
X141276118Y-81826962D01*
G37*
G36*
X141821714Y-81511962D02*
G01*
X141639849Y-81616962D01*
X141534849Y-81435096D01*
X141716714Y-81330096D01*
X141821714Y-81511962D01*
G37*
G36*
X142003579Y-81406962D02*
G01*
X141821714Y-81511962D01*
X141716714Y-81330096D01*
X141898579Y-81225096D01*
X142003579Y-81406962D01*
G37*
G36*
X136988215Y-84060096D02*
G01*
X136806350Y-84165096D01*
X136701350Y-83983231D01*
X136883215Y-83878231D01*
X136988215Y-84060096D01*
G37*
G36*
X137170081Y-83955096D02*
G01*
X136988215Y-84060096D01*
X136883215Y-83878231D01*
X137065081Y-83773231D01*
X137170081Y-83955096D01*
G37*
G36*
X137715677Y-83640096D02*
G01*
X137533811Y-83745096D01*
X137428811Y-83563231D01*
X137610677Y-83458231D01*
X137715677Y-83640096D01*
G37*
G36*
X138261273Y-83325096D02*
G01*
X138079407Y-83430096D01*
X137974407Y-83248231D01*
X138156273Y-83143231D01*
X138261273Y-83325096D01*
G37*
G36*
X138625003Y-83115096D02*
G01*
X138443138Y-83220096D01*
X138338138Y-83038231D01*
X138520003Y-82933231D01*
X138625003Y-83115096D01*
G37*
G36*
X138806869Y-83010096D02*
G01*
X138625003Y-83115096D01*
X138520003Y-82933231D01*
X138701869Y-82828231D01*
X138806869Y-83010096D01*
G37*
G36*
X138988734Y-82905096D02*
G01*
X138806869Y-83010096D01*
X138701869Y-82828231D01*
X138883734Y-82723231D01*
X138988734Y-82905096D01*
G37*
G36*
X139352465Y-82695096D02*
G01*
X139170599Y-82800096D01*
X139065599Y-82618231D01*
X139247465Y-82513231D01*
X139352465Y-82695096D01*
G37*
G36*
X139716195Y-82485096D02*
G01*
X139534330Y-82590096D01*
X139429330Y-82408231D01*
X139611195Y-82303231D01*
X139716195Y-82485096D01*
G37*
G36*
X140079926Y-82275096D02*
G01*
X139898061Y-82380096D01*
X139793061Y-82198231D01*
X139974926Y-82093231D01*
X140079926Y-82275096D01*
G37*
G36*
X140807387Y-81855096D02*
G01*
X140625522Y-81960096D01*
X140520522Y-81778231D01*
X140702387Y-81673231D01*
X140807387Y-81855096D01*
G37*
G36*
X140989253Y-81750096D02*
G01*
X140807387Y-81855096D01*
X140702387Y-81673231D01*
X140884253Y-81568231D01*
X140989253Y-81750096D01*
G37*
G36*
X141171118Y-81645096D02*
G01*
X140989253Y-81750096D01*
X140884253Y-81568231D01*
X141066118Y-81463231D01*
X141171118Y-81645096D01*
G37*
G36*
X141534849Y-81435096D02*
G01*
X141352983Y-81540096D01*
X141247983Y-81358231D01*
X141429849Y-81253231D01*
X141534849Y-81435096D01*
G37*
G36*
X136883215Y-83878231D02*
G01*
X136701350Y-83983231D01*
X136596350Y-83801366D01*
X136778215Y-83696366D01*
X136883215Y-83878231D01*
G37*
G36*
X137246946Y-83668231D02*
G01*
X137065081Y-83773231D01*
X136960081Y-83591366D01*
X137141946Y-83486366D01*
X137246946Y-83668231D01*
G37*
G36*
X137428811Y-83563231D02*
G01*
X137246946Y-83668231D01*
X137141946Y-83486366D01*
X137323811Y-83381366D01*
X137428811Y-83563231D01*
G37*
G36*
X137792542Y-83353231D02*
G01*
X137610677Y-83458231D01*
X137505677Y-83276366D01*
X137687542Y-83171366D01*
X137792542Y-83353231D01*
G37*
G36*
X138338138Y-83038231D02*
G01*
X138156273Y-83143231D01*
X138051273Y-82961366D01*
X138233138Y-82856366D01*
X138338138Y-83038231D01*
G37*
G36*
X139611195Y-82303231D02*
G01*
X139429330Y-82408231D01*
X139324330Y-82226366D01*
X139506195Y-82121366D01*
X139611195Y-82303231D01*
G37*
G36*
X140156791Y-81988231D02*
G01*
X139974926Y-82093231D01*
X139869926Y-81911366D01*
X140051791Y-81806366D01*
X140156791Y-81988231D01*
G37*
G36*
X140702387Y-81673231D02*
G01*
X140520522Y-81778231D01*
X140415522Y-81596366D01*
X140597387Y-81491366D01*
X140702387Y-81673231D01*
G37*
G36*
X141066118Y-81463231D02*
G01*
X140884253Y-81568231D01*
X140779253Y-81386366D01*
X140961118Y-81281366D01*
X141066118Y-81463231D01*
G37*
G36*
X141611714Y-81148231D02*
G01*
X141429849Y-81253231D01*
X141324849Y-81071366D01*
X141506714Y-80966366D01*
X141611714Y-81148231D01*
G37*
G36*
X138415003Y-82751366D02*
G01*
X138233138Y-82856366D01*
X138128138Y-82674500D01*
X138310003Y-82569500D01*
X138415003Y-82751366D01*
G37*
G36*
X139142465Y-82331366D02*
G01*
X138960599Y-82436366D01*
X138855599Y-82254500D01*
X139037465Y-82149500D01*
X139142465Y-82331366D01*
G37*
G36*
X139506195Y-82121366D02*
G01*
X139324330Y-82226366D01*
X139219330Y-82044500D01*
X139401195Y-81939500D01*
X139506195Y-82121366D01*
G37*
G36*
X140233657Y-81701366D02*
G01*
X140051791Y-81806366D01*
X139946791Y-81624500D01*
X140128657Y-81519500D01*
X140233657Y-81701366D01*
G37*
G36*
X140597387Y-81491366D02*
G01*
X140415522Y-81596366D01*
X140310522Y-81414500D01*
X140492387Y-81309500D01*
X140597387Y-81491366D01*
G37*
G36*
X140961118Y-81281366D02*
G01*
X140779253Y-81386366D01*
X140674253Y-81204500D01*
X140856118Y-81099500D01*
X140961118Y-81281366D01*
G37*
G36*
X141688579Y-80861366D02*
G01*
X141506714Y-80966366D01*
X141401714Y-80784500D01*
X141583579Y-80679500D01*
X141688579Y-80861366D01*
G37*
G36*
X136491350Y-83619500D02*
G01*
X136309485Y-83724500D01*
X136204485Y-83542635D01*
X136386350Y-83437635D01*
X136491350Y-83619500D01*
G37*
G36*
X136673215Y-83514500D02*
G01*
X136491350Y-83619500D01*
X136386350Y-83437635D01*
X136568215Y-83332635D01*
X136673215Y-83514500D01*
G37*
G36*
X136855081Y-83409500D02*
G01*
X136673215Y-83514500D01*
X136568215Y-83332635D01*
X136750081Y-83227635D01*
X136855081Y-83409500D01*
G37*
G36*
X137400677Y-83094500D02*
G01*
X137218811Y-83199500D01*
X137113811Y-83017635D01*
X137295677Y-82912635D01*
X137400677Y-83094500D01*
G37*
G36*
X137582542Y-82989500D02*
G01*
X137400677Y-83094500D01*
X137295677Y-82912635D01*
X137477542Y-82807635D01*
X137582542Y-82989500D01*
G37*
G36*
X137764407Y-82884500D02*
G01*
X137582542Y-82989500D01*
X137477542Y-82807635D01*
X137659407Y-82702635D01*
X137764407Y-82884500D01*
G37*
G36*
X138128138Y-82674500D02*
G01*
X137946273Y-82779500D01*
X137841273Y-82597635D01*
X138023138Y-82492635D01*
X138128138Y-82674500D01*
G37*
G36*
X138310003Y-82569500D02*
G01*
X138128138Y-82674500D01*
X138023138Y-82492635D01*
X138205003Y-82387635D01*
X138310003Y-82569500D01*
G37*
G36*
X138855599Y-82254500D02*
G01*
X138673734Y-82359500D01*
X138568734Y-82177635D01*
X138750599Y-82072635D01*
X138855599Y-82254500D01*
G37*
G36*
X139037465Y-82149500D02*
G01*
X138855599Y-82254500D01*
X138750599Y-82072635D01*
X138932465Y-81967635D01*
X139037465Y-82149500D01*
G37*
G36*
X139219330Y-82044500D02*
G01*
X139037465Y-82149500D01*
X138932465Y-81967635D01*
X139114330Y-81862635D01*
X139219330Y-82044500D01*
G37*
G36*
X139401195Y-81939500D02*
G01*
X139219330Y-82044500D01*
X139114330Y-81862635D01*
X139296195Y-81757635D01*
X139401195Y-81939500D01*
G37*
G36*
X139583061Y-81834500D02*
G01*
X139401195Y-81939500D01*
X139296195Y-81757635D01*
X139478061Y-81652635D01*
X139583061Y-81834500D01*
G37*
G36*
X139764926Y-81729500D02*
G01*
X139583061Y-81834500D01*
X139478061Y-81652635D01*
X139659926Y-81547635D01*
X139764926Y-81729500D01*
G37*
G36*
X139946791Y-81624500D02*
G01*
X139764926Y-81729500D01*
X139659926Y-81547635D01*
X139841791Y-81442635D01*
X139946791Y-81624500D01*
G37*
G36*
X140674253Y-81204500D02*
G01*
X140492387Y-81309500D01*
X140387387Y-81127635D01*
X140569253Y-81022635D01*
X140674253Y-81204500D01*
G37*
G36*
X140856118Y-81099500D02*
G01*
X140674253Y-81204500D01*
X140569253Y-81022635D01*
X140751118Y-80917635D01*
X140856118Y-81099500D01*
G37*
G36*
X141219849Y-80889500D02*
G01*
X141037983Y-80994500D01*
X140932983Y-80812635D01*
X141114849Y-80707635D01*
X141219849Y-80889500D01*
G37*
G36*
X141401714Y-80784500D02*
G01*
X141219849Y-80889500D01*
X141114849Y-80707635D01*
X141296714Y-80602635D01*
X141401714Y-80784500D01*
G37*
G36*
X141583579Y-80679500D02*
G01*
X141401714Y-80784500D01*
X141296714Y-80602635D01*
X141478579Y-80497635D01*
X141583579Y-80679500D01*
G37*
G36*
X136386350Y-83437635D02*
G01*
X136204485Y-83542635D01*
X136099485Y-83360770D01*
X136281350Y-83255770D01*
X136386350Y-83437635D01*
G37*
G36*
X137113811Y-83017635D02*
G01*
X136931946Y-83122635D01*
X136826946Y-82940770D01*
X137008811Y-82835770D01*
X137113811Y-83017635D01*
G37*
G36*
X138023138Y-82492635D02*
G01*
X137841273Y-82597635D01*
X137736273Y-82415770D01*
X137918138Y-82310770D01*
X138023138Y-82492635D01*
G37*
G36*
X138750599Y-82072635D02*
G01*
X138568734Y-82177635D01*
X138463734Y-81995770D01*
X138645599Y-81890770D01*
X138750599Y-82072635D01*
G37*
G36*
X139478061Y-81652635D02*
G01*
X139296195Y-81757635D01*
X139191195Y-81575770D01*
X139373061Y-81470770D01*
X139478061Y-81652635D01*
G37*
G36*
X140205522Y-81232635D02*
G01*
X140023657Y-81337635D01*
X139918657Y-81155770D01*
X140100522Y-81050770D01*
X140205522Y-81232635D01*
G37*
G36*
X140387387Y-81127635D02*
G01*
X140205522Y-81232635D01*
X140100522Y-81050770D01*
X140282387Y-80945770D01*
X140387387Y-81127635D01*
G37*
G36*
X140569253Y-81022635D02*
G01*
X140387387Y-81127635D01*
X140282387Y-80945770D01*
X140464253Y-80840770D01*
X140569253Y-81022635D01*
G37*
G36*
X140932983Y-80812635D02*
G01*
X140751118Y-80917635D01*
X140646118Y-80735770D01*
X140827983Y-80630770D01*
X140932983Y-80812635D01*
G37*
G36*
X141114849Y-80707635D02*
G01*
X140932983Y-80812635D01*
X140827983Y-80630770D01*
X141009849Y-80525770D01*
X141114849Y-80707635D01*
G37*
G36*
X141478579Y-80497635D02*
G01*
X141296714Y-80602635D01*
X141191714Y-80420770D01*
X141373579Y-80315770D01*
X141478579Y-80497635D01*
G37*
G36*
X136645081Y-83045770D02*
G01*
X136463215Y-83150770D01*
X136358215Y-82968904D01*
X136540081Y-82863904D01*
X136645081Y-83045770D01*
G37*
G36*
X136826946Y-82940770D02*
G01*
X136645081Y-83045770D01*
X136540081Y-82863904D01*
X136721946Y-82758904D01*
X136826946Y-82940770D01*
G37*
G36*
X137008811Y-82835770D02*
G01*
X136826946Y-82940770D01*
X136721946Y-82758904D01*
X136903811Y-82653904D01*
X137008811Y-82835770D01*
G37*
G36*
X137190677Y-82730770D02*
G01*
X137008811Y-82835770D01*
X136903811Y-82653904D01*
X137085677Y-82548904D01*
X137190677Y-82730770D01*
G37*
G36*
X137372542Y-82625770D02*
G01*
X137190677Y-82730770D01*
X137085677Y-82548904D01*
X137267542Y-82443904D01*
X137372542Y-82625770D01*
G37*
G36*
X137554407Y-82520770D02*
G01*
X137372542Y-82625770D01*
X137267542Y-82443904D01*
X137449407Y-82338904D01*
X137554407Y-82520770D01*
G37*
G36*
X137736273Y-82415770D02*
G01*
X137554407Y-82520770D01*
X137449407Y-82338904D01*
X137631273Y-82233904D01*
X137736273Y-82415770D01*
G37*
G36*
X137918138Y-82310770D02*
G01*
X137736273Y-82415770D01*
X137631273Y-82233904D01*
X137813138Y-82128904D01*
X137918138Y-82310770D01*
G37*
G36*
X138463734Y-81995770D02*
G01*
X138281869Y-82100770D01*
X138176869Y-81918904D01*
X138358734Y-81813904D01*
X138463734Y-81995770D01*
G37*
G36*
X138645599Y-81890770D02*
G01*
X138463734Y-81995770D01*
X138358734Y-81813904D01*
X138540599Y-81708904D01*
X138645599Y-81890770D01*
G37*
G36*
X139009330Y-81680770D02*
G01*
X138827465Y-81785770D01*
X138722465Y-81603904D01*
X138904330Y-81498904D01*
X139009330Y-81680770D01*
G37*
G36*
X139191195Y-81575770D02*
G01*
X139009330Y-81680770D01*
X138904330Y-81498904D01*
X139086195Y-81393904D01*
X139191195Y-81575770D01*
G37*
G36*
X139373061Y-81470770D02*
G01*
X139191195Y-81575770D01*
X139086195Y-81393904D01*
X139268061Y-81288904D01*
X139373061Y-81470770D01*
G37*
G36*
X139554926Y-81365770D02*
G01*
X139373061Y-81470770D01*
X139268061Y-81288904D01*
X139449926Y-81183904D01*
X139554926Y-81365770D01*
G37*
G36*
X139736791Y-81260770D02*
G01*
X139554926Y-81365770D01*
X139449926Y-81183904D01*
X139631791Y-81078904D01*
X139736791Y-81260770D01*
G37*
G36*
X139918657Y-81155770D02*
G01*
X139736791Y-81260770D01*
X139631791Y-81078904D01*
X139813657Y-80973904D01*
X139918657Y-81155770D01*
G37*
G36*
X140100522Y-81050770D02*
G01*
X139918657Y-81155770D01*
X139813657Y-80973904D01*
X139995522Y-80868904D01*
X140100522Y-81050770D01*
G37*
G36*
X140282387Y-80945770D02*
G01*
X140100522Y-81050770D01*
X139995522Y-80868904D01*
X140177387Y-80763904D01*
X140282387Y-80945770D01*
G37*
G36*
X140464253Y-80840770D02*
G01*
X140282387Y-80945770D01*
X140177387Y-80763904D01*
X140359253Y-80658904D01*
X140464253Y-80840770D01*
G37*
G36*
X140646118Y-80735770D02*
G01*
X140464253Y-80840770D01*
X140359253Y-80658904D01*
X140541118Y-80553904D01*
X140646118Y-80735770D01*
G37*
G36*
X140827983Y-80630770D02*
G01*
X140646118Y-80735770D01*
X140541118Y-80553904D01*
X140722983Y-80448904D01*
X140827983Y-80630770D01*
G37*
G36*
X141009849Y-80525770D02*
G01*
X140827983Y-80630770D01*
X140722983Y-80448904D01*
X140904849Y-80343904D01*
X141009849Y-80525770D01*
G37*
G36*
X137631273Y-82233904D02*
G01*
X137449407Y-82338904D01*
X137344407Y-82157039D01*
X137526273Y-82052039D01*
X137631273Y-82233904D01*
G37*
G36*
X137995003Y-82023904D02*
G01*
X137813138Y-82128904D01*
X137708138Y-81947039D01*
X137890003Y-81842039D01*
X137995003Y-82023904D01*
G37*
G36*
X138176869Y-81918904D02*
G01*
X137995003Y-82023904D01*
X137890003Y-81842039D01*
X138071869Y-81737039D01*
X138176869Y-81918904D01*
G37*
G36*
X139631791Y-81078904D02*
G01*
X139449926Y-81183904D01*
X139344926Y-81002039D01*
X139526791Y-80897039D01*
X139631791Y-81078904D01*
G37*
G36*
X139813657Y-80973904D02*
G01*
X139631791Y-81078904D01*
X139526791Y-80897039D01*
X139708657Y-80792039D01*
X139813657Y-80973904D01*
G37*
G36*
X140541118Y-80553904D02*
G01*
X140359253Y-80658904D01*
X140254253Y-80477039D01*
X140436118Y-80372039D01*
X140541118Y-80553904D01*
G37*
G36*
X136071350Y-82892039D02*
G01*
X135889485Y-82997039D01*
X135784485Y-82815174D01*
X135966350Y-82710174D01*
X136071350Y-82892039D01*
G37*
G36*
X136253215Y-82787039D02*
G01*
X136071350Y-82892039D01*
X135966350Y-82710174D01*
X136148215Y-82605174D01*
X136253215Y-82787039D01*
G37*
G36*
X136435081Y-82682039D02*
G01*
X136253215Y-82787039D01*
X136148215Y-82605174D01*
X136330081Y-82500174D01*
X136435081Y-82682039D01*
G37*
G36*
X136616946Y-82577039D02*
G01*
X136435081Y-82682039D01*
X136330081Y-82500174D01*
X136511946Y-82395174D01*
X136616946Y-82577039D01*
G37*
G36*
X136798811Y-82472039D02*
G01*
X136616946Y-82577039D01*
X136511946Y-82395174D01*
X136693811Y-82290174D01*
X136798811Y-82472039D01*
G37*
G36*
X136980677Y-82367039D02*
G01*
X136798811Y-82472039D01*
X136693811Y-82290174D01*
X136875677Y-82185174D01*
X136980677Y-82367039D01*
G37*
G36*
X137162542Y-82262039D02*
G01*
X136980677Y-82367039D01*
X136875677Y-82185174D01*
X137057542Y-82080174D01*
X137162542Y-82262039D01*
G37*
G36*
X137708138Y-81947039D02*
G01*
X137526273Y-82052039D01*
X137421273Y-81870174D01*
X137603138Y-81765174D01*
X137708138Y-81947039D01*
G37*
G36*
X138435599Y-81527039D02*
G01*
X138253734Y-81632039D01*
X138148734Y-81450174D01*
X138330599Y-81345174D01*
X138435599Y-81527039D01*
G37*
G36*
X139163061Y-81107039D02*
G01*
X138981195Y-81212039D01*
X138876195Y-81030174D01*
X139058061Y-80925174D01*
X139163061Y-81107039D01*
G37*
G36*
X139708657Y-80792039D02*
G01*
X139526791Y-80897039D01*
X139421791Y-80715174D01*
X139603657Y-80610174D01*
X139708657Y-80792039D01*
G37*
G36*
X140072387Y-80582039D02*
G01*
X139890522Y-80687039D01*
X139785522Y-80505174D01*
X139967387Y-80400174D01*
X140072387Y-80582039D01*
G37*
G36*
X140436118Y-80372039D02*
G01*
X140254253Y-80477039D01*
X140149253Y-80295174D01*
X140331118Y-80190174D01*
X140436118Y-80372039D01*
G37*
G36*
X140981714Y-80057039D02*
G01*
X140799849Y-80162039D01*
X140694849Y-79980174D01*
X140876714Y-79875174D01*
X140981714Y-80057039D01*
G37*
G36*
X141163579Y-79952039D02*
G01*
X140981714Y-80057039D01*
X140876714Y-79875174D01*
X141058579Y-79770174D01*
X141163579Y-79952039D01*
G37*
G36*
X135966350Y-82710174D02*
G01*
X135784485Y-82815174D01*
X135679485Y-82633308D01*
X135861350Y-82528308D01*
X135966350Y-82710174D01*
G37*
G36*
X137057542Y-82080174D02*
G01*
X136875677Y-82185174D01*
X136770677Y-82003308D01*
X136952542Y-81898308D01*
X137057542Y-82080174D01*
G37*
G36*
X137421273Y-81870174D02*
G01*
X137239407Y-81975174D01*
X137134407Y-81793308D01*
X137316273Y-81688308D01*
X137421273Y-81870174D01*
G37*
G36*
X137603138Y-81765174D02*
G01*
X137421273Y-81870174D01*
X137316273Y-81688308D01*
X137498138Y-81583308D01*
X137603138Y-81765174D01*
G37*
G36*
X137966869Y-81555174D02*
G01*
X137785003Y-81660174D01*
X137680003Y-81478308D01*
X137861869Y-81373308D01*
X137966869Y-81555174D01*
G37*
G36*
X138330599Y-81345174D02*
G01*
X138148734Y-81450174D01*
X138043734Y-81268308D01*
X138225599Y-81163308D01*
X138330599Y-81345174D01*
G37*
G36*
X138512465Y-81240174D02*
G01*
X138330599Y-81345174D01*
X138225599Y-81163308D01*
X138407465Y-81058308D01*
X138512465Y-81240174D01*
G37*
G36*
X139058061Y-80925174D02*
G01*
X138876195Y-81030174D01*
X138771195Y-80848308D01*
X138953061Y-80743308D01*
X139058061Y-80925174D01*
G37*
G36*
X139603657Y-80610174D02*
G01*
X139421791Y-80715174D01*
X139316791Y-80533308D01*
X139498657Y-80428308D01*
X139603657Y-80610174D01*
G37*
G36*
X140331118Y-80190174D02*
G01*
X140149253Y-80295174D01*
X140044253Y-80113308D01*
X140226118Y-80008308D01*
X140331118Y-80190174D01*
G37*
G36*
X140876714Y-79875174D02*
G01*
X140694849Y-79980174D01*
X140589849Y-79798308D01*
X140771714Y-79693308D01*
X140876714Y-79875174D01*
G37*
G36*
X141058579Y-79770174D02*
G01*
X140876714Y-79875174D01*
X140771714Y-79693308D01*
X140953579Y-79588308D01*
X141058579Y-79770174D01*
G37*
G36*
X135861350Y-82528308D02*
G01*
X135679485Y-82633308D01*
X135574485Y-82451443D01*
X135756350Y-82346443D01*
X135861350Y-82528308D01*
G37*
G36*
X136225081Y-82318308D02*
G01*
X136043215Y-82423308D01*
X135938215Y-82241443D01*
X136120081Y-82136443D01*
X136225081Y-82318308D01*
G37*
G36*
X136406946Y-82213308D02*
G01*
X136225081Y-82318308D01*
X136120081Y-82136443D01*
X136301946Y-82031443D01*
X136406946Y-82213308D01*
G37*
G36*
X136588811Y-82108308D02*
G01*
X136406946Y-82213308D01*
X136301946Y-82031443D01*
X136483811Y-81926443D01*
X136588811Y-82108308D01*
G37*
G36*
X136952542Y-81898308D02*
G01*
X136770677Y-82003308D01*
X136665677Y-81821443D01*
X136847542Y-81716443D01*
X136952542Y-81898308D01*
G37*
G36*
X137498138Y-81583308D02*
G01*
X137316273Y-81688308D01*
X137211273Y-81506443D01*
X137393138Y-81401443D01*
X137498138Y-81583308D01*
G37*
G36*
X138225599Y-81163308D02*
G01*
X138043734Y-81268308D01*
X137938734Y-81086443D01*
X138120599Y-80981443D01*
X138225599Y-81163308D01*
G37*
G36*
X138407465Y-81058308D02*
G01*
X138225599Y-81163308D01*
X138120599Y-80981443D01*
X138302465Y-80876443D01*
X138407465Y-81058308D01*
G37*
G36*
X138771195Y-80848308D02*
G01*
X138589330Y-80953308D01*
X138484330Y-80771443D01*
X138666195Y-80666443D01*
X138771195Y-80848308D01*
G37*
G36*
X138953061Y-80743308D02*
G01*
X138771195Y-80848308D01*
X138666195Y-80666443D01*
X138848061Y-80561443D01*
X138953061Y-80743308D01*
G37*
G36*
X139134926Y-80638308D02*
G01*
X138953061Y-80743308D01*
X138848061Y-80561443D01*
X139029926Y-80456443D01*
X139134926Y-80638308D01*
G37*
G36*
X139316791Y-80533308D02*
G01*
X139134926Y-80638308D01*
X139029926Y-80456443D01*
X139211791Y-80351443D01*
X139316791Y-80533308D01*
G37*
G36*
X139498657Y-80428308D02*
G01*
X139316791Y-80533308D01*
X139211791Y-80351443D01*
X139393657Y-80246443D01*
X139498657Y-80428308D01*
G37*
G36*
X139680522Y-80323308D02*
G01*
X139498657Y-80428308D01*
X139393657Y-80246443D01*
X139575522Y-80141443D01*
X139680522Y-80323308D01*
G37*
G36*
X139862387Y-80218308D02*
G01*
X139680522Y-80323308D01*
X139575522Y-80141443D01*
X139757387Y-80036443D01*
X139862387Y-80218308D01*
G37*
G36*
X140044253Y-80113308D02*
G01*
X139862387Y-80218308D01*
X139757387Y-80036443D01*
X139939253Y-79931443D01*
X140044253Y-80113308D01*
G37*
G36*
X140226118Y-80008308D02*
G01*
X140044253Y-80113308D01*
X139939253Y-79931443D01*
X140121118Y-79826443D01*
X140226118Y-80008308D01*
G37*
G36*
X140589849Y-79798308D02*
G01*
X140407983Y-79903308D01*
X140302983Y-79721443D01*
X140484849Y-79616443D01*
X140589849Y-79798308D01*
G37*
G36*
X140771714Y-79693308D02*
G01*
X140589849Y-79798308D01*
X140484849Y-79616443D01*
X140666714Y-79511443D01*
X140771714Y-79693308D01*
G37*
G36*
X140953579Y-79588308D02*
G01*
X140771714Y-79693308D01*
X140666714Y-79511443D01*
X140848579Y-79406443D01*
X140953579Y-79588308D01*
G37*
G36*
X135756350Y-82346443D02*
G01*
X135574485Y-82451443D01*
X135469485Y-82269578D01*
X135651350Y-82164578D01*
X135756350Y-82346443D01*
G37*
G36*
X136120081Y-82136443D02*
G01*
X135938215Y-82241443D01*
X135833215Y-82059578D01*
X136015081Y-81954578D01*
X136120081Y-82136443D01*
G37*
G36*
X136301946Y-82031443D02*
G01*
X136120081Y-82136443D01*
X136015081Y-81954578D01*
X136196946Y-81849578D01*
X136301946Y-82031443D01*
G37*
G36*
X136483811Y-81926443D02*
G01*
X136301946Y-82031443D01*
X136196946Y-81849578D01*
X136378811Y-81744578D01*
X136483811Y-81926443D01*
G37*
G36*
X136847542Y-81716443D02*
G01*
X136665677Y-81821443D01*
X136560677Y-81639578D01*
X136742542Y-81534578D01*
X136847542Y-81716443D01*
G37*
G36*
X137211273Y-81506443D02*
G01*
X137029407Y-81611443D01*
X136924407Y-81429578D01*
X137106273Y-81324578D01*
X137211273Y-81506443D01*
G37*
G36*
X137756869Y-81191443D02*
G01*
X137575003Y-81296443D01*
X137470003Y-81114578D01*
X137651869Y-81009578D01*
X137756869Y-81191443D01*
G37*
G36*
X137938734Y-81086443D02*
G01*
X137756869Y-81191443D01*
X137651869Y-81009578D01*
X137833734Y-80904578D01*
X137938734Y-81086443D01*
G37*
G36*
X138120599Y-80981443D02*
G01*
X137938734Y-81086443D01*
X137833734Y-80904578D01*
X138015599Y-80799578D01*
X138120599Y-80981443D01*
G37*
G36*
X138484330Y-80771443D02*
G01*
X138302465Y-80876443D01*
X138197465Y-80694578D01*
X138379330Y-80589578D01*
X138484330Y-80771443D01*
G37*
G36*
X138666195Y-80666443D02*
G01*
X138484330Y-80771443D01*
X138379330Y-80589578D01*
X138561195Y-80484578D01*
X138666195Y-80666443D01*
G37*
G36*
X139211791Y-80351443D02*
G01*
X139029926Y-80456443D01*
X138924926Y-80274578D01*
X139106791Y-80169578D01*
X139211791Y-80351443D01*
G37*
G36*
X139757387Y-80036443D02*
G01*
X139575522Y-80141443D01*
X139470522Y-79959578D01*
X139652387Y-79854578D01*
X139757387Y-80036443D01*
G37*
G36*
X139939253Y-79931443D02*
G01*
X139757387Y-80036443D01*
X139652387Y-79854578D01*
X139834253Y-79749578D01*
X139939253Y-79931443D01*
G37*
G36*
X140121118Y-79826443D02*
G01*
X139939253Y-79931443D01*
X139834253Y-79749578D01*
X140016118Y-79644578D01*
X140121118Y-79826443D01*
G37*
G36*
X140666714Y-79511443D02*
G01*
X140484849Y-79616443D01*
X140379849Y-79434578D01*
X140561714Y-79329578D01*
X140666714Y-79511443D01*
G37*
G36*
X135651350Y-82164578D02*
G01*
X135469485Y-82269578D01*
X135364485Y-82087712D01*
X135546350Y-81982712D01*
X135651350Y-82164578D01*
G37*
G36*
X136015081Y-81954578D02*
G01*
X135833215Y-82059578D01*
X135728215Y-81877712D01*
X135910081Y-81772712D01*
X136015081Y-81954578D01*
G37*
G36*
X136196946Y-81849578D02*
G01*
X136015081Y-81954578D01*
X135910081Y-81772712D01*
X136091946Y-81667712D01*
X136196946Y-81849578D01*
G37*
G36*
X136378811Y-81744578D02*
G01*
X136196946Y-81849578D01*
X136091946Y-81667712D01*
X136273811Y-81562712D01*
X136378811Y-81744578D01*
G37*
G36*
X136742542Y-81534578D02*
G01*
X136560677Y-81639578D01*
X136455677Y-81457712D01*
X136637542Y-81352712D01*
X136742542Y-81534578D01*
G37*
G36*
X137288138Y-81219578D02*
G01*
X137106273Y-81324578D01*
X137001273Y-81142712D01*
X137183138Y-81037712D01*
X137288138Y-81219578D01*
G37*
G36*
X137833734Y-80904578D02*
G01*
X137651869Y-81009578D01*
X137546869Y-80827712D01*
X137728734Y-80722712D01*
X137833734Y-80904578D01*
G37*
G36*
X139288657Y-80064578D02*
G01*
X139106791Y-80169578D01*
X139001791Y-79987712D01*
X139183657Y-79882712D01*
X139288657Y-80064578D01*
G37*
G36*
X139470522Y-79959578D02*
G01*
X139288657Y-80064578D01*
X139183657Y-79882712D01*
X139365522Y-79777712D01*
X139470522Y-79959578D01*
G37*
G36*
X140016118Y-79644578D02*
G01*
X139834253Y-79749578D01*
X139729253Y-79567712D01*
X139911118Y-79462712D01*
X140016118Y-79644578D01*
G37*
G36*
X140743579Y-79224578D02*
G01*
X140561714Y-79329578D01*
X140456714Y-79147712D01*
X140638579Y-79042712D01*
X140743579Y-79224578D01*
G37*
G36*
X135546350Y-81982712D02*
G01*
X135364485Y-82087712D01*
X135259485Y-81905847D01*
X135441350Y-81800847D01*
X135546350Y-81982712D01*
G37*
G36*
X136637542Y-81352712D02*
G01*
X136455677Y-81457712D01*
X136350677Y-81275847D01*
X136532542Y-81170847D01*
X136637542Y-81352712D01*
G37*
G36*
X137001273Y-81142712D02*
G01*
X136819407Y-81247712D01*
X136714407Y-81065847D01*
X136896273Y-80960847D01*
X137001273Y-81142712D01*
G37*
G36*
X137183138Y-81037712D02*
G01*
X137001273Y-81142712D01*
X136896273Y-80960847D01*
X137078138Y-80855847D01*
X137183138Y-81037712D01*
G37*
G36*
X137910599Y-80617712D02*
G01*
X137728734Y-80722712D01*
X137623734Y-80540847D01*
X137805599Y-80435847D01*
X137910599Y-80617712D01*
G37*
G36*
X138456195Y-80302712D02*
G01*
X138274330Y-80407712D01*
X138169330Y-80225847D01*
X138351195Y-80120847D01*
X138456195Y-80302712D01*
G37*
G36*
X138638061Y-80197712D02*
G01*
X138456195Y-80302712D01*
X138351195Y-80120847D01*
X138533061Y-80015847D01*
X138638061Y-80197712D01*
G37*
G36*
X139001791Y-79987712D02*
G01*
X138819926Y-80092712D01*
X138714926Y-79910847D01*
X138896791Y-79805847D01*
X139001791Y-79987712D01*
G37*
G36*
X139365522Y-79777712D02*
G01*
X139183657Y-79882712D01*
X139078657Y-79700847D01*
X139260522Y-79595847D01*
X139365522Y-79777712D01*
G37*
G36*
X139911118Y-79462712D02*
G01*
X139729253Y-79567712D01*
X139624253Y-79385847D01*
X139806118Y-79280847D01*
X139911118Y-79462712D01*
G37*
G36*
X140274849Y-79252712D02*
G01*
X140092983Y-79357712D01*
X139987983Y-79175847D01*
X140169849Y-79070847D01*
X140274849Y-79252712D01*
G37*
G36*
X140456714Y-79147712D02*
G01*
X140274849Y-79252712D01*
X140169849Y-79070847D01*
X140351714Y-78965847D01*
X140456714Y-79147712D01*
G37*
G36*
X135441350Y-81800847D02*
G01*
X135259485Y-81905847D01*
X135154485Y-81723982D01*
X135336350Y-81618982D01*
X135441350Y-81800847D01*
G37*
G36*
X135623215Y-81695847D02*
G01*
X135441350Y-81800847D01*
X135336350Y-81618982D01*
X135518215Y-81513982D01*
X135623215Y-81695847D01*
G37*
G36*
X135805081Y-81590847D02*
G01*
X135623215Y-81695847D01*
X135518215Y-81513982D01*
X135700081Y-81408982D01*
X135805081Y-81590847D01*
G37*
G36*
X135986946Y-81485847D02*
G01*
X135805081Y-81590847D01*
X135700081Y-81408982D01*
X135881946Y-81303982D01*
X135986946Y-81485847D01*
G37*
G36*
X136168811Y-81380847D02*
G01*
X135986946Y-81485847D01*
X135881946Y-81303982D01*
X136063811Y-81198982D01*
X136168811Y-81380847D01*
G37*
G36*
X136350677Y-81275847D02*
G01*
X136168811Y-81380847D01*
X136063811Y-81198982D01*
X136245677Y-81093982D01*
X136350677Y-81275847D01*
G37*
G36*
X136532542Y-81170847D02*
G01*
X136350677Y-81275847D01*
X136245677Y-81093982D01*
X136427542Y-80988982D01*
X136532542Y-81170847D01*
G37*
G36*
X137078138Y-80855847D02*
G01*
X136896273Y-80960847D01*
X136791273Y-80778982D01*
X136973138Y-80673982D01*
X137078138Y-80855847D01*
G37*
G36*
X137441869Y-80645847D02*
G01*
X137260003Y-80750847D01*
X137155003Y-80568982D01*
X137336869Y-80463982D01*
X137441869Y-80645847D01*
G37*
G36*
X137805599Y-80435847D02*
G01*
X137623734Y-80540847D01*
X137518734Y-80358982D01*
X137700599Y-80253982D01*
X137805599Y-80435847D01*
G37*
G36*
X138351195Y-80120847D02*
G01*
X138169330Y-80225847D01*
X138064330Y-80043982D01*
X138246195Y-79938982D01*
X138351195Y-80120847D01*
G37*
G36*
X138533061Y-80015847D02*
G01*
X138351195Y-80120847D01*
X138246195Y-79938982D01*
X138428061Y-79833982D01*
X138533061Y-80015847D01*
G37*
G36*
X139078657Y-79700847D02*
G01*
X138896791Y-79805847D01*
X138791791Y-79623982D01*
X138973657Y-79518982D01*
X139078657Y-79700847D01*
G37*
G36*
X139624253Y-79385847D02*
G01*
X139442387Y-79490847D01*
X139337387Y-79308982D01*
X139519253Y-79203982D01*
X139624253Y-79385847D01*
G37*
G36*
X139987983Y-79175847D02*
G01*
X139806118Y-79280847D01*
X139701118Y-79098982D01*
X139882983Y-78993982D01*
X139987983Y-79175847D01*
G37*
G36*
X118800515Y-81801924D02*
G01*
X118695515Y-81983789D01*
X118513650Y-81878789D01*
X118618650Y-81696924D01*
X118800515Y-81801924D01*
G37*
G36*
X118618650Y-81696924D02*
G01*
X118513650Y-81878789D01*
X118331785Y-81773789D01*
X118436785Y-81591924D01*
X118618650Y-81696924D01*
G37*
G36*
X118436785Y-81591924D02*
G01*
X118331785Y-81773789D01*
X118149919Y-81668789D01*
X118254919Y-81486924D01*
X118436785Y-81591924D01*
G37*
G36*
X118254919Y-81486924D02*
G01*
X118149919Y-81668789D01*
X117968054Y-81563789D01*
X118073054Y-81381924D01*
X118254919Y-81486924D01*
G37*
G36*
X118073054Y-81381924D02*
G01*
X117968054Y-81563789D01*
X117786189Y-81458789D01*
X117891189Y-81276924D01*
X118073054Y-81381924D01*
G37*
G36*
X117891189Y-81276924D02*
G01*
X117786189Y-81458789D01*
X117604323Y-81353789D01*
X117709323Y-81171924D01*
X117891189Y-81276924D01*
G37*
G36*
X117709323Y-81171924D02*
G01*
X117604323Y-81353789D01*
X117422458Y-81248789D01*
X117527458Y-81066924D01*
X117709323Y-81171924D01*
G37*
G36*
X117345593Y-80961924D02*
G01*
X117240593Y-81143789D01*
X117058727Y-81038789D01*
X117163727Y-80856924D01*
X117345593Y-80961924D01*
G37*
G36*
X117163727Y-80856924D02*
G01*
X117058727Y-81038789D01*
X116876862Y-80933789D01*
X116981862Y-80751924D01*
X117163727Y-80856924D01*
G37*
G36*
X116981862Y-80751924D02*
G01*
X116876862Y-80933789D01*
X116694997Y-80828789D01*
X116799997Y-80646924D01*
X116981862Y-80751924D01*
G37*
G36*
X116618131Y-80541924D02*
G01*
X116513131Y-80723789D01*
X116331266Y-80618789D01*
X116436266Y-80436924D01*
X116618131Y-80541924D01*
G37*
G36*
X116254401Y-80331924D02*
G01*
X116149401Y-80513789D01*
X115967535Y-80408789D01*
X116072535Y-80226924D01*
X116254401Y-80331924D01*
G37*
G36*
X116072535Y-80226924D02*
G01*
X115967535Y-80408789D01*
X115785670Y-80303789D01*
X115890670Y-80121924D01*
X116072535Y-80226924D01*
G37*
G36*
X115708805Y-80016924D02*
G01*
X115603805Y-80198789D01*
X115421939Y-80093789D01*
X115526939Y-79911924D01*
X115708805Y-80016924D01*
G37*
G36*
X115526939Y-79911924D02*
G01*
X115421939Y-80093789D01*
X115240074Y-79988789D01*
X115345074Y-79806924D01*
X115526939Y-79911924D01*
G37*
G36*
X115345074Y-79806924D02*
G01*
X115240074Y-79988789D01*
X115058209Y-79883789D01*
X115163209Y-79701924D01*
X115345074Y-79806924D01*
G37*
G36*
X115163209Y-79701924D02*
G01*
X115058209Y-79883789D01*
X114876343Y-79778789D01*
X114981343Y-79596924D01*
X115163209Y-79701924D01*
G37*
G36*
X114799478Y-79491924D02*
G01*
X114694478Y-79673789D01*
X114512613Y-79568789D01*
X114617613Y-79386924D01*
X114799478Y-79491924D01*
G37*
G36*
X114617613Y-79386924D02*
G01*
X114512613Y-79568789D01*
X114330747Y-79463789D01*
X114435747Y-79281924D01*
X114617613Y-79386924D01*
G37*
G36*
X114435747Y-79281924D02*
G01*
X114330747Y-79463789D01*
X114148882Y-79358789D01*
X114253882Y-79176924D01*
X114435747Y-79281924D01*
G37*
G36*
X114253882Y-79176924D02*
G01*
X114148882Y-79358789D01*
X113967017Y-79253789D01*
X114072017Y-79071924D01*
X114253882Y-79176924D01*
G37*
G36*
X114072017Y-79071924D02*
G01*
X113967017Y-79253789D01*
X113785151Y-79148789D01*
X113890151Y-78966924D01*
X114072017Y-79071924D01*
G37*
G36*
X113890151Y-78966924D02*
G01*
X113785151Y-79148789D01*
X113603286Y-79043789D01*
X113708286Y-78861924D01*
X113890151Y-78966924D01*
G37*
G36*
X113708286Y-78861924D02*
G01*
X113603286Y-79043789D01*
X113421421Y-78938789D01*
X113526421Y-78756924D01*
X113708286Y-78861924D01*
G37*
G36*
X118695515Y-81983789D02*
G01*
X118590515Y-82165654D01*
X118408650Y-82060654D01*
X118513650Y-81878789D01*
X118695515Y-81983789D01*
G37*
G36*
X117604323Y-81353789D02*
G01*
X117499323Y-81535654D01*
X117317458Y-81430654D01*
X117422458Y-81248789D01*
X117604323Y-81353789D01*
G37*
G36*
X117240593Y-81143789D02*
G01*
X117135593Y-81325654D01*
X116953727Y-81220654D01*
X117058727Y-81038789D01*
X117240593Y-81143789D01*
G37*
G36*
X117058727Y-81038789D02*
G01*
X116953727Y-81220654D01*
X116771862Y-81115654D01*
X116876862Y-80933789D01*
X117058727Y-81038789D01*
G37*
G36*
X115967535Y-80408789D02*
G01*
X115862535Y-80590654D01*
X115680670Y-80485654D01*
X115785670Y-80303789D01*
X115967535Y-80408789D01*
G37*
G36*
X115603805Y-80198789D02*
G01*
X115498805Y-80380654D01*
X115316939Y-80275654D01*
X115421939Y-80093789D01*
X115603805Y-80198789D01*
G37*
G36*
X115421939Y-80093789D02*
G01*
X115316939Y-80275654D01*
X115135074Y-80170654D01*
X115240074Y-79988789D01*
X115421939Y-80093789D01*
G37*
G36*
X114694478Y-79673789D02*
G01*
X114589478Y-79855654D01*
X114407613Y-79750654D01*
X114512613Y-79568789D01*
X114694478Y-79673789D01*
G37*
G36*
X113603286Y-79043789D02*
G01*
X113498286Y-79225654D01*
X113316421Y-79120654D01*
X113421421Y-78938789D01*
X113603286Y-79043789D01*
G37*
G36*
X118590515Y-82165654D02*
G01*
X118485515Y-82347520D01*
X118303650Y-82242520D01*
X118408650Y-82060654D01*
X118590515Y-82165654D01*
G37*
G36*
X118226785Y-81955654D02*
G01*
X118121785Y-82137520D01*
X117939919Y-82032520D01*
X118044919Y-81850654D01*
X118226785Y-81955654D01*
G37*
G36*
X118044919Y-81850654D02*
G01*
X117939919Y-82032520D01*
X117758054Y-81927520D01*
X117863054Y-81745654D01*
X118044919Y-81850654D01*
G37*
G36*
X117863054Y-81745654D02*
G01*
X117758054Y-81927520D01*
X117576189Y-81822520D01*
X117681189Y-81640654D01*
X117863054Y-81745654D01*
G37*
G36*
X117499323Y-81535654D02*
G01*
X117394323Y-81717520D01*
X117212458Y-81612520D01*
X117317458Y-81430654D01*
X117499323Y-81535654D01*
G37*
G36*
X116953727Y-81220654D02*
G01*
X116848727Y-81402520D01*
X116666862Y-81297520D01*
X116771862Y-81115654D01*
X116953727Y-81220654D01*
G37*
G36*
X116771862Y-81115654D02*
G01*
X116666862Y-81297520D01*
X116484997Y-81192520D01*
X116589997Y-81010654D01*
X116771862Y-81115654D01*
G37*
G36*
X116589997Y-81010654D02*
G01*
X116484997Y-81192520D01*
X116303131Y-81087520D01*
X116408131Y-80905654D01*
X116589997Y-81010654D01*
G37*
G36*
X116408131Y-80905654D02*
G01*
X116303131Y-81087520D01*
X116121266Y-80982520D01*
X116226266Y-80800654D01*
X116408131Y-80905654D01*
G37*
G36*
X115680670Y-80485654D02*
G01*
X115575670Y-80667520D01*
X115393805Y-80562520D01*
X115498805Y-80380654D01*
X115680670Y-80485654D01*
G37*
G36*
X115135074Y-80170654D02*
G01*
X115030074Y-80352520D01*
X114848209Y-80247520D01*
X114953209Y-80065654D01*
X115135074Y-80170654D01*
G37*
G36*
X114589478Y-79855654D02*
G01*
X114484478Y-80037520D01*
X114302613Y-79932520D01*
X114407613Y-79750654D01*
X114589478Y-79855654D01*
G37*
G36*
X114225747Y-79645654D02*
G01*
X114120747Y-79827520D01*
X113938882Y-79722520D01*
X114043882Y-79540654D01*
X114225747Y-79645654D01*
G37*
G36*
X114043882Y-79540654D02*
G01*
X113938882Y-79722520D01*
X113757017Y-79617520D01*
X113862017Y-79435654D01*
X114043882Y-79540654D01*
G37*
G36*
X113862017Y-79435654D02*
G01*
X113757017Y-79617520D01*
X113575151Y-79512520D01*
X113680151Y-79330654D01*
X113862017Y-79435654D01*
G37*
G36*
X113498286Y-79225654D02*
G01*
X113393286Y-79407520D01*
X113211421Y-79302520D01*
X113316421Y-79120654D01*
X113498286Y-79225654D01*
G37*
G36*
X118485515Y-82347520D02*
G01*
X118380515Y-82529385D01*
X118198650Y-82424385D01*
X118303650Y-82242520D01*
X118485515Y-82347520D01*
G37*
G36*
X118121785Y-82137520D02*
G01*
X118016785Y-82319385D01*
X117834919Y-82214385D01*
X117939919Y-82032520D01*
X118121785Y-82137520D01*
G37*
G36*
X117939919Y-82032520D02*
G01*
X117834919Y-82214385D01*
X117653054Y-82109385D01*
X117758054Y-81927520D01*
X117939919Y-82032520D01*
G37*
G36*
X117758054Y-81927520D02*
G01*
X117653054Y-82109385D01*
X117471189Y-82004385D01*
X117576189Y-81822520D01*
X117758054Y-81927520D01*
G37*
G36*
X117394323Y-81717520D02*
G01*
X117289323Y-81899385D01*
X117107458Y-81794385D01*
X117212458Y-81612520D01*
X117394323Y-81717520D01*
G37*
G36*
X116848727Y-81402520D02*
G01*
X116743727Y-81584385D01*
X116561862Y-81479385D01*
X116666862Y-81297520D01*
X116848727Y-81402520D01*
G37*
G36*
X116666862Y-81297520D02*
G01*
X116561862Y-81479385D01*
X116379997Y-81374385D01*
X116484997Y-81192520D01*
X116666862Y-81297520D01*
G37*
G36*
X116121266Y-80982520D02*
G01*
X116016266Y-81164385D01*
X115834401Y-81059385D01*
X115939401Y-80877520D01*
X116121266Y-80982520D01*
G37*
G36*
X115939401Y-80877520D02*
G01*
X115834401Y-81059385D01*
X115652535Y-80954385D01*
X115757535Y-80772520D01*
X115939401Y-80877520D01*
G37*
G36*
X115030074Y-80352520D02*
G01*
X114925074Y-80534385D01*
X114743209Y-80429385D01*
X114848209Y-80247520D01*
X115030074Y-80352520D01*
G37*
G36*
X114848209Y-80247520D02*
G01*
X114743209Y-80429385D01*
X114561343Y-80324385D01*
X114666343Y-80142520D01*
X114848209Y-80247520D01*
G37*
G36*
X114484478Y-80037520D02*
G01*
X114379478Y-80219385D01*
X114197613Y-80114385D01*
X114302613Y-79932520D01*
X114484478Y-80037520D01*
G37*
G36*
X114120747Y-79827520D02*
G01*
X114015747Y-80009385D01*
X113833882Y-79904385D01*
X113938882Y-79722520D01*
X114120747Y-79827520D01*
G37*
G36*
X113938882Y-79722520D02*
G01*
X113833882Y-79904385D01*
X113652017Y-79799385D01*
X113757017Y-79617520D01*
X113938882Y-79722520D01*
G37*
G36*
X113757017Y-79617520D02*
G01*
X113652017Y-79799385D01*
X113470151Y-79694385D01*
X113575151Y-79512520D01*
X113757017Y-79617520D01*
G37*
G36*
X113393286Y-79407520D02*
G01*
X113288286Y-79589385D01*
X113106421Y-79484385D01*
X113211421Y-79302520D01*
X113393286Y-79407520D01*
G37*
G36*
X118380515Y-82529385D02*
G01*
X118275515Y-82711250D01*
X118093650Y-82606250D01*
X118198650Y-82424385D01*
X118380515Y-82529385D01*
G37*
G36*
X118016785Y-82319385D02*
G01*
X117911785Y-82501250D01*
X117729919Y-82396250D01*
X117834919Y-82214385D01*
X118016785Y-82319385D01*
G37*
G36*
X117834919Y-82214385D02*
G01*
X117729919Y-82396250D01*
X117548054Y-82291250D01*
X117653054Y-82109385D01*
X117834919Y-82214385D01*
G37*
G36*
X117653054Y-82109385D02*
G01*
X117548054Y-82291250D01*
X117366189Y-82186250D01*
X117471189Y-82004385D01*
X117653054Y-82109385D01*
G37*
G36*
X117289323Y-81899385D02*
G01*
X117184323Y-82081250D01*
X117002458Y-81976250D01*
X117107458Y-81794385D01*
X117289323Y-81899385D01*
G37*
G36*
X116743727Y-81584385D02*
G01*
X116638727Y-81766250D01*
X116456862Y-81661250D01*
X116561862Y-81479385D01*
X116743727Y-81584385D01*
G37*
G36*
X116016266Y-81164385D02*
G01*
X115911266Y-81346250D01*
X115729401Y-81241250D01*
X115834401Y-81059385D01*
X116016266Y-81164385D01*
G37*
G36*
X115834401Y-81059385D02*
G01*
X115729401Y-81241250D01*
X115547535Y-81136250D01*
X115652535Y-80954385D01*
X115834401Y-81059385D01*
G37*
G36*
X115470670Y-80849385D02*
G01*
X115365670Y-81031250D01*
X115183805Y-80926250D01*
X115288805Y-80744385D01*
X115470670Y-80849385D01*
G37*
G36*
X115288805Y-80744385D02*
G01*
X115183805Y-80926250D01*
X115001939Y-80821250D01*
X115106939Y-80639385D01*
X115288805Y-80744385D01*
G37*
G36*
X114743209Y-80429385D02*
G01*
X114638209Y-80611250D01*
X114456343Y-80506250D01*
X114561343Y-80324385D01*
X114743209Y-80429385D01*
G37*
G36*
X114379478Y-80219385D02*
G01*
X114274478Y-80401250D01*
X114092613Y-80296250D01*
X114197613Y-80114385D01*
X114379478Y-80219385D01*
G37*
G36*
X114015747Y-80009385D02*
G01*
X113910747Y-80191250D01*
X113728882Y-80086250D01*
X113833882Y-79904385D01*
X114015747Y-80009385D01*
G37*
G36*
X113833882Y-79904385D02*
G01*
X113728882Y-80086250D01*
X113547017Y-79981250D01*
X113652017Y-79799385D01*
X113833882Y-79904385D01*
G37*
G36*
X113652017Y-79799385D02*
G01*
X113547017Y-79981250D01*
X113365151Y-79876250D01*
X113470151Y-79694385D01*
X113652017Y-79799385D01*
G37*
G36*
X113288286Y-79589385D02*
G01*
X113183286Y-79771250D01*
X113001421Y-79666250D01*
X113106421Y-79484385D01*
X113288286Y-79589385D01*
G37*
G36*
X118275515Y-82711250D02*
G01*
X118170515Y-82893116D01*
X117988650Y-82788116D01*
X118093650Y-82606250D01*
X118275515Y-82711250D01*
G37*
G36*
X117184323Y-82081250D02*
G01*
X117079323Y-82263116D01*
X116897458Y-82158116D01*
X117002458Y-81976250D01*
X117184323Y-82081250D01*
G37*
G36*
X116820593Y-81871250D02*
G01*
X116715593Y-82053116D01*
X116533727Y-81948116D01*
X116638727Y-81766250D01*
X116820593Y-81871250D01*
G37*
G36*
X116638727Y-81766250D02*
G01*
X116533727Y-81948116D01*
X116351862Y-81843116D01*
X116456862Y-81661250D01*
X116638727Y-81766250D01*
G37*
G36*
X116274997Y-81556250D02*
G01*
X116169997Y-81738116D01*
X115988131Y-81633116D01*
X116093131Y-81451250D01*
X116274997Y-81556250D01*
G37*
G36*
X115911266Y-81346250D02*
G01*
X115806266Y-81528116D01*
X115624401Y-81423116D01*
X115729401Y-81241250D01*
X115911266Y-81346250D01*
G37*
G36*
X114274478Y-80401250D02*
G01*
X114169478Y-80583116D01*
X113987613Y-80478116D01*
X114092613Y-80296250D01*
X114274478Y-80401250D01*
G37*
G36*
X113183286Y-79771250D02*
G01*
X113078286Y-79953116D01*
X112896421Y-79848116D01*
X113001421Y-79666250D01*
X113183286Y-79771250D01*
G37*
G36*
X118170515Y-82893116D02*
G01*
X118065515Y-83074981D01*
X117883650Y-82969981D01*
X117988650Y-82788116D01*
X118170515Y-82893116D01*
G37*
G36*
X117988650Y-82788116D02*
G01*
X117883650Y-82969981D01*
X117701785Y-82864981D01*
X117806785Y-82683116D01*
X117988650Y-82788116D01*
G37*
G36*
X117806785Y-82683116D02*
G01*
X117701785Y-82864981D01*
X117519919Y-82759981D01*
X117624919Y-82578116D01*
X117806785Y-82683116D01*
G37*
G36*
X117624919Y-82578116D02*
G01*
X117519919Y-82759981D01*
X117338054Y-82654981D01*
X117443054Y-82473116D01*
X117624919Y-82578116D01*
G37*
G36*
X117443054Y-82473116D02*
G01*
X117338054Y-82654981D01*
X117156189Y-82549981D01*
X117261189Y-82368116D01*
X117443054Y-82473116D01*
G37*
G36*
X117261189Y-82368116D02*
G01*
X117156189Y-82549981D01*
X116974323Y-82444981D01*
X117079323Y-82263116D01*
X117261189Y-82368116D01*
G37*
G36*
X117079323Y-82263116D02*
G01*
X116974323Y-82444981D01*
X116792458Y-82339981D01*
X116897458Y-82158116D01*
X117079323Y-82263116D01*
G37*
G36*
X116715593Y-82053116D02*
G01*
X116610593Y-82234981D01*
X116428727Y-82129981D01*
X116533727Y-81948116D01*
X116715593Y-82053116D01*
G37*
G36*
X116351862Y-81843116D02*
G01*
X116246862Y-82024981D01*
X116064997Y-81919981D01*
X116169997Y-81738116D01*
X116351862Y-81843116D01*
G37*
G36*
X115988131Y-81633116D02*
G01*
X115883131Y-81814981D01*
X115701266Y-81709981D01*
X115806266Y-81528116D01*
X115988131Y-81633116D01*
G37*
G36*
X115624401Y-81423116D02*
G01*
X115519401Y-81604981D01*
X115337535Y-81499981D01*
X115442535Y-81318116D01*
X115624401Y-81423116D01*
G37*
G36*
X115260670Y-81213116D02*
G01*
X115155670Y-81394981D01*
X114973805Y-81289981D01*
X115078805Y-81108116D01*
X115260670Y-81213116D01*
G37*
G36*
X114896939Y-81003116D02*
G01*
X114791939Y-81184981D01*
X114610074Y-81079981D01*
X114715074Y-80898116D01*
X114896939Y-81003116D01*
G37*
G36*
X114533209Y-80793116D02*
G01*
X114428209Y-80974981D01*
X114246343Y-80869981D01*
X114351343Y-80688116D01*
X114533209Y-80793116D01*
G37*
G36*
X114169478Y-80583116D02*
G01*
X114064478Y-80764981D01*
X113882613Y-80659981D01*
X113987613Y-80478116D01*
X114169478Y-80583116D01*
G37*
G36*
X113987613Y-80478116D02*
G01*
X113882613Y-80659981D01*
X113700747Y-80554981D01*
X113805747Y-80373116D01*
X113987613Y-80478116D01*
G37*
G36*
X113805747Y-80373116D02*
G01*
X113700747Y-80554981D01*
X113518882Y-80449981D01*
X113623882Y-80268116D01*
X113805747Y-80373116D01*
G37*
G36*
X113623882Y-80268116D02*
G01*
X113518882Y-80449981D01*
X113337017Y-80344981D01*
X113442017Y-80163116D01*
X113623882Y-80268116D01*
G37*
G36*
X113442017Y-80163116D02*
G01*
X113337017Y-80344981D01*
X113155151Y-80239981D01*
X113260151Y-80058116D01*
X113442017Y-80163116D01*
G37*
G36*
X113260151Y-80058116D02*
G01*
X113155151Y-80239981D01*
X112973286Y-80134981D01*
X113078286Y-79953116D01*
X113260151Y-80058116D01*
G37*
G36*
X113078286Y-79953116D02*
G01*
X112973286Y-80134981D01*
X112791421Y-80029981D01*
X112896421Y-79848116D01*
X113078286Y-79953116D01*
G37*
G36*
X116610593Y-82234981D02*
G01*
X116505593Y-82416846D01*
X116323727Y-82311846D01*
X116428727Y-82129981D01*
X116610593Y-82234981D01*
G37*
G36*
X116064997Y-81919981D02*
G01*
X115959997Y-82101846D01*
X115778131Y-81996846D01*
X115883131Y-81814981D01*
X116064997Y-81919981D01*
G37*
G36*
X115337535Y-81499981D02*
G01*
X115232535Y-81681846D01*
X115050670Y-81576846D01*
X115155670Y-81394981D01*
X115337535Y-81499981D01*
G37*
G36*
X115155670Y-81394981D02*
G01*
X115050670Y-81576846D01*
X114868805Y-81471846D01*
X114973805Y-81289981D01*
X115155670Y-81394981D01*
G37*
G36*
X114973805Y-81289981D02*
G01*
X114868805Y-81471846D01*
X114686939Y-81366846D01*
X114791939Y-81184981D01*
X114973805Y-81289981D01*
G37*
G36*
X114791939Y-81184981D02*
G01*
X114686939Y-81366846D01*
X114505074Y-81261846D01*
X114610074Y-81079981D01*
X114791939Y-81184981D01*
G37*
G36*
X114610074Y-81079981D02*
G01*
X114505074Y-81261846D01*
X114323209Y-81156846D01*
X114428209Y-80974981D01*
X114610074Y-81079981D01*
G37*
G36*
X114428209Y-80974981D02*
G01*
X114323209Y-81156846D01*
X114141343Y-81051846D01*
X114246343Y-80869981D01*
X114428209Y-80974981D01*
G37*
G36*
X117414919Y-82941846D02*
G01*
X117309919Y-83123712D01*
X117128054Y-83018712D01*
X117233054Y-82836846D01*
X117414919Y-82941846D01*
G37*
G36*
X117233054Y-82836846D02*
G01*
X117128054Y-83018712D01*
X116946189Y-82913712D01*
X117051189Y-82731846D01*
X117233054Y-82836846D01*
G37*
G36*
X116869323Y-82626846D02*
G01*
X116764323Y-82808712D01*
X116582458Y-82703712D01*
X116687458Y-82521846D01*
X116869323Y-82626846D01*
G37*
G36*
X115959997Y-82101846D02*
G01*
X115854997Y-82283712D01*
X115673131Y-82178712D01*
X115778131Y-81996846D01*
X115959997Y-82101846D01*
G37*
G36*
X115414401Y-81786846D02*
G01*
X115309401Y-81968712D01*
X115127535Y-81863712D01*
X115232535Y-81681846D01*
X115414401Y-81786846D01*
G37*
G36*
X114868805Y-81471846D02*
G01*
X114763805Y-81653712D01*
X114581939Y-81548712D01*
X114686939Y-81366846D01*
X114868805Y-81471846D01*
G37*
G36*
X114686939Y-81366846D02*
G01*
X114581939Y-81548712D01*
X114400074Y-81443712D01*
X114505074Y-81261846D01*
X114686939Y-81366846D01*
G37*
G36*
X114505074Y-81261846D02*
G01*
X114400074Y-81443712D01*
X114218209Y-81338712D01*
X114323209Y-81156846D01*
X114505074Y-81261846D01*
G37*
G36*
X114141343Y-81051846D02*
G01*
X114036343Y-81233712D01*
X113854478Y-81128712D01*
X113959478Y-80946846D01*
X114141343Y-81051846D01*
G37*
G36*
X113959478Y-80946846D02*
G01*
X113854478Y-81128712D01*
X113672613Y-81023712D01*
X113777613Y-80841846D01*
X113959478Y-80946846D01*
G37*
G36*
X113777613Y-80841846D02*
G01*
X113672613Y-81023712D01*
X113490747Y-80918712D01*
X113595747Y-80736846D01*
X113777613Y-80841846D01*
G37*
G36*
X113050151Y-80421846D02*
G01*
X112945151Y-80603712D01*
X112763286Y-80498712D01*
X112868286Y-80316846D01*
X113050151Y-80421846D01*
G37*
G36*
X112868286Y-80316846D02*
G01*
X112763286Y-80498712D01*
X112581421Y-80393712D01*
X112686421Y-80211846D01*
X112868286Y-80316846D01*
G37*
G36*
X117855515Y-83438712D02*
G01*
X117750515Y-83620577D01*
X117568650Y-83515577D01*
X117673650Y-83333712D01*
X117855515Y-83438712D01*
G37*
G36*
X117491785Y-83228712D02*
G01*
X117386785Y-83410577D01*
X117204919Y-83305577D01*
X117309919Y-83123712D01*
X117491785Y-83228712D01*
G37*
G36*
X116946189Y-82913712D02*
G01*
X116841189Y-83095577D01*
X116659323Y-82990577D01*
X116764323Y-82808712D01*
X116946189Y-82913712D01*
G37*
G36*
X116582458Y-82703712D02*
G01*
X116477458Y-82885577D01*
X116295593Y-82780577D01*
X116400593Y-82598712D01*
X116582458Y-82703712D01*
G37*
G36*
X116400593Y-82598712D02*
G01*
X116295593Y-82780577D01*
X116113727Y-82675577D01*
X116218727Y-82493712D01*
X116400593Y-82598712D01*
G37*
G36*
X116036862Y-82388712D02*
G01*
X115931862Y-82570577D01*
X115749997Y-82465577D01*
X115854997Y-82283712D01*
X116036862Y-82388712D01*
G37*
G36*
X115673131Y-82178712D02*
G01*
X115568131Y-82360577D01*
X115386266Y-82255577D01*
X115491266Y-82073712D01*
X115673131Y-82178712D01*
G37*
G36*
X115491266Y-82073712D02*
G01*
X115386266Y-82255577D01*
X115204401Y-82150577D01*
X115309401Y-81968712D01*
X115491266Y-82073712D01*
G37*
G36*
X115309401Y-81968712D02*
G01*
X115204401Y-82150577D01*
X115022535Y-82045577D01*
X115127535Y-81863712D01*
X115309401Y-81968712D01*
G37*
G36*
X114763805Y-81653712D02*
G01*
X114658805Y-81835577D01*
X114476939Y-81730577D01*
X114581939Y-81548712D01*
X114763805Y-81653712D01*
G37*
G36*
X114581939Y-81548712D02*
G01*
X114476939Y-81730577D01*
X114295074Y-81625577D01*
X114400074Y-81443712D01*
X114581939Y-81548712D01*
G37*
G36*
X114400074Y-81443712D02*
G01*
X114295074Y-81625577D01*
X114113209Y-81520577D01*
X114218209Y-81338712D01*
X114400074Y-81443712D01*
G37*
G36*
X114218209Y-81338712D02*
G01*
X114113209Y-81520577D01*
X113931343Y-81415577D01*
X114036343Y-81233712D01*
X114218209Y-81338712D01*
G37*
G36*
X113308882Y-80813712D02*
G01*
X113203882Y-80995577D01*
X113022017Y-80890577D01*
X113127017Y-80708712D01*
X113308882Y-80813712D01*
G37*
G36*
X117750515Y-83620577D02*
G01*
X117645515Y-83802442D01*
X117463650Y-83697442D01*
X117568650Y-83515577D01*
X117750515Y-83620577D01*
G37*
G36*
X117386785Y-83410577D02*
G01*
X117281785Y-83592442D01*
X117099919Y-83487442D01*
X117204919Y-83305577D01*
X117386785Y-83410577D01*
G37*
G36*
X117204919Y-83305577D02*
G01*
X117099919Y-83487442D01*
X116918054Y-83382442D01*
X117023054Y-83200577D01*
X117204919Y-83305577D01*
G37*
G36*
X117023054Y-83200577D02*
G01*
X116918054Y-83382442D01*
X116736189Y-83277442D01*
X116841189Y-83095577D01*
X117023054Y-83200577D01*
G37*
G36*
X116841189Y-83095577D02*
G01*
X116736189Y-83277442D01*
X116554323Y-83172442D01*
X116659323Y-82990577D01*
X116841189Y-83095577D01*
G37*
G36*
X116659323Y-82990577D02*
G01*
X116554323Y-83172442D01*
X116372458Y-83067442D01*
X116477458Y-82885577D01*
X116659323Y-82990577D01*
G37*
G36*
X116295593Y-82780577D02*
G01*
X116190593Y-82962442D01*
X116008727Y-82857442D01*
X116113727Y-82675577D01*
X116295593Y-82780577D01*
G37*
G36*
X116113727Y-82675577D02*
G01*
X116008727Y-82857442D01*
X115826862Y-82752442D01*
X115931862Y-82570577D01*
X116113727Y-82675577D01*
G37*
G36*
X115749997Y-82465577D02*
G01*
X115644997Y-82647442D01*
X115463131Y-82542442D01*
X115568131Y-82360577D01*
X115749997Y-82465577D01*
G37*
G36*
X115568131Y-82360577D02*
G01*
X115463131Y-82542442D01*
X115281266Y-82437442D01*
X115386266Y-82255577D01*
X115568131Y-82360577D01*
G37*
G36*
X115386266Y-82255577D02*
G01*
X115281266Y-82437442D01*
X115099401Y-82332442D01*
X115204401Y-82150577D01*
X115386266Y-82255577D01*
G37*
G36*
X115204401Y-82150577D02*
G01*
X115099401Y-82332442D01*
X114917535Y-82227442D01*
X115022535Y-82045577D01*
X115204401Y-82150577D01*
G37*
G36*
X114840670Y-81940577D02*
G01*
X114735670Y-82122442D01*
X114553805Y-82017442D01*
X114658805Y-81835577D01*
X114840670Y-81940577D01*
G37*
G36*
X114658805Y-81835577D02*
G01*
X114553805Y-82017442D01*
X114371939Y-81912442D01*
X114476939Y-81730577D01*
X114658805Y-81835577D01*
G37*
G36*
X114295074Y-81625577D02*
G01*
X114190074Y-81807442D01*
X114008209Y-81702442D01*
X114113209Y-81520577D01*
X114295074Y-81625577D01*
G37*
G36*
X113203882Y-80995577D02*
G01*
X113098882Y-81177442D01*
X112917017Y-81072442D01*
X113022017Y-80890577D01*
X113203882Y-80995577D01*
G37*
G36*
X113022017Y-80890577D02*
G01*
X112917017Y-81072442D01*
X112735151Y-80967442D01*
X112840151Y-80785577D01*
X113022017Y-80890577D01*
G37*
G36*
X117645515Y-83802442D02*
G01*
X117540515Y-83984308D01*
X117358650Y-83879308D01*
X117463650Y-83697442D01*
X117645515Y-83802442D01*
G37*
G36*
X117463650Y-83697442D02*
G01*
X117358650Y-83879308D01*
X117176785Y-83774308D01*
X117281785Y-83592442D01*
X117463650Y-83697442D01*
G37*
G36*
X117281785Y-83592442D02*
G01*
X117176785Y-83774308D01*
X116994919Y-83669308D01*
X117099919Y-83487442D01*
X117281785Y-83592442D01*
G37*
G36*
X117099919Y-83487442D02*
G01*
X116994919Y-83669308D01*
X116813054Y-83564308D01*
X116918054Y-83382442D01*
X117099919Y-83487442D01*
G37*
G36*
X115826862Y-82752442D02*
G01*
X115721862Y-82934308D01*
X115539997Y-82829308D01*
X115644997Y-82647442D01*
X115826862Y-82752442D01*
G37*
G36*
X115644997Y-82647442D02*
G01*
X115539997Y-82829308D01*
X115358131Y-82724308D01*
X115463131Y-82542442D01*
X115644997Y-82647442D01*
G37*
G36*
X114190074Y-81807442D02*
G01*
X114085074Y-81989308D01*
X113903209Y-81884308D01*
X114008209Y-81702442D01*
X114190074Y-81807442D01*
G37*
G36*
X114008209Y-81702442D02*
G01*
X113903209Y-81884308D01*
X113721343Y-81779308D01*
X113826343Y-81597442D01*
X114008209Y-81702442D01*
G37*
G36*
X113280747Y-81282442D02*
G01*
X113175747Y-81464308D01*
X112993882Y-81359308D01*
X113098882Y-81177442D01*
X113280747Y-81282442D01*
G37*
G36*
X112917017Y-81072442D02*
G01*
X112812017Y-81254308D01*
X112630151Y-81149308D01*
X112735151Y-80967442D01*
X112917017Y-81072442D01*
G37*
G36*
X112735151Y-80967442D02*
G01*
X112630151Y-81149308D01*
X112448286Y-81044308D01*
X112553286Y-80862442D01*
X112735151Y-80967442D01*
G37*
G36*
X112553286Y-80862442D02*
G01*
X112448286Y-81044308D01*
X112266421Y-80939308D01*
X112371421Y-80757442D01*
X112553286Y-80862442D01*
G37*
G36*
X117358650Y-83879308D02*
G01*
X117253650Y-84061173D01*
X117071785Y-83956173D01*
X117176785Y-83774308D01*
X117358650Y-83879308D01*
G37*
G36*
X116813054Y-83564308D02*
G01*
X116708054Y-83746173D01*
X116526189Y-83641173D01*
X116631189Y-83459308D01*
X116813054Y-83564308D01*
G37*
G36*
X116449323Y-83354308D02*
G01*
X116344323Y-83536173D01*
X116162458Y-83431173D01*
X116267458Y-83249308D01*
X116449323Y-83354308D01*
G37*
G36*
X116267458Y-83249308D02*
G01*
X116162458Y-83431173D01*
X115980593Y-83326173D01*
X116085593Y-83144308D01*
X116267458Y-83249308D01*
G37*
G36*
X116085593Y-83144308D02*
G01*
X115980593Y-83326173D01*
X115798727Y-83221173D01*
X115903727Y-83039308D01*
X116085593Y-83144308D01*
G37*
G36*
X115721862Y-82934308D02*
G01*
X115616862Y-83116173D01*
X115434997Y-83011173D01*
X115539997Y-82829308D01*
X115721862Y-82934308D01*
G37*
G36*
X115176266Y-82619308D02*
G01*
X115071266Y-82801173D01*
X114889401Y-82696173D01*
X114994401Y-82514308D01*
X115176266Y-82619308D01*
G37*
G36*
X114812535Y-82409308D02*
G01*
X114707535Y-82591173D01*
X114525670Y-82486173D01*
X114630670Y-82304308D01*
X114812535Y-82409308D01*
G37*
G36*
X114630670Y-82304308D02*
G01*
X114525670Y-82486173D01*
X114343805Y-82381173D01*
X114448805Y-82199308D01*
X114630670Y-82304308D01*
G37*
G36*
X114266939Y-82094308D02*
G01*
X114161939Y-82276173D01*
X113980074Y-82171173D01*
X114085074Y-81989308D01*
X114266939Y-82094308D01*
G37*
G36*
X113721343Y-81779308D02*
G01*
X113616343Y-81961173D01*
X113434478Y-81856173D01*
X113539478Y-81674308D01*
X113721343Y-81779308D01*
G37*
G36*
X113357613Y-81569308D02*
G01*
X113252613Y-81751173D01*
X113070747Y-81646173D01*
X113175747Y-81464308D01*
X113357613Y-81569308D01*
G37*
G36*
X113175747Y-81464308D02*
G01*
X113070747Y-81646173D01*
X112888882Y-81541173D01*
X112993882Y-81359308D01*
X113175747Y-81464308D01*
G37*
G36*
X112812017Y-81254308D02*
G01*
X112707017Y-81436173D01*
X112525151Y-81331173D01*
X112630151Y-81149308D01*
X112812017Y-81254308D01*
G37*
G36*
X112448286Y-81044308D02*
G01*
X112343286Y-81226173D01*
X112161421Y-81121173D01*
X112266421Y-80939308D01*
X112448286Y-81044308D01*
G37*
G36*
X117435515Y-84166173D02*
G01*
X117330515Y-84348038D01*
X117148650Y-84243038D01*
X117253650Y-84061173D01*
X117435515Y-84166173D01*
G37*
G36*
X117253650Y-84061173D02*
G01*
X117148650Y-84243038D01*
X116966785Y-84138038D01*
X117071785Y-83956173D01*
X117253650Y-84061173D01*
G37*
G36*
X116889919Y-83851173D02*
G01*
X116784919Y-84033038D01*
X116603054Y-83928038D01*
X116708054Y-83746173D01*
X116889919Y-83851173D01*
G37*
G36*
X116708054Y-83746173D02*
G01*
X116603054Y-83928038D01*
X116421189Y-83823038D01*
X116526189Y-83641173D01*
X116708054Y-83746173D01*
G37*
G36*
X115980593Y-83326173D02*
G01*
X115875593Y-83508038D01*
X115693727Y-83403038D01*
X115798727Y-83221173D01*
X115980593Y-83326173D01*
G37*
G36*
X115253131Y-82906173D02*
G01*
X115148131Y-83088038D01*
X114966266Y-82983038D01*
X115071266Y-82801173D01*
X115253131Y-82906173D01*
G37*
G36*
X114525670Y-82486173D02*
G01*
X114420670Y-82668038D01*
X114238805Y-82563038D01*
X114343805Y-82381173D01*
X114525670Y-82486173D01*
G37*
G36*
X114343805Y-82381173D02*
G01*
X114238805Y-82563038D01*
X114056939Y-82458038D01*
X114161939Y-82276173D01*
X114343805Y-82381173D01*
G37*
G36*
X114161939Y-82276173D02*
G01*
X114056939Y-82458038D01*
X113875074Y-82353038D01*
X113980074Y-82171173D01*
X114161939Y-82276173D01*
G37*
G36*
X113798209Y-82066173D02*
G01*
X113693209Y-82248038D01*
X113511343Y-82143038D01*
X113616343Y-81961173D01*
X113798209Y-82066173D01*
G37*
G36*
X117330515Y-84348038D02*
G01*
X117225515Y-84529904D01*
X117043650Y-84424904D01*
X117148650Y-84243038D01*
X117330515Y-84348038D01*
G37*
G36*
X117148650Y-84243038D02*
G01*
X117043650Y-84424904D01*
X116861785Y-84319904D01*
X116966785Y-84138038D01*
X117148650Y-84243038D01*
G37*
G36*
X116966785Y-84138038D02*
G01*
X116861785Y-84319904D01*
X116679919Y-84214904D01*
X116784919Y-84033038D01*
X116966785Y-84138038D01*
G37*
G36*
X116239323Y-83718038D02*
G01*
X116134323Y-83899904D01*
X115952458Y-83794904D01*
X116057458Y-83613038D01*
X116239323Y-83718038D01*
G37*
G36*
X115875593Y-83508038D02*
G01*
X115770593Y-83689904D01*
X115588727Y-83584904D01*
X115693727Y-83403038D01*
X115875593Y-83508038D01*
G37*
G36*
X115511862Y-83298038D02*
G01*
X115406862Y-83479904D01*
X115224997Y-83374904D01*
X115329997Y-83193038D01*
X115511862Y-83298038D01*
G37*
G36*
X114966266Y-82983038D02*
G01*
X114861266Y-83164904D01*
X114679401Y-83059904D01*
X114784401Y-82878038D01*
X114966266Y-82983038D01*
G37*
G36*
X114602535Y-82773038D02*
G01*
X114497535Y-82954904D01*
X114315670Y-82849904D01*
X114420670Y-82668038D01*
X114602535Y-82773038D01*
G37*
G36*
X114420670Y-82668038D02*
G01*
X114315670Y-82849904D01*
X114133805Y-82744904D01*
X114238805Y-82563038D01*
X114420670Y-82668038D01*
G37*
G36*
X114056939Y-82458038D02*
G01*
X113951939Y-82639904D01*
X113770074Y-82534904D01*
X113875074Y-82353038D01*
X114056939Y-82458038D01*
G37*
G36*
X113875074Y-82353038D02*
G01*
X113770074Y-82534904D01*
X113588209Y-82429904D01*
X113693209Y-82248038D01*
X113875074Y-82353038D01*
G37*
G36*
X113693209Y-82248038D02*
G01*
X113588209Y-82429904D01*
X113406343Y-82324904D01*
X113511343Y-82143038D01*
X113693209Y-82248038D01*
G37*
G36*
X112602017Y-81618038D02*
G01*
X112497017Y-81799904D01*
X112315151Y-81694904D01*
X112420151Y-81513038D01*
X112602017Y-81618038D01*
G37*
G36*
X116861785Y-84319904D02*
G01*
X116756785Y-84501769D01*
X116574919Y-84396769D01*
X116679919Y-84214904D01*
X116861785Y-84319904D01*
G37*
G36*
X116679919Y-84214904D02*
G01*
X116574919Y-84396769D01*
X116393054Y-84291769D01*
X116498054Y-84109904D01*
X116679919Y-84214904D01*
G37*
G36*
X115406862Y-83479904D02*
G01*
X115301862Y-83661769D01*
X115119997Y-83556769D01*
X115224997Y-83374904D01*
X115406862Y-83479904D01*
G37*
G36*
X115224997Y-83374904D02*
G01*
X115119997Y-83556769D01*
X114938131Y-83451769D01*
X115043131Y-83269904D01*
X115224997Y-83374904D01*
G37*
G36*
X114861266Y-83164904D02*
G01*
X114756266Y-83346769D01*
X114574401Y-83241769D01*
X114679401Y-83059904D01*
X114861266Y-83164904D01*
G37*
G36*
X114679401Y-83059904D02*
G01*
X114574401Y-83241769D01*
X114392535Y-83136769D01*
X114497535Y-82954904D01*
X114679401Y-83059904D01*
G37*
G36*
X114497535Y-82954904D02*
G01*
X114392535Y-83136769D01*
X114210670Y-83031769D01*
X114315670Y-82849904D01*
X114497535Y-82954904D01*
G37*
G36*
X114133805Y-82744904D02*
G01*
X114028805Y-82926769D01*
X113846939Y-82821769D01*
X113951939Y-82639904D01*
X114133805Y-82744904D01*
G37*
G36*
X113951939Y-82639904D02*
G01*
X113846939Y-82821769D01*
X113665074Y-82716769D01*
X113770074Y-82534904D01*
X113951939Y-82639904D01*
G37*
G36*
X113406343Y-82324904D02*
G01*
X113301343Y-82506769D01*
X113119478Y-82401769D01*
X113224478Y-82219904D01*
X113406343Y-82324904D01*
G37*
G36*
X113224478Y-82219904D02*
G01*
X113119478Y-82401769D01*
X112937613Y-82296769D01*
X113042613Y-82114904D01*
X113224478Y-82219904D01*
G37*
G36*
X112860747Y-82009904D02*
G01*
X112755747Y-82191769D01*
X112573882Y-82086769D01*
X112678882Y-81904904D01*
X112860747Y-82009904D01*
G37*
G36*
X112678882Y-81904904D02*
G01*
X112573882Y-82086769D01*
X112392017Y-81981769D01*
X112497017Y-81799904D01*
X112678882Y-81904904D01*
G37*
G36*
X112497017Y-81799904D02*
G01*
X112392017Y-81981769D01*
X112210151Y-81876769D01*
X112315151Y-81694904D01*
X112497017Y-81799904D01*
G37*
G36*
X112315151Y-81694904D02*
G01*
X112210151Y-81876769D01*
X112028286Y-81771769D01*
X112133286Y-81589904D01*
X112315151Y-81694904D01*
G37*
G36*
X112133286Y-81589904D02*
G01*
X112028286Y-81771769D01*
X111846421Y-81666769D01*
X111951421Y-81484904D01*
X112133286Y-81589904D01*
G37*
G36*
X116938650Y-84606769D02*
G01*
X116833650Y-84788634D01*
X116651785Y-84683634D01*
X116756785Y-84501769D01*
X116938650Y-84606769D01*
G37*
G36*
X116574919Y-84396769D02*
G01*
X116469919Y-84578634D01*
X116288054Y-84473634D01*
X116393054Y-84291769D01*
X116574919Y-84396769D01*
G37*
G36*
X116393054Y-84291769D02*
G01*
X116288054Y-84473634D01*
X116106189Y-84368634D01*
X116211189Y-84186769D01*
X116393054Y-84291769D01*
G37*
G36*
X116029323Y-84081769D02*
G01*
X115924323Y-84263634D01*
X115742458Y-84158634D01*
X115847458Y-83976769D01*
X116029323Y-84081769D01*
G37*
G36*
X115847458Y-83976769D02*
G01*
X115742458Y-84158634D01*
X115560593Y-84053634D01*
X115665593Y-83871769D01*
X115847458Y-83976769D01*
G37*
G36*
X115301862Y-83661769D02*
G01*
X115196862Y-83843634D01*
X115014997Y-83738634D01*
X115119997Y-83556769D01*
X115301862Y-83661769D01*
G37*
G36*
X115119997Y-83556769D02*
G01*
X115014997Y-83738634D01*
X114833131Y-83633634D01*
X114938131Y-83451769D01*
X115119997Y-83556769D01*
G37*
G36*
X114938131Y-83451769D02*
G01*
X114833131Y-83633634D01*
X114651266Y-83528634D01*
X114756266Y-83346769D01*
X114938131Y-83451769D01*
G37*
G36*
X114028805Y-82926769D02*
G01*
X113923805Y-83108634D01*
X113741939Y-83003634D01*
X113846939Y-82821769D01*
X114028805Y-82926769D01*
G37*
G36*
X113846939Y-82821769D02*
G01*
X113741939Y-83003634D01*
X113560074Y-82898634D01*
X113665074Y-82716769D01*
X113846939Y-82821769D01*
G37*
G36*
X113119478Y-82401769D02*
G01*
X113014478Y-82583634D01*
X112832613Y-82478634D01*
X112937613Y-82296769D01*
X113119478Y-82401769D01*
G37*
G36*
X112755747Y-82191769D02*
G01*
X112650747Y-82373634D01*
X112468882Y-82268634D01*
X112573882Y-82086769D01*
X112755747Y-82191769D01*
G37*
G36*
X112573882Y-82086769D02*
G01*
X112468882Y-82268634D01*
X112287017Y-82163634D01*
X112392017Y-81981769D01*
X112573882Y-82086769D01*
G37*
G36*
X112210151Y-81876769D02*
G01*
X112105151Y-82058634D01*
X111923286Y-81953634D01*
X112028286Y-81771769D01*
X112210151Y-81876769D01*
G37*
G36*
X117015515Y-84893634D02*
G01*
X116910515Y-85075500D01*
X116728650Y-84970500D01*
X116833650Y-84788634D01*
X117015515Y-84893634D01*
G37*
G36*
X116833650Y-84788634D02*
G01*
X116728650Y-84970500D01*
X116546785Y-84865500D01*
X116651785Y-84683634D01*
X116833650Y-84788634D01*
G37*
G36*
X115560593Y-84053634D02*
G01*
X115455593Y-84235500D01*
X115273727Y-84130500D01*
X115378727Y-83948634D01*
X115560593Y-84053634D01*
G37*
G36*
X115196862Y-83843634D02*
G01*
X115091862Y-84025500D01*
X114909997Y-83920500D01*
X115014997Y-83738634D01*
X115196862Y-83843634D01*
G37*
G36*
X114651266Y-83528634D02*
G01*
X114546266Y-83710500D01*
X114364401Y-83605500D01*
X114469401Y-83423634D01*
X114651266Y-83528634D01*
G37*
G36*
X114105670Y-83213634D02*
G01*
X114000670Y-83395500D01*
X113818805Y-83290500D01*
X113923805Y-83108634D01*
X114105670Y-83213634D01*
G37*
G36*
X113741939Y-83003634D02*
G01*
X113636939Y-83185500D01*
X113455074Y-83080500D01*
X113560074Y-82898634D01*
X113741939Y-83003634D01*
G37*
G36*
X113378209Y-82793634D02*
G01*
X113273209Y-82975500D01*
X113091343Y-82870500D01*
X113196343Y-82688634D01*
X113378209Y-82793634D01*
G37*
G36*
X112287017Y-82163634D02*
G01*
X112182017Y-82345500D01*
X112000151Y-82240500D01*
X112105151Y-82058634D01*
X112287017Y-82163634D01*
G37*
G36*
X111923286Y-81953634D02*
G01*
X111818286Y-82135500D01*
X111636421Y-82030500D01*
X111741421Y-81848634D01*
X111923286Y-81953634D01*
G37*
G36*
X116728650Y-84970500D02*
G01*
X116623650Y-85152365D01*
X116441785Y-85047365D01*
X116546785Y-84865500D01*
X116728650Y-84970500D01*
G37*
G36*
X116183054Y-84655500D02*
G01*
X116078054Y-84837365D01*
X115896189Y-84732365D01*
X116001189Y-84550500D01*
X116183054Y-84655500D01*
G37*
G36*
X116001189Y-84550500D02*
G01*
X115896189Y-84732365D01*
X115714323Y-84627365D01*
X115819323Y-84445500D01*
X116001189Y-84550500D01*
G37*
G36*
X115819323Y-84445500D02*
G01*
X115714323Y-84627365D01*
X115532458Y-84522365D01*
X115637458Y-84340500D01*
X115819323Y-84445500D01*
G37*
G36*
X115273727Y-84130500D02*
G01*
X115168727Y-84312365D01*
X114986862Y-84207365D01*
X115091862Y-84025500D01*
X115273727Y-84130500D01*
G37*
G36*
X115091862Y-84025500D02*
G01*
X114986862Y-84207365D01*
X114804997Y-84102365D01*
X114909997Y-83920500D01*
X115091862Y-84025500D01*
G37*
G36*
X114546266Y-83710500D02*
G01*
X114441266Y-83892365D01*
X114259401Y-83787365D01*
X114364401Y-83605500D01*
X114546266Y-83710500D01*
G37*
G36*
X114364401Y-83605500D02*
G01*
X114259401Y-83787365D01*
X114077535Y-83682365D01*
X114182535Y-83500500D01*
X114364401Y-83605500D01*
G37*
G36*
X114182535Y-83500500D02*
G01*
X114077535Y-83682365D01*
X113895670Y-83577365D01*
X114000670Y-83395500D01*
X114182535Y-83500500D01*
G37*
G36*
X113455074Y-83080500D02*
G01*
X113350074Y-83262365D01*
X113168209Y-83157365D01*
X113273209Y-82975500D01*
X113455074Y-83080500D01*
G37*
G36*
X113091343Y-82870500D02*
G01*
X112986343Y-83052365D01*
X112804478Y-82947365D01*
X112909478Y-82765500D01*
X113091343Y-82870500D01*
G37*
G36*
X112182017Y-82345500D02*
G01*
X112077017Y-82527365D01*
X111895151Y-82422365D01*
X112000151Y-82240500D01*
X112182017Y-82345500D01*
G37*
G36*
X112000151Y-82240500D02*
G01*
X111895151Y-82422365D01*
X111713286Y-82317365D01*
X111818286Y-82135500D01*
X112000151Y-82240500D01*
G37*
G36*
X116441785Y-85047365D02*
G01*
X116336785Y-85229230D01*
X116154919Y-85124230D01*
X116259919Y-84942365D01*
X116441785Y-85047365D01*
G37*
G36*
X116259919Y-84942365D02*
G01*
X116154919Y-85124230D01*
X115973054Y-85019230D01*
X116078054Y-84837365D01*
X116259919Y-84942365D01*
G37*
G36*
X116078054Y-84837365D02*
G01*
X115973054Y-85019230D01*
X115791189Y-84914230D01*
X115896189Y-84732365D01*
X116078054Y-84837365D01*
G37*
G36*
X115168727Y-84312365D02*
G01*
X115063727Y-84494230D01*
X114881862Y-84389230D01*
X114986862Y-84207365D01*
X115168727Y-84312365D01*
G37*
G36*
X114077535Y-83682365D02*
G01*
X113972535Y-83864230D01*
X113790670Y-83759230D01*
X113895670Y-83577365D01*
X114077535Y-83682365D01*
G37*
G36*
X113895670Y-83577365D02*
G01*
X113790670Y-83759230D01*
X113608805Y-83654230D01*
X113713805Y-83472365D01*
X113895670Y-83577365D01*
G37*
G36*
X113713805Y-83472365D02*
G01*
X113608805Y-83654230D01*
X113426939Y-83549230D01*
X113531939Y-83367365D01*
X113713805Y-83472365D01*
G37*
G36*
X113531939Y-83367365D02*
G01*
X113426939Y-83549230D01*
X113245074Y-83444230D01*
X113350074Y-83262365D01*
X113531939Y-83367365D01*
G37*
G36*
X113168209Y-83157365D02*
G01*
X113063209Y-83339230D01*
X112881343Y-83234230D01*
X112986343Y-83052365D01*
X113168209Y-83157365D01*
G37*
G36*
X112804478Y-82947365D02*
G01*
X112699478Y-83129230D01*
X112517613Y-83024230D01*
X112622613Y-82842365D01*
X112804478Y-82947365D01*
G37*
G36*
X112622613Y-82842365D02*
G01*
X112517613Y-83024230D01*
X112335747Y-82919230D01*
X112440747Y-82737365D01*
X112622613Y-82842365D01*
G37*
G36*
X112440747Y-82737365D02*
G01*
X112335747Y-82919230D01*
X112153882Y-82814230D01*
X112258882Y-82632365D01*
X112440747Y-82737365D01*
G37*
G36*
X112258882Y-82632365D02*
G01*
X112153882Y-82814230D01*
X111972017Y-82709230D01*
X112077017Y-82527365D01*
X112258882Y-82632365D01*
G37*
G36*
X112077017Y-82527365D02*
G01*
X111972017Y-82709230D01*
X111790151Y-82604230D01*
X111895151Y-82422365D01*
X112077017Y-82527365D01*
G37*
G36*
X111713286Y-82317365D02*
G01*
X111608286Y-82499230D01*
X111426421Y-82394230D01*
X111531421Y-82212365D01*
X111713286Y-82317365D01*
G37*
G36*
X116336785Y-85229230D02*
G01*
X116231785Y-85411096D01*
X116049919Y-85306096D01*
X116154919Y-85124230D01*
X116336785Y-85229230D01*
G37*
G36*
X116154919Y-85124230D02*
G01*
X116049919Y-85306096D01*
X115868054Y-85201096D01*
X115973054Y-85019230D01*
X116154919Y-85124230D01*
G37*
G36*
X115973054Y-85019230D02*
G01*
X115868054Y-85201096D01*
X115686189Y-85096096D01*
X115791189Y-84914230D01*
X115973054Y-85019230D01*
G37*
G36*
X115791189Y-84914230D02*
G01*
X115686189Y-85096096D01*
X115504323Y-84991096D01*
X115609323Y-84809230D01*
X115791189Y-84914230D01*
G37*
G36*
X115609323Y-84809230D02*
G01*
X115504323Y-84991096D01*
X115322458Y-84886096D01*
X115427458Y-84704230D01*
X115609323Y-84809230D01*
G37*
G36*
X114518131Y-84179230D02*
G01*
X114413131Y-84361096D01*
X114231266Y-84256096D01*
X114336266Y-84074230D01*
X114518131Y-84179230D01*
G37*
G36*
X114336266Y-84074230D02*
G01*
X114231266Y-84256096D01*
X114049401Y-84151096D01*
X114154401Y-83969230D01*
X114336266Y-84074230D01*
G37*
G36*
X114154401Y-83969230D02*
G01*
X114049401Y-84151096D01*
X113867535Y-84046096D01*
X113972535Y-83864230D01*
X114154401Y-83969230D01*
G37*
G36*
X113245074Y-83444230D02*
G01*
X113140074Y-83626096D01*
X112958209Y-83521096D01*
X113063209Y-83339230D01*
X113245074Y-83444230D01*
G37*
G36*
X113063209Y-83339230D02*
G01*
X112958209Y-83521096D01*
X112776343Y-83416096D01*
X112881343Y-83234230D01*
X113063209Y-83339230D01*
G37*
G36*
X112881343Y-83234230D02*
G01*
X112776343Y-83416096D01*
X112594478Y-83311096D01*
X112699478Y-83129230D01*
X112881343Y-83234230D01*
G37*
G36*
X112699478Y-83129230D02*
G01*
X112594478Y-83311096D01*
X112412613Y-83206096D01*
X112517613Y-83024230D01*
X112699478Y-83129230D01*
G37*
G36*
X112517613Y-83024230D02*
G01*
X112412613Y-83206096D01*
X112230747Y-83101096D01*
X112335747Y-82919230D01*
X112517613Y-83024230D01*
G37*
G36*
X112335747Y-82919230D02*
G01*
X112230747Y-83101096D01*
X112048882Y-82996096D01*
X112153882Y-82814230D01*
X112335747Y-82919230D01*
G37*
G36*
X112153882Y-82814230D02*
G01*
X112048882Y-82996096D01*
X111867017Y-82891096D01*
X111972017Y-82709230D01*
X112153882Y-82814230D01*
G37*
G36*
X111972017Y-82709230D02*
G01*
X111867017Y-82891096D01*
X111685151Y-82786096D01*
X111790151Y-82604230D01*
X111972017Y-82709230D01*
G37*
G36*
X114958727Y-84676096D02*
G01*
X114853727Y-84857961D01*
X114671862Y-84752961D01*
X114776862Y-84571096D01*
X114958727Y-84676096D01*
G37*
G36*
X114594997Y-84466096D02*
G01*
X114489997Y-84647961D01*
X114308131Y-84542961D01*
X114413131Y-84361096D01*
X114594997Y-84466096D01*
G37*
G36*
X114049401Y-84151096D02*
G01*
X113944401Y-84332961D01*
X113762535Y-84227961D01*
X113867535Y-84046096D01*
X114049401Y-84151096D01*
G37*
G36*
X113685670Y-83941096D02*
G01*
X113580670Y-84122961D01*
X113398805Y-84017961D01*
X113503805Y-83836096D01*
X113685670Y-83941096D01*
G37*
G36*
X112958209Y-83521096D02*
G01*
X112853209Y-83702961D01*
X112671343Y-83597961D01*
X112776343Y-83416096D01*
X112958209Y-83521096D01*
G37*
G36*
X112230747Y-83101096D02*
G01*
X112125747Y-83282961D01*
X111943882Y-83177961D01*
X112048882Y-82996096D01*
X112230747Y-83101096D01*
G37*
G36*
X112048882Y-82996096D02*
G01*
X111943882Y-83177961D01*
X111762017Y-83072961D01*
X111867017Y-82891096D01*
X112048882Y-82996096D01*
G37*
G36*
X111867017Y-82891096D02*
G01*
X111762017Y-83072961D01*
X111580151Y-82967961D01*
X111685151Y-82786096D01*
X111867017Y-82891096D01*
G37*
G36*
X116490515Y-85802961D02*
G01*
X116385515Y-85984826D01*
X116203650Y-85879826D01*
X116308650Y-85697961D01*
X116490515Y-85802961D01*
G37*
G36*
X116308650Y-85697961D02*
G01*
X116203650Y-85879826D01*
X116021785Y-85774826D01*
X116126785Y-85592961D01*
X116308650Y-85697961D01*
G37*
G36*
X116126785Y-85592961D02*
G01*
X116021785Y-85774826D01*
X115839919Y-85669826D01*
X115944919Y-85487961D01*
X116126785Y-85592961D01*
G37*
G36*
X115944919Y-85487961D02*
G01*
X115839919Y-85669826D01*
X115658054Y-85564826D01*
X115763054Y-85382961D01*
X115944919Y-85487961D01*
G37*
G36*
X115763054Y-85382961D02*
G01*
X115658054Y-85564826D01*
X115476189Y-85459826D01*
X115581189Y-85277961D01*
X115763054Y-85382961D01*
G37*
G36*
X115581189Y-85277961D02*
G01*
X115476189Y-85459826D01*
X115294323Y-85354826D01*
X115399323Y-85172961D01*
X115581189Y-85277961D01*
G37*
G36*
X115399323Y-85172961D02*
G01*
X115294323Y-85354826D01*
X115112458Y-85249826D01*
X115217458Y-85067961D01*
X115399323Y-85172961D01*
G37*
G36*
X114308131Y-84542961D02*
G01*
X114203131Y-84724826D01*
X114021266Y-84619826D01*
X114126266Y-84437961D01*
X114308131Y-84542961D01*
G37*
G36*
X114126266Y-84437961D02*
G01*
X114021266Y-84619826D01*
X113839401Y-84514826D01*
X113944401Y-84332961D01*
X114126266Y-84437961D01*
G37*
G36*
X113398805Y-84017961D02*
G01*
X113293805Y-84199826D01*
X113111939Y-84094826D01*
X113216939Y-83912961D01*
X113398805Y-84017961D01*
G37*
G36*
X113035074Y-83807961D02*
G01*
X112930074Y-83989826D01*
X112748209Y-83884826D01*
X112853209Y-83702961D01*
X113035074Y-83807961D01*
G37*
G36*
X112853209Y-83702961D02*
G01*
X112748209Y-83884826D01*
X112566343Y-83779826D01*
X112671343Y-83597961D01*
X112853209Y-83702961D01*
G37*
G36*
X112489478Y-83492961D02*
G01*
X112384478Y-83674826D01*
X112202613Y-83569826D01*
X112307613Y-83387961D01*
X112489478Y-83492961D01*
G37*
G36*
X112125747Y-83282961D02*
G01*
X112020747Y-83464826D01*
X111838882Y-83359826D01*
X111943882Y-83177961D01*
X112125747Y-83282961D01*
G37*
G36*
X111762017Y-83072961D02*
G01*
X111657017Y-83254826D01*
X111475151Y-83149826D01*
X111580151Y-82967961D01*
X111762017Y-83072961D01*
G37*
G36*
X111580151Y-82967961D02*
G01*
X111475151Y-83149826D01*
X111293286Y-83044826D01*
X111398286Y-82862961D01*
X111580151Y-82967961D01*
G37*
G36*
X111398286Y-82862961D02*
G01*
X111293286Y-83044826D01*
X111111421Y-82939826D01*
X111216421Y-82757961D01*
X111398286Y-82862961D01*
G37*
G36*
X116385515Y-85984826D02*
G01*
X116280515Y-86166692D01*
X116098650Y-86061692D01*
X116203650Y-85879826D01*
X116385515Y-85984826D01*
G37*
G36*
X115294323Y-85354826D02*
G01*
X115189323Y-85536692D01*
X115007458Y-85431692D01*
X115112458Y-85249826D01*
X115294323Y-85354826D01*
G37*
G36*
X114748727Y-85039826D02*
G01*
X114643727Y-85221692D01*
X114461862Y-85116692D01*
X114566862Y-84934826D01*
X114748727Y-85039826D01*
G37*
G36*
X114203131Y-84724826D02*
G01*
X114098131Y-84906692D01*
X113916266Y-84801692D01*
X114021266Y-84619826D01*
X114203131Y-84724826D01*
G37*
G36*
X114021266Y-84619826D02*
G01*
X113916266Y-84801692D01*
X113734401Y-84696692D01*
X113839401Y-84514826D01*
X114021266Y-84619826D01*
G37*
G36*
X113657535Y-84409826D02*
G01*
X113552535Y-84591692D01*
X113370670Y-84486692D01*
X113475670Y-84304826D01*
X113657535Y-84409826D01*
G37*
G36*
X113475670Y-84304826D02*
G01*
X113370670Y-84486692D01*
X113188805Y-84381692D01*
X113293805Y-84199826D01*
X113475670Y-84304826D01*
G37*
G36*
X113293805Y-84199826D02*
G01*
X113188805Y-84381692D01*
X113006939Y-84276692D01*
X113111939Y-84094826D01*
X113293805Y-84199826D01*
G37*
G36*
X112748209Y-83884826D02*
G01*
X112643209Y-84066692D01*
X112461343Y-83961692D01*
X112566343Y-83779826D01*
X112748209Y-83884826D01*
G37*
G36*
X112020747Y-83464826D02*
G01*
X111915747Y-83646692D01*
X111733882Y-83541692D01*
X111838882Y-83359826D01*
X112020747Y-83464826D01*
G37*
G36*
X111657017Y-83254826D02*
G01*
X111552017Y-83436692D01*
X111370151Y-83331692D01*
X111475151Y-83149826D01*
X111657017Y-83254826D01*
G37*
G36*
X111475151Y-83149826D02*
G01*
X111370151Y-83331692D01*
X111188286Y-83226692D01*
X111293286Y-83044826D01*
X111475151Y-83149826D01*
G37*
G36*
X111293286Y-83044826D02*
G01*
X111188286Y-83226692D01*
X111006421Y-83121692D01*
X111111421Y-82939826D01*
X111293286Y-83044826D01*
G37*
G36*
X116280515Y-86166692D02*
G01*
X116175515Y-86348557D01*
X115993650Y-86243557D01*
X116098650Y-86061692D01*
X116280515Y-86166692D01*
G37*
G36*
X115916785Y-85956692D02*
G01*
X115811785Y-86138557D01*
X115629919Y-86033557D01*
X115734919Y-85851692D01*
X115916785Y-85956692D01*
G37*
G36*
X115734919Y-85851692D02*
G01*
X115629919Y-86033557D01*
X115448054Y-85928557D01*
X115553054Y-85746692D01*
X115734919Y-85851692D01*
G37*
G36*
X115553054Y-85746692D02*
G01*
X115448054Y-85928557D01*
X115266189Y-85823557D01*
X115371189Y-85641692D01*
X115553054Y-85746692D01*
G37*
G36*
X115189323Y-85536692D02*
G01*
X115084323Y-85718557D01*
X114902458Y-85613557D01*
X115007458Y-85431692D01*
X115189323Y-85536692D01*
G37*
G36*
X114825593Y-85326692D02*
G01*
X114720593Y-85508557D01*
X114538727Y-85403557D01*
X114643727Y-85221692D01*
X114825593Y-85326692D01*
G37*
G36*
X114643727Y-85221692D02*
G01*
X114538727Y-85403557D01*
X114356862Y-85298557D01*
X114461862Y-85116692D01*
X114643727Y-85221692D01*
G37*
G36*
X114461862Y-85116692D02*
G01*
X114356862Y-85298557D01*
X114174997Y-85193557D01*
X114279997Y-85011692D01*
X114461862Y-85116692D01*
G37*
G36*
X113916266Y-84801692D02*
G01*
X113811266Y-84983557D01*
X113629401Y-84878557D01*
X113734401Y-84696692D01*
X113916266Y-84801692D01*
G37*
G36*
X113734401Y-84696692D02*
G01*
X113629401Y-84878557D01*
X113447535Y-84773557D01*
X113552535Y-84591692D01*
X113734401Y-84696692D01*
G37*
G36*
X113552535Y-84591692D02*
G01*
X113447535Y-84773557D01*
X113265670Y-84668557D01*
X113370670Y-84486692D01*
X113552535Y-84591692D01*
G37*
G36*
X113188805Y-84381692D02*
G01*
X113083805Y-84563557D01*
X112901939Y-84458557D01*
X113006939Y-84276692D01*
X113188805Y-84381692D01*
G37*
G36*
X113006939Y-84276692D02*
G01*
X112901939Y-84458557D01*
X112720074Y-84353557D01*
X112825074Y-84171692D01*
X113006939Y-84276692D01*
G37*
G36*
X112643209Y-84066692D02*
G01*
X112538209Y-84248557D01*
X112356343Y-84143557D01*
X112461343Y-83961692D01*
X112643209Y-84066692D01*
G37*
G36*
X112461343Y-83961692D02*
G01*
X112356343Y-84143557D01*
X112174478Y-84038557D01*
X112279478Y-83856692D01*
X112461343Y-83961692D01*
G37*
G36*
X112279478Y-83856692D02*
G01*
X112174478Y-84038557D01*
X111992613Y-83933557D01*
X112097613Y-83751692D01*
X112279478Y-83856692D01*
G37*
G36*
X112097613Y-83751692D02*
G01*
X111992613Y-83933557D01*
X111810747Y-83828557D01*
X111915747Y-83646692D01*
X112097613Y-83751692D01*
G37*
G36*
X111915747Y-83646692D02*
G01*
X111810747Y-83828557D01*
X111628882Y-83723557D01*
X111733882Y-83541692D01*
X111915747Y-83646692D01*
G37*
G36*
X111552017Y-83436692D02*
G01*
X111447017Y-83618557D01*
X111265151Y-83513557D01*
X111370151Y-83331692D01*
X111552017Y-83436692D01*
G37*
G36*
X111188286Y-83226692D02*
G01*
X111083286Y-83408557D01*
X110901421Y-83303557D01*
X111006421Y-83121692D01*
X111188286Y-83226692D01*
G37*
G36*
X116175515Y-86348557D02*
G01*
X116070515Y-86530422D01*
X115888650Y-86425422D01*
X115993650Y-86243557D01*
X116175515Y-86348557D01*
G37*
G36*
X115811785Y-86138557D02*
G01*
X115706785Y-86320422D01*
X115524919Y-86215422D01*
X115629919Y-86033557D01*
X115811785Y-86138557D01*
G37*
G36*
X115629919Y-86033557D02*
G01*
X115524919Y-86215422D01*
X115343054Y-86110422D01*
X115448054Y-85928557D01*
X115629919Y-86033557D01*
G37*
G36*
X115448054Y-85928557D02*
G01*
X115343054Y-86110422D01*
X115161189Y-86005422D01*
X115266189Y-85823557D01*
X115448054Y-85928557D01*
G37*
G36*
X115084323Y-85718557D02*
G01*
X114979323Y-85900422D01*
X114797458Y-85795422D01*
X114902458Y-85613557D01*
X115084323Y-85718557D01*
G37*
G36*
X114720593Y-85508557D02*
G01*
X114615593Y-85690422D01*
X114433727Y-85585422D01*
X114538727Y-85403557D01*
X114720593Y-85508557D01*
G37*
G36*
X114174997Y-85193557D02*
G01*
X114069997Y-85375422D01*
X113888131Y-85270422D01*
X113993131Y-85088557D01*
X114174997Y-85193557D01*
G37*
G36*
X113629401Y-84878557D02*
G01*
X113524401Y-85060422D01*
X113342535Y-84955422D01*
X113447535Y-84773557D01*
X113629401Y-84878557D01*
G37*
G36*
X113265670Y-84668557D02*
G01*
X113160670Y-84850422D01*
X112978805Y-84745422D01*
X113083805Y-84563557D01*
X113265670Y-84668557D01*
G37*
G36*
X112901939Y-84458557D02*
G01*
X112796939Y-84640422D01*
X112615074Y-84535422D01*
X112720074Y-84353557D01*
X112901939Y-84458557D01*
G37*
G36*
X112356343Y-84143557D02*
G01*
X112251343Y-84325422D01*
X112069478Y-84220422D01*
X112174478Y-84038557D01*
X112356343Y-84143557D01*
G37*
G36*
X112174478Y-84038557D02*
G01*
X112069478Y-84220422D01*
X111887613Y-84115422D01*
X111992613Y-83933557D01*
X112174478Y-84038557D01*
G37*
G36*
X111810747Y-83828557D02*
G01*
X111705747Y-84010422D01*
X111523882Y-83905422D01*
X111628882Y-83723557D01*
X111810747Y-83828557D01*
G37*
G36*
X111628882Y-83723557D02*
G01*
X111523882Y-83905422D01*
X111342017Y-83800422D01*
X111447017Y-83618557D01*
X111628882Y-83723557D01*
G37*
G36*
X111447017Y-83618557D02*
G01*
X111342017Y-83800422D01*
X111160151Y-83695422D01*
X111265151Y-83513557D01*
X111447017Y-83618557D01*
G37*
G36*
X111265151Y-83513557D02*
G01*
X111160151Y-83695422D01*
X110978286Y-83590422D01*
X111083286Y-83408557D01*
X111265151Y-83513557D01*
G37*
G36*
X116070515Y-86530422D02*
G01*
X115965515Y-86712288D01*
X115783650Y-86607288D01*
X115888650Y-86425422D01*
X116070515Y-86530422D01*
G37*
G36*
X115706785Y-86320422D02*
G01*
X115601785Y-86502288D01*
X115419919Y-86397288D01*
X115524919Y-86215422D01*
X115706785Y-86320422D01*
G37*
G36*
X115524919Y-86215422D02*
G01*
X115419919Y-86397288D01*
X115238054Y-86292288D01*
X115343054Y-86110422D01*
X115524919Y-86215422D01*
G37*
G36*
X115343054Y-86110422D02*
G01*
X115238054Y-86292288D01*
X115056189Y-86187288D01*
X115161189Y-86005422D01*
X115343054Y-86110422D01*
G37*
G36*
X114979323Y-85900422D02*
G01*
X114874323Y-86082288D01*
X114692458Y-85977288D01*
X114797458Y-85795422D01*
X114979323Y-85900422D01*
G37*
G36*
X114433727Y-85585422D02*
G01*
X114328727Y-85767288D01*
X114146862Y-85662288D01*
X114251862Y-85480422D01*
X114433727Y-85585422D01*
G37*
G36*
X113524401Y-85060422D02*
G01*
X113419401Y-85242288D01*
X113237535Y-85137288D01*
X113342535Y-84955422D01*
X113524401Y-85060422D01*
G37*
G36*
X113342535Y-84955422D02*
G01*
X113237535Y-85137288D01*
X113055670Y-85032288D01*
X113160670Y-84850422D01*
X113342535Y-84955422D01*
G37*
G36*
X113160670Y-84850422D02*
G01*
X113055670Y-85032288D01*
X112873805Y-84927288D01*
X112978805Y-84745422D01*
X113160670Y-84850422D01*
G37*
G36*
X112978805Y-84745422D02*
G01*
X112873805Y-84927288D01*
X112691939Y-84822288D01*
X112796939Y-84640422D01*
X112978805Y-84745422D01*
G37*
G36*
X112433209Y-84430422D02*
G01*
X112328209Y-84612288D01*
X112146343Y-84507288D01*
X112251343Y-84325422D01*
X112433209Y-84430422D01*
G37*
G36*
X112069478Y-84220422D02*
G01*
X111964478Y-84402288D01*
X111782613Y-84297288D01*
X111887613Y-84115422D01*
X112069478Y-84220422D01*
G37*
G36*
X111523882Y-83905422D02*
G01*
X111418882Y-84087288D01*
X111237017Y-83982288D01*
X111342017Y-83800422D01*
X111523882Y-83905422D01*
G37*
G36*
X111342017Y-83800422D02*
G01*
X111237017Y-83982288D01*
X111055151Y-83877288D01*
X111160151Y-83695422D01*
X111342017Y-83800422D01*
G37*
G36*
X111160151Y-83695422D02*
G01*
X111055151Y-83877288D01*
X110873286Y-83772288D01*
X110978286Y-83590422D01*
X111160151Y-83695422D01*
G37*
G36*
X110978286Y-83590422D02*
G01*
X110873286Y-83772288D01*
X110691421Y-83667288D01*
X110796421Y-83485422D01*
X110978286Y-83590422D01*
G37*
G36*
X115965515Y-86712288D02*
G01*
X115860515Y-86894153D01*
X115678650Y-86789153D01*
X115783650Y-86607288D01*
X115965515Y-86712288D01*
G37*
G36*
X114874323Y-86082288D02*
G01*
X114769323Y-86264153D01*
X114587458Y-86159153D01*
X114692458Y-85977288D01*
X114874323Y-86082288D01*
G37*
G36*
X114328727Y-85767288D02*
G01*
X114223727Y-85949153D01*
X114041862Y-85844153D01*
X114146862Y-85662288D01*
X114328727Y-85767288D01*
G37*
G36*
X113601266Y-85347288D02*
G01*
X113496266Y-85529153D01*
X113314401Y-85424153D01*
X113419401Y-85242288D01*
X113601266Y-85347288D01*
G37*
G36*
X112873805Y-84927288D02*
G01*
X112768805Y-85109153D01*
X112586939Y-85004153D01*
X112691939Y-84822288D01*
X112873805Y-84927288D01*
G37*
G36*
X112328209Y-84612288D02*
G01*
X112223209Y-84794153D01*
X112041343Y-84689153D01*
X112146343Y-84507288D01*
X112328209Y-84612288D01*
G37*
G36*
X111782613Y-84297288D02*
G01*
X111677613Y-84479153D01*
X111495747Y-84374153D01*
X111600747Y-84192288D01*
X111782613Y-84297288D01*
G37*
G36*
X111600747Y-84192288D02*
G01*
X111495747Y-84374153D01*
X111313882Y-84269153D01*
X111418882Y-84087288D01*
X111600747Y-84192288D01*
G37*
G36*
X111237017Y-83982288D02*
G01*
X111132017Y-84164153D01*
X110950151Y-84059153D01*
X111055151Y-83877288D01*
X111237017Y-83982288D01*
G37*
G36*
X115860515Y-86894153D02*
G01*
X115755515Y-87076018D01*
X115573650Y-86971018D01*
X115678650Y-86789153D01*
X115860515Y-86894153D01*
G37*
G36*
X115678650Y-86789153D02*
G01*
X115573650Y-86971018D01*
X115391785Y-86866018D01*
X115496785Y-86684153D01*
X115678650Y-86789153D01*
G37*
G36*
X115496785Y-86684153D02*
G01*
X115391785Y-86866018D01*
X115209919Y-86761018D01*
X115314919Y-86579153D01*
X115496785Y-86684153D01*
G37*
G36*
X115314919Y-86579153D02*
G01*
X115209919Y-86761018D01*
X115028054Y-86656018D01*
X115133054Y-86474153D01*
X115314919Y-86579153D01*
G37*
G36*
X115133054Y-86474153D02*
G01*
X115028054Y-86656018D01*
X114846189Y-86551018D01*
X114951189Y-86369153D01*
X115133054Y-86474153D01*
G37*
G36*
X114951189Y-86369153D02*
G01*
X114846189Y-86551018D01*
X114664323Y-86446018D01*
X114769323Y-86264153D01*
X114951189Y-86369153D01*
G37*
G36*
X114769323Y-86264153D02*
G01*
X114664323Y-86446018D01*
X114482458Y-86341018D01*
X114587458Y-86159153D01*
X114769323Y-86264153D01*
G37*
G36*
X113678131Y-85634153D02*
G01*
X113573131Y-85816018D01*
X113391266Y-85711018D01*
X113496266Y-85529153D01*
X113678131Y-85634153D01*
G37*
G36*
X113496266Y-85529153D02*
G01*
X113391266Y-85711018D01*
X113209401Y-85606018D01*
X113314401Y-85424153D01*
X113496266Y-85529153D01*
G37*
G36*
X113132535Y-85319153D02*
G01*
X113027535Y-85501018D01*
X112845670Y-85396018D01*
X112950670Y-85214153D01*
X113132535Y-85319153D01*
G37*
G36*
X112768805Y-85109153D02*
G01*
X112663805Y-85291018D01*
X112481939Y-85186018D01*
X112586939Y-85004153D01*
X112768805Y-85109153D01*
G37*
G36*
X112586939Y-85004153D02*
G01*
X112481939Y-85186018D01*
X112300074Y-85081018D01*
X112405074Y-84899153D01*
X112586939Y-85004153D01*
G37*
G36*
X112223209Y-84794153D02*
G01*
X112118209Y-84976018D01*
X111936343Y-84871018D01*
X112041343Y-84689153D01*
X112223209Y-84794153D01*
G37*
G36*
X111677613Y-84479153D02*
G01*
X111572613Y-84661018D01*
X111390747Y-84556018D01*
X111495747Y-84374153D01*
X111677613Y-84479153D01*
G37*
G36*
X111313882Y-84269153D02*
G01*
X111208882Y-84451018D01*
X111027017Y-84346018D01*
X111132017Y-84164153D01*
X111313882Y-84269153D01*
G37*
G36*
X110950151Y-84059153D02*
G01*
X110845151Y-84241018D01*
X110663286Y-84136018D01*
X110768286Y-83954153D01*
X110950151Y-84059153D01*
G37*
%LPC*%
G36*
G01*
X137296728Y-97965544D02*
X138335958Y-98565544D01*
G75*
G02*
X138647080Y-99726666I-425000J-736122D01*
G01*
X138647080Y-99726666D01*
G75*
G02*
X137485958Y-100037788I-736122J425000D01*
G01*
X136446728Y-99437788D01*
G75*
G02*
X136135606Y-98276666I425000J736122D01*
G01*
X136135606Y-98276666D01*
G75*
G02*
X137296728Y-97965544I736122J-425000D01*
G01*
G37*
G36*
G01*
X135396856Y-95656218D02*
X136096856Y-94443782D01*
G75*
G02*
X137257978Y-94132660I736122J-425000D01*
G01*
X137257978Y-94132660D01*
G75*
G02*
X137569100Y-95293782I-425000J-736122D01*
G01*
X136869100Y-96506218D01*
G75*
G02*
X135707978Y-96817340I-736122J425000D01*
G01*
X135707978Y-96817340D01*
G75*
G02*
X135396856Y-95656218I425000J736122D01*
G01*
G37*
G36*
G01*
X139813586Y-98206218D02*
X140513586Y-96993782D01*
G75*
G02*
X141674708Y-96682660I736122J-425000D01*
G01*
X141674708Y-96682660D01*
G75*
G02*
X141985830Y-97843782I-425000J-736122D01*
G01*
X141285830Y-99056218D01*
G75*
G02*
X140124708Y-99367340I-736122J425000D01*
G01*
X140124708Y-99367340D01*
G75*
G02*
X139813586Y-98206218I425000J736122D01*
G01*
G37*
G36*
G01*
X139896728Y-93462212D02*
X140935958Y-94062212D01*
G75*
G02*
X141247080Y-95223334I-425000J-736122D01*
G01*
X141247080Y-95223334D01*
G75*
G02*
X140085958Y-95534456I-736122J425000D01*
G01*
X139046728Y-94934456D01*
G75*
G02*
X138735606Y-93773334I425000J736122D01*
G01*
X138735606Y-93773334D01*
G75*
G02*
X139896728Y-93462212I736122J-425000D01*
G01*
G37*
G36*
G01*
X114953272Y-94934456D02*
X113914042Y-95534456D01*
G75*
G02*
X112752920Y-95223334I-425000J736122D01*
G01*
X112752920Y-95223334D01*
G75*
G02*
X113064042Y-94062212I736122J425000D01*
G01*
X114103272Y-93462212D01*
G75*
G02*
X115264394Y-93773334I425000J-736122D01*
G01*
X115264394Y-93773334D01*
G75*
G02*
X114953272Y-94934456I-736122J-425000D01*
G01*
G37*
G36*
G01*
X117903144Y-94443782D02*
X118603144Y-95656218D01*
G75*
G02*
X118292022Y-96817340I-736122J-425000D01*
G01*
X118292022Y-96817340D01*
G75*
G02*
X117130900Y-96506218I-425000J736122D01*
G01*
X116430900Y-95293782D01*
G75*
G02*
X116742022Y-94132660I736122J425000D01*
G01*
X116742022Y-94132660D01*
G75*
G02*
X117903144Y-94443782I425000J-736122D01*
G01*
G37*
G36*
G01*
X113486414Y-96993782D02*
X114186414Y-98206218D01*
G75*
G02*
X113875292Y-99367340I-736122J-425000D01*
G01*
X113875292Y-99367340D01*
G75*
G02*
X112714170Y-99056218I-425000J736122D01*
G01*
X112014170Y-97843782D01*
G75*
G02*
X112325292Y-96682660I736122J425000D01*
G01*
X112325292Y-96682660D01*
G75*
G02*
X113486414Y-96993782I425000J-736122D01*
G01*
G37*
G36*
G01*
X117553272Y-99437788D02*
X116514042Y-100037788D01*
G75*
G02*
X115352920Y-99726666I-425000J736122D01*
G01*
X115352920Y-99726666D01*
G75*
G02*
X115664042Y-98565544I736122J425000D01*
G01*
X116703272Y-97965544D01*
G75*
G02*
X117864394Y-98276666I425000J-736122D01*
G01*
X117864394Y-98276666D01*
G75*
G02*
X117553272Y-99437788I-736122J-425000D01*
G01*
G37*
D15*
X129500000Y-75300000D03*
D16*
X124500000Y-75300000D03*
D17*
X118700000Y-76100000D03*
X135300000Y-76100000D03*
X143240381Y-91870835D03*
D18*
X133384421Y-96341858D03*
D17*
X136740381Y-103129165D03*
D18*
X135684421Y-92358142D03*
%LPD*%
M02*
